<svg xmlns="http://www.w3.org/2000/svg" width="69.422" height="82.179" viewBox="0 0 69.422 82.179">
  <g id="Group_21" data-name="Group 21" transform="translate(-289.802 -141.595)">
    <path id="Path_1" data-name="Path 1" d="M323.847,223.575A51.051,51.051,0,0,1,295.6,201.406c-7.622-12.978-5.571-48.035-5.48-49.522l.1-1.7,34.29-8.59,34.289,8.59.1,1.7c.091,1.487,2.142,36.543-5.48,49.523a51.056,51.056,0,0,1-28.248,22.168l-.665.2Zm-29.181-69.711-.032.746c-.146,3.433-1.251,33.842,4.974,44.442,7.775,13.243,20.783,18.468,24.586,19.754l.32.108.32-.108c3.8-1.286,16.812-6.511,24.585-19.752,6.225-10.6,5.12-41.011,4.974-44.444l-.032-.746-29.847-7.477Z" fill="#c07500"/>
    <g id="Group_1" data-name="Group 1">
      <path id="Path_3" data-name="Path 3" d="M319.894,184.589l-10.172,16.352,2.386,9.221,11.83-19.033Z" fill="#c07500"/>
      <path id="Path_4" data-name="Path 4" d="M333.391,156.215a9.365,9.365,0,0,1-.92,7.927l-7.309,11.789,4.043,6.54,6.273-10.112a12.885,12.885,0,0,0-2.087-16.144Z" fill="#c07500"/>
      <path id="Path_5" data-name="Path 5" d="M313.548,172.357l23.371,37.805,2.386-9.221-22.751-36.8a9.366,9.366,0,0,1-.918-7.924,12.888,12.888,0,0,0-2.088,16.142Z" fill="#c07500"/>
      <path id="Path_6" data-name="Path 6" d="M317.976,159.2a6.519,6.519,0,0,0,.084,1.038c.059-.121.121-.242.188-.362a7.173,7.173,0,0,1,12.531,0c.067.12.129.241.189.362a6.635,6.635,0,0,0,.083-1.038,6.537,6.537,0,0,0-13.075,0Z" fill="#c07500"/>
    </g>
  </g>
</svg>
