<svg xmlns="http://www.w3.org/2000/svg" width="69.422" height="82.179" viewBox="0 0 69.422 82.179">
  <g id="Group_23" data-name="Group 23" transform="translate(-721.425 -141.595)">
    <path id="Path_9" data-name="Path 9" d="M755.47,223.575a51.051,51.051,0,0,1-28.247-22.169c-7.622-12.978-5.571-48.035-5.48-49.522l.1-1.7,34.29-8.59,34.289,8.59.1,1.7c.091,1.487,2.142,36.543-5.48,49.523A51.055,51.055,0,0,1,756.8,223.575l-.665.2Zm-29.181-69.711-.032.746c-.146,3.433-1.251,33.842,4.974,44.442,7.774,13.243,20.783,18.468,24.585,19.754l.321.108.32-.108c3.8-1.286,16.812-6.511,24.585-19.752,6.225-10.6,5.12-41.011,4.974-44.444l-.032-.746-29.847-7.477Z" fill="#c07500"/>
    <path id="Path_12" data-name="Path 12" d="M766.155,162.323a12.17,12.17,0,0,0-10.006,5.194,12.229,12.229,0,0,0-20.859,12.665h-2.907a1.434,1.434,0,0,0,0,2.869h4.98L755.136,200.8a1.435,1.435,0,0,0,2.027,0l17.684-17.653h5.043a1.435,1.435,0,0,0,0-2.869h-2.93a12.232,12.232,0,0,0-10.8-17.952Zm-10.006,35.431-14.729-14.7h5.817a1.433,1.433,0,0,0,1.359-.976l1.719-5.1,4.5,11.385a1.435,1.435,0,0,0,2.638.073l4.606-10,1.689,3.858a1.435,1.435,0,0,0,1.314.859h5.723Zm17.4-17.479H766l-2.594-5.926a1.435,1.435,0,0,0-2.618-.024l-4.538,9.856-4.708-11.912c-.621-1.467-2.056-1.5-2.694.07l-2.642,7.843h-7.53a9.353,9.353,0,0,1,7.468-14.989,9.574,9.574,0,0,1,8.675,5.852c.629,1.383,1.936,1.575,2.66,0a9.6,9.6,0,0,1,8.676-5.852,9.353,9.353,0,0,1,7.4,15.082Z" fill="#c07500"/>
  </g>
</svg>
