<svg xmlns="http://www.w3.org/2000/svg" xmlns:xlink="http://www.w3.org/1999/xlink" viewBox="0 0 42.57 38.83"><defs><style>.cls-1{fill:url(#New_Gradient_Swatch_4);}.cls-2{fill:url(#New_Gradient_Swatch_4-2);}.cls-3{fill:url(#New_Gradient_Swatch_4-3);}.cls-4{fill:url(#New_Gradient_Swatch_4-4);}.cls-5{fill:url(#New_Gradient_Swatch_4-5);}.cls-6{fill:url(#New_Gradient_Swatch_4-6);}.cls-7{fill:url(#New_Gradient_Swatch_4-7);}.cls-8{fill:url(#New_Gradient_Swatch_4-8);}.cls-9{fill:url(#New_Gradient_Swatch_4-9);}.cls-10{fill:url(#New_Gradient_Swatch_4-10);}.cls-11{fill:url(#New_Gradient_Swatch_4-11);}.cls-12{fill:url(#New_Gradient_Swatch_4-12);}.cls-13{fill:url(#New_Gradient_Swatch_4-13);}.cls-14{fill:url(#New_Gradient_Swatch_4-14);}.cls-15{fill:url(#New_Gradient_Swatch_4-15);}.cls-16{fill:url(#New_Gradient_Swatch_4-16);}</style><linearGradient id="New_Gradient_Swatch_4" x1="46.19" y1="2.8" x2="-9.38" y2="47.48" gradientUnits="userSpaceOnUse"><stop offset="0" stop-color="#d2aa3e"/><stop offset="0.03" stop-color="#d2aa3e"/><stop offset="0.04" stop-color="#d4ac41"/><stop offset="0.06" stop-color="#e2bb5d"/><stop offset="0.08" stop-color="#e7c167"/><stop offset="0.17" stop-color="#d6b053"/><stop offset="0.25" stop-color="#c9a444"/><stop offset="0.31" stop-color="#cfac4c"/><stop offset="0.4" stop-color="#dec162"/><stop offset="0.44" stop-color="#e7cd6e"/><stop offset="0.58" stop-color="#f0e781"/><stop offset="0.63" stop-color="#f0e781"/><stop offset="0.7" stop-color="#e8d571"/><stop offset="0.77" stop-color="#e1c361"/><stop offset="0.81" stop-color="#d9b958"/><stop offset="0.85" stop-color="#d3b251"/><stop offset="1" stop-color="#a6802d"/></linearGradient><linearGradient id="New_Gradient_Swatch_4-2" x1="38.33" y1="-6.98" x2="-17.25" y2="37.7" xlink:href="#New_Gradient_Swatch_4"/><linearGradient id="New_Gradient_Swatch_4-3" x1="47.65" y1="4.62" x2="-7.92" y2="49.3" xlink:href="#New_Gradient_Swatch_4"/><linearGradient id="New_Gradient_Swatch_4-4" x1="43.35" y1="-0.73" x2="-12.23" y2="43.95" xlink:href="#New_Gradient_Swatch_4"/><linearGradient id="New_Gradient_Swatch_4-5" x1="39.59" y1="-5.41" x2="-15.99" y2="39.27" xlink:href="#New_Gradient_Swatch_4"/><linearGradient id="New_Gradient_Swatch_4-6" x1="40.36" y1="-4.45" x2="-15.22" y2="40.23" xlink:href="#New_Gradient_Swatch_4"/><linearGradient id="New_Gradient_Swatch_4-7" x1="43.27" y1="-0.84" x2="-12.31" y2="43.84" xlink:href="#New_Gradient_Swatch_4"/><linearGradient id="New_Gradient_Swatch_4-8" x1="45.97" y1="2.52" x2="-9.61" y2="47.2" xlink:href="#New_Gradient_Swatch_4"/><linearGradient id="New_Gradient_Swatch_4-9" x1="41.32" y1="-3.26" x2="-14.26" y2="41.42" xlink:href="#New_Gradient_Swatch_4"/><linearGradient id="New_Gradient_Swatch_4-10" x1="43.27" y1="-0.84" x2="-12.31" y2="43.84" xlink:href="#New_Gradient_Swatch_4"/><linearGradient id="New_Gradient_Swatch_4-11" x1="41.58" y1="-2.94" x2="-14" y2="41.74" xlink:href="#New_Gradient_Swatch_4"/><linearGradient id="New_Gradient_Swatch_4-12" x1="42.64" y1="-1.62" x2="-12.94" y2="43.06" xlink:href="#New_Gradient_Swatch_4"/><linearGradient id="New_Gradient_Swatch_4-13" x1="44.05" y1="0.14" x2="-11.52" y2="44.82" xlink:href="#New_Gradient_Swatch_4"/><linearGradient id="New_Gradient_Swatch_4-14" x1="43.24" y1="-0.87" x2="-12.33" y2="43.81" xlink:href="#New_Gradient_Swatch_4"/><linearGradient id="New_Gradient_Swatch_4-15" x1="45.19" y1="1.56" x2="-10.39" y2="46.24" xlink:href="#New_Gradient_Swatch_4"/><linearGradient id="New_Gradient_Swatch_4-16" x1="42.99" y1="-1.18" x2="-12.59" y2="43.5" xlink:href="#New_Gradient_Swatch_4"/></defs><title>Asset 5</title><g id="Layer_2" data-name="Layer 2"><g id="Layer_2-2" data-name="Layer 2"><path class="cls-1" d="M41.45,11.37a5.18,5.18,0,0,1,1.12,3.43,5.71,5.71,0,0,1-1.42,3.94,6.18,6.18,0,0,1-3.93,2v2.42H35.35V20.77a6.06,6.06,0,0,1-3.64-1.67,6.89,6.89,0,0,1-1.78-3.94l3.37-.36a4.3,4.3,0,0,0,.78,1.78,3.58,3.58,0,0,0,1.27,1.09V12.25a7.11,7.11,0,0,1-3.72-2.19A5.48,5.48,0,0,1,30.45,6.5a5,5,0,0,1,1.34-3.56,5.39,5.39,0,0,1,3.56-1.66V0h1.87V1.28a5.53,5.53,0,0,1,3.27,1.4A5.37,5.37,0,0,1,42,5.78l-3.27.42a2.67,2.67,0,0,0-1.55-2.07V9.19A8.29,8.29,0,0,1,41.45,11.37ZM35.35,4.1A2.42,2.42,0,0,0,34.13,5a2.29,2.29,0,0,0-.45,1.37,2.21,2.21,0,0,0,.41,1.28,2.92,2.92,0,0,0,1.26,1Zm4,11.16a2.28,2.28,0,0,0-.51-1.49,3.19,3.19,0,0,0-1.67-1v5A2.68,2.68,0,0,0,38.8,17,2.55,2.55,0,0,0,39.4,15.26Zm-.29,6.51-2.55,4.47.95-.28a15,15,0,0,1-19.77,9.9A1,1,0,1,0,17,37.73a16.89,16.89,0,0,0,6,1.1A17.11,17.11,0,0,0,39.53,26.14l1,.58Zm-28-9.19A15.08,15.08,0,0,1,28.23,7.63a1,1,0,0,0,.69-1.88A17.1,17.1,0,0,0,9.35,11.62l-.69-.87-.54,5.11,4-3.18Z"/><path class="cls-2" d="M4.35,20.73H5.8V19.28H3.62A.73.73,0,0,0,2.9,20v2.17H4.35Z"/><path class="cls-3" d="M14.5,30.88H13.05v1.45h2.17A.73.73,0,0,0,16,31.6V29.43H14.5Z"/><path class="cls-4" d="M15.22,19.28H10.15v1.45H14.5V28H16V20A.73.73,0,0,0,15.22,19.28Z"/><rect class="cls-5" x="7.25" y="19.28" width="1.45" height="1.45"/><rect class="cls-6" x="2.9" y="23.63" width="1.45" height="2.9"/><path class="cls-7" d="M4.35,28H2.9V31.6a.73.73,0,0,0,.72.73h2.9V30.88H4.35Z"/><rect class="cls-8" x="7.97" y="30.88" width="3.62" height="1.45"/><rect class="cls-9" x="5.8" y="22.18" width="1.45" height="5.07"/><rect class="cls-10" x="5.8" y="27.98" width="1.45" height="1.45"/><rect class="cls-11" x="8.7" y="22.18" width="1.45" height="1.45"/><rect class="cls-12" x="8.7" y="24.35" width="1.45" height="1.45"/><rect class="cls-13" x="8.7" y="26.53" width="1.45" height="2.9"/><rect class="cls-14" x="11.6" y="22.18" width="1.45" height="3.62"/><rect class="cls-15" x="11.6" y="26.53" width="1.45" height="2.9"/><path class="cls-16" d="M16.67,16.38H2.17A2.17,2.17,0,0,0,0,18.56V33.05a2.18,2.18,0,0,0,2.17,2.18h14.5a2.19,2.19,0,0,0,2.18-2.18V18.56A2.18,2.18,0,0,0,16.67,16.38Zm.73,16.67a.73.73,0,0,1-.73.73H2.17a.73.73,0,0,1-.72-.73V18.56a.73.73,0,0,1,.72-.73h14.5a.73.73,0,0,1,.73.73Z"/></g></g></svg>