<svg id="Layer_2" data-name="Layer 2" xmlns="http://www.w3.org/2000/svg" xmlns:xlink="http://www.w3.org/1999/xlink" width="32.56" height="34.67" viewBox="0 0 32.56 34.67">
  <defs>
    <linearGradient id="linear-gradient" x1="-0.037" y1="0.883" x2="1.007" y2="-0.097" gradientUnits="objectBoundingBox">
      <stop offset="0" stop-color="#d2aa3e"/>
      <stop offset="0.03" stop-color="#d2aa3e"/>
      <stop offset="0.04" stop-color="#d4ac41"/>
      <stop offset="0.06" stop-color="#e2bb5d"/>
      <stop offset="0.08" stop-color="#e7c167"/>
      <stop offset="0.17" stop-color="#d6b053"/>
      <stop offset="0.25" stop-color="#c9a444"/>
      <stop offset="0.31" stop-color="#cfac4c"/>
      <stop offset="0.4" stop-color="#dec162"/>
      <stop offset="0.44" stop-color="#e7cd6e"/>
      <stop offset="0.58" stop-color="#f0e781"/>
      <stop offset="0.63" stop-color="#f0e781"/>
      <stop offset="0.7" stop-color="#e8d571"/>
      <stop offset="0.77" stop-color="#e1c361"/>
      <stop offset="0.81" stop-color="#d9b958"/>
      <stop offset="0.85" stop-color="#d3b251"/>
      <stop offset="1" stop-color="#a6802d"/>
    </linearGradient>
  </defs>
  <g id="Layer_2-2" data-name="Layer 2">
    <path id="Path_36" data-name="Path 36" d="M8.88,16.89a8.79,8.79,0,0,0-5.48,1.9,8.07,8.07,0,0,0-1,.93,8.84,8.84,0,0,0-1.22,1.64A9,9,0,0,0,0,25.78a8.89,8.89,0,1,0,8.88-8.89ZM8.88,33A7.2,7.2,0,0,1,3.62,20.86a7.29,7.29,0,0,1,.82-.75,7.09,7.09,0,0,1,4.44-1.54A7.215,7.215,0,0,1,8.88,33Zm2.94-5.3a2.78,2.78,0,0,1-2.26,2.79.84.84,0,0,1-1.67,0,3.07,3.07,0,0,1-2.08-3,.84.84,0,1,1,1.68,0c0,.76.5,1.42,1.06,1.42a2.27,2.27,0,0,0,1.08-.27,1,1,0,0,0,.51-1c0-.78-1-1.23-1.25-1.25C8,26.43,6,25.78,6,23.86a2.8,2.8,0,0,1,1.91-2.73v-.05a.84.84,0,0,1,1.67,0,2.94,2.94,0,0,1,1.27.76,2.16,2.16,0,0,1,.61,1.75.84.84,0,0,1-1.68,0c0-.46,0-.47-.12-.57a1.12,1.12,0,0,0-.74-.37A1.25,1.25,0,0,0,7.67,23.9c0,.79,1.24.9,1.25.9a3.14,3.14,0,0,1,2.9,2.88Zm-8.2-9.82H0V14.24H1.81V11.42H5.43V15H3.62ZM16.28,3.62V7H12.66V3.37h1.81V0h3.62V3.62Zm5.43,8.81V10.86H32.56V0H21.71V7H16.28v3.62h1.81v9.05h3.62V17.86h3.62V16.05h7.23V12.43H25.33v1.81H21.71Zm3.62-8.81H29V7.24H25.33ZM10.85,0H0V10.86H10.85ZM7.24,7.24H3.62V3.62H7.24Zm18.09,13,7.23,6-7.23,6V29.89H19.91V22.65h5.42Z" fill="url(#linear-gradient)"/>
  </g>
</svg>
