<svg id="Layer_2" data-name="Layer 2" xmlns="http://www.w3.org/2000/svg" xmlns:xlink="http://www.w3.org/1999/xlink" width="44.79" height="46.64" viewBox="0 0 44.79 46.64">
  <defs>
    <linearGradient id="linear-gradient" x1="2.64" y1="-3.761" x2="-1.37" y2="4.254" gradientUnits="objectBoundingBox">
      <stop offset="0" stop-color="#d2aa3e"/>
      <stop offset="0.03" stop-color="#d2aa3e"/>
      <stop offset="0.04" stop-color="#d4ac41"/>
      <stop offset="0.06" stop-color="#e2bb5d"/>
      <stop offset="0.08" stop-color="#e7c167"/>
      <stop offset="0.17" stop-color="#d6b053"/>
      <stop offset="0.25" stop-color="#c9a444"/>
      <stop offset="0.31" stop-color="#cfac4c"/>
      <stop offset="0.4" stop-color="#dec162"/>
      <stop offset="0.44" stop-color="#e7cd6e"/>
      <stop offset="0.58" stop-color="#f0e781"/>
      <stop offset="0.63" stop-color="#f0e781"/>
      <stop offset="0.7" stop-color="#e8d571"/>
      <stop offset="0.77" stop-color="#e1c361"/>
      <stop offset="0.81" stop-color="#d9b958"/>
      <stop offset="0.85" stop-color="#d3b251"/>
      <stop offset="1" stop-color="#a6802d"/>
    </linearGradient>
    <linearGradient id="linear-gradient-2" x1="8.539" y1="-7.539" x2="-7.492" y2="8.492" xlink:href="#linear-gradient"/>
    <linearGradient id="linear-gradient-3" x1="6.49" y1="-3.999" x2="-4.197" y2="4.028" xlink:href="#linear-gradient"/>
    <linearGradient id="linear-gradient-4" x1="1.572" y1="-0.655" x2="-1.992" y2="3.426" xlink:href="#linear-gradient"/>
    <linearGradient id="linear-gradient-5" x1="4.12" y1="-2.312" x2="-6.567" y2="5.99" xlink:href="#linear-gradient"/>
    <linearGradient id="linear-gradient-6" x1="1.949" y1="-2.645" x2="-2.062" y2="5.37" xlink:href="#linear-gradient"/>
    <linearGradient id="linear-gradient-7" x1="2.855" y1="-1.856" x2="-2.484" y2="3.483" xlink:href="#linear-gradient"/>
    <linearGradient id="linear-gradient-8" x1="3.937" y1="-2.94" x2="-1.402" y2="2.403" xlink:href="#linear-gradient"/>
    <linearGradient id="linear-gradient-9" x1="2.943" y1="-1.94" x2="-2.406" y2="3.403" xlink:href="#linear-gradient"/>
    <linearGradient id="linear-gradient-10" x1="4.52" y1="-3.832" x2="-4.946" y2="5.635" xlink:href="#linear-gradient"/>
    <linearGradient id="linear-gradient-11" x1="1.522" y1="-0.522" x2="-7.945" y2="8.945" xlink:href="#linear-gradient"/>
    <linearGradient id="linear-gradient-12" x1="7.98" y1="-6.98" x2="-1.486" y2="2.486" xlink:href="#linear-gradient"/>
    <linearGradient id="linear-gradient-13" x1="4.982" y1="-3.672" x2="-4.485" y2="5.796" xlink:href="#linear-gradient"/>
  </defs>
  <g id="Layer_2-2" data-name="Layer 2">
    <path id="Path_24" data-name="Path 24" d="M20.6,27.61V20.37H13.37v1.81H9.75V20.61H6.13v3.62H9.75V25.8h3.62V23.99h3.61v3.62Z" fill="url(#linear-gradient)"/>
    <rect id="Rectangle_11" data-name="Rectangle 11" width="3.62" height="3.62" transform="translate(20.6 27.61)" fill="url(#linear-gradient-2)"/>
    <path id="Path_25" data-name="Path 25" d="M22.41,37.17H20.6v3.61h3.62V37.17h1.81V33.55H22.41Z" fill="url(#linear-gradient-3)"/>
    <path id="Path_26" data-name="Path 26" d="M24.22,16.74h0v3.61h3.62V17H38.69V6.13H27.84v7H22.41v3.62Zm7.24-7h3.62v3.62H31.46Z" fill="url(#linear-gradient-4)"/>
    <path id="Path_27" data-name="Path 27" d="M22.41,9.75h1.81V6.13H20.6V9.5H18.79v3.62h3.62Z" fill="url(#linear-gradient-5)"/>
    <path id="Path_28" data-name="Path 28" d="M27.84,25.8h3.62V23.99h7.23V20.37H31.46v1.81H27.84V20.37H24.22v7.24h3.62Z" fill="url(#linear-gradient-6)"/>
    <path id="Path_29" data-name="Path 29" d="M6.13,17H17V6.13H6.13ZM9.75,9.75h3.62v3.62H9.75Z" fill="url(#linear-gradient-7)"/>
    <path id="Path_30" data-name="Path 30" d="M6.13,40.51H17V29.65H6.13Zm3.62-7.24h3.62v3.62H9.75Z" fill="url(#linear-gradient-8)"/>
    <path id="Path_31" data-name="Path 31" d="M38.69,29.65H27.84V40.51H38.69Zm-3.61,7.24H31.46V33.27h3.62Z" fill="url(#linear-gradient-9)"/>
    <path id="Path_32" data-name="Path 32" d="M2.31,2.31H6.13V0H0V6.13H2.31Z" fill="url(#linear-gradient-10)"/>
    <path id="Path_33" data-name="Path 33" d="M42.48,0H38.66V2.31h3.82V6.13h2.31V0Z" fill="url(#linear-gradient-11)"/>
    <path id="Path_34" data-name="Path 34" d="M2.31,40.51H0v6.13H6.13V44.33H2.31Z" fill="url(#linear-gradient-12)"/>
    <path id="Path_35" data-name="Path 35" d="M42.48,44.33H38.66v2.31h6.13V40.51H42.48Z" fill="url(#linear-gradient-13)"/>
  </g>
</svg>
