<svg xmlns="http://www.w3.org/2000/svg" xmlns:xlink="http://www.w3.org/1999/xlink" width="39.334" height="39.333" viewBox="0 0 39.334 39.333">
  <defs>
    <linearGradient id="linear-gradient" x1="-0.039" y1="0.924" x2="0.81" y2="0.076" gradientUnits="objectBoundingBox">
      <stop offset="0" stop-color="#d39d2c"/>
      <stop offset="0.032" stop-color="#d39d2c"/>
      <stop offset="0.063" stop-color="#e5af46"/>
      <stop offset="0.082" stop-color="#ecb751"/>
      <stop offset="0.175" stop-color="#d5a23d"/>
      <stop offset="0.254" stop-color="#c79530"/>
      <stop offset="0.305" stop-color="#cd9c36"/>
      <stop offset="0.383" stop-color="#ddb248"/>
      <stop offset="0.435" stop-color="#ecc557"/>
      <stop offset="0.582" stop-color="#fae56e"/>
      <stop offset="0.635" stop-color="#fae56e"/>
      <stop offset="0.706" stop-color="#eecb58"/>
      <stop offset="0.769" stop-color="#e6ba4a"/>
      <stop offset="0.812" stop-color="#d9ac40"/>
      <stop offset="0.853" stop-color="#d3a53b"/>
      <stop offset="1" stop-color="#9e6e1f"/>
    </linearGradient>
  </defs>
  <path id="Path_2118" data-name="Path 2118" d="M658.96,1464.8H660.6v1.639H658.96Zm-4.917,32.778h-4.916v1.639h4.916Zm-9.833-26.222h1.639v-1.639H643.39a.819.819,0,0,0-.819.819v2.459h1.639Zm0,19.666h-1.639v2.459a.819.819,0,0,0,.819.819h2.459v-1.639H644.21Zm34.417-17.208V1490.2a2.458,2.458,0,0,1-2.459,2.458H663.877v6.556a2.459,2.459,0,0,1-2.459,2.458H641.752a2.459,2.459,0,0,1-2.459-2.458V1464.8a2.458,2.458,0,0,1,2.459-2.458h19.666a2.458,2.458,0,0,1,2.459,2.458v6.556h12.291A2.458,2.458,0,0,1,678.627,1473.811Zm-37.7-6.556h21.306V1464.8a.82.82,0,0,0-.82-.819H641.752a.82.82,0,0,0-.82.819Zm21.306,29.5H640.932v2.459a.82.82,0,0,0,.82.819h19.666a.82.82,0,0,0,.82-.819Zm0-4.1h-2.459a2.458,2.458,0,0,1-2.458-2.458v-16.389a2.458,2.458,0,0,1,2.458-2.458h2.459v-2.459H640.932v26.223h21.306Zm14.75-18.847a.819.819,0,0,0-.82-.819H659.779a.819.819,0,0,0-.819.819V1490.2a.819.819,0,0,0,.819.819h16.389a.82.82,0,0,0,.82-.819Zm-14.75,2.458h1.639v-1.639h-2.459a.82.82,0,0,0-.819.82v2.458h1.639Zm11.472,11.473h-1.639v1.638h2.458a.819.819,0,0,0,.82-.819V1486.1H673.71Zm.819-13.112h-5.736v1.639h4.917v8.195h1.639v-9.014A.82.82,0,0,0,674.529,1474.63Zm-7.375,0h-1.639v1.639h1.639Zm-4.916,4.917H660.6v3.278h1.639Zm0,4.917H660.6v4.1a.819.819,0,0,0,.819.819H664.7v-1.638h-2.458Zm4.1,4.916h4.1v-1.638h-4.1Zm-2.458-5.736h1.638v-5.736h-1.638Zm0,2.459h1.638v-1.639h-1.638Zm4.916-8.2h-1.639v1.639h1.639Zm0,2.459h-1.639v1.638h1.639Zm-1.639,5.736h1.639v-3.278h-1.639Zm4.917-8.2h-1.639v4.1h1.639Zm-1.639,8.2h1.639v-3.278h-1.639Zm-26.222-9.014h-1.639v9.833h1.639v-9.833Zm1.639,9.833h1.639v-9.833h-1.639Zm3.278,0h1.638v-9.833h-1.638Zm3.277,0h1.639v-9.833H652.4Z" transform="translate(-639.293 -1462.339)" fill="url(#linear-gradient)"/>
</svg>
