<svg id="Layer_2" data-name="Layer 2" xmlns="http://www.w3.org/2000/svg" xmlns:xlink="http://www.w3.org/1999/xlink" width="40.33" height="42.71" viewBox="0 0 40.33 42.71">
  <defs>
    <linearGradient id="linear-gradient" x1="12.215" y1="-9.055" x2="-6.948" y2="6.351" gradientUnits="objectBoundingBox">
      <stop offset="0" stop-color="#d2aa3e"/>
      <stop offset="0.03" stop-color="#d2aa3e"/>
      <stop offset="0.04" stop-color="#d4ac41"/>
      <stop offset="0.06" stop-color="#e2bb5d"/>
      <stop offset="0.08" stop-color="#e7c167"/>
      <stop offset="0.17" stop-color="#d6b053"/>
      <stop offset="0.25" stop-color="#c9a444"/>
      <stop offset="0.31" stop-color="#cfac4c"/>
      <stop offset="0.4" stop-color="#dec162"/>
      <stop offset="0.44" stop-color="#e7cd6e"/>
      <stop offset="0.58" stop-color="#f0e781"/>
      <stop offset="0.63" stop-color="#f0e781"/>
      <stop offset="0.7" stop-color="#e8d571"/>
      <stop offset="0.77" stop-color="#e1c361"/>
      <stop offset="0.81" stop-color="#d9b958"/>
      <stop offset="0.85" stop-color="#d3b251"/>
      <stop offset="1" stop-color="#a6802d"/>
    </linearGradient>
    <linearGradient id="linear-gradient-2" x1="11.932" y1="-8.554" x2="-7.231" y2="6.849" xlink:href="#linear-gradient"/>
    <linearGradient id="linear-gradient-3" x1="5.725" y1="-2.303" x2="-3.857" y2="2.838" xlink:href="#linear-gradient"/>
    <linearGradient id="linear-gradient-4" x1="22.37" y1="-17.08" x2="-16.074" y2="13.821" xlink:href="#linear-gradient"/>
    <linearGradient id="linear-gradient-5" x1="25.914" y1="-9.683" x2="-12.531" y2="5.723" xlink:href="#linear-gradient"/>
    <linearGradient id="linear-gradient-6" x1="11.14" y1="-6.617" x2="-4.2" y2="3.643" xlink:href="#linear-gradient"/>
    <linearGradient id="linear-gradient-7" x1="10.488" y1="-19.617" x2="-4.852" y2="11.29" xlink:href="#linear-gradient"/>
    <linearGradient id="linear-gradient-8" x1="24.568" y1="-5.011" x2="-13.877" y2="3.789" xlink:href="#linear-gradient"/>
    <linearGradient id="linear-gradient-9" x1="25.92" y1="-19.932" x2="-12.525" y2="10.975" xlink:href="#linear-gradient"/>
    <linearGradient id="linear-gradient-10" x1="22.741" y1="-17.383" x2="-15.704" y2="13.525" xlink:href="#linear-gradient"/>
    <linearGradient id="linear-gradient-11" x1="23.475" y1="-17.969" x2="-14.969" y2="12.938" xlink:href="#linear-gradient"/>
    <linearGradient id="linear-gradient-12" x1="24.451" y1="-9.098" x2="-13.994" y2="6.308" xlink:href="#linear-gradient"/>
    <linearGradient id="linear-gradient-13" x1="21.889" y1="-6.362" x2="-16.556" y2="5.97" xlink:href="#linear-gradient"/>
    <linearGradient id="linear-gradient-14" x1="23.235" y1="-8.612" x2="-15.21" y2="6.794" xlink:href="#linear-gradient"/>
    <linearGradient id="linear-gradient-15" x1="2.281" y1="-0.932" x2="-0.668" y2="1.438" xlink:href="#linear-gradient"/>
    <linearGradient id="linear-gradient-16" x1="-0.066" y1="0.929" x2="1.065" y2="0.155" xlink:href="#linear-gradient"/>
  </defs>
  <g id="Layer_2-2" data-name="Layer 2">
    <path id="Path_18" data-name="Path 18" d="M24.08,17.05h1.63V15.43H23.27a.81.81,0,0,0-.81.81v2.44h1.62Z" fill="url(#linear-gradient)"/>
    <path id="Path_19" data-name="Path 19" d="M35.46,28.42H33.83v1.63h2.44a.81.81,0,0,0,.81-.81V26.8H35.46Z" fill="url(#linear-gradient-2)"/>
    <path id="Path_20" data-name="Path 20" d="M36.27,15.43H30.58v1.62h4.88v8.12h1.62V16.24a.81.81,0,0,0-.81-.81Z" fill="url(#linear-gradient-3)"/>
    <rect id="Rectangle_1" data-name="Rectangle 1" width="1.62" height="1.62" transform="translate(27.33 15.43)" fill="url(#linear-gradient-4)"/>
    <rect id="Rectangle_2" data-name="Rectangle 2" width="1.62" height="3.25" transform="translate(22.46 20.3)" fill="url(#linear-gradient-5)"/>
    <path id="Path_21" data-name="Path 21" d="M24.08,25.17H22.46v4.07a.81.81,0,0,0,.81.81h3.25V28.42H24.08Z" fill="url(#linear-gradient-6)"/>
    <rect id="Rectangle_3" data-name="Rectangle 3" width="4.06" height="1.62" transform="translate(28.14 28.42)" fill="url(#linear-gradient-7)"/>
    <rect id="Rectangle_4" data-name="Rectangle 4" width="1.62" height="5.69" transform="translate(25.71 18.68)" fill="url(#linear-gradient-8)"/>
    <rect id="Rectangle_5" data-name="Rectangle 5" width="1.62" height="1.62" transform="translate(25.71 25.17)" fill="url(#linear-gradient-9)"/>
    <rect id="Rectangle_6" data-name="Rectangle 6" width="1.62" height="1.62" transform="translate(28.96 18.68)" fill="url(#linear-gradient-10)"/>
    <rect id="Rectangle_7" data-name="Rectangle 7" width="1.62" height="1.62" transform="translate(28.96 21.11)" fill="url(#linear-gradient-11)"/>
    <rect id="Rectangle_8" data-name="Rectangle 8" width="1.62" height="3.25" transform="translate(28.96 23.55)" fill="url(#linear-gradient-12)"/>
    <rect id="Rectangle_9" data-name="Rectangle 9" width="1.62" height="4.06" transform="translate(32.21 18.68)" fill="url(#linear-gradient-13)"/>
    <rect id="Rectangle_10" data-name="Rectangle 10" width="1.62" height="3.25" transform="translate(32.21 23.55)" fill="url(#linear-gradient-14)"/>
    <path id="Path_22" data-name="Path 22" d="M37.89,12.18H21.65a2.43,2.43,0,0,0-2.44,2.43V30.86a2.44,2.44,0,0,0,2.44,2.44H37.89a2.44,2.44,0,0,0,2.44-2.44V14.61a2.43,2.43,0,0,0-2.44-2.43Zm.81,18.68a.81.81,0,0,1-.81.81H21.65a.82.82,0,0,1-.82-.81V14.61a.82.82,0,0,1,.82-.81H37.89a.81.81,0,0,1,.81.81Z" fill="url(#linear-gradient-15)"/>
    <path id="Path_23" data-name="Path 23" d="M17.6,16.51a1.86,1.86,0,0,1-1.86,1.86H6.63a1.87,1.87,0,1,1,0-3.73h9.11a1.87,1.87,0,0,1,1.86,1.87Zm-1.86,5.6H6.63a1.87,1.87,0,1,0,0,3.73h9.11a1.87,1.87,0,0,0,0-3.73ZM9.27,29.25H6.63a1.87,1.87,0,1,0,0,3.74H9.27a1.87,1.87,0,0,0,0-3.74Zm20,5.36v6.23a1.87,1.87,0,0,1-1.86,1.87H1.87A1.87,1.87,0,0,1,0,40.84V5.44A1.87,1.87,0,0,1,1.87,3.57h3.5C5.81.93,8.11,0,10.88,0h7.47c2.77,0,5.07.93,5.52,3.57h3.5a1.87,1.87,0,0,1,1.86,1.87V10.8H27.64V5.66a.47.47,0,0,0-.46-.46H24V8.07a1.87,1.87,0,0,1-1.87,1.87H7.15A1.87,1.87,0,0,1,5.28,8.07V5.2H2.17a.46.46,0,0,0-.45.46V40.3a.45.45,0,0,0,.45.46h25a.46.46,0,0,0,.46-.46V34.61ZM7.15,8.18H22.08V4.35a2.49,2.49,0,0,0-2.49-2.49H9.64A2.5,2.5,0,0,0,7.15,4.35Z" fill="url(#linear-gradient-16)"/>
  </g>
</svg>
