<svg xmlns="http://www.w3.org/2000/svg" xmlns:xlink="http://www.w3.org/1999/xlink" width="36.334" height="36.334" viewBox="0 0 36.334 36.334">
  <defs>
    <linearGradient id="linear-gradient" x1="0.147" y1="0.853" x2="0.853" y2="0.147" gradientUnits="objectBoundingBox">
      <stop offset="0" stop-color="#d39d2c"/>
      <stop offset="0.032" stop-color="#d39d2c"/>
      <stop offset="0.063" stop-color="#e5af46"/>
      <stop offset="0.082" stop-color="#ecb751"/>
      <stop offset="0.175" stop-color="#d5a23d"/>
      <stop offset="0.254" stop-color="#c79530"/>
      <stop offset="0.305" stop-color="#cd9c36"/>
      <stop offset="0.383" stop-color="#ddb248"/>
      <stop offset="0.435" stop-color="#ecc557"/>
      <stop offset="0.582" stop-color="#fae56e"/>
      <stop offset="0.635" stop-color="#fae56e"/>
      <stop offset="0.706" stop-color="#eecb58"/>
      <stop offset="0.769" stop-color="#e6ba4a"/>
      <stop offset="0.812" stop-color="#d9ac40"/>
      <stop offset="0.853" stop-color="#d3a53b"/>
      <stop offset="1" stop-color="#9e6e1f"/>
    </linearGradient>
  </defs>
  <path id="Path_2062" data-name="Path 2062" d="M517.578,71.313a18.167,18.167,0,1,1,18.168-18.167A18.187,18.187,0,0,1,517.578,71.313Zm0-34.343a16.175,16.175,0,1,0,16.176,16.176A16.195,16.195,0,0,0,517.578,36.97ZM526.927,53.5a1.229,1.229,0,0,0-1.734,0l-7.614,7.615L509.964,53.5a1.226,1.226,0,0,0-1.733,1.734l8.4,8.4a1.06,1.06,0,0,0,.065.1,1.279,1.279,0,0,0,1.767,0c.029-.029.04-.068.066-.1l8.4-8.4A1.231,1.231,0,0,0,526.927,53.5Zm0-8.464a1.229,1.229,0,0,0-1.734,0l-7.614,7.614-7.615-7.614a1.225,1.225,0,0,0-1.733,1.733l8.4,8.4a1.046,1.046,0,0,0,.065.1,1.279,1.279,0,0,0,1.767,0,1.124,1.124,0,0,0,.066-.1l8.4-8.4A1.23,1.23,0,0,0,526.927,45.039Z" transform="translate(-499.412 -34.979)" fill="url(#linear-gradient)"/>
</svg>
