<svg xmlns="http://www.w3.org/2000/svg" width="69.422" height="82.179" viewBox="0 0 69.422 82.179">
  <g id="Group_22" data-name="Group 22" transform="translate(-502.705 -141.595)">
    <path id="Path_2" data-name="Path 2" d="M536.75,223.575A51.051,51.051,0,0,1,508.5,201.406c-7.622-12.978-5.571-48.035-5.48-49.522l.1-1.7,34.29-8.59,34.289,8.59.1,1.7c.091,1.487,2.142,36.543-5.48,49.523a51.056,51.056,0,0,1-28.248,22.168l-.665.2Zm-29.181-69.711-.032.746c-.146,3.433-1.251,33.842,4.974,44.442,7.774,13.243,20.783,18.468,24.585,19.754l.321.108.32-.108c3.8-1.286,16.811-6.511,24.585-19.752,6.225-10.6,5.12-41.011,4.974-44.444l-.032-.746-29.847-7.477Z" fill="#c07500"/>
    <g id="Group_2" data-name="Group 2">
      <path id="Path_7" data-name="Path 7" d="M537.427,172.7a10.082,10.082,0,1,0-10.083-10.083A10.082,10.082,0,0,0,537.427,172.7Zm0-18.148a8.065,8.065,0,1,1-8.066,8.065A8.065,8.065,0,0,1,537.427,154.548Z" fill="#c07500"/>
      <rect id="Rectangle_1" data-name="Rectangle 1" width="2.016" height="2.016" transform="translate(536.418 179.753)" fill="#c07500"/>
      <path id="Path_8" data-name="Path 8" d="M546.486,172.7h-2.1a1.048,1.048,0,0,0-.54.15,12.253,12.253,0,0,1-7.32,1.8v-.01a12.038,12.038,0,0,1-5.54-1.79,1.023,1.023,0,0,0-.54-.15h-2.09a10.1,10.1,0,0,0-10.09,10.08v12.1a5.051,5.051,0,0,0,5.04,5.04h3.03V209h22.17v-9.08h3.02a5.044,5.044,0,0,0,5.04-5.04v-12.1A10.089,10.089,0,0,0,546.486,172.7Zm-18.13,2.02h.39l12.06,23.19h-5.79l-11.29-21.72A7.986,7.986,0,0,1,528.356,174.716Zm15.12,23.19h-.4l-3.14-6.05h3.54a3.025,3.025,0,0,1,0,6.05Zm-20.17,0a3.026,3.026,0,0,1-3.02-3.03v-12.1a7.993,7.993,0,0,1,1.9-5.18l6.36,12.24h-2.21v2.02h3.26l3.14,6.05Zm5.05,9.07v-7.06h15.12a5,5,0,0,0,3.01-1.021v8.081Zm26.2-12.1a3.034,3.034,0,0,1-3.03,3.03h-4.048a4.993,4.993,0,0,0,1.038-3.03,5.045,5.045,0,0,0-5.04-5.04h-4.59l-7.54-14.5a14.364,14.364,0,0,0,12.15,0l1.39-.62h1.6c1.66,0,3.65.22,6.17,2.88a7.466,7.466,0,0,1,1.9,5.18Z" fill="#c07500"/>
    </g>
  </g>
</svg>
