<svg xmlns="http://www.w3.org/2000/svg" xmlns:xlink="http://www.w3.org/1999/xlink" width="89.399" height="48.125" viewBox="0 0 89.399 48.125">
  <defs>
    <clipPath id="clip-path">
      <rect id="Rectangle_150" data-name="Rectangle 150" width="89.399" height="48.125" transform="translate(276.587 3641.605)" fill="none"/>
    </clipPath>
  </defs>
  <g id="Group_340" data-name="Group 340" transform="translate(-276.587 -3641.605)" clip-path="url(#clip-path)">
    <g id="Group_339" data-name="Group 339" opacity="0.7">
      <g id="Group_338" data-name="Group 338">
        <g id="Group_321" data-name="Group 321">
          <path id="Path_203" data-name="Path 203" d="M315.47,3678.926a.676.676,0,0,1-.571-.2.469.469,0,0,1-.042-.432,4.231,4.231,0,0,1,.571-1.044c.141-.211.355-.529.324-.6a.109.109,0,0,0-.1-.059c-.177,0-.542.314-.839.588-.637.586-1.041.942-1.292.942a.225.225,0,0,1-.164-.066.339.339,0,0,1-.076-.26v-.013a16.645,16.645,0,0,1,1.133-5.049,4.6,4.6,0,0,1,.19-.468,3.43,3.43,0,0,1,.364-.553,18.568,18.568,0,0,1,2.69-2.345,42.965,42.965,0,0,1-5.96-2.641.368.368,0,0,1-.185-.233.379.379,0,0,1,.056-.3,23.6,23.6,0,0,1,3.021-2.987c.316-.283.623-.558.9-.812a31.079,31.079,0,0,1,4.4-3.141l.662-.419a32.991,32.991,0,0,1,9.553-3.905c.2-.042.76-.147.9-.163.24-.027.531-.037.544-.037.147,0,.257,0,.37,0h.174a2.864,2.864,0,0,1,.582.049,2.723,2.723,0,0,1,1.188.46,31.035,31.035,0,0,0,6.548,3.953c.862.447,1.249.887,1.156,1.309a.842.842,0,0,1-.349.474,7.6,7.6,0,0,1-1.933.916c-.554.2-1.183.432-1.188.629a.379.379,0,0,0,.018.145c.041.114.172.267.84.267a10.731,10.731,0,0,0,1.191-.088,19.778,19.778,0,0,1,2.045-.172,1.243,1.243,0,0,1,.844.185c.1.1.165.271-.059.562l-.017.023a30.162,30.162,0,0,1-7.049,6.2,7.557,7.557,0,0,1-.774.481,6.162,6.162,0,0,1-1.1.414,33.83,33.83,0,0,1-6.212.577h0c-.794,0-1.6-.029-2.389-.084-.147.406-.31.811-.467,1.2l-.151.379a18.18,18.18,0,0,1-2.991,4.833c-.075.083-.294.313-.352.367-.1.091-.228.192-.233.2-.066.046-.12.086-.17.123a1.993,1.993,0,0,1-.356.225,1.587,1.587,0,0,1-.673.185h-.027c-.2-.006-.4-.009-.6-.009a15.732,15.732,0,0,0-3.573.366A2.57,2.57,0,0,1,315.47,3678.926Zm.187-2.579a.345.345,0,0,1,.292.163c.131.192-.06.476-.324.869a4.077,4.077,0,0,0-.54.982.251.251,0,0,0,.005.221c.076.1.343.133.714.078a15.969,15.969,0,0,1,3.618-.371c.2,0,.406,0,.61.009h.021a1.372,1.372,0,0,0,.574-.163,1.7,1.7,0,0,0,.312-.2c.053-.039.109-.081.172-.124h0s.122-.1.213-.179c.048-.045.26-.267.335-.349a17.946,17.946,0,0,0,2.949-4.766l.15-.378c.168-.418.341-.85.495-1.281l.031-.084.09.006c.816.06,1.643.09,2.461.09h0A33.562,33.562,0,0,0,334,3670.3a6.006,6.006,0,0,0,1.028-.389,7.428,7.428,0,0,0,.756-.47,29.924,29.924,0,0,0,6.989-6.143l.022-.03c.064-.083.13-.195.079-.246s-.192-.116-.677-.116a20.2,20.2,0,0,0-2.018.169,10.75,10.75,0,0,1-1.218.09c-.426,0-.931-.048-1.064-.425a.614.614,0,0,1-.032-.231c.009-.358.57-.563,1.345-.846a7.473,7.473,0,0,0,1.872-.882.624.624,0,0,0,.259-.335c.065-.3-.3-.666-1.025-1.044a31.2,31.2,0,0,1-6.592-3.98,2.508,2.508,0,0,0-1.09-.414,2.641,2.641,0,0,0-.535-.044h-.172c-.115,0-.237,0-.371,0,0,0-.288.01-.519.036-.123.013-.67.115-.877.158a32.771,32.771,0,0,0-9.479,3.876l-.662.418a31.044,31.044,0,0,0-4.368,3.116c-.277.255-.585.529-.9.813a23.5,23.5,0,0,0-2.98,2.94.14.14,0,0,0-.026.111.136.136,0,0,0,.07.081,42.572,42.572,0,0,0,6.141,2.7l.219.077-.19.133a18.309,18.309,0,0,0-2.842,2.448,3.122,3.122,0,0,0-.322.49,4.111,4.111,0,0,0-.182.448,16.416,16.416,0,0,0-1.119,4.971v.013a.26.26,0,0,0,.008.084,4.588,4.588,0,0,0,1.127-.879C315.172,3676.523,315.444,3676.347,315.657,3676.347Z" fill="#fcc245"/>
        </g>
        <g id="Group_322" data-name="Group 322">
          <path id="Path_204" data-name="Path 204" d="M342.235,3658.341h0a.778.778,0,0,1-.257-.052l-.029-.01a30.2,30.2,0,0,1-8.074-4.787,7.477,7.477,0,0,1-.7-.588,5.887,5.887,0,0,1-.733-.917,33.72,33.72,0,0,1-3.578-10.12l-.092-.55a38.111,38.111,0,0,1,.39-11.757.353.353,0,0,1,.352-.3.444.444,0,0,1,.113.015,23.567,23.567,0,0,1,3.777,1.951c.366.213.721.419,1.047.6a31.293,31.293,0,0,1,4.357,3.222l.594.493a33.023,33.023,0,0,1,6.667,7.879c.1.168.374.676.434.808.1.221.2.5.2.506.04.133.079.247.115.354a3.436,3.436,0,0,1,.188.732,2.732,2.732,0,0,1-.07,1.272,31.15,31.15,0,0,0-1.73,7.413c-.165,1.026-.484,1.542-.951,1.542a.89.89,0,0,1-.5-.187,7.671,7.671,0,0,1-1.468-1.555c-.362-.462-.736-.941-.939-.941a.107.107,0,0,0-.027,0,.3.3,0,0,0-.209.161c-.145.316.172,1.094.535,1.888.686,1.5,1.086,2.432.862,2.782A.309.309,0,0,1,342.235,3658.341ZM329.517,3629.5a.119.119,0,0,0-.118.109,38.424,38.424,0,0,0-.389,11.674l.091.547a33.485,33.485,0,0,0,3.553,10.048,5.783,5.783,0,0,0,.688.858,7.463,7.463,0,0,0,.68.574,30,30,0,0,0,8.008,4.75l.03.01a.54.54,0,0,0,.175.038h0c.058,0,.072-.021.078-.031.171-.266-.436-1.589-.878-2.555-.542-1.186-.688-1.752-.536-2.086a.537.537,0,0,1,.359-.29.322.322,0,0,1,.094-.013c.319,0,.657.433,1.126,1.031a7.449,7.449,0,0,0,1.418,1.508.664.664,0,0,0,.365.143c.436,0,.636-.835.716-1.332a31.358,31.358,0,0,1,1.74-7.465,2.492,2.492,0,0,0,.058-1.165,3.222,3.222,0,0,0-.176-.683c-.037-.109-.076-.226-.115-.355h0s-.1-.272-.2-.483c-.052-.115-.322-.61-.422-.786a32.75,32.75,0,0,0-6.614-7.816l-.6-.493a31,31,0,0,0-4.321-3.2c-.327-.186-.683-.392-1.049-.6a23.464,23.464,0,0,0-3.72-1.927A.194.194,0,0,0,329.517,3629.5Z" fill="#fcc245"/>
        </g>
        <g id="Group_323" data-name="Group 323">
          <path id="Path_205" data-name="Path 205" d="M350.419,3657.718a1.141,1.141,0,0,1-.961-.329.754.754,0,0,1-.061-.7,7.642,7.642,0,0,1,1.025-1.875c.329-.491.705-1.048.592-1.21a.29.29,0,0,0-.254-.151c-.354,0-1,.553-1.593,1.094-1.11,1.021-1.868,1.69-2.289,1.69h0a.306.306,0,0,1-.227-.09.534.534,0,0,1-.111-.4v-.029a30.147,30.147,0,0,1,2.056-9.16,7.788,7.788,0,0,1,.344-.844,5.85,5.85,0,0,1,.646-.981,33.715,33.715,0,0,1,8.52-6.53l.494-.256a38.026,38.026,0,0,1,11.3-3.263.355.355,0,0,1,.415.352,23.353,23.353,0,0,1-.688,4.2c-.089.413-.175.813-.25,1.181a31.209,31.209,0,0,1-1.723,5.151l-.28.706a33.015,33.015,0,0,1-5.432,8.775c-.136.15-.532.568-.635.662-.18.163-.409.343-.419.351-.114.079-.21.149-.3.218a3.365,3.365,0,0,1-.638.4,2.781,2.781,0,0,1-1.184.327h-.046c-.368-.01-.737-.015-1.1-.015a28.789,28.789,0,0,0-6.533.669A4.576,4.576,0,0,1,350.419,3657.718Zm.341-4.5a.53.53,0,0,1,.451.254c.2.3-.13.791-.592,1.477a7.52,7.52,0,0,0-.995,1.813.541.541,0,0,0,.025.487c.165.224.667.288,1.394.181a28.956,28.956,0,0,1,6.578-.674c.365,0,.736.005,1.106.016h.04a2.555,2.555,0,0,0,1.085-.306,3.216,3.216,0,0,0,.6-.379c.092-.069.19-.142.3-.219h0s.227-.178.4-.335c.091-.083.474-.487.616-.643a32.783,32.783,0,0,0,5.391-8.708l.28-.7a31.1,31.1,0,0,0,1.71-5.11c.076-.368.162-.77.251-1.184a23.548,23.548,0,0,0,.684-4.133.124.124,0,0,0-.149-.13,38.433,38.433,0,0,0-11.223,3.239l-.492.255a33.486,33.486,0,0,0-8.459,6.484,5.882,5.882,0,0,0-.6.919,7.632,7.632,0,0,0-.335.825,29.916,29.916,0,0,0-2.042,9.084v.028c0,.162.03.215.045.231a.071.071,0,0,0,.057.018c.359,0,1.34-.9,2.129-1.627C349.924,3653.531,350.4,3653.217,350.76,3653.217Z" fill="#fcc245"/>
        </g>
        <g id="Group_324" data-name="Group 324">
          <path id="Path_206" data-name="Path 206" d="M369.928,3676.386h0c-1.121,0-2.25-.076-3.343-.15l-.767-.049a33.02,33.02,0,0,1-10.025-2.454c-.185-.082-.7-.328-.826-.4-.21-.119-.452-.282-.462-.289-.109-.083-.206-.152-.3-.216a3.38,3.38,0,0,1-.585-.485,2.7,2.7,0,0,1-.691-1.069,31.006,31.006,0,0,0-2.982-7.056c-.372-.748-.46-1.284-.267-1.6a.735.735,0,0,1,.67-.31h.046a7.887,7.887,0,0,1,2.055.4,5.091,5.091,0,0,0,1.126.249c.074,0,.169-.01.206-.059a.3.3,0,0,0,.075-.253c-.069-.34-.782-.784-1.543-1.212-1.484-.835-2.38-1.372-2.332-1.8.017-.153.145-.264.38-.333l.023-.008a27.216,27.216,0,0,1,7.515-.919c.607,0,1.225.015,1.837.043a7.5,7.5,0,0,1,.908.066,5.945,5.945,0,0,1,1.133.311,33.709,33.709,0,0,1,8.844,6.085l.4.391a38.075,38.075,0,0,1,6.6,9.739.372.372,0,0,1,.014.3.376.376,0,0,1-.221.208,23.512,23.512,0,0,1-4.216.644c-.417.042-.82.083-1.19.125A19.13,19.13,0,0,1,369.928,3676.386Zm-15.284-3.536s.24.163.441.277c.107.061.609.3.8.388a32.73,32.73,0,0,0,9.948,2.435l.766.049c1.089.074,2.214.149,3.327.149h0a19.143,19.143,0,0,0,2.052-.1c.37-.042.774-.083,1.191-.126a23.651,23.651,0,0,0,4.156-.629.124.124,0,0,0,.078-.182,38.458,38.458,0,0,0-6.549-9.671l-.4-.39a33.507,33.507,0,0,0-8.78-6.041,5.942,5.942,0,0,0-1.062-.29,7.551,7.551,0,0,0-.887-.064c-.61-.028-1.224-.042-1.827-.042a27.38,27.38,0,0,0-7.452.91l-.021.007c-.124.037-.2.086-.208.132-.034.3,1.316,1.058,2.21,1.561,1.138.641,1.587,1.013,1.66,1.373a.534.534,0,0,1-.119.445.463.463,0,0,1-.394.151,5.186,5.186,0,0,1-1.192-.257,7.7,7.7,0,0,0-1.989-.387h-.043a.515.515,0,0,0-.471.195c-.142.235-.045.718.273,1.361a31.169,31.169,0,0,1,3,7.1,2.514,2.514,0,0,0,.639.976,3.255,3.255,0,0,0,.547.451c.094.066.193.136.3.216Z" fill="#fcc245"/>
        </g>
        <g id="Group_325" data-name="Group 325">
          <path id="Path_207" data-name="Path 207" d="M341.4,3694.917a.373.373,0,0,1-.289-.146,23.477,23.477,0,0,1-1.907-3.795c-.172-.389-.339-.766-.495-1.109a31.2,31.2,0,0,1-1.633-5.174l-.19-.742a33.019,33.019,0,0,1-.763-10.292c.021-.2.1-.769.123-.907.05-.239.13-.519.134-.531.045-.13.08-.243.114-.351a3.382,3.382,0,0,1,.279-.7,2.712,2.712,0,0,1,.8-.989,30.886,30.886,0,0,0,5.79-5.017,2.149,2.149,0,0,1,1.293-.765c.208,0,.488.1.646.558a7.62,7.62,0,0,1,.273,2.122c.022.59.046,1.259.231,1.325a.39.39,0,0,0,.135.026c.355,0,.579-.75.8-1.876.381-1.888.608-2.777,1.045-2.777a.483.483,0,0,1,.377.263.177.177,0,0,1,.015.022,30.113,30.113,0,0,1,3.723,8.621,7.761,7.761,0,0,1,.219.885,6.026,6.026,0,0,1,.053,1.174,33.755,33.755,0,0,1-3.054,10.291l-.248.5a38.1,38.1,0,0,1-7.225,9.284A.372.372,0,0,1,341.4,3694.917Zm-4.794-22.624s-.079.279-.127.506c-.024.123-.1.674-.12.882a32.764,32.764,0,0,0,.759,10.213l.188.741a31.111,31.111,0,0,0,1.619,5.134c.157.343.324.721.495,1.11a23.594,23.594,0,0,0,1.875,3.741.144.144,0,0,0,.105.059.134.134,0,0,0,.092-.042,38.414,38.414,0,0,0,7.175-9.216l.248-.5a33.483,33.483,0,0,0,3.032-10.218,6.008,6.008,0,0,0-.052-1.1,7.6,7.6,0,0,0-.215-.865,29.874,29.874,0,0,0-3.691-8.555l.089-.08-.1.066c-.1-.152-.166-.164-.183-.164-.291,0-.617,1.619-.812,2.587-.27,1.341-.515,2.067-1.038,2.067a.633.633,0,0,1-.214-.04c-.338-.12-.36-.716-.389-1.541a7.5,7.5,0,0,0-.262-2.053c-.134-.4-.349-.4-.42-.4a1.983,1.983,0,0,0-1.12.69,31.246,31.246,0,0,1-5.829,5.051,2.508,2.508,0,0,0-.732.909,3.209,3.209,0,0,0-.258.658c-.034.109-.071.226-.115.352Z" fill="#fcc245"/>
        </g>
        <g id="Group_326" data-name="Group 326">
          <path id="Path_208" data-name="Path 208" d="M346.465,3664.632c-.125,0-.168-.062-.194-.8a20.4,20.4,0,0,0-.4-3.284,15.515,15.515,0,0,1-3.188,1.385,3.611,3.611,0,0,1-.667.164.132.132,0,0,1-.144-.107c-.017-.1-.027-.148.7-.413a20.7,20.7,0,0,0,2.968-1.371,15.526,15.526,0,0,1-2.313-2.614c-.415-.587-.389-.637-.356-.7l.033-.064.078,0c.061,0,.119,0,.551.553a20.272,20.272,0,0,0,2.273,2.446,15.433,15.433,0,0,1,1.786-3.044c.417-.557.477-.557.536-.557h.072l.039.066c.033.065.058.112-.348.716a20.53,20.53,0,0,0-1.6,2.876,15.469,15.469,0,0,1,3.41.755c.724.245.715.3.7.4a.134.134,0,0,1-.148.108h0a3.8,3.8,0,0,1-.673-.151,20.369,20.369,0,0,0-3.276-.643,15.5,15.5,0,0,1,.34,3.494C346.635,3664.567,346.591,3664.632,346.465,3664.632Zm-.556-4.422.031.025.081-.049L346,3660.1l-.043,0Z" fill="#fcc245"/>
        </g>
        <g id="Group_327" data-name="Group 327">
          <path id="Path_209" data-name="Path 209" d="M316.633,3650.636h0a7.8,7.8,0,0,1-1.047-.071l-.127-.018a8.79,8.79,0,0,1-2.562-.927.176.176,0,0,1-.088-.11.179.179,0,0,1,.024-.14,5.164,5.164,0,0,1,.709-.7l.205-.184a7.054,7.054,0,0,1,1.013-.725l.157-.1a7.673,7.673,0,0,1,2.216-.906c.047-.01.179-.035.216-.039.059-.007.133-.009.133-.009h.126a.791.791,0,0,1,.153.013.7.7,0,0,1,.309.122,6.915,6.915,0,0,0,1.479.893c.1.05.365.191.317.405a.285.285,0,0,1-.114.162,1.835,1.835,0,0,1-.465.221c-.049.018-.108.04-.154.06a1.994,1.994,0,0,0,.309-.019c.188-.021.353-.039.478-.039a.35.35,0,0,1,.257.068.174.174,0,0,1,0,.244l-.007.011a7.007,7.007,0,0,1-1.636,1.44,1.862,1.862,0,0,1-.185.115,1.556,1.556,0,0,1-.277.1A7.864,7.864,0,0,1,316.633,3650.636Zm-3.56-1.191a8.652,8.652,0,0,0,2.421.867l.126.018a7.635,7.635,0,0,0,2.408-.061,1.39,1.39,0,0,0,.207-.079,1.775,1.775,0,0,0,.166-.1,6.9,6.9,0,0,0,1.532-1.328c-.107,0-.275.016-.464.037a2.412,2.412,0,0,1-.289.021h0c-.075,0-.274,0-.329-.158a.225.225,0,0,1-.012-.088c0-.142.163-.2.367-.275a1.581,1.581,0,0,0,.4-.189.076.076,0,0,0,.025-.024h0s-.027-.054-.187-.137a7.216,7.216,0,0,1-1.522-.919.5.5,0,0,0-.213-.078.5.5,0,0,0-.105-.009h-.125s-.058,0-.107.008c-.023,0-.141.024-.191.034a7.4,7.4,0,0,0-2.142.876l-.157.1a6.874,6.874,0,0,0-.979.7l-.206.184A7.261,7.261,0,0,0,313.073,3649.445Z" fill="#fcc245"/>
        </g>
        <g id="Group_328" data-name="Group 328">
          <path id="Path_210" data-name="Path 210" d="M319.928,3647.714h0a.26.26,0,0,1-.09-.017,6.956,6.956,0,0,1-1.88-1.113,1.93,1.93,0,0,1-.166-.14,1.362,1.362,0,0,1-.185-.232,7.84,7.84,0,0,1-.829-2.343l-.021-.127a8.808,8.808,0,0,1,.09-2.723.177.177,0,0,1,.22-.138,5.2,5.2,0,0,1,.885.456c.084.048.165.1.24.138a7.112,7.112,0,0,1,1.013.749l.134.111a7.645,7.645,0,0,1,1.545,1.825c.024.041.09.16.105.2.025.053.05.122.05.122.01.035.019.061.027.085a.788.788,0,0,1,.046.184.7.7,0,0,1-.02.332,7,7,0,0,0-.391,1.674c-.047.293-.151.436-.309.436a.3.3,0,0,1-.168-.058,1.886,1.886,0,0,1-.356-.375c-.032-.041-.071-.091-.1-.129a1.914,1.914,0,0,0,.114.288c.194.425.266.609.191.725A.165.165,0,0,1,319.928,3647.714Zm-2.86-6.582a8.7,8.7,0,0,0-.077,2.571l.022.124a7.575,7.575,0,0,0,.8,2.272,1.329,1.329,0,0,0,.139.172,1.639,1.639,0,0,0,.15.127,6.889,6.889,0,0,0,1.737,1.047c-.038-.119-.126-.312-.18-.43-.122-.267-.178-.434-.123-.554a.21.21,0,0,1,.14-.116.123.123,0,0,1,.046-.007c.118,0,.207.114.331.271a1.652,1.652,0,0,0,.3.327.12.12,0,0,0,.029.016.438.438,0,0,0,.076-.228,7.136,7.136,0,0,1,.4-1.724.487.487,0,0,0,.008-.227.7.7,0,0,0-.035-.134c-.009-.027-.019-.055-.028-.087h0s-.02-.055-.04-.1c-.01-.022-.069-.13-.093-.172a7.4,7.4,0,0,0-1.495-1.766l-.132-.111a7.052,7.052,0,0,0-.978-.724c-.075-.042-.157-.09-.242-.14A7.669,7.669,0,0,0,317.068,3641.132Z" fill="#fcc245"/>
        </g>
        <g id="Group_329" data-name="Group 329">
          <path id="Path_211" data-name="Path 211" d="M321.8,3647.571a.343.343,0,0,1-.294-.112.258.258,0,0,1-.027-.242,1.881,1.881,0,0,1,.246-.453c.029-.043.064-.095.09-.138a1.965,1.965,0,0,0-.24.2c-.31.286-.46.411-.585.411h0a.162.162,0,0,1-.118-.048.208.208,0,0,1-.052-.158,7.045,7.045,0,0,1,.477-2.133,1.945,1.945,0,0,1,.082-.2,1.443,1.443,0,0,1,.164-.247,7.831,7.831,0,0,1,1.973-1.512l.115-.06a8.812,8.812,0,0,1,2.616-.755l.024,0a.174.174,0,0,1,.175.167,5.353,5.353,0,0,1-.161.991c-.02.092-.039.182-.055.264a7.216,7.216,0,0,1-.4,1.192l-.064.164a7.691,7.691,0,0,1-1.259,2.034c-.028.03-.124.134-.154.16s-.1.084-.1.084c-.03.021-.052.037-.072.053a.846.846,0,0,1-.161.1.717.717,0,0,1-.307.083H323.7q-.114,0-.246,0a6.523,6.523,0,0,0-1.477.15A1.118,1.118,0,0,1,321.8,3647.571Zm-.1-.249a.3.3,0,0,0,.1.012.935.935,0,0,0,.13-.011,6.682,6.682,0,0,1,1.522-.155c.09,0,.175,0,.253,0h0a.5.5,0,0,0,.216-.061.62.62,0,0,0,.118-.076l.073-.053h0s.046-.036.081-.068c.018-.016.1-.1.136-.143a7.365,7.365,0,0,0,1.217-1.966l.064-.162a7.09,7.09,0,0,0,.387-1.152c.017-.083.036-.173.056-.266a7.517,7.517,0,0,0,.156-.862,8.606,8.606,0,0,0-2.469.723l-.112.058a7.537,7.537,0,0,0-1.912,1.466,1.34,1.34,0,0,0-.123.186,1.913,1.913,0,0,0-.074.181,7,7,0,0,0-.458,1.978c.1-.072.258-.218.353-.307.233-.213.354-.289.465-.289a.214.214,0,0,1,.179.1c.081.118-.014.26-.135.44a1.651,1.651,0,0,0-.217.391.111.111,0,0,0-.006.034Z" fill="#fcc245"/>
        </g>
        <g id="Group_330" data-name="Group 330">
          <path id="Path_212" data-name="Path 212" d="M326.266,3651.844h0c-.257,0-.516-.017-.766-.034l-.18-.011a7.7,7.7,0,0,1-2.325-.57c-.039-.017-.165-.077-.2-.095-.051-.03-.112-.071-.112-.071l-.068-.049a.818.818,0,0,1-.15-.125.7.7,0,0,1-.179-.281,6.956,6.956,0,0,0-.672-1.593c-.106-.211-.124-.359-.062-.461a.254.254,0,0,1,.23-.115h.013a1.857,1.857,0,0,1,.494.094c.056.016.114.032.16.043a1.853,1.853,0,0,0-.261-.167c-.4-.228-.6-.344-.579-.5a.184.184,0,0,1,.145-.152l.012,0a6.279,6.279,0,0,1,1.745-.215c.141,0,.284,0,.426.01a1.817,1.817,0,0,1,.216.016,1.484,1.484,0,0,1,.286.078,7.83,7.83,0,0,1,2.048,1.41l.092.091a8.778,8.778,0,0,1,1.528,2.255.176.176,0,0,1,.005.142.172.172,0,0,1-.1.1,5.19,5.19,0,0,1-.99.153l-.269.029A4.618,4.618,0,0,1,326.266,3651.844Zm-3.442-.974s.049.033.091.057c.019.011.128.063.176.085a7.42,7.42,0,0,0,2.246.55l.179.011c.246.016.5.033.75.033h0a4.33,4.33,0,0,0,.46-.022c.084-.01.176-.019.271-.029a7.4,7.4,0,0,0,.867-.12,8.643,8.643,0,0,0-1.45-2.123l-.091-.089a7.57,7.57,0,0,0-1.983-1.365,1.343,1.343,0,0,0-.216-.058,1.426,1.426,0,0,0-.2-.014c-.139-.006-.278-.01-.416-.01a6.335,6.335,0,0,0-1.6.184c.1.074.285.178.4.242.255.144.4.247.425.375a.211.211,0,0,1-.045.177.193.193,0,0,1-.162.07,1.246,1.246,0,0,1-.3-.062,1.671,1.671,0,0,0-.429-.085.133.133,0,0,0-.044,0,.492.492,0,0,0,.071.218,7.354,7.354,0,0,1,.693,1.641.469.469,0,0,0,.125.187.668.668,0,0,0,.112.092c.022.015.045.031.07.05Z" fill="#fcc245"/>
        </g>
        <g id="Group_331" data-name="Group 331">
          <path id="Path_213" data-name="Path 213" d="M319.736,3656.086h0a.176.176,0,0,1-.136-.068,5.283,5.283,0,0,1-.449-.886c-.04-.091-.078-.178-.114-.256a7.258,7.258,0,0,1-.379-1.2l-.043-.168a7.636,7.636,0,0,1-.178-2.386c.006-.049.023-.182.03-.218.012-.059.033-.129.033-.129.011-.033.018-.058.026-.082a.913.913,0,0,1,.071-.18.717.717,0,0,1,.213-.256,7.064,7.064,0,0,0,1.307-1.132.568.568,0,0,1,.366-.207.245.245,0,0,1,.234.189,1.865,1.865,0,0,1,.068.512c0,.052,0,.114.008.164a1.931,1.931,0,0,0,.078-.3c.1-.479.151-.709.33-.709a.189.189,0,0,1,.156.094l.01.015a6.938,6.938,0,0,1,.863,2,1.925,1.925,0,0,1,.052.21,1.46,1.46,0,0,1,.013.3,7.825,7.825,0,0,1-.707,2.383l-.058.115a8.821,8.821,0,0,1-1.672,2.151A.181.181,0,0,1,319.736,3656.086Zm-1.01-5.241s-.016.057-.026.1c0,.022-.021.147-.026.193a7.433,7.433,0,0,0,.172,2.307l.041.167a7.178,7.178,0,0,0,.366,1.161c.037.079.076.166.116.257a7.622,7.622,0,0,0,.376.779,8.659,8.659,0,0,0,1.573-2.035l.056-.113a7.563,7.563,0,0,0,.686-2.31,1.364,1.364,0,0,0-.011-.221c-.011-.059-.02-.093-.047-.191a6.876,6.876,0,0,0-.791-1.868,4.637,4.637,0,0,0-.106.454c-.064.31-.128.547-.328.547a.255.255,0,0,1-.08-.015c-.136-.048-.142-.219-.15-.435a1.662,1.662,0,0,0-.054-.444.091.091,0,0,0-.016-.031.486.486,0,0,0-.186.134,7.186,7.186,0,0,1-1.347,1.165.51.51,0,0,0-.139.179.618.618,0,0,0-.052.134c-.008.025-.016.052-.027.081Z" fill="#fcc245"/>
        </g>
        <g id="Group_332" data-name="Group 332">
          <path id="Path_214" data-name="Path 214" d="M320.9,3649.154c-.127,0-.131-.125-.136-.27a4.441,4.441,0,0,0-.066-.613,3.763,3.763,0,0,1-.635.262.643.643,0,0,1-.18.042h-.1l-.024-.1c-.019-.11.082-.147.22-.2a4.593,4.593,0,0,0,.555-.247,3.816,3.816,0,0,1-.449-.526c-.088-.125-.125-.183-.088-.256l.034-.064h.073c.063,0,.1.035.2.162a4.538,4.538,0,0,0,.417.463,3.761,3.761,0,0,1,.366-.6c.1-.127.133-.164.2-.164h.071l.035.064c.038.071,0,.13-.084.258a4.578,4.578,0,0,0-.306.531,3.74,3.74,0,0,1,.672.162c.139.046.24.081.222.192l-.017.1-.108,0a.662.662,0,0,1-.179-.038,4.529,4.529,0,0,0-.61-.129,3.711,3.711,0,0,1,.055.694C321.027,3649.023,321.025,3649.154,320.9,3649.154Z" fill="#fcc245"/>
        </g>
        <g id="Group_333" data-name="Group 333">
          <path id="Path_215" data-name="Path 215" d="M303.072,3686.277h0a18.659,18.659,0,0,1-2.489-.168l-.3-.045a20.97,20.97,0,0,1-6.09-2.2.253.253,0,0,1-.129-.162.261.261,0,0,1,.039-.206,12.892,12.892,0,0,1,1.672-1.654l.489-.441a16.886,16.886,0,0,1,2.4-1.716l.388-.245a18.163,18.163,0,0,1,5.261-2.15c.108-.023.422-.082.5-.091.134-.015.295-.02.3-.02h.3a1.586,1.586,0,0,1,.33.028,1.554,1.554,0,0,1,.674.261,16.959,16.959,0,0,0,3.584,2.164c.5.261.723.523.666.781a.513.513,0,0,1-.212.291,4.276,4.276,0,0,1-1.074.51c-.24.087-.6.218-.618.3a.156.156,0,0,0,.007.06c.027.073.164.11.41.11a5.507,5.507,0,0,0,.648-.048,10.975,10.975,0,0,1,1.129-.094.722.722,0,0,1,.5.117c.056.056.127.178-.027.38l-.013.016a16.618,16.618,0,0,1-3.88,3.413,4.337,4.337,0,0,1-.429.266,3.408,3.408,0,0,1-.619.233A18.658,18.658,0,0,1,303.072,3686.277Zm2.043-8.865s-.154,0-.277.019c-.066.007-.364.063-.478.086a17.973,17.973,0,0,0-5.187,2.122l-.386.243a16.793,16.793,0,0,0-2.366,1.691c-.152.138-.319.288-.491.442a12.815,12.815,0,0,0-1.63,1.607.035.035,0,0,0-.008.019s0,0,.013.011a21.044,21.044,0,0,0,6.011,2.177l.3.045a18.52,18.52,0,0,0,2.456.165h0a18.369,18.369,0,0,0,3.376-.314,3.206,3.206,0,0,0,.548-.208,3.7,3.7,0,0,0,.411-.255,16.353,16.353,0,0,0,3.825-3.362l.013-.016a.264.264,0,0,0,.04-.069.732.732,0,0,0-.327-.043c-.275,0-.662.042-1.1.092a6.04,6.04,0,0,1-.675.05c-.25,0-.549-.03-.634-.269a.39.39,0,0,1-.021-.148c.006-.231.328-.349.774-.511a4.109,4.109,0,0,0,1.014-.477.291.291,0,0,0,.122-.153c.029-.132-.171-.324-.535-.514a17.158,17.158,0,0,1-3.627-2.19,1.338,1.338,0,0,0-.577-.218,1.456,1.456,0,0,0-.283-.023h-.1C305.256,3677.413,305.189,3677.414,305.115,3677.412Z" fill="#fcc245"/>
        </g>
        <g id="Group_334" data-name="Group 334">
          <path id="Path_216" data-name="Path 216" d="M310.977,3679.267h0a.454.454,0,0,1-.159-.032l-.023-.008a16.652,16.652,0,0,1-4.442-2.634,4.069,4.069,0,0,1-.386-.325,3.5,3.5,0,0,1-.412-.516,18.559,18.559,0,0,1-1.97-5.574l-.051-.3a20.97,20.97,0,0,1,.215-6.474.253.253,0,0,1,.322-.2,12.6,12.6,0,0,1,2.084,1.075l.576.333a17.168,17.168,0,0,1,2.4,1.769l.332.276A18.187,18.187,0,0,1,313.13,3671c.057.1.207.377.24.45.055.123.112.274.114.28.023.078.044.141.064.2a1.9,1.9,0,0,1,.1.41,1.522,1.522,0,0,1-.041.722,17.01,17.01,0,0,0-.946,4.056c-.1.6-.29.9-.576.9a.545.545,0,0,1-.307-.112,4.245,4.245,0,0,1-.816-.865c-.165-.209-.388-.5-.474-.5-.055.017-.072.039-.081.06-.071.155.12.611.295.991.419.917.6,1.371.468,1.578A.223.223,0,0,1,310.977,3679.267ZM304,3663.431c-.006,0-.01,0-.014.017a21.071,21.071,0,0,0-.213,6.39l.051.3a18.313,18.313,0,0,0,1.944,5.5,3.356,3.356,0,0,0,.366.457,4.168,4.168,0,0,0,.371.313,16.41,16.41,0,0,0,4.381,2.6l-.025.117.04-.112a.239.239,0,0,0,.08.018h0a4.692,4.692,0,0,0-.488-1.342c-.311-.677-.388-.988-.295-1.189a.345.345,0,0,1,.23-.19.243.243,0,0,1,.067-.009c.2,0,.394.246.661.587a4.066,4.066,0,0,0,.766.817.318.318,0,0,0,.17.069c.144,0,.271-.257.34-.688a17.266,17.266,0,0,1,.958-4.107,1.331,1.331,0,0,0,.029-.616,1.664,1.664,0,0,0-.094-.36c-.02-.062-.043-.127-.064-.2h0s-.054-.146-.1-.258c-.027-.06-.168-.32-.229-.428a17.956,17.956,0,0,0-3.621-4.277l-.329-.274a16.935,16.935,0,0,0-2.361-1.746l-.579-.334a12.886,12.886,0,0,0-2.026-1.05Z" fill="#fcc245"/>
        </g>
        <g id="Group_335" data-name="Group 335">
          <path id="Path_217" data-name="Path 217" d="M326.179,3689.174c-.625,0-1.252-.043-1.86-.084l-.4-.025a18.224,18.224,0,0,1-5.522-1.352c-.1-.046-.389-.183-.458-.222-.118-.067-.253-.158-.258-.162-.062-.047-.115-.084-.165-.119a1.9,1.9,0,0,1-.329-.273,1.535,1.535,0,0,1-.391-.608,16.945,16.945,0,0,0-1.632-3.861c-.218-.439-.264-.742-.146-.934a.453.453,0,0,1,.413-.195h.026a4.353,4.353,0,0,1,1.142.218,2.79,2.79,0,0,0,.6.135.125.125,0,0,0,.07-.012.109.109,0,0,0,.03-.095c-.034-.167-.456-.424-.821-.63-.93-.523-1.336-.78-1.306-1.038.012-.108.1-.184.247-.229a15,15,0,0,1,4.15-.51c.334,0,.676.008,1.013.023a4.29,4.29,0,0,1,.5.037,3.3,3.3,0,0,1,.638.175,18.552,18.552,0,0,1,4.869,3.35l.219.216a20.91,20.91,0,0,1,3.632,5.363.255.255,0,0,1,.01.2.264.264,0,0,1-.153.146,12.956,12.956,0,0,1-2.324.355c-.229.023-.453.047-.657.069A10.481,10.481,0,0,1,326.179,3689.174Zm-8.358-2.038s.129.087.237.148c.057.033.33.164.436.211a17.927,17.927,0,0,0,5.443,1.332l.4.025c.6.041,1.227.084,1.844.084a10.232,10.232,0,0,0,1.122-.057l.659-.069a13.026,13.026,0,0,0,2.263-.34.033.033,0,0,0,.017-.012s0-.006,0-.015a21.02,21.02,0,0,0-3.584-5.3l-.217-.213a18.278,18.278,0,0,0-4.807-3.307,3.177,3.177,0,0,0-.566-.155,4.15,4.15,0,0,0-.482-.034c-.336-.015-.673-.023-1-.023a14.956,14.956,0,0,0-4.073.5.3.3,0,0,0-.086.036,4.69,4.69,0,0,0,1.185.8c.648.366.893.572.937.79a.34.34,0,0,1-.075.287.307.307,0,0,1-.258.1,2.87,2.87,0,0,1-.671-.144,4.2,4.2,0,0,0-1.076-.21h-.023c-.11,0-.181.029-.213.082s-.082.225.152.7a17.172,17.172,0,0,1,1.651,3.908,1.342,1.342,0,0,0,.338.516,1.705,1.705,0,0,0,.291.239c.052.037.107.076.166.12Z" fill="#fcc245"/>
        </g>
        <g id="Group_336" data-name="Group 336">
          <path id="Path_218" data-name="Path 218" d="M310.518,3699.347h0a.257.257,0,0,1-.2-.1,12.615,12.615,0,0,1-1.054-2.094c-.1-.213-.186-.421-.272-.61a17.061,17.061,0,0,1-.9-2.859l-.1-.4a18.217,18.217,0,0,1-.421-5.668c.013-.117.053-.428.07-.507.027-.13.071-.286.073-.293.025-.073.044-.134.063-.192a1.816,1.816,0,0,1,.159-.4,1.537,1.537,0,0,1,.457-.56,17.01,17.01,0,0,0,3.169-2.745,1.223,1.223,0,0,1,.751-.439c.13,0,.308.059.4.343a4.193,4.193,0,0,1,.153,1.178c.01.255.023.64.092.68a.16.16,0,0,0,.056.012c.168,0,.3-.528.389-.987.22-1.09.346-1.568.626-1.568a.33.33,0,0,1,.251.168l.007.01a16.586,16.586,0,0,1,2.053,4.751,3.959,3.959,0,0,1,.12.491,3.431,3.431,0,0,1,.031.66,18.573,18.573,0,0,1-1.681,5.666l-.137.275a20.96,20.96,0,0,1-3.978,5.111A.258.258,0,0,1,310.518,3699.347Zm-2.582-12.456s-.042.149-.067.27c-.014.064-.054.364-.066.48a17.926,17.926,0,0,0,.415,5.589l.1.4a17.165,17.165,0,0,0,.888,2.82c.086.189.179.4.273.611a12.978,12.978,0,0,0,1.022,2.04c.013.016.012.02.03,0a21.086,21.086,0,0,0,3.927-5.045l.136-.272a18.352,18.352,0,0,0,1.66-5.592,3.3,3.3,0,0,0-.029-.587,3.912,3.912,0,0,0-.116-.47,16.375,16.375,0,0,0-2.02-4.681l-.011-.015a.192.192,0,0,0-.05-.056,4.7,4.7,0,0,0-.394,1.374c-.154.764-.3,1.177-.622,1.177a.4.4,0,0,1-.136-.025c-.22-.078-.233-.42-.249-.9a4.079,4.079,0,0,0-.141-1.111c-.062-.181-.147-.181-.179-.181-.078,0-.255.047-.578.362a17.186,17.186,0,0,1-3.208,2.78,1.309,1.309,0,0,0-.384.481,1.645,1.645,0,0,0-.139.353c-.019.06-.039.124-.063.193Z" fill="#fcc245"/>
        </g>
        <g id="Group_337" data-name="Group 337">
          <path id="Path_219" data-name="Path 219" d="M313.3,3682.721c-.135,0-.147-.125-.16-.488a10.961,10.961,0,0,0-.2-1.721,8.8,8.8,0,0,1-1.7.728,1.438,1.438,0,0,1-.382.092.126.126,0,0,1-.131-.1c-.02-.114.066-.159.418-.287a11.253,11.253,0,0,0,1.556-.713,8.605,8.605,0,0,1-1.221-1.393c-.237-.335-.233-.377-.2-.441l.034-.064h.075c.055,0,.091,0,.344.325a11.012,11.012,0,0,0,1.187,1.284,8.818,8.818,0,0,1,.957-1.613c.244-.327.28-.327.336-.327h.072l.036.065c.035.064.039.1-.193.448a11.265,11.265,0,0,0-.846,1.5,8.609,8.609,0,0,1,1.81.409c.352.12.439.162.42.277a.128.128,0,0,1-.134.1h0a1.553,1.553,0,0,1-.385-.085,11.3,11.3,0,0,0-1.716-.342,8.661,8.661,0,0,1,.173,1.857C313.447,3682.581,313.439,3682.721,313.3,3682.721Z" fill="#fcc245"/>
        </g>
      </g>
    </g>
  </g>
</svg>
