<svg xmlns="http://www.w3.org/2000/svg" width="75.039" height="81.044" viewBox="0 0 75.039 81.044">
  <g id="Group_19" data-name="Group 19" transform="translate(-72.936 -432.171)">
    <path id="Path_13" data-name="Path 13" d="M107.165,462.438H86.9a3.377,3.377,0,1,0,0,6.753h20.261a3.377,3.377,0,1,0,0-6.753Z" fill="#c07500"/>
    <path id="Path_14" data-name="Path 14" d="M107.165,475.945H86.9a3.377,3.377,0,1,0,0,6.754h20.261a3.377,3.377,0,1,0,0-6.754Z" fill="#c07500"/>
    <path id="Path_15" data-name="Path 15" d="M93.658,488.874H86.9a3.377,3.377,0,1,0,0,6.754h6.754a3.377,3.377,0,0,0,0-6.754Z" fill="#c07500"/>
    <path id="Path_16" data-name="Path 16" d="M129.028,498.568v9.315H77.848V445.366h8.6v3.377a3.378,3.378,0,0,0,3.377,3.377h27.015a3.378,3.378,0,0,0,3.377-3.377v-3.377h8.816v10.123h4.691v-11.5a3.378,3.378,0,0,0-3.377-3.377H120.06a10.138,10.138,0,0,0-9.979-8.442H96.574a10.141,10.141,0,0,0-9.979,8.442H76.313a3.378,3.378,0,0,0-3.377,3.377v65.848a3.378,3.378,0,0,0,3.377,3.377h54.029a3.378,3.378,0,0,0,3.377-3.377v-11.27ZM89.82,442.02a4.507,4.507,0,0,1,4.5-4.5h18.009a4.507,4.507,0,0,1,4.5,4.5v6.919H89.82Z" fill="#c07500"/>
    <path id="Path_17" data-name="Path 17" d="M130.888,496.984a24.66,24.66,0,0,1-13.643-10.707c-3.681-6.268-2.69-23.2-2.647-23.918l.051-.821,16.561-4.149,16.561,4.149.051.821c.044.718,1.034,17.649-2.647,23.919a24.661,24.661,0,0,1-13.643,10.706l-.322.1Zm-14.094-33.669-.015.36c-.071,1.658-.6,16.345,2.4,21.465a22.653,22.653,0,0,0,11.874,9.541l.155.052.155-.052a22.651,22.651,0,0,0,11.874-9.54c3.007-5.121,2.473-19.808,2.4-21.466l-.015-.36L131.21,459.7Z" fill="#c07500"/>
    <path id="Path_18" data-name="Path 18" d="M143.351,470.624l-13.08,11.847a1.848,1.848,0,0,1-2.608-.129l-6.9-7.62a1.847,1.847,0,0,1,.129-2.608h0a1.846,1.846,0,0,1,2.608.129l4.422,4.883a1.847,1.847,0,0,0,2.608.129l10.344-9.368a1.847,1.847,0,0,1,2.608.129h0A1.847,1.847,0,0,1,143.351,470.624Z" fill="#c07500"/>
  </g>
</svg>
