<svg xmlns="http://www.w3.org/2000/svg" width="21.977" height="18.052" viewBox="0 0 21.977 18.052">
  <g id="Group_2461" data-name="Group 2461" transform="translate(-279.445 -989.151)">
    <path id="Path_1549" data-name="Path 1549" d="M283.645,1002.594a.37.37,0,0,0,.233.08.365.365,0,0,0,.29-.14.372.372,0,0,0-.058-.524,10.137,10.137,0,0,1-.859-.766l-2.753-2.753,2.84-2.839A10.044,10.044,0,0,1,293.7,993.22a.373.373,0,1,0,.237-.707,10.793,10.793,0,0,0-11.125,2.612l-3.366,3.366,3.281,3.28a11.172,11.172,0,0,0,.919.823Zm0,0" fill="#fcaa01"/>
    <path id="Path_1550" data-name="Path 1550" d="M298.143,995.125a10.978,10.978,0,0,0-1.635-1.345.372.372,0,1,0-.416.618,10.128,10.128,0,0,1,1.525,1.254l2.753,2.753-2.841,2.839a10.143,10.143,0,0,1-10.551,2.366.372.372,0,0,0-.251.7,10.893,10.893,0,0,0,11.329-2.54l3.366-3.366Zm0,0" fill="#fcaa01"/>
    <path id="Path_1551" data-name="Path 1551" d="M290.811,1002.736a4.264,4.264,0,0,1-2.259-.644.373.373,0,0,0-.393.633,5.025,5.025,0,0,0,6.83-7.06.371.371,0,1,0-.618.412,4.281,4.281,0,0,1-3.56,6.659Zm0,0" fill="#fcaa01"/>
    <path id="Path_1552" data-name="Path 1552" d="M290.811,994.176a4.266,4.266,0,0,1,2.179.6.373.373,0,0,0,.38-.641,5.026,5.026,0,0,0-7.072,6.537.372.372,0,0,0,.335.207.386.386,0,0,0,.164-.036.375.375,0,0,0,.17-.5,4.243,4.243,0,0,1-.436-1.885,4.285,4.285,0,0,1,4.28-4.28Zm0,0" fill="#fcaa01"/>
    <path id="Path_1553" data-name="Path 1553" d="M299.774,989.26a.372.372,0,0,0-.526,0l-17.306,17.306a.373.373,0,1,0,.526.528l17.306-17.306a.375.375,0,0,0,0-.528Zm0,0" fill="#fcaa01"/>
  </g>
</svg>
