<svg xmlns="http://www.w3.org/2000/svg" xmlns:xlink="http://www.w3.org/1999/xlink" width="42.069" height="32.302" viewBox="0 0 42.069 32.302">
  <defs>
    <linearGradient id="linear-gradient" x1="0.18" y1="0.996" x2="0.89" y2="0.072" gradientUnits="objectBoundingBox">
      <stop offset="0" stop-color="#d39d2c"/>
      <stop offset="0.032" stop-color="#d39d2c"/>
      <stop offset="0.063" stop-color="#e5af46"/>
      <stop offset="0.082" stop-color="#ecb751"/>
      <stop offset="0.175" stop-color="#d5a23d"/>
      <stop offset="0.254" stop-color="#c79530"/>
      <stop offset="0.305" stop-color="#cd9c36"/>
      <stop offset="0.383" stop-color="#ddb248"/>
      <stop offset="0.435" stop-color="#ecc557"/>
      <stop offset="0.582" stop-color="#fae56e"/>
      <stop offset="0.635" stop-color="#fae56e"/>
      <stop offset="0.706" stop-color="#eecb58"/>
      <stop offset="0.769" stop-color="#e6ba4a"/>
      <stop offset="0.812" stop-color="#d9ac40"/>
      <stop offset="0.853" stop-color="#d3a53b"/>
      <stop offset="1" stop-color="#9e6e1f"/>
    </linearGradient>
  </defs>
  <path id="Path_3251" data-name="Path 3251" d="M789.563,463.865a8.722,8.722,0,0,0-7.418,13.306l6.922,11.155a.725.725,0,0,0,.617.344h.006a.728.728,0,0,0,.618-.354l6.745-11.263a8.722,8.722,0,0,0-7.49-13.188Zm6.243,12.442-6.133,10.24L783.38,476.4a7.272,7.272,0,1,1,12.426-.1Zm-6.243-8.082a4.361,4.361,0,1,0,4.36,4.361A4.365,4.365,0,0,0,789.563,468.225Zm0,7.277a2.917,2.917,0,1,1,2.912-2.916A2.919,2.919,0,0,1,789.563,475.5ZM802.88,488.67h-1.961l-.779-2.027h-3.568l-.737,2.027h-1.912l3.477-8.926h1.906Zm-3.318-3.531-1.231-3.313-1.205,3.313Zm5.358,3.531v-7.416h-2.649v-1.51h7.093v1.51h-2.642v7.416Zm5.583,0v-8.926h2.7l1.621,6.089,1.6-6.089h2.7v8.926H817.45v-7.026l-1.771,7.026h-1.735l-1.766-7.026v7.026Zm12.409,7.5H788.563v-5a1,1,0,0,1,2,0v3h30.349V472.833H801.245a1,1,0,0,1,0-2h21.667Z" transform="translate(-780.843 -463.865)" fill="url(#linear-gradient)"/>
</svg>
