<svg xmlns="http://www.w3.org/2000/svg" xmlns:xlink="http://www.w3.org/1999/xlink" width="41.22" height="39.579" viewBox="0 0 41.22 39.579">
  <defs>
    <linearGradient id="linear-gradient" x1="0.119" y1="1.061" x2="0.95" y2="0.195" gradientUnits="objectBoundingBox">
      <stop offset="0" stop-color="#d39d2c"/>
      <stop offset="0.032" stop-color="#d39d2c"/>
      <stop offset="0.063" stop-color="#e5af46"/>
      <stop offset="0.082" stop-color="#ecb751"/>
      <stop offset="0.175" stop-color="#d5a23d"/>
      <stop offset="0.254" stop-color="#c79530"/>
      <stop offset="0.305" stop-color="#cd9c36"/>
      <stop offset="0.383" stop-color="#ddb248"/>
      <stop offset="0.435" stop-color="#ecc557"/>
      <stop offset="0.582" stop-color="#fae56e"/>
      <stop offset="0.635" stop-color="#fae56e"/>
      <stop offset="0.706" stop-color="#eecb58"/>
      <stop offset="0.769" stop-color="#e6ba4a"/>
      <stop offset="0.812" stop-color="#d9ac40"/>
      <stop offset="0.853" stop-color="#d3a53b"/>
      <stop offset="1" stop-color="#9e6e1f"/>
    </linearGradient>
  </defs>
  <path id="Path_2055" data-name="Path 2055" d="M241.34,326.194v-.711A4.671,4.671,0,0,0,241.2,324a.612.612,0,0,0-.635-.351.636.636,0,0,0-.584.3,1.646,1.646,0,0,0-.2.91,2,2,0,0,0,.4,1.411,16.169,16.169,0,0,0,2.316,1.568,17.834,17.834,0,0,1,2.227,1.512,4.126,4.126,0,0,1,1,1.488,6.219,6.219,0,0,1,.4,2.393,5.408,5.408,0,0,1-1.1,3.6,5.088,5.088,0,0,1-3.318,1.613v1.61h-1.979V338.4a5.143,5.143,0,0,1-3-1.326c-.858-.765-1.282-2.106-1.282-4.018v-.838h4.285v1.049a9.86,9.86,0,0,0,.134,2.145.592.592,0,0,0,.636.419.768.768,0,0,0,.651-.29,1.451,1.451,0,0,0,.212-.868,7.375,7.375,0,0,0-.2-2.062,3.04,3.04,0,0,0-1.379-1.354,31.717,31.717,0,0,1-2.673-1.809,4.742,4.742,0,0,1-1.214-1.633,5.27,5.27,0,0,1-.517-2.372,4.077,4.077,0,0,1,1.091-3.016,5.319,5.319,0,0,1,3.261-1.346V319.71h1.979v1.373a4.723,4.723,0,0,1,2.977,1.328,4.279,4.279,0,0,1,.982,2.98c0,.173-.01.444-.041.8ZM211.212,340.74h6.87a.687.687,0,0,1,.687.687v.687h5.351a3.414,3.414,0,0,1,1.9.577l5.318,3.545h5.475a2.9,2.9,0,0,1,2.81,3.625l8.47-2.647a2.7,2.7,0,0,1,1.82-.021,2.673,2.673,0,0,1,.2,5l-14.982,6.339a9.572,9.572,0,0,1-3.747.76h-.175a9.624,9.624,0,0,1-3.054-.5l-9.387-3.338v1.088a.687.687,0,0,1-.687.687h-6.87a.687.687,0,0,1-.687-.687V341.427A.687.687,0,0,1,211.212,340.74Zm7.557,13.255,9.834,3.5a8.233,8.233,0,0,0,2.607.423h.175a8.2,8.2,0,0,0,3.211-.651l14.983-6.339a1.3,1.3,0,0,0-.132-2.441,1.332,1.332,0,0,0-.9.028l-9.9,3.094c-.009.009-.02.015-.03.024a2.854,2.854,0,0,1-.885.571l-.042.015a2.861,2.861,0,0,1-.44.132l-.107.022a2.969,2.969,0,0,1-.51.049H226.326v-1.374h10.308a1.541,1.541,0,0,0,.374-.052c.044-.011.087-.027.13-.042a1.61,1.61,0,0,0,.217-.1c.044-.024.088-.046.13-.074a1.585,1.585,0,0,0,.219-.181c.02-.021.045-.037.065-.059A1.525,1.525,0,0,0,238,350.2l.185-.37a1.534,1.534,0,0,0-1.372-2.219h-5.682a.7.7,0,0,1-.381-.115l-5.491-3.661a2.054,2.054,0,0,0-1.143-.346h-5.351Zm-6.6,1.172h4.946V342.8h-4.946ZM249,339.366h-1.374v1.374H249Zm0,2.748h-1.374v2.748H249Zm-15.114-2.748h-1.374v1.374h1.374Zm0,2.748h-1.374v2.748h1.374Zm7.557-.687h-1.374V342.8h1.374Zm0,2.748h-1.374v2.061h1.374Z" transform="translate(-210.525 -319.71)" fill-rule="evenodd" fill="url(#linear-gradient)"/>
</svg>
