<svg xmlns="http://www.w3.org/2000/svg" xmlns:xlink="http://www.w3.org/1999/xlink" width="38.061" height="42.498" viewBox="0 0 38.061 42.498">
  <defs>
    <linearGradient id="linear-gradient" x1="0.094" y1="0.99" x2="0.906" y2="0.263" gradientUnits="objectBoundingBox">
      <stop offset="0" stop-color="#d39d2c"/>
      <stop offset="0.032" stop-color="#d39d2c"/>
      <stop offset="0.063" stop-color="#e5af46"/>
      <stop offset="0.082" stop-color="#ecb751"/>
      <stop offset="0.175" stop-color="#d5a23d"/>
      <stop offset="0.254" stop-color="#c79530"/>
      <stop offset="0.305" stop-color="#cd9c36"/>
      <stop offset="0.383" stop-color="#ddb248"/>
      <stop offset="0.435" stop-color="#ecc557"/>
      <stop offset="0.582" stop-color="#fae56e"/>
      <stop offset="0.635" stop-color="#fae56e"/>
      <stop offset="0.706" stop-color="#eecb58"/>
      <stop offset="0.769" stop-color="#e6ba4a"/>
      <stop offset="0.812" stop-color="#d9ac40"/>
      <stop offset="0.853" stop-color="#d3a53b"/>
      <stop offset="1" stop-color="#9e6e1f"/>
    </linearGradient>
  </defs>
  <path id="Path_3268" data-name="Path 3268" d="M1100,773.054a1.7,1.7,0,1,1-1.7,1.7A1.7,1.7,0,0,1,1100,773.054Zm5.947,1.36v-6.287a3.4,3.4,0,0,0-3.4-3.4h-24.467a3.4,3.4,0,0,0-3.4,3.4V782.06a3.4,3.4,0,0,0,3.4,3.4h24.467a3.4,3.4,0,0,0,3.4-3.4,1.7,1.7,0,0,1,3.4,0,6.8,6.8,0,0,1-6.8,6.8h-24.467a6.8,6.8,0,0,1-6.8-6.8V768.127a6.8,6.8,0,0,1,6.8-6.8h2.035v-4.992a10.2,10.2,0,0,1,20.39,0v4.992h2.042a6.8,6.8,0,0,1,6.8,6.8v6.287a1.7,1.7,0,0,1-3.4,0Zm-8.839-18.076a6.8,6.8,0,0,0-13.593,0v4.992h13.593Zm-11.636,18.415a1.7,1.7,0,1,0,1.7-1.7A1.7,1.7,0,0,0,1085.472,774.753Zm-6.372,0a1.7,1.7,0,1,0,1.7-1.7A1.7,1.7,0,0,0,1079.1,774.753Zm12.744,0a1.7,1.7,0,1,0,1.7-1.7A1.7,1.7,0,0,0,1091.844,774.753Z" transform="translate(-1071.284 -746.358)" fill="url(#linear-gradient)"/>
</svg>
