<svg xmlns="http://www.w3.org/2000/svg" width="16.794" height="12.521" viewBox="0 0 16.794 12.521">
  <g id="Group_4748" data-name="Group 4748" transform="translate(-8.965 -1730.98)">
    <g id="Group_2393" data-name="Group 2393">
      <g id="Group_2392" data-name="Group 2392">
        <path id="Path_1486" data-name="Path 1486" d="M16,1736.176h-5.5a.306.306,0,0,0-.306.306v1.834a.306.306,0,0,0,.306.306H16a.305.305,0,0,0,.305-.306v-1.834A.305.305,0,0,0,16,1736.176Zm-.306,1.834H10.8v-1.222H15.69Z" fill="#c27406"/>
      </g>
    </g>
    <g id="Group_2395" data-name="Group 2395">
      <g id="Group_2394" data-name="Group 2394">
        <rect id="Rectangle_1136" data-name="Rectangle 1136" width="0.611" height="0.611" transform="translate(16.913 1736.482)" fill="#c27406"/>
      </g>
    </g>
    <g id="Group_2397" data-name="Group 2397">
      <g id="Group_2396" data-name="Group 2396">
        <rect id="Rectangle_1137" data-name="Rectangle 1137" width="0.611" height="0.611" transform="translate(18.135 1736.482)" fill="#c27406"/>
      </g>
    </g>
    <g id="Group_2399" data-name="Group 2399">
      <g id="Group_2398" data-name="Group 2398">
        <rect id="Rectangle_1138" data-name="Rectangle 1138" width="0.611" height="0.611" transform="translate(16.913 1737.705)" fill="#c27406"/>
      </g>
    </g>
    <path id="Path_1487" data-name="Path 1487" d="M18.747,1740.15H10.494a.917.917,0,0,1-.917-.917v-3.668H23.026v.611a.306.306,0,0,0,.306.306h0a.305.305,0,0,0,.3-.306v-3.668a1.528,1.528,0,0,0-1.528-1.528H10.494a1.528,1.528,0,0,0-1.529,1.528v6.725a1.528,1.528,0,0,0,1.529,1.528h8.253a.3.3,0,0,0,.305-.3h0A.305.305,0,0,0,18.747,1740.15Zm-9.17-7.642a.918.918,0,0,1,.917-.917H22.109a.918.918,0,0,1,.917.917v.612H9.577Zm0,1.223H23.026v1.223H9.577Z" fill="#c27406"/>
    <g id="Group_2402" data-name="Group 2402">
      <g id="Group_2400" data-name="Group 2400">
        <path id="Path_1488" data-name="Path 1488" d="M23.159,1739.606a.6.6,0,0,0,.424-.164.536.536,0,0,0,0-.8.6.6,0,0,0-.424-.166.6.6,0,0,0-.427.166.534.534,0,0,0,0,.8A.61.61,0,0,0,23.159,1739.606Z" fill="#c27406"/>
        <path id="Path_1489" data-name="Path 1489" d="M23.159,1739.794a.8.8,0,0,1-.555-.213.718.718,0,0,1-.239-.536.71.71,0,0,1,.238-.537.822.822,0,0,1,1.109,0,.726.726,0,0,1,0,1.072A.783.783,0,0,1,23.159,1739.794Zm0-1.125a.422.422,0,0,0-.3.114.343.343,0,0,0-.118.262.334.334,0,0,0,.118.258.441.441,0,0,0,.595,0,.335.335,0,0,0,.116-.259.339.339,0,0,0-.117-.262A.411.411,0,0,0,23.159,1738.669Z" fill="#c27406"/>
      </g>
      <g id="Group_2401" data-name="Group 2401">
        <path id="Path_1490" data-name="Path 1490" d="M22.6,1737.468a2.878,2.878,0,0,0-1.732,5.1.066.066,0,0,0,.093-.011l.054-.069a.061.061,0,0,0-.01-.087,2.662,2.662,0,1,1,4.351-2.056,2.615,2.615,0,0,1-1.657,2.446,1.093,1.093,0,0,1-.169.056.77.77,0,0,1-.208.033.446.446,0,0,1-.276-.065.3.3,0,0,1-.079-.242,1.336,1.336,0,0,1,.024-.209,2.264,2.264,0,0,1,.056-.246l.252-.892a1.5,1.5,0,0,0,.051-.27c.009-.1.013-.167.013-.206a.587.587,0,0,0-.2-.459.822.822,0,0,0-.563-.176,1.431,1.431,0,0,0-.431.072q-.226.072-.476.173l-.067.277c.049-.019.108-.038.177-.059a.715.715,0,0,1,.2-.03.4.4,0,0,1,.271.067.326.326,0,0,1,.071.24,1.109,1.109,0,0,1-.023.21c-.016.077-.035.158-.057.244l-.254.9c-.022.094-.039.178-.049.253a1.656,1.656,0,0,0-.015.219.582.582,0,0,0,.2.456.836.836,0,0,0,.572.18,1.271,1.271,0,0,0,.42-.063q.182-.063.485-.183a2.879,2.879,0,0,0-1.031-5.6Z" fill="#c27406"/>
        <path id="Path_1491" data-name="Path 1491" d="M22.723,1743.5a1.022,1.022,0,0,1-.7-.226.763.763,0,0,1-.269-.6,1.749,1.749,0,0,1,.018-.246c.011-.079.028-.17.052-.271l.255-.9c.021-.079.039-.157.054-.23a.861.861,0,0,0,.019-.173.239.239,0,0,0-.015-.1.336.336,0,0,0-.138-.014.528.528,0,0,0-.148.023c-.064.019-.118.037-.164.055l-.334.124.175-.716.089-.036q.256-.105.491-.178a1.2,1.2,0,0,1,1.175.143.767.767,0,0,1,.261.6c0,.043,0,.117-.014.224a1.484,1.484,0,0,1-.058.306l-.251.89a2.3,2.3,0,0,0-.051.227,1.127,1.127,0,0,0-.022.176.229.229,0,0,0,.015.1h0a.441.441,0,0,0,.31-.007,1.115,1.115,0,0,0,.138-.045,2.418,2.418,0,0,0,1.55-2.276,2.477,2.477,0,0,0-2.465-2.473h-.008a2.493,2.493,0,0,0-2.47,2.367,2.457,2.457,0,0,0,.9,2.016.251.251,0,0,1,.039.35l-.054.069a.261.261,0,0,1-.173.1.245.245,0,0,1-.188-.056,3.066,3.066,0,0,1,1.845-5.434h0a3.067,3.067,0,0,1,1.1,5.966c-.2.077-.36.139-.483.182A1.489,1.489,0,0,1,22.723,1743.5Zm-.529-3.124a.427.427,0,0,1,.209.1.5.5,0,0,1,.13.377,1.266,1.266,0,0,1-.027.247c-.016.08-.036.165-.059.255l-.254.9a2.267,2.267,0,0,0-.044.228,1.281,1.281,0,0,0-.014.193.39.39,0,0,0,.141.314.661.661,0,0,0,.447.133,1.13,1.13,0,0,0,.359-.052l.054-.019a.486.486,0,0,1-.211-.09.477.477,0,0,1-.15-.39,1.4,1.4,0,0,1,.028-.243,2.616,2.616,0,0,1,.059-.263l.252-.892a1.2,1.2,0,0,0,.045-.237c.008-.089.012-.152.012-.188a.4.4,0,0,0-.134-.318.861.861,0,0,0-.812-.065Z" fill="#c27406"/>
      </g>
    </g>
  </g>
</svg>
