<svg xmlns="http://www.w3.org/2000/svg" viewBox="0 0 18.53 18.53"><defs><style>.cls-1{fill:#333;opacity:0.8;}.cls-2{fill:#fab317;}</style></defs><title>Asset 2</title><g id="Layer_2" data-name="Layer 2"><g id="Layer_6" data-name="Layer 6"><path class="cls-1" d="M13.4,18.53a5.12,5.12,0,0,1-4.71-3.1H2.12A2.12,2.12,0,0,1,0,13.3V4.2A2.13,2.13,0,0,1,2.07,2.07V1.52a1.52,1.52,0,1,1,3,0v.55h5.23V1.52a1.52,1.52,0,1,1,3,0v.55A2.12,2.12,0,0,1,15.43,4.2V8.69a5.13,5.13,0,0,1-2,9.84Z"/><path class="cls-2" d="M3.07,3.58V1.52a.52.52,0,1,1,1,0V3.58a.52.52,0,1,1-1,0Zm8.78.52a.52.52,0,0,0,.52-.52V1.52a.52.52,0,1,0-1,0V3.58a.52.52,0,0,0,.52.52Zm5.68,9.3A4.13,4.13,0,1,1,13.4,9.27a4.13,4.13,0,0,1,4.13,4.13Zm-1,0a3.1,3.1,0,1,0-3.1,3.1,3.1,3.1,0,0,0,3.1-3.1ZM5.13,7.2H3.07V9.27H5.13ZM3.07,12.37H5.13V10.3H3.07Zm3.1-3.1H8.23V7.2H6.17Zm0,3.1H8.23V10.3H6.17ZM2,13.3V6.17H13.4V8.23h1v-4a1.13,1.13,0,0,0-1.12-1.13h-.43v.51a1,1,0,1,1-2.06,0V3.07H4.62v.51a1,1,0,1,1-2.07,0V3.07H2.12A1.13,1.13,0,0,0,1,4.2v9.1a1.13,1.13,0,0,0,1.12,1.13H8.23v-1H2.12A.1.1,0,0,1,2,13.3Zm9.3-4V7.2H9.27V9.27ZM15,13.4H13.4V11.85a.52.52,0,1,0-1,0v2.07a.51.51,0,0,0,.51.51H15a.52.52,0,1,0,0-1Z"/></g></g></svg>