<svg xmlns="http://www.w3.org/2000/svg" xmlns:xlink="http://www.w3.org/1999/xlink" width="40.539" height="40.92" viewBox="0 0 40.539 40.92">
  <defs>
    <linearGradient id="linear-gradient" x1="0.008" y1="0.989" x2="0.957" y2="0.049" gradientUnits="objectBoundingBox">
      <stop offset="0" stop-color="#d39d2c"/>
      <stop offset="0.032" stop-color="#d39d2c"/>
      <stop offset="0.063" stop-color="#e5af46"/>
      <stop offset="0.082" stop-color="#ecb751"/>
      <stop offset="0.175" stop-color="#d5a23d"/>
      <stop offset="0.254" stop-color="#c79530"/>
      <stop offset="0.305" stop-color="#cd9c36"/>
      <stop offset="0.383" stop-color="#ddb248"/>
      <stop offset="0.435" stop-color="#ecc557"/>
      <stop offset="0.582" stop-color="#fae56e"/>
      <stop offset="0.635" stop-color="#fae56e"/>
      <stop offset="0.706" stop-color="#eecb58"/>
      <stop offset="0.769" stop-color="#e6ba4a"/>
      <stop offset="0.812" stop-color="#d9ac40"/>
      <stop offset="0.853" stop-color="#d3a53b"/>
      <stop offset="1" stop-color="#9e6e1f"/>
    </linearGradient>
  </defs>
  <path id="Path_3353" data-name="Path 3353" d="M674.778,1603.814h-7.161a1.108,1.108,0,0,0-1.109,1.109v38.56a1.113,1.113,0,0,0,1.109,1.114h7.161a1.117,1.117,0,0,0,1.113-1.114V1620.8l-.744-.466v23.145a.371.371,0,0,1-.369.369h-7.161a.372.372,0,0,1-.37-.369v-38.56a.372.372,0,0,1,.37-.37h7.161a.372.372,0,0,1,.369.37v9.8l.744-.466v-9.335A1.112,1.112,0,0,0,674.778,1603.814Zm-35.212,34.11a.372.372,0,0,1-.369-.374v-1.483a.372.372,0,0,1,.369-.37H651a1.126,1.126,0,0,0-.223-.37,1.1,1.1,0,0,0-.825-.369H639.566a1.118,1.118,0,0,0-1.113,1.109v1.483a1.129,1.129,0,0,0,1.113,1.114h10.383a1.094,1.094,0,0,0,.82-.37.935.935,0,0,0,.223-.37Zm0,5.928a.371.371,0,0,1-.369-.369V1642a.372.372,0,0,1,.369-.37H651a1.116,1.116,0,0,0-1.048-.744H639.566a1.118,1.118,0,0,0-1.113,1.114v1.483a1.117,1.117,0,0,0,1.113,1.114h10.383a1.112,1.112,0,0,0,1.048-.745Zm0-2.966a.368.368,0,0,1-.369-.37v-1.483a.371.371,0,0,1,.369-.369H651a1.053,1.053,0,0,0-.228-.37,1.078,1.078,0,0,0-.82-.37H639.566a1.129,1.129,0,0,0-1.113,1.109v1.483a1.128,1.128,0,0,0,1.113,1.114h10.383a1.084,1.084,0,0,0,.825-.375,1.064,1.064,0,0,0,.223-.369Zm0-5.928a.373.373,0,0,1-.369-.375V1633.1a.372.372,0,0,1,.369-.37H651a1.123,1.123,0,0,0-.223-.369,1.1,1.1,0,0,0-.825-.37H639.566a1.12,1.12,0,0,0-1.113,1.109v1.483a1.12,1.12,0,0,0,1.113,1.114h10.383a1.1,1.1,0,0,0,.825-.37,1.113,1.113,0,0,0,.223-.369Zm0-2.967a.372.372,0,0,1-.369-.374v-1.479a.372.372,0,0,1,.369-.374H651a1.125,1.125,0,0,0-.223-.37,1.1,1.1,0,0,0-.825-.369H639.566a1.118,1.118,0,0,0-1.113,1.113v1.479a1.111,1.111,0,0,0,.288.744,1.1,1.1,0,0,0,.825.369h10.383a1.1,1.1,0,0,0,.825-.369,1.115,1.115,0,0,0,.223-.37Zm11.208-5.563a1.1,1.1,0,0,0-.825-.37H639.566a1.12,1.12,0,0,0-1.113,1.114v1.483a1.12,1.12,0,0,0,1.113,1.109h10.383a1.1,1.1,0,0,0,.825-.37,1.123,1.123,0,0,0,.223-.369,1.1,1.1,0,0,0,.066-.37v-1.483A1.1,1.1,0,0,0,650.774,1626.428Zm-11.208,2.6a.372.372,0,0,1-.369-.37v-1.483a.373.373,0,0,1,.369-.375h10.383a.373.373,0,0,1,.37.375v1.483a.372.372,0,0,1-.37.37Zm11.2-5.559a1.065,1.065,0,0,0-.82-.374H639.566a1.066,1.066,0,0,0-.82.374,1.079,1.079,0,0,0-.293.739v1.484a1.118,1.118,0,0,0,1.113,1.108h10.383a1.12,1.12,0,0,0,1.114-1.108V1624.2A1.075,1.075,0,0,0,650.769,1623.466Zm-11.2,2.592a.371.371,0,0,1-.369-.369V1624.2a.372.372,0,0,1,.369-.374h10.383a.373.373,0,0,1,.37.374v1.484a.372.372,0,0,1-.37.369Zm11.208-5.558a1.084,1.084,0,0,0-.825-.375H639.566a1.128,1.128,0,0,0-1.113,1.114v1.483a1.1,1.1,0,0,0,.293.744,1.109,1.109,0,0,0,.82.365h10.383a1.107,1.107,0,0,0,.82-.365,1.092,1.092,0,0,0,.294-.744v-1.483A1.09,1.09,0,0,0,650.774,1620.5Zm-11.208,2.592a.372.372,0,0,1-.369-.37v-1.483a.368.368,0,0,1,.369-.37h10.383a.369.369,0,0,1,.37.37v1.483a.372.372,0,0,1-.37.37Zm10.383-5.933H639.566a1.116,1.116,0,0,0-1.113,1.113v1.484a1.111,1.111,0,0,0,.288.744,1.1,1.1,0,0,0,.825.369h10.383a1.1,1.1,0,0,0,.825-.369,1.107,1.107,0,0,0,.289-.744v-1.484A1.117,1.117,0,0,0,649.949,1617.159Zm-10.383,2.966a.371.371,0,0,1-.369-.369v-1.484a.368.368,0,0,1,.369-.369h10.383a.368.368,0,0,1,.37.369v1.484a.372.372,0,0,1-.37.369Zm5.192-3.571a6.438,6.438,0,1,1,6.438-6.439A6.447,6.447,0,0,1,644.758,1616.554Zm0-11.865a5.426,5.426,0,1,0,5.426,5.426A5.432,5.432,0,0,0,644.758,1604.689Zm.371,8.022h-1.854a.371.371,0,1,1,0-.742h1.854a.742.742,0,0,0,0-1.483h-.742a1.483,1.483,0,1,1,0-2.966h1.854a.37.37,0,1,1,0,.741h-1.854a.742.742,0,0,0,0,1.484h.742a1.483,1.483,0,0,1,0,2.966Zm-.371-4.45a.371.371,0,0,1-.371-.37v-1.483a.371.371,0,0,1,.742,0v1.483A.371.371,0,0,1,644.758,1608.261Zm0,5.933a.371.371,0,0,1-.371-.371v-1.483a.371.371,0,0,1,.742,0v1.483A.372.372,0,0,1,644.758,1614.194Zm3.338,23.356v-1.483a.369.369,0,0,1,.37-.37h-1.048a1.123,1.123,0,0,0-.066.37v1.483a1.151,1.151,0,0,0,.066.374h1.048A.369.369,0,0,1,648.1,1637.55Zm0,0v-1.483a.369.369,0,0,1,.37-.37h-1.048a1.123,1.123,0,0,0-.066.37v1.483a1.151,1.151,0,0,0,.066.374h1.048A.369.369,0,0,1,648.1,1637.55Zm0,0v-1.483a.369.369,0,0,1,.37-.37h-1.048a1.123,1.123,0,0,0-.066.37v1.483a1.151,1.151,0,0,0,.066.374h1.048A.369.369,0,0,1,648.1,1637.55Zm0,0v-1.483a.369.369,0,0,1,.37-.37h-1.048a1.123,1.123,0,0,0-.066.37v1.483a1.151,1.151,0,0,0,.066.374h1.048A.369.369,0,0,1,648.1,1637.55Zm11.578-2.223a1.1,1.1,0,0,0-.825-.369H648.466a1.1,1.1,0,0,0-.825.369,1.16,1.16,0,0,0-.223.37,1.123,1.123,0,0,0-.066.37v1.483a1.151,1.151,0,0,0,.066.374,1.034,1.034,0,0,0,.228.37,1.094,1.094,0,0,0,.82.37h10.383a1.094,1.094,0,0,0,.82-.37,1.109,1.109,0,0,0,.289-.744v-1.483A1.13,1.13,0,0,0,659.674,1635.327Zm-11.208,2.6a.369.369,0,0,1-.37-.374v-1.483a.369.369,0,0,1,.37-.37h10.383a.372.372,0,0,1,.369.37v1.483a.372.372,0,0,1-.369.374Zm-.37-.374v-1.483a.369.369,0,0,1,.37-.37h-1.048a1.123,1.123,0,0,0-.066.37v1.483a1.151,1.151,0,0,0,.066.374h1.048A.369.369,0,0,1,648.1,1637.55Zm0,0v-1.483a.369.369,0,0,1,.37-.37h-1.048a1.123,1.123,0,0,0-.066.37v1.483a1.151,1.151,0,0,0,.066.374h1.048A.369.369,0,0,1,648.1,1637.55Zm0,0v-1.483a.369.369,0,0,1,.37-.37h-1.048a1.123,1.123,0,0,0-.066.37v1.483a1.151,1.151,0,0,0,.066.374h1.048A.369.369,0,0,1,648.1,1637.55Zm0,0v-1.483a.369.369,0,0,1,.37-.37h-1.048a1.123,1.123,0,0,0-.066.37v1.483a1.151,1.151,0,0,0,.066.374h1.048A.369.369,0,0,1,648.1,1637.55Zm11.578,3.7a1.1,1.1,0,0,0-.825-.369H648.466a1.1,1.1,0,0,0-.825.369,1.135,1.135,0,0,0-.289.745v1.483a1.1,1.1,0,0,0,.066.369,1.112,1.112,0,0,0,1.048.745h10.383a1.114,1.114,0,0,0,1.109-1.114V1642A1.133,1.133,0,0,0,659.674,1641.255Zm-.456,2.228a.371.371,0,0,1-.369.369H648.466a.368.368,0,0,1-.37-.369V1642a.369.369,0,0,1,.37-.37h10.383a.372.372,0,0,1,.369.37Zm-11.122-2.967v-1.483a.368.368,0,0,1,.37-.369h-1.048a1.117,1.117,0,0,0-.066.369v1.483a1.1,1.1,0,0,0,.066.37h1.048A.365.365,0,0,1,648.1,1640.516Zm11.573-2.222a1.078,1.078,0,0,0-.82-.37H648.466a1.145,1.145,0,0,0-1.048.74,1.117,1.117,0,0,0-.066.369v1.483a1.106,1.106,0,0,0,.289.739,1.084,1.084,0,0,0,.825.375h10.383a1.084,1.084,0,0,0,.825-.375,1.115,1.115,0,0,0,.284-.739v-1.483A1.107,1.107,0,0,0,659.669,1638.294Zm-11.2,2.592a.365.365,0,0,1-.37-.37v-1.483a.368.368,0,0,1,.37-.369h10.383a.371.371,0,0,1,.369.369v1.483a.368.368,0,0,1-.369.37Zm-.37-6.3V1633.1a.369.369,0,0,1,.37-.37h-1.048a1.128,1.128,0,0,0-.066.37v1.483a1.158,1.158,0,0,0,.066.375h1.048A.37.37,0,0,1,648.1,1634.583Zm0,0V1633.1a.369.369,0,0,1,.37-.37h-1.048a1.128,1.128,0,0,0-.066.37v1.483a1.158,1.158,0,0,0,.066.375h1.048A.37.37,0,0,1,648.1,1634.583Zm0,0V1633.1a.369.369,0,0,1,.37-.37h-1.048a1.128,1.128,0,0,0-.066.37v1.483a1.158,1.158,0,0,0,.066.375h1.048A.37.37,0,0,1,648.1,1634.583Zm0,0V1633.1a.369.369,0,0,1,.37-.37h-1.048a1.128,1.128,0,0,0-.066.37v1.483a1.158,1.158,0,0,0,.066.375h1.048A.37.37,0,0,1,648.1,1634.583Zm11.578-2.222a1.1,1.1,0,0,0-.825-.37H648.466a1.1,1.1,0,0,0-.825.37,1.157,1.157,0,0,0-.223.369,1.128,1.128,0,0,0-.066.37v1.483a1.106,1.106,0,0,0,.289.744,1.1,1.1,0,0,0,.825.37h10.383a1.1,1.1,0,0,0,.825-.37,1.128,1.128,0,0,0,.284-.744V1633.1A1.125,1.125,0,0,0,659.674,1632.361Zm-11.208,2.6a.37.37,0,0,1-.37-.375V1633.1a.369.369,0,0,1,.37-.37h10.383a.372.372,0,0,1,.369.37v1.483a.373.373,0,0,1-.369.375Zm-.37-.375V1633.1a.369.369,0,0,1,.37-.37h-1.048a1.128,1.128,0,0,0-.066.37v1.483a1.158,1.158,0,0,0,.066.375h1.048A.37.37,0,0,1,648.1,1634.583Zm0,0V1633.1a.369.369,0,0,1,.37-.37h-1.048a1.128,1.128,0,0,0-.066.37v1.483a1.158,1.158,0,0,0,.066.375h1.048A.37.37,0,0,1,648.1,1634.583Zm0,0V1633.1a.369.369,0,0,1,.37-.37h-1.048a1.128,1.128,0,0,0-.066.37v1.483a1.158,1.158,0,0,0,.066.375h1.048A.37.37,0,0,1,648.1,1634.583Zm0-2.966v-1.479a.369.369,0,0,1,.37-.374h-1.048a1.151,1.151,0,0,0-.066.374v1.479a1.151,1.151,0,0,0,.066.374h1.048A.369.369,0,0,1,648.1,1631.617Zm0,0v-1.479a.369.369,0,0,1,.37-.374h-1.048a1.151,1.151,0,0,0-.066.374v1.479a1.151,1.151,0,0,0,.066.374h1.048A.369.369,0,0,1,648.1,1631.617Zm0,0v-1.479a.369.369,0,0,1,.37-.374h-1.048a1.151,1.151,0,0,0-.066.374v1.479a1.151,1.151,0,0,0,.066.374h1.048A.369.369,0,0,1,648.1,1631.617Zm10.753-2.592H648.466a1.114,1.114,0,0,0-1.048.739,1.151,1.151,0,0,0-.066.374v1.479a1.111,1.111,0,0,0,.289.744,1.1,1.1,0,0,0,.825.369h10.383a1.1,1.1,0,0,0,.825-.369,1.132,1.132,0,0,0,.284-.744v-1.479A1.11,1.11,0,0,0,658.849,1629.025Zm-10.383,2.966a.369.369,0,0,1-.37-.374v-1.479a.369.369,0,0,1,.37-.374h10.383a.372.372,0,0,1,.369.374v1.479a.372.372,0,0,1-.369.374Zm-.37-.374v-1.479a.369.369,0,0,1,.37-.374h-1.048a1.151,1.151,0,0,0-.066.374v1.479a1.151,1.151,0,0,0,.066.374h1.048A.369.369,0,0,1,648.1,1631.617Zm0,0v-1.479a.369.369,0,0,1,.37-.374h-1.048a1.151,1.151,0,0,0-.066.374v1.479a1.151,1.151,0,0,0,.066.374h1.048A.369.369,0,0,1,648.1,1631.617Zm0,0v-1.479a.369.369,0,0,1,.37-.374h-1.048a1.151,1.151,0,0,0-.066.374v1.479a1.151,1.151,0,0,0,.066.374h1.048A.369.369,0,0,1,648.1,1631.617Zm7.211-13.716H652.34a.37.37,0,0,1,0-.741h2.967a.37.37,0,0,1,0,.741Zm15.65,0h-2.966a.37.37,0,0,1,0-.741h2.966a.37.37,0,1,1,0,.741Zm7.708-4.4a.366.366,0,0,0-.374.01l-2.4,1.5-.744.466-2.789,1.741a.372.372,0,0,0,0,.633l2.789,1.742.744.465,2.4,1.5a.372.372,0,0,0,.192.055.389.389,0,0,0,.182-.045.379.379,0,0,0,.193-.324v-7.416A.371.371,0,0,0,678.665,1613.5Zm-.551,7.072-2.223-1.392-.744-.466-1.893-1.185,1.893-1.184.744-.466,2.223-1.387Zm-17.591-2.67h-2.966a.37.37,0,0,1,0-.741h2.966a.37.37,0,1,1,0,.741Zm5.217,0h-2.966a.37.37,0,0,1,0-.741h2.966a.37.37,0,1,1,0,.741Z" transform="translate(-638.319 -1603.677)" fill="url(#linear-gradient)"/>
</svg>
