<svg xmlns="http://www.w3.org/2000/svg" xmlns:xlink="http://www.w3.org/1999/xlink" width="45.895" height="37.011" viewBox="0 0 45.895 37.011">
  <defs>
    <linearGradient id="linear-gradient" x1="0.152" y1="0.89" x2="0.863" y2="0.009" gradientUnits="objectBoundingBox">
      <stop offset="0" stop-color="#d39d2c"/>
      <stop offset="0.032" stop-color="#d39d2c"/>
      <stop offset="0.063" stop-color="#e5af46"/>
      <stop offset="0.082" stop-color="#ecb751"/>
      <stop offset="0.175" stop-color="#d5a23d"/>
      <stop offset="0.254" stop-color="#c79530"/>
      <stop offset="0.305" stop-color="#cd9c36"/>
      <stop offset="0.383" stop-color="#ddb248"/>
      <stop offset="0.435" stop-color="#ecc557"/>
      <stop offset="0.582" stop-color="#fae56e"/>
      <stop offset="0.635" stop-color="#fae56e"/>
      <stop offset="0.706" stop-color="#eecb58"/>
      <stop offset="0.769" stop-color="#e6ba4a"/>
      <stop offset="0.812" stop-color="#d9ac40"/>
      <stop offset="0.853" stop-color="#d3a53b"/>
      <stop offset="1" stop-color="#9e6e1f"/>
    </linearGradient>
  </defs>
  <path id="Path_3352" data-name="Path 3352" d="M499.529,1613.53V1631.3h14.8V1613.53Zm10.364,16.286h-5.922v-1.481a2.961,2.961,0,0,1,5.922,0Zm2.961,0h-1.481v-1.481a4.441,4.441,0,0,0-8.883,0v1.481h-1.48v-14.805h11.844Zm-5.922-13.325a3.7,3.7,0,1,0,3.7,3.7A3.7,3.7,0,0,0,506.932,1616.491Zm0,5.922a2.22,2.22,0,1,1,2.22-2.22A2.223,2.223,0,0,1,506.932,1622.413Zm28.129-7.4v1.48H515.815v-1.48Zm0,2.961v1.48H515.815v-1.48Zm0,2.961v1.48H515.815v-1.48Zm0,2.961v1.48H533.58v-1.48Zm-2.961,0v1.48h-8.883v-1.48Zm5.922,4.162V1611.31a3.705,3.705,0,0,0-3.7-3.7H521v1.48H534.32a2.224,2.224,0,0,1,2.221,2.221v16.063a8.787,8.787,0,0,0-8.137,1.16,8.867,8.867,0,0,0-13.936,5.724h-14.2a2.224,2.224,0,0,1-2.221-2.221V1611.31a2.224,2.224,0,0,1,2.221-2.221h21.024v-1.48H500.27a3.705,3.705,0,0,0-3.7,3.7v20.726a3.7,3.7,0,0,0,3.7,3.7h14.064a8.876,8.876,0,0,0,14.07,7.2,8.873,8.873,0,1,0,9.618-14.886Zm-14.8,15.084a7.4,7.4,0,1,1,4.021-13.61,8.887,8.887,0,0,0-1.764,2.593,2.583,2.583,0,0,0-1.517-.789v-1.518h-1.48v1.518a2.585,2.585,0,0,0,.37,5.144h.74a1.11,1.11,0,1,1,0,2.22h-.74a1.111,1.111,0,0,1-1.111-1.11v-.37h-1.48v.37a2.586,2.586,0,0,0,2.221,2.553v1.518h1.48v-1.518a2.583,2.583,0,0,0,1.517-.789,8.888,8.888,0,0,0,1.764,2.593A7.409,7.409,0,0,1,523.217,1643.14Zm1.614-8.883a8.882,8.882,0,0,0-.11,1.012,2.571,2.571,0,0,0-1.134-.272h-.74a1.11,1.11,0,1,1,0-2.22h.74a1.11,1.11,0,0,1,1.11,1.11v.37Zm8.749,8.883a7.4,7.4,0,1,1,7.4-7.4A7.411,7.411,0,0,1,533.58,1643.14Zm2.961-9.253v.37h-1.48v-.37a1.112,1.112,0,0,0-1.111-1.11h-.74a1.11,1.11,0,1,0,0,2.22h.74a2.585,2.585,0,0,1,.37,5.144v1.518h-1.48v-1.518a2.586,2.586,0,0,1-2.221-2.553v-.37H532.1v.37a1.111,1.111,0,0,0,1.11,1.11h.74a1.11,1.11,0,1,0,0-2.22h-.74a2.585,2.585,0,0,1-.37-5.144v-1.518h1.48v1.518A2.586,2.586,0,0,1,536.541,1633.887Z" transform="translate(-496.568 -1607.609)" fill="url(#linear-gradient)"/>
</svg>
