<svg xmlns="http://www.w3.org/2000/svg" xmlns:xlink="http://www.w3.org/1999/xlink" width="41.333" height="41.333" viewBox="0 0 41.333 41.333">
  <defs>
    <linearGradient id="linear-gradient" x1="0.017" y1="1.008" x2="0.998" y2="0.027" gradientUnits="objectBoundingBox">
      <stop offset="0" stop-color="#d39d2c"/>
      <stop offset="0.032" stop-color="#d39d2c"/>
      <stop offset="0.063" stop-color="#e5af46"/>
      <stop offset="0.082" stop-color="#ecb751"/>
      <stop offset="0.175" stop-color="#d5a23d"/>
      <stop offset="0.254" stop-color="#c79530"/>
      <stop offset="0.305" stop-color="#cd9c36"/>
      <stop offset="0.383" stop-color="#ddb248"/>
      <stop offset="0.435" stop-color="#ecc557"/>
      <stop offset="0.582" stop-color="#fae56e"/>
      <stop offset="0.635" stop-color="#fae56e"/>
      <stop offset="0.706" stop-color="#eecb58"/>
      <stop offset="0.769" stop-color="#e6ba4a"/>
      <stop offset="0.812" stop-color="#d9ac40"/>
      <stop offset="0.853" stop-color="#d3a53b"/>
      <stop offset="1" stop-color="#9e6e1f"/>
    </linearGradient>
  </defs>
  <path id="Path_3260" data-name="Path 3260" d="M241.38,757.716a2.5,2.5,0,0,1-.245-1.124,1.933,1.933,0,0,1,.517-1.428,2.515,2.515,0,0,1,1.544-.637v-.65h.938v.65a2.238,2.238,0,0,1,1.41.629,2.027,2.027,0,0,1,.465,1.411c0,.082-.005.21-.02.38h-2.032v-.336a2.235,2.235,0,0,0-.068-.7.291.291,0,0,0-.3-.166.3.3,0,0,0-.277.143.788.788,0,0,0-.093.431.944.944,0,0,0,.189.668,7.582,7.582,0,0,0,1.1.743,8.333,8.333,0,0,1,1.055.716,1.954,1.954,0,0,1,.475.705,2.939,2.939,0,0,1,.191,1.133,2.561,2.561,0,0,1-.519,1.7,2.412,2.412,0,0,1-1.571.764v.762H243.2v-.782a2.434,2.434,0,0,1-1.422-.628,2.464,2.464,0,0,1-.607-1.9v-.4H243.2v.5a4.636,4.636,0,0,0,.064,1.016.279.279,0,0,0,.3.2.361.361,0,0,0,.308-.137.685.685,0,0,0,.1-.411,3.493,3.493,0,0,0-.1-.977,1.437,1.437,0,0,0-.653-.641,14.625,14.625,0,0,1-1.266-.857A2.241,2.241,0,0,1,241.38,757.716Zm-8.556,28.173v2.755a.689.689,0,0,1-.689.689H210.091a.688.688,0,0,1-.689-.689v-2.755a.688.688,0,0,1,.689-.689h.689v-8.956h-.689a.688.688,0,0,1-.689-.688V772.8a.686.686,0,0,1,.483-.657l11.022-3.445a.686.686,0,0,1,.411,0l11.022,3.445a.687.687,0,0,1,.484.657v2.756a.689.689,0,0,1-.689.688h-.689V785.2h.689A.689.689,0,0,1,232.824,785.889ZM210.78,774.867h20.666v-1.561l-10.333-3.229-10.333,3.229Zm17.911,1.377V785.2h1.377v-8.956Zm-2.756,0V785.2h1.378v-8.956Zm-2.755,0V785.2h1.377v-8.956Zm-2.756,0V785.2H221.8v-8.956Zm-2.756,0V785.2h1.378v-8.956Zm-2.755,0V785.2h1.378v-8.956Zm-2.756,0V785.2h1.378v-8.956Zm19.289,10.334H210.78v1.378h20.666ZM221.8,772.111h-1.378v1.378H221.8Zm28.933-22.044v17.911a2.069,2.069,0,0,1-2.067,2.066H237.646a2.069,2.069,0,0,1-2.066-2.066V750.067A2.069,2.069,0,0,1,237.646,748h11.022A2.069,2.069,0,0,1,250.735,750.067ZM249.357,766.6h-12.4v1.378a.69.69,0,0,0,.689.689h11.022a.69.69,0,0,0,.689-.689Zm0-13.778h-12.4v12.4h12.4Zm0-2.755a.689.689,0,0,0-.689-.689H237.646a.69.69,0,0,0-.689.689v1.377h12.4Zm-16.533,5.511H234.2V754.2h-1.378Zm-1.378-1.378h-1.378v1.378h1.378Zm-2.755,0h-1.378v1.378h1.378Zm-2.756,0h-1.378v1.378h1.378Zm-2.755,0H221.8v1.378h1.378Zm-2.756,0h-1.378v1.378h1.378Zm-2.756,0h-1.377v1.378h1.377Zm-2.755,0h-1.378v1.378h1.378Zm0,2.756h-1.378v1.377h1.378Zm0,2.755h-1.378v1.378h1.378Zm0,2.756h-1.378v1.377h1.378Zm0,2.755h-1.378V766.6h1.378Zm0,2.756h-1.378v1.378h1.378Zm17.911,15.844H234.2v-1.378h-1.378Zm2.756,0h1.377v-1.378H235.58Zm2.755,0h1.378v-1.378h-1.378Zm2.756,0h1.377v-1.378h-1.377Zm2.755,0h1.378v-1.378h-1.378Zm2.756,0h1.378v-1.378H246.6Zm0-2.755h1.378v-1.378H246.6Zm0-2.756h1.378v-1.378H246.6Zm0-2.755h1.378v-1.378H246.6Zm0-2.756h1.378v-1.378H246.6Z" transform="translate(-209.402 -748)" fill="url(#linear-gradient)"/>
</svg>
