<svg xmlns="http://www.w3.org/2000/svg" xmlns:xlink="http://www.w3.org/1999/xlink" width="41.76" height="30.863" viewBox="0 0 41.76 30.863">
  <defs>
    <linearGradient id="linear-gradient" x1="0.099" y1="1.031" x2="0.906" y2="-0.06" gradientUnits="objectBoundingBox">
      <stop offset="0" stop-color="#d39d2c"/>
      <stop offset="0.032" stop-color="#d39d2c"/>
      <stop offset="0.063" stop-color="#e5af46"/>
      <stop offset="0.082" stop-color="#ecb751"/>
      <stop offset="0.175" stop-color="#d5a23d"/>
      <stop offset="0.254" stop-color="#c79530"/>
      <stop offset="0.305" stop-color="#cd9c36"/>
      <stop offset="0.383" stop-color="#ddb248"/>
      <stop offset="0.435" stop-color="#ecc557"/>
      <stop offset="0.582" stop-color="#fae56e"/>
      <stop offset="0.635" stop-color="#fae56e"/>
      <stop offset="0.706" stop-color="#eecb58"/>
      <stop offset="0.769" stop-color="#e6ba4a"/>
      <stop offset="0.812" stop-color="#d9ac40"/>
      <stop offset="0.853" stop-color="#d3a53b"/>
      <stop offset="1" stop-color="#9e6e1f"/>
    </linearGradient>
  </defs>
  <path id="Path_3253" data-name="Path 3253" d="M358.232,622.237h9.349v1.335h-9.349Zm0-3.339v1.335h4.675V618.9Zm23.372-5.342h-2.671v1.335H381.6Zm4.007,1.335v-1.335H382.94v1.335Zm4.006,0v-1.335h-2.671v1.335Zm-32.052,20.033h12.687v-1.335H357.565Zm15.358,0v-1.335h-1.335v1.335Zm1.336,0h1.335v-1.335h-1.335Zm1.335-4.006a.666.666,0,0,1-.668.667H358.232a.666.666,0,0,1-.667-.667v-3.339a.667.667,0,0,1,.667-.668h16.694a.667.667,0,0,1,.668.668Zm-1.335-2.671H358.9v2h15.359Zm-19.365,8.013h22.529v1.335h-23.2a.667.667,0,0,1-.668-.668v-26.71a.668.668,0,0,1,.668-.668h38.73a.668.668,0,0,1,.668.668v7.792h-1.336v-7.124h-29.1l-8.289,8.289Zm0-22.981,2.394-2.394h-2.394Zm0,4.007,6.4-6.4h-2.118l-4.283,4.283Zm40.424,3.963v17.308a1.856,1.856,0,0,1-1.855,1.855H381.1a1.855,1.855,0,0,1-1.854-1.855V621.249a1.854,1.854,0,0,1,1.854-1.855h12.363A1.855,1.855,0,0,1,395.318,621.249Zm-8.655,12.981h-6.181v4.327a.618.618,0,0,0,.618.618h5.563Zm0-6.182h-6.181v4.946h6.181Zm7.418,6.182H387.9v4.945h5.563a.617.617,0,0,0,.618-.618Zm0-6.182H387.9v4.946h6.181Zm0-6.8a.618.618,0,0,0-.618-.619H381.1a.619.619,0,0,0-.618.619v5.563h13.6Zm-1.236,1.236v2.473a.618.618,0,0,1-.618.618h-9.891a.618.618,0,0,1-.618-.618v-2.473a.618.618,0,0,1,.618-.618h9.891A.618.618,0,0,1,392.845,622.485Zm-1.236.618h-8.655v1.236h8.655Zm-8.655,9.273h1.237v-1.237h1.236V629.9h-1.236v-1.236h-1.237V629.9h-1.236v1.236h1.236Zm9.891-2.473h-3.709v1.236h3.709ZM382.7,638.526l.874-.874.874.874.874-.874-.874-.874.874-.875-.874-.874-.874.874-.874-.874-.875.874.875.875-.875.874Zm10.146-2.441h-3.709v1.236h3.709Zm-2.473,2.163h1.237v-.618h-1.237Zm1.237-3.091h-1.237v.618h1.237Z" transform="translate(-353.558 -609.549)" fill="url(#linear-gradient)"/>
</svg>
