<svg xmlns="http://www.w3.org/2000/svg" xmlns:xlink="http://www.w3.org/1999/xlink" width="28.533" height="35.735" viewBox="0 0 28.533 35.735">
  <defs>
    <linearGradient id="linear-gradient" x1="0.01" y1="0.978" x2="0.999" y2="0.188" gradientUnits="objectBoundingBox">
      <stop offset="0" stop-color="#d39d2c"/>
      <stop offset="0.032" stop-color="#d39d2c"/>
      <stop offset="0.063" stop-color="#e5af46"/>
      <stop offset="0.082" stop-color="#ecb751"/>
      <stop offset="0.175" stop-color="#d5a23d"/>
      <stop offset="0.254" stop-color="#c79530"/>
      <stop offset="0.305" stop-color="#cd9c36"/>
      <stop offset="0.383" stop-color="#ddb248"/>
      <stop offset="0.435" stop-color="#ecc557"/>
      <stop offset="0.582" stop-color="#fae56e"/>
      <stop offset="0.635" stop-color="#fae56e"/>
      <stop offset="0.706" stop-color="#eecb58"/>
      <stop offset="0.769" stop-color="#e6ba4a"/>
      <stop offset="0.812" stop-color="#d9ac40"/>
      <stop offset="0.853" stop-color="#d3a53b"/>
      <stop offset="1" stop-color="#9e6e1f"/>
    </linearGradient>
  </defs>
  <path id="Path_3254" data-name="Path 3254" d="M245.4,629.242a8.808,8.808,0,0,1-1.784,5.857,8.29,8.29,0,0,1-5.4,2.625v2.622h-3.222v-2.689c-.266-.026-.517-.088-.773-.136v-9.928h.773V629.3a16.053,16.053,0,0,0,.219,3.492.962.962,0,0,0,1.035.682,1.25,1.25,0,0,0,1.06-.472,2.365,2.365,0,0,0,.345-1.413,12.055,12.055,0,0,0-.328-3.358,4.952,4.952,0,0,0-2.247-2.205c-.3-.189-.584-.368-.857-.543v-2.366a2.666,2.666,0,0,0-2.666-2.666h-2.791a8.558,8.558,0,0,1-.856-3.89,6.642,6.642,0,0,1,1.776-4.91,8.678,8.678,0,0,1,5.31-2.192v-2.234h3.222v2.234a7.691,7.691,0,0,1,4.847,2.163,6.962,6.962,0,0,1,1.6,4.851c0,.282-.018.723-.068,1.308H237.61v-1.157a7.625,7.625,0,0,0-.235-2.414,1,1,0,0,0-1.035-.573,1.042,1.042,0,0,0-.952.492,2.69,2.69,0,0,0-.319,1.482,3.254,3.254,0,0,0,.648,2.3,26.176,26.176,0,0,0,3.769,2.553,29.007,29.007,0,0,1,3.627,2.462,6.72,6.72,0,0,1,1.633,2.423A10.108,10.108,0,0,1,245.4,629.242ZM232.941,623.8v17.309a1.854,1.854,0,0,1-1.855,1.854H218.723a1.854,1.854,0,0,1-1.854-1.854V623.8a1.854,1.854,0,0,1,1.854-1.854h12.363A1.854,1.854,0,0,1,232.941,623.8Zm-14.836,0v5.564h13.6V623.8a.619.619,0,0,0-.619-.618H218.723A.618.618,0,0,0,218.1,623.8Zm7.418,11.745h6.182V630.6h-6.182Zm-1.236-4.945H218.1v4.945h6.182Zm-5.564,11.127h5.564v-4.945H218.1v4.327A.618.618,0,0,0,218.723,641.724Zm12.982-.618v-4.327h-6.182v4.945h5.563A.619.619,0,0,0,231.705,641.106Zm-12.364-13.6v-2.473a.619.619,0,0,1,.619-.618h9.89a.618.618,0,0,1,.618.618v2.473a.617.617,0,0,1-.618.618h-9.89A.618.618,0,0,1,219.341,627.506Zm1.237-.618h8.654v-1.236h-8.654Zm-1.237,6.8h1.237v1.236h1.236v-1.236h1.236v-1.237h-1.236v-1.236h-1.236v1.236h-1.237Zm7.418,0h3.709v-1.237h-3.709Zm-3.815,4.764-.874-.874-.874.874-.874-.874-.874.874.874.874-.874.875.874.874.874-.875.874.875.874-.874-.874-.875Zm3.815,1.417h3.709v-1.236h-3.709ZM228,640.8h1.236v-.619H228Zm0-2.473h1.236v-.618H228Z" transform="translate(-216.869 -607.225)" fill-rule="evenodd" fill="url(#linear-gradient)"/>
</svg>
