<svg xmlns="http://www.w3.org/2000/svg" xmlns:xlink="http://www.w3.org/1999/xlink" width="38.6" height="41.941" viewBox="0 0 38.6 41.941">
  <defs>
    <linearGradient id="linear-gradient" x1="0.038" y1="0.98" x2="0.951" y2="0.14" gradientUnits="objectBoundingBox">
      <stop offset="0" stop-color="#d39d2c"/>
      <stop offset="0.032" stop-color="#d39d2c"/>
      <stop offset="0.063" stop-color="#e5af46"/>
      <stop offset="0.082" stop-color="#ecb751"/>
      <stop offset="0.175" stop-color="#d5a23d"/>
      <stop offset="0.254" stop-color="#c79530"/>
      <stop offset="0.305" stop-color="#cd9c36"/>
      <stop offset="0.383" stop-color="#ddb248"/>
      <stop offset="0.435" stop-color="#ecc557"/>
      <stop offset="0.582" stop-color="#fae56e"/>
      <stop offset="0.635" stop-color="#fae56e"/>
      <stop offset="0.706" stop-color="#eecb58"/>
      <stop offset="0.769" stop-color="#e6ba4a"/>
      <stop offset="0.812" stop-color="#d9ac40"/>
      <stop offset="0.853" stop-color="#d3a53b"/>
      <stop offset="1" stop-color="#9e6e1f"/>
    </linearGradient>
  </defs>
  <path id="Path_3368" data-name="Path 3368" d="M662.356,1489.113a18.128,18.128,0,0,1-10.03-7.872c-2.706-4.608-1.978-17.056-1.946-17.584l.037-.6,12.175-3.05,12.176,3.05.037.6c.032.528.76,12.976-1.946,17.585a18.137,18.137,0,0,1-10.03,7.871l-.237.07Zm-10.362-24.753-.011.265c-.052,1.219-.444,12.016,1.766,15.78a16.651,16.651,0,0,0,8.73,7.014l.113.039.114-.039a16.649,16.649,0,0,0,8.73-7.013c2.21-3.765,1.818-14.562,1.766-15.781l-.012-.265-10.6-2.655Zm14.156,3a4.319,4.319,0,0,0-3.553,1.844,4.342,4.342,0,0,0-7.407,4.5h-1.032a.51.51,0,0,0,0,1.019h1.769l6.31,6.3a.511.511,0,0,0,.72,0l6.279-6.268h1.791a.509.509,0,0,0,0-1.019h-1.041a4.342,4.342,0,0,0-3.836-6.374Zm-3.553,12.58-5.23-5.22h2.065a.51.51,0,0,0,.483-.347l.61-1.812,1.6,4.043a.51.51,0,0,0,.937.026l1.635-3.552.6,1.37a.51.51,0,0,0,.467.3h2.032Zm6.179-6.206h-2.681l-.922-2.1a.509.509,0,0,0-.929-.009l-1.611,3.5-1.672-4.23c-.221-.521-.73-.532-.957.025l-.938,2.785h-2.673a3.32,3.32,0,0,1,2.651-5.322,3.4,3.4,0,0,1,3.081,2.078c.223.491.687.559.944,0a3.41,3.41,0,0,1,3.081-2.078,3.321,3.321,0,0,1,2.626,5.355Zm9.005,16.878a2.521,2.521,0,0,0-1.706.02l-2.541.8-2.44.764-2.947.921a2.723,2.723,0,0,0-2.632-3.4h-5.128l-4.982-3.321a3.17,3.17,0,0,0-1.781-.537h-5.012v-.648a.644.644,0,0,0-.643-.643h-6.434a.644.644,0,0,0-.643.643v14.154a.64.64,0,0,0,.643.643h6.434a.641.641,0,0,0,.643-.643v-1.017l8.788,3.123a8.954,8.954,0,0,0,2.86.471h.167a9,9,0,0,0,3.509-.714l14.027-5.938a2.5,2.5,0,0,0-.182-4.677Zm-30.713,7.467h-4.632v-11.578h4.632Zm30.394-3.974-14.028,5.938a7.668,7.668,0,0,1-3.007.607h-.167a7.68,7.68,0,0,1-2.44-.4l-9.208-3.275v-9.836h5.012a1.894,1.894,0,0,1,1.068.324l5.143,3.427a.647.647,0,0,0,.359.106h5.331a1.441,1.441,0,0,1,1.271,2.081l-.172.344a1.315,1.315,0,0,1-.218.319c-.02.026-.046.036-.061.056a1.356,1.356,0,0,1-.207.172c-.041.025-.081.046-.122.071-.066.03-.131.061-.2.086a1.16,1.16,0,0,1-.122.04,1.3,1.3,0,0,1-.349.051h-9.654v1.286h9.654a2.9,2.9,0,0,0,.476-.046.723.723,0,0,1,.1-.02,2.659,2.659,0,0,0,.41-.127c.015-.005.025-.005.041-.01a2.711,2.711,0,0,0,.83-.536c.005-.01.02-.015.025-.026l5.473-1.711,1.058-.329,2.738-.855a1.242,1.242,0,0,1,.846-.025,1.223,1.223,0,0,1,.865,1.164A1.21,1.21,0,0,1,677.462,1494.109Z" transform="translate(-640.892 -1460.004)" fill="url(#linear-gradient)"/>
</svg>
