<svg xmlns="http://www.w3.org/2000/svg" xmlns:xlink="http://www.w3.org/1999/xlink" width="29.555" height="30.241" viewBox="0 0 29.555 30.241">
  <defs>
    <linearGradient id="linear-gradient" x1="-0.02" y1="0.92" x2="0.815" y2="0.105" gradientUnits="objectBoundingBox">
      <stop offset="0" stop-color="#d39d2c"/>
      <stop offset="0.032" stop-color="#d39d2c"/>
      <stop offset="0.063" stop-color="#e5af46"/>
      <stop offset="0.082" stop-color="#ecb751"/>
      <stop offset="0.175" stop-color="#d5a23d"/>
      <stop offset="0.254" stop-color="#c79530"/>
      <stop offset="0.305" stop-color="#cd9c36"/>
      <stop offset="0.383" stop-color="#ddb248"/>
      <stop offset="0.435" stop-color="#ecc557"/>
      <stop offset="0.582" stop-color="#fae56e"/>
      <stop offset="0.635" stop-color="#fae56e"/>
      <stop offset="0.706" stop-color="#eecb58"/>
      <stop offset="0.769" stop-color="#e6ba4a"/>
      <stop offset="0.812" stop-color="#d9ac40"/>
      <stop offset="0.853" stop-color="#d3a53b"/>
      <stop offset="1" stop-color="#9e6e1f"/>
    </linearGradient>
  </defs>
  <path id="Path_3309" data-name="Path 3309" d="M529.8,1043.158c.934.764,1.182,1.757.886,3.9.025.016.052.032.077.05l.133.089,0,.161a3.216,3.216,0,0,1-.191,1.26,1.206,1.206,0,0,1-.559.645,4.377,4.377,0,0,1-.994,1.714,3.454,3.454,0,0,0,.477,1.284,1.29,1.29,0,0,0,1.186.4l1.294,0a1.034,1.034,0,0,1,.758.307c1.6,1.712,1.914,4.676,1.951,6.454-1.839,1.793-13.551,1.693-15.984,0a10.084,10.084,0,0,1,1.807-6.428,1.139,1.139,0,0,1,.884-.426l1.114,0a2.074,2.074,0,0,0,1.082-.144,3.1,3.1,0,0,0,.642-1.562,4.392,4.392,0,0,1-.9-1.625,1.226,1.226,0,0,1-.539-.65,3.2,3.2,0,0,1-.182-1.24l0-.16.132-.09a1.453,1.453,0,0,1,.154-.093c-.265-1.95.093-3.249,1.09-3.981A5.17,5.17,0,0,1,529.8,1043.158Zm-3.8,20.266a1.122,1.122,0,0,1-1.121,1.12H508.384a1.122,1.122,0,0,1-1.12-1.12v-24a1.122,1.122,0,0,1,1.12-1.12h16.494a1.122,1.122,0,0,1,1.121,1.12v1.755h2v-1.755a3.124,3.124,0,0,0-3.121-3.12H508.384a3.123,3.123,0,0,0-3.12,3.12v24a3.124,3.124,0,0,0,3.12,3.12h16.494a3.124,3.124,0,0,0,3.121-3.12v-1.683h-2Zm-16.9-20.732h12.112a.5.5,0,0,0,0-1H509.1a.5.5,0,0,0,0,1Zm0,4.238h12.112a.5.5,0,0,0,0-1H509.1a.5.5,0,0,0,0,1Zm12.612,3.547a.5.5,0,0,0-.5-.5H509.1a.5.5,0,0,0,0,1h12.112A.5.5,0,0,0,521.716,1050.477Zm-12.612,3.384a.5.5,0,0,0,0,1h6.71a.5.5,0,0,0,0-1Z" transform="translate(-505.264 -1036.303)" fill="url(#linear-gradient)"/>
</svg>
