<svg xmlns="http://www.w3.org/2000/svg" xmlns:xlink="http://www.w3.org/1999/xlink" width="39.163" height="40.167" viewBox="0 0 39.163 40.167">
  <defs>
    <linearGradient id="linear-gradient" x1="0.062" y1="0.926" x2="0.996" y2="0.016" gradientUnits="objectBoundingBox">
      <stop offset="0" stop-color="#d39d2c"/>
      <stop offset="0.032" stop-color="#d39d2c"/>
      <stop offset="0.063" stop-color="#e5af46"/>
      <stop offset="0.082" stop-color="#ecb751"/>
      <stop offset="0.175" stop-color="#d5a23d"/>
      <stop offset="0.254" stop-color="#c79530"/>
      <stop offset="0.305" stop-color="#cd9c36"/>
      <stop offset="0.383" stop-color="#ddb248"/>
      <stop offset="0.435" stop-color="#ecc557"/>
      <stop offset="0.582" stop-color="#fae56e"/>
      <stop offset="0.635" stop-color="#fae56e"/>
      <stop offset="0.706" stop-color="#eecb58"/>
      <stop offset="0.769" stop-color="#e6ba4a"/>
      <stop offset="0.812" stop-color="#d9ac40"/>
      <stop offset="0.853" stop-color="#d3a53b"/>
      <stop offset="1" stop-color="#9e6e1f"/>
    </linearGradient>
  </defs>
  <path id="Path_3252" data-name="Path 3252" d="M959.661,479.433a5.241,5.241,0,0,0,3.954-1.525v3.954a8.648,8.648,0,0,1-3.915.84,8.136,8.136,0,0,1-6.2-2.585,8.773,8.773,0,0,1-2.184-4.381H949.4l.414-2h1.267q-.013-.309-.014-.658,0-.594.027-1.047H949.4l.414-2h1.538a8.842,8.842,0,0,1,2.158-4.3,9.281,9.281,0,0,1,10.2-1.823l-.763,3.58a4.342,4.342,0,0,0-3.205-1.1,4.29,4.29,0,0,0-3.411,1.512,5.01,5.01,0,0,0-1.047,2.132h7.108l-.413,2h-6.954c-.007.2-.012.452-.012.762s.009.616.026.943h6.577l-.413,2h-5.892a5.075,5.075,0,0,0,.994,2.172A4.2,4.2,0,0,0,959.661,479.433Zm-23.6,12.092a5.154,5.154,0,0,1,1.124,3.431,5.74,5.74,0,0,1-1.415,3.941,6.215,6.215,0,0,1-3.935,1.964v2.417h-1.874v-2.352a5.983,5.983,0,0,1-3.631-1.667,6.858,6.858,0,0,1-1.783-3.942l3.372-.361a4.311,4.311,0,0,0,.775,1.783,3.537,3.537,0,0,0,1.267,1.086V492.41a7.12,7.12,0,0,1-3.715-2.19,5.487,5.487,0,0,1-1.182-3.56,5.038,5.038,0,0,1,1.336-3.56,5.4,5.4,0,0,1,3.561-1.661V480.16h1.874v1.279a5.554,5.554,0,0,1,3.27,1.4,5.405,5.405,0,0,1,1.549,3.1l-3.268.425a2.633,2.633,0,0,0-1.551-2.067v5.053A8.354,8.354,0,0,1,936.057,491.525Zm-6.1-7.269a2.432,2.432,0,0,0-1.215.879,2.27,2.27,0,0,0-.452,1.37,2.167,2.167,0,0,0,.413,1.272,2.866,2.866,0,0,0,1.254.951Zm4.058,11.165a2.286,2.286,0,0,0-.511-1.492,3.261,3.261,0,0,0-1.673-.963v5.04a2.63,2.63,0,0,0,1.576-.9A2.525,2.525,0,0,0,934.015,495.421Zm26.4-11.847-2.55,4.468.955-.277a15.069,15.069,0,0,1-19.776,9.9,1,1,0,1,0-.705,1.871,17.056,17.056,0,0,0,22.5-11.59l1,.574Zm-27.97-9.2a15.068,15.068,0,0,1,17.092-4.946,1,1,0,0,0,.688-1.879,17.077,17.077,0,0,0-19.569,5.871l-.685-.874-.543,5.116,4.043-3.181Z" transform="translate(-924.543 -463.111)" fill="url(#linear-gradient)"/>
</svg>
