<svg xmlns="http://www.w3.org/2000/svg" xmlns:xlink="http://www.w3.org/1999/xlink" width="37.218" height="37.22" viewBox="0 0 37.218 37.22">
  <defs>
    <linearGradient id="linear-gradient" x1="0.145" y1="0.852" x2="0.852" y2="0.145" gradientUnits="objectBoundingBox">
      <stop offset="0" stop-color="#d39d2c"/>
      <stop offset="0.032" stop-color="#d39d2c"/>
      <stop offset="0.063" stop-color="#e5af46"/>
      <stop offset="0.082" stop-color="#ecb751"/>
      <stop offset="0.175" stop-color="#d5a23d"/>
      <stop offset="0.254" stop-color="#c79530"/>
      <stop offset="0.305" stop-color="#cd9c36"/>
      <stop offset="0.383" stop-color="#ddb248"/>
      <stop offset="0.435" stop-color="#ecc557"/>
      <stop offset="0.582" stop-color="#fae56e"/>
      <stop offset="0.635" stop-color="#fae56e"/>
      <stop offset="0.706" stop-color="#eecb58"/>
      <stop offset="0.769" stop-color="#e6ba4a"/>
      <stop offset="0.812" stop-color="#d9ac40"/>
      <stop offset="0.853" stop-color="#d3a53b"/>
      <stop offset="1" stop-color="#9e6e1f"/>
    </linearGradient>
  </defs>
  <path id="Path_2086" data-name="Path 2086" d="M818.573,635.052a7.985,7.985,0,0,1-4.14,4.031,9.406,9.406,0,0,1-7.529-.168,5.51,5.51,0,0,1-4.081.781c-6.94-5.026-11.488-17.475-11.488-17.475a5.154,5.154,0,0,1,2.035-5.984c4.068-2.393,5.266-1.315,5.266-1.315.956.357,1.794,4.907,1.794,4.907-.358,1.675-3.47,2.393-3.47,2.393,1.436,4.189,6.7,10.652,6.7,10.652.24-.834,2.155-2.032,2.155-2.032,1.2-.717,4.548,3.47,4.548,3.47.953.692-.037,1.762-.657,2.3a5.179,5.179,0,0,0,3.391-.238,4.689,4.689,0,0,0,2.723-2.775,17.3,17.3,0,0,0,1.994-8.659A15.5,15.5,0,1,0,803.341,641.4a1.556,1.556,0,1,1,.2,3.105q-.608.039-1.216.04a18.608,18.608,0,1,1,18.6-19.8A20.346,20.346,0,0,1,818.573,635.052ZM803.1,619.68a1.556,1.556,0,0,0,.888,2.013,4.554,4.554,0,0,1,2.6,5.884,1.556,1.556,0,1,0,2.9,1.126,7.669,7.669,0,0,0-4.374-9.91A1.554,1.554,0,0,0,803.1,619.68Zm8.448,11.489a1.556,1.556,0,0,0,2.013-.89,12.028,12.028,0,0,0-6.869-15.563,1.556,1.556,0,0,0-1.126,2.9,8.928,8.928,0,0,1,5.092,11.536A1.56,1.56,0,0,0,811.55,631.169Z" transform="translate(-783.733 -607.327)" fill="url(#linear-gradient)"/>
</svg>
