<svg xmlns="http://www.w3.org/2000/svg" xmlns:xlink="http://www.w3.org/1999/xlink" width="38.599" height="40.716" viewBox="0 0 38.599 40.716">
  <defs>
    <linearGradient id="linear-gradient" x1="0.065" y1="1.005" x2="0.901" y2="0.213" gradientUnits="objectBoundingBox">
      <stop offset="0" stop-color="#d39d2c"/>
      <stop offset="0.032" stop-color="#d39d2c"/>
      <stop offset="0.063" stop-color="#e5af46"/>
      <stop offset="0.082" stop-color="#ecb751"/>
      <stop offset="0.175" stop-color="#d5a23d"/>
      <stop offset="0.254" stop-color="#c79530"/>
      <stop offset="0.305" stop-color="#cd9c36"/>
      <stop offset="0.383" stop-color="#ddb248"/>
      <stop offset="0.435" stop-color="#ecc557"/>
      <stop offset="0.582" stop-color="#fae56e"/>
      <stop offset="0.635" stop-color="#fae56e"/>
      <stop offset="0.706" stop-color="#eecb58"/>
      <stop offset="0.769" stop-color="#e6ba4a"/>
      <stop offset="0.812" stop-color="#d9ac40"/>
      <stop offset="0.853" stop-color="#d3a53b"/>
      <stop offset="1" stop-color="#9e6e1f"/>
    </linearGradient>
  </defs>
  <path id="Path_3347" data-name="Path 3347" d="M955.429,1372.266H951a5.494,5.494,0,0,0,.782-.626,2.931,2.931,0,0,0,0-4.12,2.962,2.962,0,0,0-4.108,0c-.606.61-2.218,3.09-1.995,4.746h-.1c.221-1.656-1.389-4.136-1.995-4.746a2.962,2.962,0,0,0-4.108,0,2.932,2.932,0,0,0,0,4.12,5.565,5.565,0,0,0,.783.626h-4.431a1.4,1.4,0,0,0-1.4,1.4v3.5a.7.7,0,0,0,.7.7h.7v8.4a1.4,1.4,0,0,0,1.4,1.4h16.8a1.4,1.4,0,0,0,1.4-1.4v-8.4h.7a.7.7,0,0,0,.7-.7v-3.5A1.4,1.4,0,0,0,955.429,1372.266Zm-14.963-3.758a1.492,1.492,0,0,1,2.122,0c.944.949,1.882,3.374,1.556,3.712a.464.464,0,0,1-.259.046,6.886,6.886,0,0,1-3.419-1.613A1.528,1.528,0,0,1,940.466,1368.508Zm4.46,17.762h-7.7v-8.4h7.7Zm0-9.8h-9.1v-2.8h9.1Zm3.739-7.959a1.509,1.509,0,1,1,2.122,2.145,6.887,6.887,0,0,1-3.418,1.613.47.47,0,0,1-.261-.046C946.783,1371.882,947.721,1369.457,948.665,1368.508Zm5.364,17.762h-7.7v-8.4h7.7Zm1.4-9.8h-9.1v-2.8h9.1Zm-30.615,14.215v14.153a.642.642,0,0,0,.643.643h6.433a.643.643,0,0,0,.643-.643v-1.018l8.79,3.125a9.013,9.013,0,0,0,2.861.466h.163a8.966,8.966,0,0,0,3.509-.711l14.029-5.936a2.5,2.5,0,0,0-.183-4.68,2.527,2.527,0,0,0-1.7.02l-7.932,2.479a2.714,2.714,0,0,0-2.631-3.395h-5.127l-4.98-3.319a3.2,3.2,0,0,0-1.784-.541h-5.011v-.643a.643.643,0,0,0-.643-.643h-6.433A.643.643,0,0,0,924.814,1390.682Zm7.719,1.93h5.011a1.918,1.918,0,0,1,1.07.324l5.142,3.428a.651.651,0,0,0,.357.108h5.321a1.436,1.436,0,0,1,1.284,2.078l-.173.346a1.416,1.416,0,0,1-.22.321c-.018.02-.041.035-.061.055a1.5,1.5,0,0,1-.2.169c-.04.026-.081.047-.123.07a1.346,1.346,0,0,1-.2.089c-.04.014-.08.029-.121.04a1.451,1.451,0,0,1-.35.048H939.61v1.287h9.653a2.784,2.784,0,0,0,.477-.046c.034-.006.067-.014.1-.021a2.766,2.766,0,0,0,.413-.123l.038-.014a2.708,2.708,0,0,0,.83-.534c.009-.009.019-.015.028-.023l9.267-2.9a1.257,1.257,0,0,1,.845-.026,1.217,1.217,0,0,1,.123,2.286l-14.03,5.936a7.689,7.689,0,0,1-3.007.61h-.163a7.686,7.686,0,0,1-2.442-.4l-9.209-3.274Zm-6.175-.643h4.631v11.579h-4.631Z" transform="translate(-924.814 -1366.692)" fill="url(#linear-gradient)"/>
</svg>
