<svg xmlns="http://www.w3.org/2000/svg" xmlns:xlink="http://www.w3.org/1999/xlink" width="34.905" height="39.726" viewBox="0 0 34.905 39.726">
  <defs>
    <linearGradient id="linear-gradient" x1="-0.028" y1="0.951" x2="0.881" y2="0.153" gradientUnits="objectBoundingBox">
      <stop offset="0" stop-color="#d39d2c"/>
      <stop offset="0.032" stop-color="#d39d2c"/>
      <stop offset="0.063" stop-color="#e5af46"/>
      <stop offset="0.082" stop-color="#ecb751"/>
      <stop offset="0.175" stop-color="#d5a23d"/>
      <stop offset="0.254" stop-color="#c79530"/>
      <stop offset="0.305" stop-color="#cd9c36"/>
      <stop offset="0.383" stop-color="#ddb248"/>
      <stop offset="0.435" stop-color="#ecc557"/>
      <stop offset="0.582" stop-color="#fae56e"/>
      <stop offset="0.635" stop-color="#fae56e"/>
      <stop offset="0.706" stop-color="#eecb58"/>
      <stop offset="0.769" stop-color="#e6ba4a"/>
      <stop offset="0.812" stop-color="#d9ac40"/>
      <stop offset="0.853" stop-color="#d3a53b"/>
      <stop offset="1" stop-color="#9e6e1f"/>
    </linearGradient>
  </defs>
  <path id="Path_2056" data-name="Path 2056" d="M387.029,337.7v-.831a5.451,5.451,0,0,0-.169-1.733.716.716,0,0,0-.743-.411.747.747,0,0,0-.683.354,1.93,1.93,0,0,0-.229,1.063,2.334,2.334,0,0,0,.465,1.649,18.806,18.806,0,0,0,2.706,1.833,20.921,20.921,0,0,1,2.6,1.767,4.83,4.83,0,0,1,1.172,1.74,7.251,7.251,0,0,1,.471,2.8,6.321,6.321,0,0,1-1.281,4.2,5.946,5.946,0,0,1-3.878,1.885v1.882H385.15v-1.93a6.007,6.007,0,0,1-3.509-1.55c-1-.894-1.5-2.461-1.5-4.7v-.979h5.008v1.226a11.478,11.478,0,0,0,.158,2.507.689.689,0,0,0,.742.489.9.9,0,0,0,.762-.338,1.7,1.7,0,0,0,.247-1.014,8.666,8.666,0,0,0-.235-2.411,3.556,3.556,0,0,0-1.613-1.583,36.729,36.729,0,0,1-3.123-2.114,5.539,5.539,0,0,1-1.42-1.909,6.162,6.162,0,0,1-.6-2.773,4.764,4.764,0,0,1,1.275-3.524,6.221,6.221,0,0,1,3.811-1.574v-1.6h2.314v1.6a5.519,5.519,0,0,1,3.479,1.553,5,5,0,0,1,1.149,3.482c0,.2-.013.519-.049.939Zm-9.447-2.609H367.65a1.656,1.656,0,0,0,0,3.311h9.932a1.656,1.656,0,0,0,0-3.311Zm0,6.621H367.65a1.656,1.656,0,0,0,0,3.311h9.932a1.656,1.656,0,0,0,0-3.311Zm-6.621,6.277H367.65a1.655,1.655,0,0,0,0,3.31h3.311a1.655,1.655,0,0,0,0-3.31Zm16.552,7.81v2.466a1.655,1.655,0,0,1-1.655,1.655H359.374a1.656,1.656,0,0,1-1.656-1.655V325.983a1.656,1.656,0,0,1,1.656-1.655h5.04a4.97,4.97,0,0,1,4.891-4.138h6.621a4.969,4.969,0,0,1,4.892,4.138h5.04a1.655,1.655,0,0,1,1.655,1.655v2.6H384.2v-.944h-3.311v1.656a1.656,1.656,0,0,1-1.655,1.655H365.995a1.657,1.657,0,0,1-1.656-1.655v-1.656h-3.31v28.968H384.2V355.8Zm-21.518-26.4h13.242v-4.373a2.209,2.209,0,0,0-2.207-2.207H368.2a2.209,2.209,0,0,0-2.207,2.207Z" transform="translate(-357.718 -320.19)" fill-rule="evenodd" fill="url(#linear-gradient)"/>
</svg>
