<svg xmlns="http://www.w3.org/2000/svg" xmlns:xlink="http://www.w3.org/1999/xlink" width="39.224" height="36.992" viewBox="0 0 39.224 36.992">
  <defs>
    <linearGradient id="linear-gradient" x1="0.078" y1="0.995" x2="0.928" y2="0.258" gradientUnits="objectBoundingBox">
      <stop offset="0" stop-color="#d39d2c"/>
      <stop offset="0.032" stop-color="#d39d2c"/>
      <stop offset="0.063" stop-color="#e5af46"/>
      <stop offset="0.082" stop-color="#ecb751"/>
      <stop offset="0.175" stop-color="#d5a23d"/>
      <stop offset="0.254" stop-color="#c79530"/>
      <stop offset="0.305" stop-color="#cd9c36"/>
      <stop offset="0.383" stop-color="#ddb248"/>
      <stop offset="0.435" stop-color="#ecc557"/>
      <stop offset="0.582" stop-color="#fae56e"/>
      <stop offset="0.635" stop-color="#fae56e"/>
      <stop offset="0.706" stop-color="#eecb58"/>
      <stop offset="0.769" stop-color="#e6ba4a"/>
      <stop offset="0.812" stop-color="#d9ac40"/>
      <stop offset="0.853" stop-color="#d3a53b"/>
      <stop offset="1" stop-color="#9e6e1f"/>
    </linearGradient>
    <linearGradient id="linear-gradient-2" x1="0.093" y1="0.701" x2="0.895" y2="0.266" xlink:href="#linear-gradient"/>
  </defs>
  <g id="Group_3356" data-name="Group 3356" transform="translate(-211.998 -1557.906)">
    <path id="Path_2175" data-name="Path 2175" d="M239.5,1578.759c3.765,3.285,4.459,9.743,4.539,13.524-3.68,3.587-27.108,3.386-31.975,0-.466-4.306,1.434-10.91,4.4-13.711,1.146,0,2.211,0,3.216.007a4.152,4.152,0,0,0,2.165-.287,6.178,6.178,0,0,0,1.284-3.125,8.808,8.808,0,0,1-1.808-3.25,2.459,2.459,0,0,1-1.079-1.3,6.419,6.419,0,0,1-.363-2.481l0-.319.265-.18a2.776,2.776,0,0,1,.307-.187c-.53-3.9.186-6.5,2.182-7.962,2.94-2.155,8.456-2.138,11.359.242,1.869,1.53,2.365,3.515,1.773,7.807.051.032.1.064.154.1l.265.178.008.321a6.415,6.415,0,0,1-.382,2.521,2.4,2.4,0,0,1-1.118,1.29,8.757,8.757,0,0,1-1.988,3.43,6.937,6.937,0,0,0,.954,2.569,2.585,2.585,0,0,0,2.373.8c1.078.007,2.229.01,3.469.01Z" fill-rule="evenodd" fill="url(#linear-gradient)"/>
    <g id="Group_3355" data-name="Group 3355">
      <path id="Path_2176" data-name="Path 2176" d="M234.832,1559.343c2,1.637,2.535,3.736,1.994,7.948l.374.253.015.579a6.9,6.9,0,0,1-.42,2.725,2.962,2.962,0,0,1-1.164,1.438,9.273,9.273,0,0,1-1.862,3.238,5.983,5.983,0,0,0,.822,2.133,2.093,2.093,0,0,0,1.916.594c1.127.005,2.277.008,3.517.008h.187l.141.123c3.215,2.806,4.317,7.739,4.62,11.961,2.977-.374,5.322-1.007,6.25-1.911-.071-3.358-.688-9.092-4.03-12.01-1.1,0-2.123,0-3.081-.008A2.3,2.3,0,0,1,242,1575.7a6.152,6.152,0,0,1-.847-2.281,7.772,7.772,0,0,0,1.765-3.046,2.131,2.131,0,0,0,.993-1.145,5.7,5.7,0,0,0,.34-2.239l-.008-.285-.235-.158c-.045-.032-.092-.06-.137-.089.525-3.811.085-5.574-1.574-6.932-2.166-1.776-5.957-2.052-8.666-.965A6.992,6.992,0,0,1,234.832,1559.343Z" fill-rule="evenodd" fill="url(#linear-gradient-2)"/>
    </g>
  </g>
</svg>
