<svg xmlns="http://www.w3.org/2000/svg" width="16.534" height="16.534" viewBox="0 0 16.534 16.534">
  <path id="Path_3321" data-name="Path 3321" d="M848.6,860.326v-2.067a.517.517,0,0,1,1.033,0v2.067a.517.517,0,1,1-1.033,0Zm8.783.517a.516.516,0,0,0,.517-.517v-2.067a.517.517,0,0,0-1.033,0v2.067a.516.516,0,0,0,.516.517Zm5.684,9.3a4.133,4.133,0,1,1-4.134-4.133,4.134,4.134,0,0,1,4.134,4.133Zm-1.034,0a3.1,3.1,0,1,0-3.1,3.1,3.1,3.1,0,0,0,3.1-3.1Zm-11.367-6.2H848.6v2.067h2.066ZM848.6,869.11h2.066v-2.067H848.6Zm3.1-3.1h2.066v-2.067H851.7Zm0,3.1h2.066v-2.067H851.7Zm-4.134.93v-7.131h11.367v2.067h1.034v-4.03a1.128,1.128,0,0,0-1.119-1.137h-.431v.517a1.034,1.034,0,0,1-2.067,0v-.517h-6.2v.517a1.034,1.034,0,0,1-2.067,0v-.517h-.43a1.128,1.128,0,0,0-1.12,1.137v9.094a1.129,1.129,0,0,0,1.12,1.136h6.113v-1.033h-6.113a.1.1,0,0,1-.087-.1Zm9.3-4.03v-2.067H854.8v2.067Zm3.617,4.133h-1.551v-1.55a.517.517,0,1,0-1.033,0v2.067a.516.516,0,0,0,.517.516h2.067a.517.517,0,0,0,0-1.033Zm0,0" transform="translate(-846.537 -857.743)" fill="#fda100"/>
</svg>
