<svg xmlns="http://www.w3.org/2000/svg" viewBox="0 0 18.4 18.4"><defs><style>.cls-1{fill:#333;opacity:0.8;}.cls-2{fill:#fab317;}</style></defs><title>Asset 1</title><g id="Layer_2" data-name="Layer 2"><g id="Layer_6" data-name="Layer 6"><circle class="cls-1" cx="9.2" cy="9.2" r="9.2"/><path class="cls-2" d="M9.2.73A8.47,8.47,0,1,1,.73,9.2,8.48,8.48,0,0,1,9.2.73Zm0,.8A7.67,7.67,0,1,0,16.87,9.2,7.68,7.68,0,0,0,9.2,1.53Z"/><path class="cls-2" d="M4.81,9.37a.56.56,0,0,1,.81,0L9.2,13l3.58-3.58a.57.57,0,0,1,.81.81l-3.94,4a.13.13,0,0,0,0,0,.63.63,0,0,1-.84,0,.13.13,0,0,0,0,0l-3.94-4A.56.56,0,0,1,4.81,9.37Z"/><path class="cls-2" d="M4.81,5.39a.56.56,0,0,1,.81,0L9.2,9l3.58-3.58a.57.57,0,0,1,.81.81l-3.94,4s0,0,0,0a.6.6,0,0,1-.84,0s0,0,0,0L4.81,6.2A.56.56,0,0,1,4.81,5.39Z"/></g></g></svg>