<svg xmlns="http://www.w3.org/2000/svg" width="30.727" height="20.65" viewBox="0 0 30.727 20.65">
  <g id="Group_3318" data-name="Group 3318" transform="translate(-978.18 -852.937)">
    <path id="Path_2099" data-name="Path 2099" d="M978.955,873.28a.644.644,0,0,0,.7.289l3.975-.938a.617.617,0,0,0,.191-.079l10.866-6.712a1.927,1.927,0,0,0,1.559-.205l9.888-6.108a1.93,1.93,0,0,0,.88-1.3l.978-.6a1.939,1.939,0,0,0,.629-2.666l-.678-1.1a1.941,1.941,0,0,0-2.666-.63l-.978.6a1.93,1.93,0,0,0-1.559.205l-9.888,6.108a1.927,1.927,0,0,0-.88,1.3L981.1,868.158a.647.647,0,0,0-.156.136l-2.617,3.134a.646.646,0,0,0-.054.753Zm26.448-18.617.549-.339a.647.647,0,0,1,.889.21l.679,1.1a.646.646,0,0,1-.21.888l-.55.34Zm-12.085,7.467a.646.646,0,0,1,.21-.889l9.888-6.109a.639.639,0,0,1,.664,0,.6.6,0,0,1,.082.057.644.644,0,0,1,.142.152l1.358,2.2a.628.628,0,0,1,.072.2.778.778,0,0,1,.015.1.639.639,0,0,1-.3.595l-9.888,6.109a.647.647,0,0,1-.889-.21Zm-13.7,9.768,2.252-2.7,10.348-6.393,1.358,2.2L983.229,871.4l-3.42.806Z" fill="#fff"/>
  </g>
</svg>
