<svg xmlns="http://www.w3.org/2000/svg" width="36.3" height="36.3" viewBox="0 0 36.3 36.3">
  <g id="Group_4711" data-name="Group 4711" transform="translate(-1072.699 -890.9)">
    <circle id="Ellipse_81" data-name="Ellipse 81" cx="18.15" cy="18.15" r="18.15" transform="translate(1072.699 890.9)" fill="#e9e9e9"/>
    <g id="Group_4709" data-name="Group 4709">
      <path id="Path_3274" data-name="Path 3274" d="M1076.451,898a18.079,18.079,0,0,0-3.127,6.316h9.442Z" fill="#004598"/>
      <path id="Path_3275" data-name="Path 3275" d="M1108.374,904.316a18.1,18.1,0,0,0-3.127-6.316l-6.315,6.316Z" fill="#004598"/>
      <path id="Path_3276" data-name="Path 3276" d="M1073.324,913.785a18.079,18.079,0,0,0,3.127,6.316l6.315-6.316Z" fill="#004598"/>
      <path id="Path_3277" data-name="Path 3277" d="M1101.9,894.652a18.1,18.1,0,0,0-6.315-3.126v9.442Z" fill="#004598"/>
      <path id="Path_3278" data-name="Path 3278" d="M1079.8,923.448a18.085,18.085,0,0,0,6.315,3.127v-9.442Z" fill="#004598"/>
      <path id="Path_3279" data-name="Path 3279" d="M1086.114,891.526a18.091,18.091,0,0,0-6.315,3.126l6.315,6.316Z" fill="#004598"/>
      <path id="Path_3280" data-name="Path 3280" d="M1095.584,926.575a18.085,18.085,0,0,0,6.315-3.127l-6.315-6.315v9.442Z" fill="#004598"/>
      <path id="Path_3281" data-name="Path 3281" d="M1098.932,913.785l6.315,6.316a18.1,18.1,0,0,0,3.127-6.316Z" fill="#004598"/>
    </g>
    <g id="Group_4710" data-name="Group 4710">
      <path id="Path_3282" data-name="Path 3282" d="M1108.845,906.683h-15.629V891.054a18.276,18.276,0,0,0-4.735,0v15.629h-15.629a18.385,18.385,0,0,0,0,4.735h15.629v15.629a18.392,18.392,0,0,0,4.735,0V911.418h15.629a18.269,18.269,0,0,0,0-4.735Z" fill="#ca001e"/>
      <path id="Path_3283" data-name="Path 3283" d="M1095.584,913.785h0l8.1,8.1q.558-.558,1.067-1.165l-6.934-6.934Z" fill="#ca001e"/>
      <path id="Path_3284" data-name="Path 3284" d="M1086.114,913.785h0l-8.1,8.1q.558.56,1.165,1.067l6.934-6.934v-2.232Z" fill="#ca001e"/>
      <path id="Path_3285" data-name="Path 3285" d="M1086.114,904.316h0l-8.1-8.1q-.56.559-1.067,1.166l6.934,6.934Z" fill="#ca001e"/>
      <path id="Path_3286" data-name="Path 3286" d="M1095.584,904.316h0l8.1-8.1q-.559-.558-1.165-1.066l-6.934,6.934Z" fill="#ca001e"/>
    </g>
  </g>
</svg>
