<svg xmlns="http://www.w3.org/2000/svg" xmlns:xlink="http://www.w3.org/1999/xlink" width="35.144" height="41.601" viewBox="0 0 35.144 41.601">
  <defs>
    <linearGradient id="linear-gradient" x1="0.08" y1="0.751" x2="0.92" y2="0.042" gradientUnits="objectBoundingBox">
      <stop offset="0" stop-color="#d39d2c"/>
      <stop offset="0.032" stop-color="#d39d2c"/>
      <stop offset="0.063" stop-color="#e5af46"/>
      <stop offset="0.082" stop-color="#ecb751"/>
      <stop offset="0.175" stop-color="#d5a23d"/>
      <stop offset="0.254" stop-color="#c79530"/>
      <stop offset="0.305" stop-color="#cd9c36"/>
      <stop offset="0.383" stop-color="#ddb248"/>
      <stop offset="0.435" stop-color="#ecc557"/>
      <stop offset="0.582" stop-color="#fae56e"/>
      <stop offset="0.635" stop-color="#fae56e"/>
      <stop offset="0.706" stop-color="#eecb58"/>
      <stop offset="0.769" stop-color="#e6ba4a"/>
      <stop offset="0.812" stop-color="#d9ac40"/>
      <stop offset="0.853" stop-color="#d3a53b"/>
      <stop offset="1" stop-color="#9e6e1f"/>
    </linearGradient>
  </defs>
  <path id="Path_3345" data-name="Path 3345" d="M518.3,1501.3a25.843,25.843,0,0,1-14.3-11.223c-3.858-6.57-2.82-24.317-2.774-25.07l.052-.86,17.359-4.348L536,1464.149l.052.86c.046.753,1.085,18.5-2.774,25.071a25.845,25.845,0,0,1-14.3,11.222l-.337.1Zm-14.773-35.29-.016.377c-.074,1.738-.633,17.132,2.518,22.5a23.741,23.741,0,0,0,12.446,10l.162.055.162-.055a23.739,23.739,0,0,0,12.446-10c3.152-5.367,2.592-20.761,2.518-22.5l-.016-.377-15.11-3.786Zm15.115,9.533a5.1,5.1,0,1,0-5.1-5.1A5.1,5.1,0,0,0,518.644,1475.545Zm0-9.188a4.083,4.083,0,1,1-4.083,4.084A4.084,4.084,0,0,1,518.644,1466.357Zm-.51,13.781h1.021v-1.021h-1.021Zm5.1-4.593h-1.063a.527.527,0,0,0-.274.076,6.2,6.2,0,0,1-3.7.911v-.005a6.09,6.09,0,0,1-2.805-.906.513.513,0,0,0-.273-.076h-1.058a5.115,5.115,0,0,0-5.108,5.1v6.125a2.557,2.557,0,0,0,2.551,2.552h1.534v4.6h11.223v-4.6h1.529a2.554,2.554,0,0,0,2.551-2.552v-6.125A5.107,5.107,0,0,0,523.231,1475.545Zm-9.178,1.023h.2l6.1,11.739h-2.931l-5.715-10.995A4.041,4.041,0,0,1,514.053,1476.568Zm7.654,11.739h-.2l-1.589-3.063h1.792a1.531,1.531,0,0,1,0,3.063Zm-10.211,0a1.532,1.532,0,0,1-1.529-1.534v-6.125a4.044,4.044,0,0,1,.962-2.622l3.22,6.2H513.03v1.022h1.65l1.59,3.063Zm2.557,4.592v-3.574h7.654a2.531,2.531,0,0,0,1.524-.517v4.091Zm13.263-6.126a1.536,1.536,0,0,1-1.534,1.534h-2.049a2.527,2.527,0,0,0,.525-1.534,2.553,2.553,0,0,0-2.551-2.551h-2.324l-3.817-7.341a7.264,7.264,0,0,0,6.151,0l.7-.313h.81a3.864,3.864,0,0,1,3.123,1.458,3.778,3.778,0,0,1,.962,2.622Z" transform="translate(-501.067 -1459.801)" fill="url(#linear-gradient)"/>
</svg>
