<svg xmlns="http://www.w3.org/2000/svg" xmlns:xlink="http://www.w3.org/1999/xlink" width="36.544" height="39.705" viewBox="0 0 36.544 39.705">
  <defs>
    <linearGradient id="linear-gradient" x1="-0.126" y1="0.876" x2="1.126" y2="0.124" gradientUnits="objectBoundingBox">
      <stop offset="0" stop-color="#d39d2c"/>
      <stop offset="0.032" stop-color="#d39d2c"/>
      <stop offset="0.063" stop-color="#e5af46"/>
      <stop offset="0.082" stop-color="#ecb751"/>
      <stop offset="0.175" stop-color="#d5a23d"/>
      <stop offset="0.254" stop-color="#c79530"/>
      <stop offset="0.305" stop-color="#cd9c36"/>
      <stop offset="0.383" stop-color="#ddb248"/>
      <stop offset="0.435" stop-color="#ecc557"/>
      <stop offset="0.582" stop-color="#fae56e"/>
      <stop offset="0.635" stop-color="#fae56e"/>
      <stop offset="0.706" stop-color="#eecb58"/>
      <stop offset="0.769" stop-color="#e6ba4a"/>
      <stop offset="0.812" stop-color="#d9ac40"/>
      <stop offset="0.853" stop-color="#d3a53b"/>
      <stop offset="1" stop-color="#9e6e1f"/>
    </linearGradient>
    <linearGradient id="linear-gradient-2" x1="0.133" y1="1.079" x2="0.867" y2="-0.079" xlink:href="#linear-gradient"/>
    <linearGradient id="linear-gradient-3" x1="-0.199" y1="0.772" x2="0.938" y2="0.037" xlink:href="#linear-gradient"/>
    <linearGradient id="linear-gradient-4" x1="0.228" y1="3.553" x2="0.772" y2="-2.553" xlink:href="#linear-gradient"/>
    <linearGradient id="linear-gradient-5" x1="0.228" y1="3.553" x2="0.772" y2="-2.553" xlink:href="#linear-gradient"/>
    <linearGradient id="linear-gradient-6" x1="0.228" y1="3.553" x2="0.772" y2="-2.553" xlink:href="#linear-gradient"/>
    <linearGradient id="linear-gradient-8" x1="0.133" y1="1.079" x2="0.867" y2="-0.079" xlink:href="#linear-gradient"/>
    <linearGradient id="linear-gradient-13" x1="0.042" y1="0.845" x2="0.957" y2="0.282" xlink:href="#linear-gradient"/>
    <linearGradient id="linear-gradient-14" x1="0.175" y1="0.754" x2="0.825" y2="-0.162" xlink:href="#linear-gradient"/>
    <linearGradient id="linear-gradient-15" x1="0.147" y1="0.853" x2="0.853" y2="0.147" xlink:href="#linear-gradient"/>
  </defs>
  <g id="Group_5400" data-name="Group 5400" transform="translate(-931.427 -1985.801)">
    <path id="Path_3398" data-name="Path 3398" d="M954.588,2018.9a.661.661,0,0,0-.662.662v.65H932.75v-29.117h21.176v.609a.662.662,0,0,0,1.324,0v-2.594a3.313,3.313,0,0,0-3.309-3.309H934.735a3.312,3.312,0,0,0-3.308,3.309V2022.2a3.312,3.312,0,0,0,3.308,3.309h17.206a3.313,3.313,0,0,0,3.309-3.309v-2.635A.662.662,0,0,0,954.588,2018.9Zm-19.853-31.775h17.206a1.985,1.985,0,0,1,1.985,1.985v.662H932.75v-.662A1.985,1.985,0,0,1,934.735,1987.125Zm17.206,37.058H934.735a1.986,1.986,0,0,1-1.985-1.986v-.661h21.176v.661A1.986,1.986,0,0,1,951.941,2024.183ZM944,1989.11h1.323a.662.662,0,0,0,0-1.324H944a.662.662,0,0,0,0,1.324Zm.662,33.087h-2.647a.662.662,0,1,0,0,1.324h2.647a.662.662,0,0,0,0-1.324Zm-3.309-33.087h.662a.662.662,0,0,0,0-1.324h-.662a.662.662,0,1,0,0,1.324Zm-5.956,6.617v-1.985h1.985v-1.323h-3.308v3.308Zm-1.323,19.853v3.309h3.308v-1.324H935.4v-1.985Z" fill="url(#linear-gradient)"/>
    <path id="Path_3399" data-name="Path 3399" d="M965.457,2018.234H952.716a2.516,2.516,0,0,1-2.514-2.513V2009.5a2.516,2.516,0,0,1,2.514-2.513h12.741a2.516,2.516,0,0,1,2.514,2.513v6.223A2.516,2.516,0,0,1,965.457,2018.234Zm-12.741-10.522a1.788,1.788,0,0,0-1.787,1.786v6.223a1.788,1.788,0,0,0,1.787,1.786h12.741a1.788,1.788,0,0,0,1.787-1.786V2009.5a1.788,1.788,0,0,0-1.787-1.786Z" fill="url(#linear-gradient-2)"/>
    <path id="Path_3400" data-name="Path 3400" d="M954.112,2008.225h3.335l-1.622,3.52h2.3l-4.8,5.25,1.629-3.8h-2.5Z" fill="url(#linear-gradient-3)"/>
    <rect id="Rectangle_2173" data-name="Rectangle 2173" width="6.099" height="0.544" transform="translate(960.001 2009.898)" fill="url(#linear-gradient-4)"/>
    <rect id="Rectangle_2174" data-name="Rectangle 2174" width="6.099" height="0.544" transform="translate(960.001 2011.497)" fill="url(#linear-gradient-5)"/>
    <rect id="Rectangle_2175" data-name="Rectangle 2175" width="6.099" height="0.544" transform="translate(960.001 2013.095)" fill="url(#linear-gradient-6)"/>
    <rect id="Rectangle_2176" data-name="Rectangle 2176" width="6.099" height="0.544" transform="translate(960.001 2014.694)" fill="url(#linear-gradient-5)"/>
    <path id="Path_3401" data-name="Path 3401" d="M965.457,2004.912H952.716a2.517,2.517,0,0,1-2.514-2.514v-6.222a2.517,2.517,0,0,1,2.514-2.514h12.741a2.517,2.517,0,0,1,2.514,2.514v6.222A2.517,2.517,0,0,1,965.457,2004.912Zm-12.741-10.523a1.788,1.788,0,0,0-1.787,1.787v6.222a1.787,1.787,0,0,0,1.787,1.786h12.741a1.787,1.787,0,0,0,1.787-1.786v-6.222a1.788,1.788,0,0,0-1.787-1.787Z" fill="url(#linear-gradient-8)"/>
    <rect id="Rectangle_2177" data-name="Rectangle 2177" width="6.099" height="0.544" transform="translate(960.001 1996.575)" fill="url(#linear-gradient-5)"/>
    <rect id="Rectangle_2178" data-name="Rectangle 2178" width="6.099" height="0.544" transform="translate(960.001 1998.174)" fill="url(#linear-gradient-4)"/>
    <rect id="Rectangle_2179" data-name="Rectangle 2179" width="6.099" height="0.544" transform="translate(960.001 1999.773)" fill="url(#linear-gradient-5)"/>
    <rect id="Rectangle_2180" data-name="Rectangle 2180" width="6.099" height="0.544" transform="translate(960.001 2001.371)" fill="url(#linear-gradient-6)"/>
    <path id="Path_3402" data-name="Path 3402" d="M956.948,1999.624l-2.251-4.45-2.247,4.45a2.586,2.586,0,0,0,2.058,3.766c.066.005.127.01.189.01s.127-.005.189-.01A2.586,2.586,0,0,0,956.948,1999.624Zm-4.262,1.35c0-.066-.009-.137-.009-.208a.236.236,0,0,1,.236-.236.234.234,0,0,1,.236.236c0,.057.005.109.009.166a.23.23,0,0,1-.212.254c-.01,0-.014.005-.024.005A.244.244,0,0,1,952.686,2000.974Zm2.2,2.006a2.231,2.231,0,0,1-2.006-1.279.233.233,0,0,1,.114-.312.239.239,0,0,1,.316.114,1.744,1.744,0,0,0,1.576,1.005.234.234,0,0,1,.236.236A.237.237,0,0,1,954.89,2002.98Z" fill="url(#linear-gradient-13)"/>
    <path id="Path_3403" data-name="Path 3403" d="M944.328,2003.275a.663.663,0,0,0-.936,0l-2.808,2.808-1.4-1.4a.662.662,0,0,0-.952.92l.016.016,1.871,1.871a.661.661,0,0,0,.936,0l3.276-3.275a.663.663,0,0,0,0-.936Z" fill="url(#linear-gradient-14)"/>
    <path id="Path_3404" data-name="Path 3404" d="M941.282,2010.938a5.557,5.557,0,1,1,5.557-5.557A5.564,5.564,0,0,1,941.282,2010.938Zm0-10.114a4.557,4.557,0,1,0,4.557,4.557A4.561,4.561,0,0,0,941.282,2000.824Z" fill="url(#linear-gradient-15)"/>
  </g>
</svg>
