<svg xmlns="http://www.w3.org/2000/svg" xmlns:xlink="http://www.w3.org/1999/xlink" width="40.956" height="36.741" viewBox="0 0 40.956 36.741">
  <defs>
    <linearGradient id="linear-gradient" x1="0.086" y1="0.957" x2="0.869" y2="0.084" gradientUnits="objectBoundingBox">
      <stop offset="0" stop-color="#d39d2c"/>
      <stop offset="0.032" stop-color="#d39d2c"/>
      <stop offset="0.063" stop-color="#e5af46"/>
      <stop offset="0.082" stop-color="#ecb751"/>
      <stop offset="0.175" stop-color="#d5a23d"/>
      <stop offset="0.254" stop-color="#c79530"/>
      <stop offset="0.305" stop-color="#cd9c36"/>
      <stop offset="0.383" stop-color="#ddb248"/>
      <stop offset="0.435" stop-color="#ecc557"/>
      <stop offset="0.582" stop-color="#fae56e"/>
      <stop offset="0.635" stop-color="#fae56e"/>
      <stop offset="0.706" stop-color="#eecb58"/>
      <stop offset="0.769" stop-color="#e6ba4a"/>
      <stop offset="0.812" stop-color="#d9ac40"/>
      <stop offset="0.853" stop-color="#d3a53b"/>
      <stop offset="1" stop-color="#9e6e1f"/>
    </linearGradient>
  </defs>
  <path id="Path_2051" data-name="Path 2051" d="M513.4,197.948v-.81a.276.276,0,0,1,.275-.276h5.941a.278.278,0,0,1,.278.276v.81a.278.278,0,0,1-.278.276h-5.941a.277.277,0,0,1-.275-.276Zm5.438,10.8v-9.759a.276.276,0,0,0-.276-.276h-3.831a.278.278,0,0,0-.277.276v9.759a.275.275,0,0,0,.277.275h3.831a.276.276,0,0,0,.276-.275Zm-22.546-10.8v-.81a.277.277,0,0,1,.276-.276h5.943a.276.276,0,0,1,.275.276v.81a.278.278,0,0,1-.275.276h-5.943a.277.277,0,0,1-.276-.276Zm.469-3.173,11-4.993a.778.778,0,0,1,.66,0l11,4.993a.785.785,0,0,1,.47.727v.489a.278.278,0,0,1-.278.275H496.565a.276.276,0,0,1-.276-.275V195.5a.786.786,0,0,1,.469-.727Zm3.3.115h16.054a.112.112,0,0,0,.112-.086.106.106,0,0,0-.066-.122l-8.027-3.377a.132.132,0,0,0-.092,0l-8.027,3.377a.106.106,0,0,0-.066.122.112.112,0,0,0,.112.086Zm-3.774,15.988v-1.083a.276.276,0,0,1,.276-.275h23.048a.276.276,0,0,1,.278.275v1.083a.278.278,0,0,1-.278.276H496.565a.277.277,0,0,1-.276-.276Zm5.44-2.127v-9.759a.277.277,0,0,0-.277-.276H497.62a.278.278,0,0,0-.275.276v9.759a.275.275,0,0,0,.275.275h3.832a.277.277,0,0,0,.277-.275Zm3.114-10.8v-.81a.277.277,0,0,1,.276-.276h5.942a.277.277,0,0,1,.276.276v.81a.278.278,0,0,1-.276.276h-5.942a.277.277,0,0,1-.276-.276Zm5.44,10.8v-9.759a.277.277,0,0,0-.277-.276h-3.832a.278.278,0,0,0-.277.276v9.759a.277.277,0,0,0,.277.275h3.832A.277.277,0,0,0,510.283,208.751Zm20.79-18.3v-.771a.264.264,0,0,1,.262-.262h5.647a.263.263,0,0,1,.263.262v.771a.264.264,0,0,1-.263.262h-5.647a.264.264,0,0,1-.262-.262Zm5.169,10.267v-9.275a.262.262,0,0,0-.262-.263h-3.641a.265.265,0,0,0-.264.263v9.275a.263.263,0,0,0,.264.262h3.641a.262.262,0,0,0,.262-.262Zm-21.428-10.267v-.771a.263.263,0,0,1,.262-.262h5.648a.264.264,0,0,1,.262.262v.771a.264.264,0,0,1-.262.262h-5.648a.263.263,0,0,1-.262-.262Zm.446-3.016,10.456-4.746a.739.739,0,0,1,.627,0l10.456,4.746a.745.745,0,0,1,.446.691v.464a.264.264,0,0,1-.263.262H515.076a.262.262,0,0,1-.262-.262v-.464a.745.745,0,0,1,.446-.691Zm3.141.109h15.257a.107.107,0,0,0,.107-.082.1.1,0,0,0-.062-.116l-7.629-3.209a.124.124,0,0,0-.089,0l-7.629,3.209a.1.1,0,0,0-.062.116.107.107,0,0,0,.107.082Zm4.543,2.907v-.771a.263.263,0,0,1,.261-.262h5.649a.264.264,0,0,1,.262.262v.771a.264.264,0,0,1-.262.262h-5.649a.263.263,0,0,1-.261-.262Zm5.17,10.267v-9.275a.264.264,0,0,0-.264-.263h-3.641a.265.265,0,0,0-.264.263v9.275a.264.264,0,0,0,.264.262h3.641A.264.264,0,0,0,528.114,200.721Zm4.531,6.446a.751.751,0,0,0-1.278-.788,17.382,17.382,0,0,1-21.812,6.718.75.75,0,1,0-.611,1.37,18.875,18.875,0,0,0,23.7-7.3Zm-2.539-.147,1.621.167,1.006,1.282.4-3.837Zm-27.7-17.978a17.384,17.384,0,0,1,21.8-6.7.75.75,0,1,0,.611-1.37,18.89,18.89,0,0,0-23.686,7.277.75.75,0,0,0,1.276.789Zm-1.782,1.769a12.214,12.214,0,0,1,3.351-2.111l-2.024-.314L500.6,186.85A12.258,12.258,0,0,1,500.622,190.811Z" transform="translate(-496.289 -179.351)" fill-rule="evenodd" fill="url(#linear-gradient)"/>
</svg>
