<svg xmlns="http://www.w3.org/2000/svg" viewBox="0 0 46.92 46.92"><defs><linearGradient id="a" x1="9.21" y1="37.7" x2="37.7" y2="9.21" gradientUnits="userSpaceOnUse"><stop offset="0" stop-color="#d7ae41"/><stop offset=".03" stop-color="#d7ae41"/><stop offset=".03" stop-color="#d8af42"/><stop offset=".06" stop-color="#e6bf5e"/><stop offset=".08" stop-color="#ebc568"/><stop offset=".17" stop-color="#dab454"/><stop offset=".25" stop-color="#cda745"/><stop offset=".31" stop-color="#d2af4d"/><stop offset=".4" stop-color="#e1c463"/><stop offset=".44" stop-color="#ead06f"/><stop offset=".58" stop-color="#f4eb85"/><stop offset=".63" stop-color="#f4eb85"/><stop offset=".7" stop-color="#edd973"/><stop offset=".77" stop-color="#e6c861"/><stop offset=".81" stop-color="#dcbc57"/><stop offset=".85" stop-color="#d6b550"/><stop offset="1" stop-color="#ab832e"/></linearGradient></defs><g data-name="Layer 2"><g data-name="Layer 1"><circle cx="23.46" cy="23.46" r="23.46" style="fill:#010101;opacity:.8"/><path d="M29.25 32.91a.68.68 0 0 1 0 1.35 7.19 7.19 0 0 1-7.19-7.18.68.68 0 1 1 1.35 0 5.84 5.84 0 0 0 5.84 5.83ZM22.74 22a5.12 5.12 0 0 1 5.11 5.11.68.68 0 0 0 1.35 0 6.47 6.47 0 1 0-12.93 0A13 13 0 0 0 20.89 37a.66.66 0 0 0 .44.16.69.69 0 0 0 .52-.24.68.68 0 0 0-.08-.95 11.61 11.61 0 0 1-4.14-8.88A5.11 5.11 0 0 1 22.74 22Zm9.35 5.11a9.36 9.36 0 1 0-18.71 0 15.65 15.65 0 0 0 1.2 6 .68.68 0 0 0 .88.37.69.69 0 0 0 .37-.89 14.35 14.35 0 0 1-1.1-5.52 8 8 0 1 1 16 0 2.22 2.22 0 0 1-4.43 0 3.57 3.57 0 0 0-7.14 0 10.1 10.1 0 0 0 10.09 10.09.68.68 0 0 0 0-1.36 8.73 8.73 0 0 1-8.73-8.72 2.22 2.22 0 1 1 4.43 0 3.57 3.57 0 0 0 7.14 0Zm2.22.67a.68.68 0 0 0 .68-.67 12.25 12.25 0 0 0-24.5 0 .68.68 0 0 0 1.35 0 10.9 10.9 0 1 1 21.79 0 .67.67 0 0 0 .68.64ZM11.38 17.07a.67.67 0 0 0 .06.95.65.65 0 0 0 .45.17.64.64 0 0 0 .5-.23 13.78 13.78 0 0 1 20-.72.68.68 0 0 0 .94-1 15 15 0 0 0-10.59-4.34 15.18 15.18 0 0 0-11.36 5.17Zm4.7-5.29a16.65 16.65 0 0 1 15 .85.66.66 0 0 0 .33.09.67.67 0 0 0 .34-1.26 18 18 0 0 0-16.21-.92.68.68 0 0 0-.35.89.67.67 0 0 0 .89.35ZM4.62 22.8A18.85 18.85 0 0 1 35.76 9.18a.68.68 0 1 0 .89-1A20.2 20.2 0 0 0 8.16 36.65a.68.68 0 0 0 .51.23.66.66 0 0 0 .44-.16.68.68 0 0 0 .07-1A18.8 18.8 0 0 1 4.62 22.8Zm34.14-12.53a.68.68 0 1 0-1 .89 18.85 18.85 0 0 1-26.6 26.58.68.68 0 1 0-.89 1 20.11 20.11 0 0 0 13.19 4.9h.7a20.2 20.2 0 0 0 14.6-33.38Z" style="fill:url(#a)"/></g></g></svg>