<svg xmlns="http://www.w3.org/2000/svg" xmlns:xlink="http://www.w3.org/1999/xlink" viewBox="0 0 46.92 46.92"><defs><linearGradient id="a" x1="1.42" y1="1.65" x2="42.02" y2="41.83" gradientUnits="userSpaceOnUse"><stop offset="0" stop-color="#d7ae41"/><stop offset=".03" stop-color="#d7ae41"/><stop offset=".03" stop-color="#d8af42"/><stop offset=".06" stop-color="#e6bf5e"/><stop offset=".08" stop-color="#ebc568"/><stop offset=".17" stop-color="#dab454"/><stop offset=".25" stop-color="#cda745"/><stop offset=".31" stop-color="#d2af4d"/><stop offset=".4" stop-color="#e1c463"/><stop offset=".44" stop-color="#ead06f"/><stop offset=".58" stop-color="#f4eb85"/><stop offset=".63" stop-color="#f4eb85"/><stop offset=".7" stop-color="#edd973"/><stop offset=".77" stop-color="#e6c861"/><stop offset=".81" stop-color="#dcbc57"/><stop offset=".85" stop-color="#d6b550"/><stop offset="1" stop-color="#ab832e"/></linearGradient><linearGradient id="b" x1="1.46" y1="1.61" x2="42.05" y2="41.8" xlink:href="#a"/><linearGradient id="c" x1="9.25" y1="-6.26" x2="49.84" y2="33.93" xlink:href="#a"/><linearGradient id="d" x1="-6.4" y1="9.55" x2="34.19" y2="49.73" xlink:href="#a"/><linearGradient id="e" x1="1.39" y1="1.68" x2="41.98" y2="41.87" xlink:href="#a"/><linearGradient id="f" x1="5.1" y1="-2.07" x2="45.7" y2="38.11" xlink:href="#a"/><linearGradient id="g" x1="1.16" y1="1.91" x2="41.75" y2="42.1" xlink:href="#a"/><linearGradient id="h" x1="1.57" y1="1.5" x2="42.16" y2="41.69" xlink:href="#a"/><linearGradient id="i" x1="-.57" y1="3.66" x2="40.02" y2="43.84" xlink:href="#a"/></defs><g data-name="Layer 2"><g data-name="Layer 1"><circle cx="23.46" cy="23.46" r="23.46" style="fill:#010101;opacity:.8"/><path d="M4.62 22.8A18.85 18.85 0 0 1 35.76 9.18a.68.68 0 1 0 .89-1A20.2 20.2 0 0 0 8.16 36.65a.68.68 0 0 0 .51.23.66.66 0 0 0 .44-.16.68.68 0 0 0 .07-1A18.8 18.8 0 0 1 4.62 22.8Zm34.14-12.53a.68.68 0 1 0-1 .89 18.85 18.85 0 0 1-26.6 26.58.68.68 0 1 0-.89 1 20.11 20.11 0 0 0 13.19 4.9h.7a20.2 20.2 0 0 0 14.6-33.38Z" style="fill:url(#a)"/><path d="M14.07 20v-2.23a3.69 3.69 0 0 1 3.7-3.7H20a.86.86 0 1 0 0-1.71h-2.23a5.39 5.39 0 0 0-5.41 5.41V20a.86.86 0 1 0 1.71 0Z" style="fill:url(#b);fill-rule:evenodd"/><path d="M26.87 14.07h2.28a3.69 3.69 0 0 1 3.7 3.7V20a.86.86 0 1 0 1.71 0v-2.23a5.39 5.39 0 0 0-5.41-5.41h-2.28a.85.85 0 0 0-.85.85.86.86 0 0 0 .85.86Z" style="fill:url(#c);fill-rule:evenodd"/><path d="M12.36 26.87v2.28a5.39 5.39 0 0 0 5.41 5.41H20a.86.86 0 1 0 0-1.71h-2.23a3.69 3.69 0 0 1-3.7-3.7v-2.28a.86.86 0 0 0-.86-.85.85.85 0 0 0-.85.85Z" style="fill:url(#d);fill-rule:evenodd"/><path d="M26.87 34.56h2.28a5.39 5.39 0 0 0 5.41-5.41v-2.28a.85.85 0 0 0-.85-.85.86.86 0 0 0-.86.85v2.28a3.69 3.69 0 0 1-3.7 3.7h-2.28a.86.86 0 0 0-.85.86.85.85 0 0 0 .85.85Z" style="fill:url(#e);fill-rule:evenodd"/><path d="M26.59 19.47v1.14a.86.86 0 1 0 1.71 0v-1.14a.86.86 0 0 0-1.71 0Z" style="fill:url(#f);fill-rule:evenodd"/><path d="M18.62 19.47v1.14a.86.86 0 1 0 1.71 0v-1.14a.86.86 0 0 0-1.71 0Z" style="fill:url(#g);fill-rule:evenodd"/><path d="M23.17 24.07v-2.89a.86.86 0 0 1 .86-.85.85.85 0 0 1 .85.85v3.42a.84.84 0 0 1-.47.76l-1.14.57a.85.85 0 0 1-1.14-.38.86.86 0 0 1 .38-1.15Z" style="fill:url(#h);fill-rule:evenodd"/><path d="M26.84 26.84a.88.88 0 0 1 .6-.25.85.85 0 0 1 .86.85.89.89 0 0 1-.25.61 6.5 6.5 0 0 1-9.18 0 .89.89 0 0 1-.25-.61.85.85 0 0 1 .85-.85.89.89 0 0 1 .61.25 4.77 4.77 0 0 0 6.76 0Z" style="fill:url(#i);fill-rule:evenodd"/></g></g></svg>