<svg xmlns="http://www.w3.org/2000/svg" xmlns:xlink="http://www.w3.org/1999/xlink" width="27.156" height="39.5" viewBox="0 0 27.156 39.5">
  <defs>
    <linearGradient id="linear-gradient" x1="-0.074" y1="0.894" x2="1.074" y2="0.106" gradientUnits="objectBoundingBox">
      <stop offset="0" stop-color="#d39d2c"/>
      <stop offset="0.032" stop-color="#d39d2c"/>
      <stop offset="0.063" stop-color="#e5af46"/>
      <stop offset="0.082" stop-color="#ecb751"/>
      <stop offset="0.175" stop-color="#d5a23d"/>
      <stop offset="0.254" stop-color="#c79530"/>
      <stop offset="0.305" stop-color="#cd9c36"/>
      <stop offset="0.383" stop-color="#ddb248"/>
      <stop offset="0.435" stop-color="#ecc557"/>
      <stop offset="0.582" stop-color="#fae56e"/>
      <stop offset="0.635" stop-color="#fae56e"/>
      <stop offset="0.706" stop-color="#eecb58"/>
      <stop offset="0.769" stop-color="#e6ba4a"/>
      <stop offset="0.812" stop-color="#d9ac40"/>
      <stop offset="0.853" stop-color="#d3a53b"/>
      <stop offset="1" stop-color="#9e6e1f"/>
    </linearGradient>
  </defs>
  <path id="Path_3387" data-name="Path 3387" d="M955.4,1890.37H935.65a3.708,3.708,0,0,0-3.7,3.7v32.094a3.707,3.707,0,0,0,3.7,3.7H955.4a3.708,3.708,0,0,0,3.7-3.7v-32.094A3.708,3.708,0,0,0,955.4,1890.37Zm1.234,35.8a1.235,1.235,0,0,1-1.234,1.235H935.65a1.236,1.236,0,0,1-1.235-1.235V1923.7h22.219Zm0-4.937H934.415v-22.219h22.219Zm0-24.688H934.415v-2.469a1.236,1.236,0,0,1,1.235-1.234H955.4a1.235,1.235,0,0,1,1.234,1.234Zm-16.02,12.6a2.423,2.423,0,0,0,1.821-.648,3,3,0,0,0,.841-2.293,2.945,2.945,0,0,0-.841-2.294,2.884,2.884,0,0,0-3.643,0,2.939,2.939,0,0,0-.845,2.294,3,3,0,0,0,.845,2.293A2.426,2.426,0,0,0,940.614,1909.145Zm-1.1-4.39a1.344,1.344,0,0,1,1.1-.509,1.323,1.323,0,0,1,1.095.511,2.783,2.783,0,0,1,0,2.9,1.327,1.327,0,0,1-1.095.509,1.344,1.344,0,0,1-1.1-.509,2.758,2.758,0,0,1,0-2.9Zm5.858-.339H943.7v-.985h4.5v.985h-1.663v4.575H945.37Zm4.692,2.576h1.157a2.125,2.125,0,0,0,1.4-.407,1.728,1.728,0,0,0,.489-1.392,1.682,1.682,0,0,0-.492-1.332,1.929,1.929,0,0,0-1.316-.43h-2.387v5.56h1.154Zm0-2.595h1.047a.935.935,0,0,1,.618.184.765.765,0,0,1,.221.619.815.815,0,0,1-.221.634.888.888,0,0,1-.618.2h-1.047Zm3.43,6.184H937.558V1916h15.934Zm-.779,4.642H938.336v-3.863h14.377Zm-12.584-1.749-.793-.244.175-.555.778.251v-.9h.645v.9l.779-.251.175.555-.794.244.518.741-.477.339-.516-.7-.534.7-.477-.339Zm3.3,0-.794-.244.175-.555.779.251v-.9h.644v.9l.779-.251.175.555-.794.244.518.741-.477.339-.516-.7-.534.7-.477-.339Zm3.3,0-.794-.244.175-.555.779.251v-.9h.645v.9l.778-.251.175.555-.793.244.518.741-.477.339-.517-.7-.534.7-.477-.339Zm3.3,0-.793-.244.175-.555.778.251v-.9h.645v.9l.779-.251.175.555-.794.244.518.741-.477.339-.517-.7-.534.7-.476-.339Z" transform="translate(-931.947 -1890.37)" fill="url(#linear-gradient)"/>
</svg>
