<svg xmlns="http://www.w3.org/2000/svg" xmlns:xlink="http://www.w3.org/1999/xlink" width="35.971" height="35.971" viewBox="0 0 35.971 35.971">
  <defs>
    <linearGradient id="linear-gradient" x1="0.057" y1="1.008" x2="0.944" y2="0.121" gradientUnits="objectBoundingBox">
      <stop offset="0" stop-color="#d39d2c"/>
      <stop offset="0.032" stop-color="#d39d2c"/>
      <stop offset="0.063" stop-color="#e5af46"/>
      <stop offset="0.082" stop-color="#ecb751"/>
      <stop offset="0.175" stop-color="#d5a23d"/>
      <stop offset="0.254" stop-color="#c79530"/>
      <stop offset="0.305" stop-color="#cd9c36"/>
      <stop offset="0.383" stop-color="#ddb248"/>
      <stop offset="0.435" stop-color="#ecc557"/>
      <stop offset="0.582" stop-color="#fae56e"/>
      <stop offset="0.635" stop-color="#fae56e"/>
      <stop offset="0.706" stop-color="#eecb58"/>
      <stop offset="0.769" stop-color="#e6ba4a"/>
      <stop offset="0.812" stop-color="#d9ac40"/>
      <stop offset="0.853" stop-color="#d3a53b"/>
      <stop offset="1" stop-color="#9e6e1f"/>
    </linearGradient>
  </defs>
  <path id="Path_3351" data-name="Path 3351" d="M791.776,1629.349h5.534v5.534h-5.534Zm23.52-16.6a1.383,1.383,0,0,0,1.383-1.384v-5.534a1.384,1.384,0,0,0-2.767,0v5.534A1.383,1.383,0,0,0,815.3,1612.747Zm-22.137,0a1.383,1.383,0,0,0,1.384-1.384v-5.534a1.384,1.384,0,0,0-2.767,0v5.534A1.383,1.383,0,0,0,793.159,1612.747Zm4.151,8.3v5.534h-5.534v-5.534Zm-.277.277h-4.981v4.98h4.981Zm9.961-.277v5.534H801.46v-5.534Zm-.276.277h-4.981v4.98h4.981Zm15.495-8.3V1637.6a2.813,2.813,0,0,1-2.813,2.813H789.24a3.023,3.023,0,0,1-3-3.043v-24.352a3.02,3.02,0,0,1,3-3.043h1.152v1.384a2.77,2.77,0,0,0,3.041,2.754,2.85,2.85,0,0,0,2.493-2.877v-1.261h16.6v1.384a2.771,2.771,0,0,0,3.041,2.754,2.85,2.85,0,0,0,2.493-2.877v-1.261h1.154A3.02,3.02,0,0,1,822.213,1613.022Zm-2.767,24.628v-19.369H789.009v19.093a.262.262,0,0,0,.231.276Zm-17.986-2.767h5.534v-5.534H801.46Zm9.685-13.835v5.534h5.534v-5.534Zm0,13.835h5.534v-5.534h-5.534Zm-17.222-11.72-1.385.2,1,.977-.236,1.38,1.239-.652,1.239.652-.237-1.38,1-.977-1.386-.2-.619-1.255Zm9.685,0-1.386.2,1,.977-.237,1.38,1.239-.652,1.239.652-.236-1.38,1-.977-1.385-.2-.62-1.255Z" transform="translate(-786.242 -1604.446)" fill="url(#linear-gradient)"/>
</svg>
