<svg xmlns="http://www.w3.org/2000/svg" xmlns:xlink="http://www.w3.org/1999/xlink" width="40.682" height="30.695" viewBox="0 0 40.682 30.695">
  <defs>
    <linearGradient id="linear-gradient" x1="0.112" y1="1.099" x2="0.789" y2="0.202" gradientUnits="objectBoundingBox">
      <stop offset="0" stop-color="#d39d2c"/>
      <stop offset="0.032" stop-color="#d39d2c"/>
      <stop offset="0.063" stop-color="#e5af46"/>
      <stop offset="0.082" stop-color="#ecb751"/>
      <stop offset="0.175" stop-color="#d5a23d"/>
      <stop offset="0.254" stop-color="#c79530"/>
      <stop offset="0.305" stop-color="#cd9c36"/>
      <stop offset="0.383" stop-color="#ddb248"/>
      <stop offset="0.435" stop-color="#ecc557"/>
      <stop offset="0.582" stop-color="#fae56e"/>
      <stop offset="0.635" stop-color="#fae56e"/>
      <stop offset="0.706" stop-color="#eecb58"/>
      <stop offset="0.769" stop-color="#e6ba4a"/>
      <stop offset="0.812" stop-color="#d9ac40"/>
      <stop offset="0.853" stop-color="#d3a53b"/>
      <stop offset="1" stop-color="#9e6e1f"/>
    </linearGradient>
  </defs>
  <path id="Path_3247" data-name="Path 3247" d="M501.318,471.139v-4.722a1.18,1.18,0,1,1,2.361,0v4.722a1.18,1.18,0,0,1-2.361,0Zm20.069,1.18a1.18,1.18,0,0,0,1.181-1.18v-4.722a1.181,1.181,0,1,0-2.361,0v4.722a1.18,1.18,0,0,0,1.18,1.18ZM506.04,479.4h-4.722v4.722h4.722Zm-4.722,11.8h4.722v-4.722h-4.722Zm7.083-7.083h4.722V479.4H508.4Zm0,7.083h4.722v-4.722H508.4Zm-9.444,2.126V477.042h25.972v1.333h2.361v-5.82a2.576,2.576,0,0,0-2.557-2.6h-.985v1.181a2.361,2.361,0,1,1-4.722,0v-1.181H504.86v1.181a2.361,2.361,0,0,1-4.723,0v-1.181h-.983a2.577,2.577,0,0,0-2.559,2.6v20.779a2.58,2.58,0,0,0,2.559,2.6h13.969v-2.362H499.154a.222.222,0,0,1-.2-.235Zm29.514.235,5.986-6.237c.016-.188.021-.33.021-.42a2.241,2.241,0,0,0-.514-1.561,2.474,2.474,0,0,0-1.559-.7v-.719h-1.037v.719a2.789,2.789,0,0,0-1.708.7,2.137,2.137,0,0,0-.572,1.58,2.765,2.765,0,0,0,.271,1.243,2.5,2.5,0,0,0,.636.855,16.388,16.388,0,0,0,1.4.947,1.6,1.6,0,0,1,.723.71,3.892,3.892,0,0,1,.105,1.08.763.763,0,0,1-.111.455.4.4,0,0,1-.341.151.309.309,0,0,1-.333-.219,5.178,5.178,0,0,1-.07-1.123v-.55h-2.245v.439a2.724,2.724,0,0,0,.672,2.1,2.7,2.7,0,0,0,1.573.694v.865h1.037v-.843a2.672,2.672,0,0,0,1.738-.845,2.835,2.835,0,0,0,.574-1.884,3.267,3.267,0,0,0-.211-1.254,2.164,2.164,0,0,0-.526-.779,9.132,9.132,0,0,0-1.167-.792,8.41,8.41,0,0,1-1.212-.822,1.046,1.046,0,0,1-.209-.739.865.865,0,0,1,.1-.476A.334.334,0,0,1,531.8,486a.321.321,0,0,1,.333.184,2.461,2.461,0,0,1,.076.777v.372Zm2.436-7.526H514.626a.384.384,0,0,0-.384.384v15.357a.384.384,0,0,0,.384.384h22.267a.383.383,0,0,0,.384-.384V480.19A.383.383,0,0,0,536.893,479.806Zm-21.883.768h1.377l-1.377,1.377Zm0,2.462,2.462-2.462h1.218l-3.68,3.68Zm21.5,12.127h-21.5V485.34l4.766-4.766h16.733Zm-19.58-7.295H522.3V487.1h-5.375Zm0-1.919h2.688v-.768h-2.688Zm11.9-3.072h1.536v-.767h-1.536Zm2.3,0h1.535v-.767h-1.535Zm2.3,0h1.536v-.767h-1.536Zm-16.892,11.518h7.294v-.768h-7.294Zm8.062,0h.768v-.768h-.768Zm1.536,0h.767v-.768h-.767Zm.383-4.607h-9.6a.383.383,0,0,0-.383.384v1.919a.383.383,0,0,0,.383.384h9.6a.383.383,0,0,0,.384-.384v-1.919A.383.383,0,0,0,526.527,489.788Zm-.383,1.92h-8.831v-1.152h8.831Z" transform="translate(-496.595 -465.236)" fill="url(#linear-gradient)"/>
</svg>
