<svg xmlns="http://www.w3.org/2000/svg" xmlns:xlink="http://www.w3.org/1999/xlink" width="37.987" height="41.028" viewBox="0 0 37.987 41.028">
  <defs>
    <linearGradient id="linear-gradient" x1="-0.026" y1="0.951" x2="0.836" y2="0.153" gradientUnits="objectBoundingBox">
      <stop offset="0" stop-color="#d39d2c"/>
      <stop offset="0.032" stop-color="#d39d2c"/>
      <stop offset="0.063" stop-color="#e5af46"/>
      <stop offset="0.082" stop-color="#ecb751"/>
      <stop offset="0.175" stop-color="#d5a23d"/>
      <stop offset="0.254" stop-color="#c79530"/>
      <stop offset="0.305" stop-color="#cd9c36"/>
      <stop offset="0.383" stop-color="#ddb248"/>
      <stop offset="0.435" stop-color="#ecc557"/>
      <stop offset="0.582" stop-color="#fae56e"/>
      <stop offset="0.635" stop-color="#fae56e"/>
      <stop offset="0.706" stop-color="#eecb58"/>
      <stop offset="0.769" stop-color="#e6ba4a"/>
      <stop offset="0.812" stop-color="#d9ac40"/>
      <stop offset="0.853" stop-color="#d3a53b"/>
      <stop offset="1" stop-color="#9e6e1f"/>
    </linearGradient>
  </defs>
  <path id="Path_3346" data-name="Path 3346" d="M808.366,1476.746a1.71,1.71,0,0,1-1.71,1.709H796.4a1.709,1.709,0,1,1,0-3.419h10.256A1.711,1.711,0,0,1,808.366,1476.746Zm-1.71,5.128H796.4a1.709,1.709,0,1,0,0,3.419h10.256a1.709,1.709,0,1,0,0-3.419Zm-6.837,6.545H796.4a1.71,1.71,0,1,0,0,3.419h3.419a1.71,1.71,0,0,0,0-3.419Zm20.28,4.908v5.7a1.71,1.71,0,0,1-1.709,1.71H791.038a1.71,1.71,0,0,1-1.709-1.71V1465.7a1.709,1.709,0,0,1,1.709-1.709h5.2a5.134,5.134,0,0,1,5.052-4.274h6.838a5.131,5.131,0,0,1,5.051,4.274h5.206a1.71,1.71,0,0,1,1.709,1.709v5.822h-2.375v-5.125h-4.463v1.71a1.71,1.71,0,0,1-1.709,1.709H797.876a1.71,1.71,0,0,1-1.71-1.709v-1.71h-4.351v31.648h25.909v-4.715ZM797.876,1468.2h13.676v-3.5a2.282,2.282,0,0,0-2.28-2.279h-9.117a2.281,2.281,0,0,0-2.279,2.279Zm20.953,24.37.163-.048a12.482,12.482,0,0,0,6.906-5.42c1.864-3.174,1.363-11.745,1.34-12.109l-.025-.415-8.384-2.1-8.384,2.1-.025.415c-.023.364-.524,8.935,1.339,12.109a12.487,12.487,0,0,0,6.907,5.42Zm0-18.921,7.3,1.828.008.183c.035.839.306,8.274-1.217,10.866a11.466,11.466,0,0,1-6.011,4.83l-.078.026-.078-.026a11.466,11.466,0,0,1-6.011-4.83c-1.523-2.592-1.252-10.027-1.217-10.866l.008-.183Zm6.212,4.208h0a.935.935,0,0,0-1.32-.065l-5.237,4.742a.935.935,0,0,1-1.32-.065L814.925,1480a.933.933,0,0,0-1.32-.065h0a.934.934,0,0,0-.065,1.32l3.493,3.857a.936.936,0,0,0,1.321.066l6.621-6A.935.935,0,0,0,825.041,1477.86Z" transform="translate(-789.329 -1459.714)" fill="url(#linear-gradient)"/>
</svg>
