<svg xmlns="http://www.w3.org/2000/svg" xmlns:xlink="http://www.w3.org/1999/xlink" width="35.198" height="39.295" viewBox="0 0 35.198 39.295">
  <defs>
    <linearGradient id="linear-gradient" x1="0.155" y1="0.858" x2="0.904" y2="0.187" gradientUnits="objectBoundingBox">
      <stop offset="0" stop-color="#d39d2c"/>
      <stop offset="0.032" stop-color="#d39d2c"/>
      <stop offset="0.063" stop-color="#e5af46"/>
      <stop offset="0.082" stop-color="#ecb751"/>
      <stop offset="0.175" stop-color="#d5a23d"/>
      <stop offset="0.254" stop-color="#c79530"/>
      <stop offset="0.305" stop-color="#cd9c36"/>
      <stop offset="0.383" stop-color="#ddb248"/>
      <stop offset="0.435" stop-color="#ecc557"/>
      <stop offset="0.582" stop-color="#fae56e"/>
      <stop offset="0.635" stop-color="#fae56e"/>
      <stop offset="0.706" stop-color="#eecb58"/>
      <stop offset="0.769" stop-color="#e6ba4a"/>
      <stop offset="0.812" stop-color="#d9ac40"/>
      <stop offset="0.853" stop-color="#d3a53b"/>
      <stop offset="1" stop-color="#9e6e1f"/>
    </linearGradient>
  </defs>
  <path id="Path_3264" data-name="Path 3264" d="M223.946,1049.694H219.37v-4.576h4.576Zm-6.864,8.925V1042.83h25.169v1.292h2.288v-5.64a2.5,2.5,0,0,0-2.478-2.516h-.954v1.144a2.288,2.288,0,0,1-4.576,0v-1.144H222.8v1.144a2.288,2.288,0,0,1-4.577,0v-1.144h-.952a2.5,2.5,0,0,0-2.48,2.516v20.137a2.5,2.5,0,0,0,2.48,2.516H230.81v-2.288H217.273A.216.216,0,0,1,217.082,1058.619Zm3.432-20.365a1.144,1.144,0,0,0,1.144-1.144v-4.576a1.144,1.144,0,1,0-2.288,0v4.576A1.143,1.143,0,0,0,220.514,1038.254Zm18.3,0a1.144,1.144,0,0,0,1.144-1.144v-4.576a1.144,1.144,0,1,0-2.288,0v4.576A1.144,1.144,0,0,0,238.819,1038.254Zm-19.449,18.3h4.576v-4.577H219.37Zm6.864,0h4.576v-4.577h-4.576Zm0-6.865h4.576v-4.576h-4.576Zm12.637,7.928a19.96,19.96,0,0,0,1.71,1.158,1.946,1.946,0,0,1,.883.866,4.739,4.739,0,0,1,.129,1.32.929.929,0,0,1-.136.555.492.492,0,0,1-.417.185.377.377,0,0,1-.406-.268,6.319,6.319,0,0,1-.086-1.372v-.671h-2.741v.535a3.327,3.327,0,0,0,.82,2.571,3.287,3.287,0,0,0,1.921.849v1.056h1.266v-1.03a3.254,3.254,0,0,0,2.123-1.032,3.457,3.457,0,0,0,.7-2.3,3.967,3.967,0,0,0-.258-1.531,2.638,2.638,0,0,0-.641-.952,11.378,11.378,0,0,0-1.426-.968,10.294,10.294,0,0,1-1.481-1,1.279,1.279,0,0,1-.254-.9,1.059,1.059,0,0,1,.125-.583.408.408,0,0,1,.374-.193.392.392,0,0,1,.407.225,3.015,3.015,0,0,1,.092.949v.454h2.745c.019-.23.026-.4.026-.514a2.74,2.74,0,0,0-.628-1.906,3.024,3.024,0,0,0-1.9-.85v-.878h-1.266v.878a3.406,3.406,0,0,0-2.087.862,2.609,2.609,0,0,0-.7,1.929,3.379,3.379,0,0,0,.33,1.518A3.031,3.031,0,0,0,238.871,1057.622Zm11.12-10.112v20.777a2.4,2.4,0,0,1-2.4,2.4H234.808a2.4,2.4,0,0,1-2.4-2.4V1047.51a2.4,2.4,0,0,1,2.4-2.4h12.785A2.4,2.4,0,0,1,249.991,1047.51Zm-1.6,19.179H234.009v1.6a.8.8,0,0,0,.8.8h12.785a.8.8,0,0,0,.8-.8Zm0-15.982H234.009v14.383h14.384Zm0-3.2a.8.8,0,0,0-.8-.8H234.808a.8.8,0,0,0-.8.8v1.6h14.384Z" transform="translate(-214.793 -1031.389)" fill="url(#linear-gradient)"/>
</svg>
