<svg xmlns="http://www.w3.org/2000/svg" xmlns:xlink="http://www.w3.org/1999/xlink" width="39.949" height="40.484" viewBox="0 0 39.949 40.484">
  <defs>
    <linearGradient id="linear-gradient" x1="0.075" y1="0.919" x2="0.874" y2="0.131" gradientUnits="objectBoundingBox">
      <stop offset="0" stop-color="#d39d2c"/>
      <stop offset="0.032" stop-color="#d39d2c"/>
      <stop offset="0.063" stop-color="#e5af46"/>
      <stop offset="0.082" stop-color="#ecb751"/>
      <stop offset="0.175" stop-color="#d5a23d"/>
      <stop offset="0.254" stop-color="#c79530"/>
      <stop offset="0.305" stop-color="#cd9c36"/>
      <stop offset="0.383" stop-color="#ddb248"/>
      <stop offset="0.435" stop-color="#ecc557"/>
      <stop offset="0.582" stop-color="#fae56e"/>
      <stop offset="0.635" stop-color="#fae56e"/>
      <stop offset="0.706" stop-color="#eecb58"/>
      <stop offset="0.769" stop-color="#e6ba4a"/>
      <stop offset="0.812" stop-color="#d9ac40"/>
      <stop offset="0.853" stop-color="#d3a53b"/>
      <stop offset="1" stop-color="#9e6e1f"/>
    </linearGradient>
  </defs>
  <path id="Path_3349" data-name="Path 3349" d="M245.328,1503.36a12.484,12.484,0,0,1-6.907-5.421c-1.863-3.173-1.362-11.744-1.34-12.108l.026-.415,8.384-2.1,8.384,2.1.025.415c.022.364.524,8.935-1.34,12.109a12.484,12.484,0,0,1-6.906,5.42l-.163.048Zm-7.135-17.045-.008.183c-.036.839-.306,8.274,1.216,10.866a11.469,11.469,0,0,0,6.012,4.83l.078.026.078-.026a11.464,11.464,0,0,0,6.011-4.83c1.522-2.592,1.252-10.027,1.216-10.866l-.007-.183-7.3-1.828Zm13.51,2.443h0a.936.936,0,0,0-1.321-.065l-5.236,4.742a.934.934,0,0,1-1.32-.065l-2.239-2.472a.934.934,0,0,0-1.32-.065h0a.934.934,0,0,0-.065,1.32l3.493,3.857a.935.935,0,0,0,1.32.066l6.622-6A.936.936,0,0,0,251.7,1488.758Zm-32.14-18.916v-5.534a1.383,1.383,0,1,1,2.767,0v5.534a1.383,1.383,0,1,1-2.767,0Zm23.52,1.384a1.383,1.383,0,0,0,1.383-1.384v-5.534a1.383,1.383,0,1,0-2.767,0v5.534a1.383,1.383,0,0,0,1.384,1.384Zm-17.986,8.3h-5.534v5.534H225.1Zm-5.534,13.835H225.1v-5.535h-5.534Zm8.3-8.3H233.4v-5.534h-5.534Zm0,8.3H233.4v-5.535h-5.534Zm-11.068,2.491V1476.76h30.437v5.533H250V1471.5a3.019,3.019,0,0,0-3-3.043h-1.154v1.384a2.767,2.767,0,0,1-5.534,0v-1.384h-16.6v1.384a2.768,2.768,0,0,1-5.535,0v-1.384h-1.152a3.02,3.02,0,0,0-3,3.043v24.352a3.023,3.023,0,0,0,3,3.043H233.4v-2.767H217.027a.262.262,0,0,1-.231-.276Z" transform="translate(-214.029 -1462.924)" fill="url(#linear-gradient)"/>
</svg>
