<svg xmlns="http://www.w3.org/2000/svg" xmlns:xlink="http://www.w3.org/1999/xlink" width="40.305" height="38.577" viewBox="0 0 40.305 38.577">
  <defs>
    <linearGradient id="linear-gradient" x1="0.093" y1="0.983" x2="0.884" y2="0.156" gradientUnits="objectBoundingBox">
      <stop offset="0" stop-color="#d39d2c"/>
      <stop offset="0.032" stop-color="#d39d2c"/>
      <stop offset="0.063" stop-color="#e5af46"/>
      <stop offset="0.082" stop-color="#ecb751"/>
      <stop offset="0.175" stop-color="#d5a23d"/>
      <stop offset="0.254" stop-color="#c79530"/>
      <stop offset="0.305" stop-color="#cd9c36"/>
      <stop offset="0.383" stop-color="#ddb248"/>
      <stop offset="0.435" stop-color="#ecc557"/>
      <stop offset="0.582" stop-color="#fae56e"/>
      <stop offset="0.635" stop-color="#fae56e"/>
      <stop offset="0.706" stop-color="#eecb58"/>
      <stop offset="0.769" stop-color="#e6ba4a"/>
      <stop offset="0.812" stop-color="#d9ac40"/>
      <stop offset="0.853" stop-color="#d3a53b"/>
      <stop offset="1" stop-color="#9e6e1f"/>
    </linearGradient>
  </defs>
  <path id="Path_3348" data-name="Path 3348" d="M969.078,1489.1H965.3a4.605,4.605,0,0,0,.666-.533,2.5,2.5,0,0,0,0-3.509,2.521,2.521,0,0,0-3.5,0c-.517.519-1.89,2.631-1.7,4.042h-.086c.189-1.411-1.183-3.523-1.7-4.042a2.522,2.522,0,0,0-3.5,0,2.5,2.5,0,0,0,0,3.509,4.679,4.679,0,0,0,.667.533H952.38a1.2,1.2,0,0,0-1.193,1.193v2.982a.6.6,0,0,0,.6.6h.6v7.157a1.194,1.194,0,0,0,1.193,1.192h14.313a1.194,1.194,0,0,0,1.192-1.192v-7.157h.6a.6.6,0,0,0,.6-.6v-2.982A1.2,1.2,0,0,0,969.078,1489.1Zm-12.744-3.2a1.271,1.271,0,0,1,1.807,0c.8.809,1.6,2.874,1.325,3.162a.4.4,0,0,1-.221.039,5.861,5.861,0,0,1-2.911-1.374A1.3,1.3,0,0,1,956.334,1485.9Zm3.8,15.129h-6.56v-7.157h6.56Zm0-8.35H952.38v-2.385h7.753Zm3.184-6.779a1.285,1.285,0,0,1,1.807,1.827,5.861,5.861,0,0,1-2.911,1.374.4.4,0,0,1-.222-.039C961.714,1488.772,962.513,1486.707,963.317,1485.9Zm4.569,15.129h-6.56v-7.157h6.56Zm1.192-8.35h-7.752v-2.385h7.752ZM935.5,1470.559v-5.534a1.384,1.384,0,0,1,2.767,0v5.534a1.384,1.384,0,1,1-2.767,0Zm23.52,1.384a1.383,1.383,0,0,0,1.383-1.384v-5.534a1.384,1.384,0,0,0-2.767,0v5.534a1.383,1.383,0,0,0,1.384,1.384Zm-17.986,8.3H935.5v5.534h5.534Zm-5.534,13.835h5.534v-5.534H935.5Zm8.3-8.3h5.534v-5.534H943.8Zm0,8.3h5.534v-5.534H943.8Zm-11.068,2.492v-19.094H963.17v5.534h2.767v-10.792a3.019,3.019,0,0,0-3-3.043h-1.154v1.383a2.767,2.767,0,1,1-5.534,0v-1.383h-16.6v1.383a2.767,2.767,0,1,1-5.534,0v-1.383h-1.152a3.02,3.02,0,0,0-3,3.043v24.352a3.023,3.023,0,0,0,3,3.042h16.371v-2.767H932.964a.262.262,0,0,1-.231-.275Z" transform="translate(-929.966 -1463.642)" fill="url(#linear-gradient)"/>
</svg>
