<svg xmlns="http://www.w3.org/2000/svg" xmlns:xlink="http://www.w3.org/1999/xlink" width="43.857" height="37.887" viewBox="0 0 43.857 37.887">
  <defs>
    <linearGradient id="linear-gradient" x1="0.052" y1="1.055" x2="0.935" y2="0.033" gradientUnits="objectBoundingBox">
      <stop offset="0" stop-color="#d39d2c"/>
      <stop offset="0.032" stop-color="#d39d2c"/>
      <stop offset="0.063" stop-color="#e5af46"/>
      <stop offset="0.082" stop-color="#ecb751"/>
      <stop offset="0.175" stop-color="#d5a23d"/>
      <stop offset="0.254" stop-color="#c79530"/>
      <stop offset="0.305" stop-color="#cd9c36"/>
      <stop offset="0.383" stop-color="#ddb248"/>
      <stop offset="0.435" stop-color="#ecc557"/>
      <stop offset="0.582" stop-color="#fae56e"/>
      <stop offset="0.635" stop-color="#fae56e"/>
      <stop offset="0.706" stop-color="#eecb58"/>
      <stop offset="0.769" stop-color="#e6ba4a"/>
      <stop offset="0.812" stop-color="#d9ac40"/>
      <stop offset="0.853" stop-color="#d3a53b"/>
      <stop offset="1" stop-color="#9e6e1f"/>
    </linearGradient>
  </defs>
  <path id="Path_2050" data-name="Path 2050" d="M371.568,200.176v-.917a.314.314,0,0,1,.312-.312H378.6a.313.313,0,0,1,.313.312v.917a.314.314,0,0,1-.313.311H371.88a.313.313,0,0,1-.312-.311Zm6.15,12.216V201.356a.312.312,0,0,0-.311-.313h-4.333a.316.316,0,0,0-.314.313v11.036a.313.313,0,0,0,.314.312h4.333a.312.312,0,0,0,.311-.312Zm-25.5-12.216v-.917a.313.313,0,0,1,.311-.312h6.721a.313.313,0,0,1,.311.312v.917a.313.313,0,0,1-.311.311h-6.721a.312.312,0,0,1-.311-.311Zm.53-3.589,12.442-5.647a.884.884,0,0,1,.746,0l12.441,5.647a.887.887,0,0,1,.531.822v.553a.314.314,0,0,1-.313.311H352.533a.312.312,0,0,1-.311-.311v-.553a.888.888,0,0,1,.53-.822Zm3.738.131h18.154a.127.127,0,0,0,.127-.1.12.12,0,0,0-.074-.138l-9.078-3.819a.158.158,0,0,0-.1,0l-9.077,3.819a.12.12,0,0,0-.074.138.126.126,0,0,0,.127.1Zm-4.268,18.08v-1.225a.311.311,0,0,1,.311-.311H378.6a.311.311,0,0,1,.313.311V214.8a.315.315,0,0,1-.313.312H352.533a.313.313,0,0,1-.311-.312Zm6.151-2.406V201.356a.313.313,0,0,0-.313-.313h-4.333a.315.315,0,0,0-.312.313v11.036a.312.312,0,0,0,.312.312h4.333a.313.313,0,0,0,.313-.312Zm3.522-12.216v-.917a.313.313,0,0,1,.312-.312h6.72a.314.314,0,0,1,.312.312v.917a.314.314,0,0,1-.312.311h-6.72a.312.312,0,0,1-.312-.311Zm6.152,12.216V201.356a.314.314,0,0,0-.314-.313H363.4a.315.315,0,0,0-.313.313v11.036a.313.313,0,0,0,.313.312h4.333A.314.314,0,0,0,368.047,212.392Zm27.536-28.686c.031-.359.041-.63.041-.8a4.278,4.278,0,0,0-.982-2.979,4.724,4.724,0,0,0-2.977-1.329v-1.372h-1.979V178.6a5.33,5.33,0,0,0-3.262,1.347,4.078,4.078,0,0,0-1.09,3.015,5.271,5.271,0,0,0,.517,2.373,4.737,4.737,0,0,0,1.214,1.632,31.322,31.322,0,0,0,2.672,1.809,3.035,3.035,0,0,1,1.38,1.355,7.37,7.37,0,0,1,.2,2.062,1.452,1.452,0,0,1-.212.868.767.767,0,0,1-.651.289.591.591,0,0,1-.636-.418,9.866,9.866,0,0,1-.134-2.145v-1.049H385.4v.837c0,1.912.424,3.253,1.282,4.019a5.141,5.141,0,0,0,3,1.325v1.651h1.979v-1.609a5.088,5.088,0,0,0,3.318-1.613,5.41,5.41,0,0,0,1.1-3.6,6.215,6.215,0,0,0-.4-2.393,4.14,4.14,0,0,0-1-1.489,17.9,17.9,0,0,0-2.228-1.512,16.11,16.11,0,0,1-2.315-1.568,2,2,0,0,1-.4-1.411,1.652,1.652,0,0,1,.2-.909.64.64,0,0,1,.585-.3.611.611,0,0,1,.635.352,4.671,4.671,0,0,1,.145,1.483v.71ZM393,199.675a.75.75,0,0,0-1.318-.717,10.5,10.5,0,0,1-11.112,5.329.76.76,0,0,0-.872.6.752.752,0,0,0,.605.872,12,12,0,0,0,12.7-6.089Zm-2.533.063,1.63.015,1.12,1.184.045-3.859Zm-18.291-10.864a10.526,10.526,0,0,1,10.987-5.351.75.75,0,1,0,.249-1.479,12.027,12.027,0,0,0-12.554,6.113.75.75,0,0,0,1.318.717Zm1.215-.781-1.63-.014-1.12-1.184-.045,3.859Z" transform="translate(-352.222 -177.223)" fill-rule="evenodd" fill="url(#linear-gradient)"/>
</svg>
