<svg xmlns="http://www.w3.org/2000/svg" xmlns:xlink="http://www.w3.org/1999/xlink" width="34.778" height="39.5" viewBox="0 0 34.778 39.5">
  <defs>
    <linearGradient id="linear-gradient" x1="0.162" y1="0.894" x2="1.058" y2="0.106" gradientUnits="objectBoundingBox">
      <stop offset="0" stop-color="#d39d2c"/>
      <stop offset="0.032" stop-color="#d39d2c"/>
      <stop offset="0.063" stop-color="#e5af46"/>
      <stop offset="0.082" stop-color="#ecb751"/>
      <stop offset="0.175" stop-color="#d5a23d"/>
      <stop offset="0.254" stop-color="#c79530"/>
      <stop offset="0.305" stop-color="#cd9c36"/>
      <stop offset="0.383" stop-color="#ddb248"/>
      <stop offset="0.435" stop-color="#ecc557"/>
      <stop offset="0.582" stop-color="#fae56e"/>
      <stop offset="0.635" stop-color="#fae56e"/>
      <stop offset="0.706" stop-color="#eecb58"/>
      <stop offset="0.769" stop-color="#e6ba4a"/>
      <stop offset="0.812" stop-color="#d9ac40"/>
      <stop offset="0.853" stop-color="#d3a53b"/>
      <stop offset="1" stop-color="#9e6e1f"/>
    </linearGradient>
  </defs>
  <path id="Path_3262" data-name="Path 3262" d="M509.852,773.822v-6.458a1.01,1.01,0,0,0-1.009-1.01h-6.66v-3.027a2.623,2.623,0,1,1,5.247,0v1.211a.605.605,0,0,0,1.211,0v-1.211a3.835,3.835,0,0,0-7.669,0v3.027h-.2a1.01,1.01,0,0,0-1.009,1.01v6.458a1.009,1.009,0,0,0,1.009,1.009h8.073A1.009,1.009,0,0,0,509.852,773.822Zm-4.44-2.988v1.777H504.2v-1.777a1.211,1.211,0,1,1,1.211,0Zm17.3-12.3V759.7a4.006,4.006,0,0,1,2.527,1.127,3.632,3.632,0,0,1,.833,2.528c0,.147-.009.377-.035.682H522.4v-.6a3.966,3.966,0,0,0-.123-1.258.52.52,0,0,0-.539-.3.542.542,0,0,0-.5.257,1.4,1.4,0,0,0-.167.772,1.692,1.692,0,0,0,.338,1.2,13.652,13.652,0,0,0,1.965,1.331,15.211,15.211,0,0,1,1.89,1.283,3.5,3.5,0,0,1,.851,1.263,5.266,5.266,0,0,1,.342,2.031,4.593,4.593,0,0,1-.93,3.053,4.317,4.317,0,0,1-2.816,1.368v1.366h-1.679v-1.4a4.358,4.358,0,0,1-2.549-1.125,4.415,4.415,0,0,1-1.088-3.41v-.711h3.637v.891a8.338,8.338,0,0,0,.114,1.82.5.5,0,0,0,.539.355.649.649,0,0,0,.553-.246,1.231,1.231,0,0,0,.18-.736,6.234,6.234,0,0,0-.172-1.75,2.583,2.583,0,0,0-1.17-1.15,26.531,26.531,0,0,1-2.268-1.535,4.022,4.022,0,0,1-1.031-1.385,4.485,4.485,0,0,1-.439-2.014,3.463,3.463,0,0,1,.926-2.559,4.519,4.519,0,0,1,2.768-1.142V758.53ZM530.836,748h-19.75a3.707,3.707,0,0,0-3.7,3.7v7.13h2.469v-2.192H532.07v22.218H509.852v-2.692h-2.469v7.63a3.707,3.707,0,0,0,3.7,3.7h19.75a3.707,3.707,0,0,0,3.7-3.7V751.7A3.707,3.707,0,0,0,530.836,748Zm1.234,35.8a1.235,1.235,0,0,1-1.234,1.234h-19.75a1.235,1.235,0,0,1-1.234-1.234v-2.469H532.07Zm0-29.625H509.852V751.7a1.235,1.235,0,0,1,1.234-1.234h19.75a1.235,1.235,0,0,1,1.234,1.234Z" transform="translate(-499.761 -748)" fill="url(#linear-gradient)"/>
</svg>
