<svg xmlns="http://www.w3.org/2000/svg" xmlns:xlink="http://www.w3.org/1999/xlink" width="40.405" height="40.405" viewBox="0 0 40.405 40.405">
  <defs>
    <linearGradient id="linear-gradient" x1="0.147" y1="0.853" x2="0.853" y2="0.147" gradientUnits="objectBoundingBox">
      <stop offset="0" stop-color="#d39d2c"/>
      <stop offset="0.032" stop-color="#d39d2c"/>
      <stop offset="0.063" stop-color="#e5af46"/>
      <stop offset="0.082" stop-color="#ecb751"/>
      <stop offset="0.175" stop-color="#d5a23d"/>
      <stop offset="0.254" stop-color="#c79530"/>
      <stop offset="0.305" stop-color="#cd9c36"/>
      <stop offset="0.383" stop-color="#ddb248"/>
      <stop offset="0.435" stop-color="#ecc557"/>
      <stop offset="0.582" stop-color="#fae56e"/>
      <stop offset="0.635" stop-color="#fae56e"/>
      <stop offset="0.706" stop-color="#eecb58"/>
      <stop offset="0.769" stop-color="#e6ba4a"/>
      <stop offset="0.812" stop-color="#d9ac40"/>
      <stop offset="0.853" stop-color="#d3a53b"/>
      <stop offset="1" stop-color="#9e6e1f"/>
    </linearGradient>
  </defs>
  <path id="Path_3238" data-name="Path 3238" d="M952.592,63.074a.677.677,0,1,1,0,1.353,7.194,7.194,0,0,1-7.186-7.186.677.677,0,0,1,1.354,0A5.839,5.839,0,0,0,952.592,63.074Zm-6.509-10.943a5.116,5.116,0,0,1,5.109,5.11.677.677,0,0,0,1.354,0,6.463,6.463,0,0,0-12.926,0,12.953,12.953,0,0,0,4.62,9.919.677.677,0,1,0,.873-1.034,11.6,11.6,0,0,1-4.14-8.885A5.116,5.116,0,0,1,946.083,52.131Zm9.356,5.11a9.356,9.356,0,0,0-18.712,0,15.764,15.764,0,0,0,1.2,6.044.677.677,0,0,0,1.251-.517,14.413,14.413,0,0,1-1.094-5.527,8,8,0,1,1,16.005,0,2.216,2.216,0,0,1-4.432,0,3.57,3.57,0,0,0-7.14,0A10.09,10.09,0,0,0,952.592,67.32a.676.676,0,1,0,0-1.353,8.737,8.737,0,0,1-8.726-8.726,2.216,2.216,0,0,1,4.433,0,3.57,3.57,0,0,0,7.14,0Zm2.216.677a.677.677,0,0,0,.677-.677,12.249,12.249,0,1,0-24.5,0,.677.677,0,1,0,1.353,0,10.9,10.9,0,1,1,21.792,0A.677.677,0,0,0,957.655,57.918ZM934.726,47.235a.676.676,0,0,0,.06.955.677.677,0,0,0,.955-.06,13.768,13.768,0,0,1,19.992-.729.677.677,0,1,0,.947-.967,15.12,15.12,0,0,0-21.954.8Zm4.7-5.286a16.663,16.663,0,0,1,14.995.843.677.677,0,1,0,.679-1.171,18.016,18.016,0,0,0-16.216-.913.677.677,0,0,0,.542,1.241Zm-11.46,11.02a18.846,18.846,0,0,1,31.14-13.622.677.677,0,1,0,.885-1.025A20.2,20.2,0,0,0,931.5,66.811a.676.676,0,0,0,1.024-.884A18.788,18.788,0,0,1,927.968,52.969Zm34.14-12.531a.676.676,0,0,0-1.024.884A18.846,18.846,0,0,1,934.5,67.9a.677.677,0,0,0-.884,1.025,20.124,20.124,0,0,0,13.187,4.9q.349,0,.7-.012a20.2,20.2,0,0,0,14.6-33.377Z" transform="translate(-926.604 -33.422)" fill="url(#linear-gradient)"/>
</svg>
