<svg xmlns="http://www.w3.org/2000/svg" xmlns:xlink="http://www.w3.org/1999/xlink" width="38.616" height="33.121" viewBox="0 0 38.616 33.121">
  <defs>
    <linearGradient id="linear-gradient" x1="0.089" y1="1.097" x2="0.928" y2="0.119" gradientUnits="objectBoundingBox">
      <stop offset="0" stop-color="#d39d2c"/>
      <stop offset="0.032" stop-color="#d39d2c"/>
      <stop offset="0.063" stop-color="#e5af46"/>
      <stop offset="0.082" stop-color="#ecb751"/>
      <stop offset="0.175" stop-color="#d5a23d"/>
      <stop offset="0.254" stop-color="#c79530"/>
      <stop offset="0.305" stop-color="#cd9c36"/>
      <stop offset="0.383" stop-color="#ddb248"/>
      <stop offset="0.435" stop-color="#ecc557"/>
      <stop offset="0.582" stop-color="#fae56e"/>
      <stop offset="0.635" stop-color="#fae56e"/>
      <stop offset="0.706" stop-color="#eecb58"/>
      <stop offset="0.769" stop-color="#e6ba4a"/>
      <stop offset="0.812" stop-color="#d9ac40"/>
      <stop offset="0.853" stop-color="#d3a53b"/>
      <stop offset="1" stop-color="#9e6e1f"/>
    </linearGradient>
  </defs>
  <path id="Path_3249" data-name="Path 3249" d="M664.707,478.576H639.066a.441.441,0,0,0-.442.442V496.7a.441.441,0,0,0,.442.442h25.641a.442.442,0,0,0,.442-.442V479.018A.442.442,0,0,0,664.707,478.576Zm-25.2.884h1.585l-1.585,1.585Zm0,2.836,2.836-2.836h1.4l-4.238,4.238Zm24.757,13.963H639.508V484.948L645,479.46h19.269Zm-22.547-9.283h6.19v.884h-6.19Zm0-2.211h3.095v.884h-3.095Zm13.7-3.537h1.769v.885h-1.769Zm2.653,0h1.768v.885h-1.768Zm2.652,0H662.5v.885h-1.769Zm-19.452,13.263h8.4v.884h-8.4Zm9.284,0h.884v.884h-.884Zm1.769,0h.884v.884h-.884Zm.442-4.421H641.718a.442.442,0,0,0-.442.442v2.211a.442.442,0,0,0,.442.442h11.053a.442.442,0,0,0,.442-.442v-2.211A.442.442,0,0,0,652.771,490.07Zm-.442,2.211H642.16v-1.327h10.169Zm24.911-6.241a8.808,8.808,0,0,1-1.784,5.857,8.285,8.285,0,0,1-5.4,2.625v2.622h-3.222v-2.689c-.266-.026-.517-.088-.773-.136v-9.928h.773V486.1a16.046,16.046,0,0,0,.219,3.492.962.962,0,0,0,1.035.682,1.25,1.25,0,0,0,1.06-.472,2.365,2.365,0,0,0,.345-1.413,12.054,12.054,0,0,0-.328-3.358,4.952,4.952,0,0,0-2.247-2.2c-.3-.188-.584-.368-.857-.543V477.25H660.6l-.015-.028a8.587,8.587,0,0,1-.842-3.863,6.642,6.642,0,0,1,1.776-4.91,8.678,8.678,0,0,1,5.31-2.192v-2.234h3.222v2.234a7.691,7.691,0,0,1,4.847,2.163,6.962,6.962,0,0,1,1.6,4.851c0,.282-.018.723-.068,1.308h-6.984v-1.157a7.629,7.629,0,0,0-.235-2.414,1,1,0,0,0-1.035-.573,1.042,1.042,0,0,0-.952.492,2.69,2.69,0,0,0-.319,1.482,3.253,3.253,0,0,0,.648,2.3,26.173,26.173,0,0,0,3.769,2.553,29.006,29.006,0,0,1,3.627,2.462,6.719,6.719,0,0,1,1.633,2.423A10.107,10.107,0,0,1,677.24,486.04Z" transform="translate(-638.624 -464.023)" fill="url(#linear-gradient)"/>
</svg>
