<svg xmlns="http://www.w3.org/2000/svg" width="16.784" height="15.316" viewBox="0 0 16.784 15.316">
  <g id="Group_4752" data-name="Group 4752" transform="translate(-9.132 -2013.184)">
    <path id="Path_1505" data-name="Path 1505" d="M25.709,2020.44l-1.8-1.266a.492.492,0,0,0-.775.4v.775H14.514a.492.492,0,0,0,0,.983h8.624v.774a.492.492,0,0,0,.775.4l1.8-1.266A.493.493,0,0,0,25.709,2020.44Z" fill="#c17306"/>
    <path id="Path_1506" data-name="Path 1506" d="M23.244,2024a.492.492,0,0,0-.672.179,6.674,6.674,0,1,1,0-6.674.492.492,0,1,0,.851-.492,7.658,7.658,0,1,0,0,7.659A.492.492,0,0,0,23.244,2024Z" fill="#c17306"/>
  </g>
</svg>
