<svg xmlns="http://www.w3.org/2000/svg" xmlns:xlink="http://www.w3.org/1999/xlink" width="41.22" height="35.189" viewBox="0 0 41.22 35.189">
  <defs>
    <linearGradient id="linear-gradient" x1="0.113" y1="1.063" x2="0.834" y2="0.219" gradientUnits="objectBoundingBox">
      <stop offset="0" stop-color="#d39d2c"/>
      <stop offset="0.032" stop-color="#d39d2c"/>
      <stop offset="0.063" stop-color="#e5af46"/>
      <stop offset="0.082" stop-color="#ecb751"/>
      <stop offset="0.175" stop-color="#d5a23d"/>
      <stop offset="0.254" stop-color="#c79530"/>
      <stop offset="0.305" stop-color="#cd9c36"/>
      <stop offset="0.383" stop-color="#ddb248"/>
      <stop offset="0.435" stop-color="#ecc557"/>
      <stop offset="0.582" stop-color="#fae56e"/>
      <stop offset="0.635" stop-color="#fae56e"/>
      <stop offset="0.706" stop-color="#eecb58"/>
      <stop offset="0.769" stop-color="#e6ba4a"/>
      <stop offset="0.812" stop-color="#d9ac40"/>
      <stop offset="0.853" stop-color="#d3a53b"/>
      <stop offset="1" stop-color="#9e6e1f"/>
    </linearGradient>
  </defs>
  <path id="Path_3245" data-name="Path 3245" d="M1093.733,475.487h-2.491v-2.492h2.491Zm.623-6.23a.622.622,0,0,0,.623-.623v-2.491a.623.623,0,1,0-1.246,0v2.491A.622.622,0,0,0,1094.356,469.257Zm1.869,6.23a4.984,4.984,0,1,1-4.983,4.983A4.984,4.984,0,0,1,1096.225,475.487Zm0,1.246a3.738,3.738,0,1,0,3.738,3.737A3.741,3.741,0,0,0,1096.225,476.733Zm0,1.869a.623.623,0,1,0-1.246,0v2.491a.623.623,0,0,0,.623.623h2.492a.623.623,0,1,0,0-1.246h-1.869Zm-11.836-9.345a.622.622,0,0,0,.623-.623v-2.491a.623.623,0,1,0-1.246,0v2.491A.622.622,0,0,0,1084.389,469.257Zm1.869,3.738h-2.492v2.492h2.492Zm-2.492,6.23h2.492v-2.492h-2.492Zm6.23-6.23H1087.5v2.492H1090Zm-7.371,8.721H1090V480.47h-7.371a.117.117,0,0,1-.1-.124v-8.6h13.7v2.492h1.246v-4.86a1.359,1.359,0,0,0-1.349-1.37h-.52v.623a1.246,1.246,0,0,1-2.492,0v-.623h-7.475v.623a1.246,1.246,0,0,1-2.492,0v-.623h-.518a1.361,1.361,0,0,0-1.351,1.37v10.965A1.362,1.362,0,0,0,1082.625,481.716Zm4.879-2.491H1090v-2.492H1087.5Zm21.653,11.924a2.666,2.666,0,0,1-1.631,2.461l-14.983,6.339a9.563,9.563,0,0,1-3.746.76h-.175a9.62,9.62,0,0,1-3.054-.5l-9.387-3.338v1.088a.687.687,0,0,1-.687.687h-6.87a.687.687,0,0,1-.687-.687V482.847a.687.687,0,0,1,.687-.687h6.87a.687.687,0,0,1,.687.687v.687h5.351a3.414,3.414,0,0,1,1.905.577l5.318,3.545h5.475a2.9,2.9,0,0,1,2.81,3.625l8.47-2.647a2.7,2.7,0,0,1,1.82-.021A2.668,2.668,0,0,1,1109.157,491.149Zm-34.625-6.928h-4.946v12.366h4.946Zm33.251,6.927a1.31,1.31,0,0,0-.924-1.244,1.331,1.331,0,0,0-.9.028l-9.9,3.094c-.009.009-.02.015-.03.024a2.872,2.872,0,0,1-.885.571l-.042.015a2.864,2.864,0,0,1-.44.132l-.107.022a2.969,2.969,0,0,1-.51.049h-10.308v-1.374h10.308a1.549,1.549,0,0,0,.374-.052c.044-.011.087-.027.13-.042a1.6,1.6,0,0,0,.217-.1,1.4,1.4,0,0,0,.13-.075,1.563,1.563,0,0,0,.219-.18c.02-.021.045-.037.065-.059a1.527,1.527,0,0,0,.235-.342l.185-.37a1.535,1.535,0,0,0-1.372-2.219h-5.682a.7.7,0,0,1-.381-.115l-5.491-3.661a2.046,2.046,0,0,0-1.143-.346h-5.351v10.507l9.834,3.5a8.232,8.232,0,0,0,2.607.423h.175a8.2,8.2,0,0,0,3.211-.651l14.982-6.339A1.3,1.3,0,0,0,1107.783,491.148Z" transform="translate(-1067.937 -465.52)" fill="url(#linear-gradient)"/>
</svg>
