<svg xmlns="http://www.w3.org/2000/svg" width="16.795" height="11.756" viewBox="0 0 16.795 11.756">
  <g id="Group_2423" data-name="Group 2423" transform="translate(-9.026 -1802.058)">
    <path id="Path_1494" data-name="Path 1494" d="M23.765,1807.545c.011-.137.015-.24.015-.306a1.632,1.632,0,0,0-.375-1.138,1.8,1.8,0,0,0-1.137-.508v-.524h-.756v.524a2.034,2.034,0,0,0-1.245.514,1.561,1.561,0,0,0-.417,1.152,2.011,2.011,0,0,0,.2.906,1.8,1.8,0,0,0,.464.624,12,12,0,0,0,1.02.691,1.156,1.156,0,0,1,.527.517,2.841,2.841,0,0,1,.077.788.556.556,0,0,1-.081.331.293.293,0,0,1-.249.111.225.225,0,0,1-.242-.16,3.721,3.721,0,0,1-.052-.819v-.4H19.876v.32a1.988,1.988,0,0,0,.489,1.534,1.965,1.965,0,0,0,1.147.507v.63h.756v-.614a1.954,1.954,0,0,0,1.268-.616,2.069,2.069,0,0,0,.418-1.374,2.364,2.364,0,0,0-.154-.914,1.577,1.577,0,0,0-.383-.569,6.845,6.845,0,0,0-.851-.577,6.151,6.151,0,0,1-.884-.6.761.761,0,0,1-.152-.539.632.632,0,0,1,.075-.347.245.245,0,0,1,.223-.116.234.234,0,0,1,.243.135,1.8,1.8,0,0,1,.055.566v.271Z" fill="#c27406" fill-rule="evenodd"/>
    <g id="Group_2404" data-name="Group 2404">
      <g id="Group_2403" data-name="Group 2403">
        <path id="Path_1495" data-name="Path 1495" d="M25.541,1802.058H9.306a.28.28,0,0,0-.28.28v11.2a.279.279,0,0,0,.28.279H25.541a.279.279,0,0,0,.28-.279v-11.2A.28.28,0,0,0,25.541,1802.058Zm-15.956.56h1l-1,1Zm0,1.795,1.8-1.795h.888L9.585,1805.3Zm15.676,8.842H9.585v-7.163l3.475-3.474h12.2Z" fill="#c27406"/>
      </g>
    </g>
    <g id="Group_2406" data-name="Group 2406">
      <g id="Group_2405" data-name="Group 2405">
        <rect id="Rectangle_1139" data-name="Rectangle 1139" width="3.919" height="0.56" transform="translate(10.985 1807.376)" fill="#c27406"/>
      </g>
    </g>
    <g id="Group_2408" data-name="Group 2408">
      <g id="Group_2407" data-name="Group 2407">
        <rect id="Rectangle_1140" data-name="Rectangle 1140" width="1.959" height="0.56" transform="translate(10.985 1805.977)" fill="#c27406"/>
      </g>
    </g>
    <g id="Group_2410" data-name="Group 2410">
      <g id="Group_2409" data-name="Group 2409">
        <rect id="Rectangle_1141" data-name="Rectangle 1141" width="1.12" height="0.56" transform="translate(19.663 1803.737)" fill="#c27406"/>
      </g>
    </g>
    <g id="Group_2412" data-name="Group 2412">
      <g id="Group_2411" data-name="Group 2411">
        <rect id="Rectangle_1142" data-name="Rectangle 1142" width="1.12" height="0.56" transform="translate(21.342 1803.737)" fill="#c27406"/>
      </g>
    </g>
    <g id="Group_2414" data-name="Group 2414">
      <g id="Group_2413" data-name="Group 2413">
        <rect id="Rectangle_1143" data-name="Rectangle 1143" width="1.12" height="0.56" transform="translate(23.022 1803.737)" fill="#c27406"/>
      </g>
    </g>
    <g id="Group_2416" data-name="Group 2416">
      <g id="Group_2415" data-name="Group 2415">
        <rect id="Rectangle_1144" data-name="Rectangle 1144" width="5.319" height="0.56" transform="translate(10.705 1812.135)" fill="#c27406"/>
      </g>
    </g>
    <g id="Group_2418" data-name="Group 2418">
      <g id="Group_2417" data-name="Group 2417">
        <rect id="Rectangle_1145" data-name="Rectangle 1145" width="0.56" height="0.56" transform="translate(16.584 1812.135)" fill="#c27406"/>
      </g>
    </g>
    <g id="Group_2420" data-name="Group 2420">
      <g id="Group_2419" data-name="Group 2419">
        <rect id="Rectangle_1146" data-name="Rectangle 1146" width="0.56" height="0.56" transform="translate(17.703 1812.135)" fill="#c27406"/>
      </g>
    </g>
    <g id="Group_2422" data-name="Group 2422">
      <g id="Group_2421" data-name="Group 2421">
        <path id="Path_1496" data-name="Path 1496" d="M17.983,1809.336h-7a.28.28,0,0,0-.28.28v1.4a.28.28,0,0,0,.28.28h7a.28.28,0,0,0,.28-.28v-1.4A.28.28,0,0,0,17.983,1809.336Zm-.28,1.4H11.265v-.839H17.7Z" fill="#c27406"/>
      </g>
    </g>
  </g>
</svg>
