<svg xmlns="http://www.w3.org/2000/svg" xmlns:xlink="http://www.w3.org/1999/xlink" width="31.287" height="37.763" viewBox="0 0 31.287 37.763">
  <defs>
    <linearGradient id="linear-gradient" x1="1.218" y1="-0.142" x2="-0.444" y2="1.1" gradientUnits="objectBoundingBox">
      <stop offset="0" stop-color="#d39d2c"/>
      <stop offset="0.032" stop-color="#d39d2c"/>
      <stop offset="0.063" stop-color="#e5af46"/>
      <stop offset="0.082" stop-color="#ecb751"/>
      <stop offset="0.175" stop-color="#d5a23d"/>
      <stop offset="0.254" stop-color="#c79530"/>
      <stop offset="0.305" stop-color="#cd9c36"/>
      <stop offset="0.383" stop-color="#ddb248"/>
      <stop offset="0.435" stop-color="#ecc557"/>
      <stop offset="0.582" stop-color="#fae56e"/>
      <stop offset="0.635" stop-color="#fae56e"/>
      <stop offset="0.706" stop-color="#eecb58"/>
      <stop offset="0.769" stop-color="#e6ba4a"/>
      <stop offset="0.812" stop-color="#d9ac40"/>
      <stop offset="0.853" stop-color="#d3a53b"/>
      <stop offset="1" stop-color="#9e6e1f"/>
    </linearGradient>
    <linearGradient id="linear-gradient-2" x1="0.15" y1="0.947" x2="0.85" y2="0.216" xlink:href="#linear-gradient"/>
    <linearGradient id="linear-gradient-4" x1="0.15" y1="0.95" x2="0.849" y2="0.218" xlink:href="#linear-gradient"/>
  </defs>
  <g id="Group_4751" data-name="Group 4751" transform="translate(-930.247 -1607.333)">
    <path id="Path_3355" data-name="Path 3355" d="M950.9,1619.283h-15.41a.763.763,0,1,0,0,1.52H950.9a.764.764,0,1,0,0-1.52Zm0,3.88h-15.41a.763.763,0,1,0,0,1.52H950.9a.764.764,0,1,0,0-1.52Zm-3.87-15.83h-14.57a2.217,2.217,0,0,0-2.21,2.21v30.07a2.209,2.209,0,0,0,2.21,2.2h15.011l.314-1.472-1.137-1.138-12.918-.01a.854.854,0,0,1-.86-.86v-27.52a.854.854,0,0,1,.86-.85h12.29v4.01a3.382,3.382,0,0,0,3.38,3.38h4.02v5.28h2.62v-6.28Z" fill-rule="evenodd" fill="url(#linear-gradient)"/>
    <g id="Group_4743" data-name="Group 4743">
      <path id="Path_3356" data-name="Path 3356" d="M948.617,1629.78a.5.5,0,0,0-.277-.851l-2.778-.4a.5.5,0,0,1-.376-.273l-1.243-2.518a.5.5,0,0,0-.9,0l-1.243,2.518a.5.5,0,0,1-.376.273l-2.778.4a.5.5,0,0,0-.277.851l2.011,1.96a.5.5,0,0,1,.143.442l-.474,2.767a.5.5,0,0,0,.724.527l2.485-1.307a.5.5,0,0,1,.465,0l2.485,1.307a.5.5,0,0,0,.725-.527l-.475-2.767a.5.5,0,0,1,.144-.442Zm-2.781,1.71a.5.5,0,0,0-.143.442l.433,2.526a.089.089,0,0,1-.129.094l-2.269-1.192a.5.5,0,0,0-.465,0l-2.268,1.192a.089.089,0,0,1-.13-.094l.433-2.526a.5.5,0,0,0-.143-.442l-1.836-1.789a.089.089,0,0,1,.05-.152l2.536-.369a.5.5,0,0,0,.376-.273l1.134-2.3a.09.09,0,0,1,.161,0l1.134,2.3a.5.5,0,0,0,.376.273l2.536.369a.089.089,0,0,1,.05.152Z" fill="url(#linear-gradient-2)"/>
      <path id="Path_3357" data-name="Path 3357" d="M961.326,1637.2a.685.685,0,0,0-.38-1.169l-3.815-.554a.688.688,0,0,1-.516-.375l-1.706-3.457a.686.686,0,0,0-1.23,0l-1.706,3.457a.688.688,0,0,1-.516.375l-3.815.554a.685.685,0,0,0-.38,1.169l2.76,2.691a.683.683,0,0,1,.2.607l-.651,3.8a.686.686,0,0,0,.995.723l3.412-1.794a.685.685,0,0,1,.638,0l3.412,1.794a.686.686,0,0,0,.995-.723l-.652-3.8a.687.687,0,0,1,.2-.607Zm-3.818,2.348a.684.684,0,0,0-.2.607l.6,3.468a.123.123,0,0,1-.178.129l-3.115-1.637a.68.68,0,0,0-.638,0l-3.115,1.637a.123.123,0,0,1-.178-.129l.595-3.469a.689.689,0,0,0-.2-.607l-2.52-2.456a.122.122,0,0,1,.068-.209l3.482-.506a.684.684,0,0,0,.516-.375l1.558-3.156a.123.123,0,0,1,.22,0l1.557,3.156a.686.686,0,0,0,.517.375l3.482.506a.122.122,0,0,1,.068.209Z" fill="url(#linear-gradient-2)"/>
      <path id="Path_3358" data-name="Path 3358" d="M958.256,1626.289a.257.257,0,0,0-.142-.438l-2.051-.3a.258.258,0,0,1-.194-.141l-.917-1.858a.257.257,0,0,0-.461,0l-.917,1.858a.256.256,0,0,1-.193.141l-2.051.3a.257.257,0,0,0-.142.438l1.483,1.447a.254.254,0,0,1,.074.227l-.35,2.043a.257.257,0,0,0,.373.271l1.834-.965a.258.258,0,0,1,.239,0l1.835.965a.257.257,0,0,0,.372-.271l-.35-2.043a.256.256,0,0,1,.074-.227Zm-2.254,1.2a.256.256,0,0,0-.074.227l.233,1.357a.069.069,0,0,1-.1.073l-1.219-.64a.253.253,0,0,0-.239,0l-1.218.64a.069.069,0,0,1-.1-.073l.232-1.357a.253.253,0,0,0-.074-.227l-.985-.961a.069.069,0,0,1,.038-.119l1.363-.2a.256.256,0,0,0,.193-.141l.609-1.234a.07.07,0,0,1,.125,0l.609,1.234a.258.258,0,0,0,.194.141l1.362.2a.07.07,0,0,1,.039.119Z" fill="url(#linear-gradient-4)"/>
    </g>
  </g>
</svg>
