<svg xmlns="http://www.w3.org/2000/svg" xmlns:xlink="http://www.w3.org/1999/xlink" width="38.604" height="38.022" viewBox="0 0 38.604 38.022">
  <defs>
    <linearGradient id="linear-gradient" x1="0.172" y1="0.825" x2="0.916" y2="0.07" gradientUnits="objectBoundingBox">
      <stop offset="0" stop-color="#d39d2c"/>
      <stop offset="0.032" stop-color="#d39d2c"/>
      <stop offset="0.063" stop-color="#e5af46"/>
      <stop offset="0.082" stop-color="#ecb751"/>
      <stop offset="0.175" stop-color="#d5a23d"/>
      <stop offset="0.254" stop-color="#c79530"/>
      <stop offset="0.305" stop-color="#cd9c36"/>
      <stop offset="0.383" stop-color="#ddb248"/>
      <stop offset="0.435" stop-color="#ecc557"/>
      <stop offset="0.582" stop-color="#fae56e"/>
      <stop offset="0.635" stop-color="#fae56e"/>
      <stop offset="0.706" stop-color="#eecb58"/>
      <stop offset="0.769" stop-color="#e6ba4a"/>
      <stop offset="0.812" stop-color="#d9ac40"/>
      <stop offset="0.853" stop-color="#d3a53b"/>
      <stop offset="1" stop-color="#9e6e1f"/>
    </linearGradient>
  </defs>
  <path id="Path_2058" data-name="Path 2058" d="M511.148,350.677a6.409,6.409,0,0,1-3.744-1.653c-1.07-.954-1.6-2.626-1.6-5.011v-1.044h5.342v1.308a12.254,12.254,0,0,0,.168,2.675.737.737,0,0,0,.793.522.958.958,0,0,0,.812-.361,1.818,1.818,0,0,0,.264-1.082,9.21,9.21,0,0,0-.252-2.572,3.792,3.792,0,0,0-1.72-1.689,39.2,39.2,0,0,1-3.332-2.255,5.929,5.929,0,0,1-1.515-2.036,6.581,6.581,0,0,1-.644-2.959,5.084,5.084,0,0,1,1.36-3.76,6.641,6.641,0,0,1,4.066-1.679V327.37h2.469v1.711a5.9,5.9,0,0,1,3.712,1.656,5.338,5.338,0,0,1,1.225,3.716c0,.216-.014.554-.052,1h-5.349v-.887a5.831,5.831,0,0,0-.181-1.849.763.763,0,0,0-.792-.438.8.8,0,0,0-.729.377,2.063,2.063,0,0,0-.245,1.134,2.493,2.493,0,0,0,.5,1.76,19.971,19.971,0,0,0,2.887,1.955,22.215,22.215,0,0,1,2.778,1.886,5.16,5.16,0,0,1,1.25,1.855,7.739,7.739,0,0,1,.5,2.984,6.742,6.742,0,0,1-1.366,4.486,6.344,6.344,0,0,1-4.137,2.011v2.007h-2.469Zm11.546-24.8a3.2,3.2,0,0,0-1.094,2.32l1.951.2a1.9,1.9,0,0,1,.418-1.227,1.5,1.5,0,0,1,1.947-.017,1.361,1.361,0,0,1,.352,1.007,2.155,2.155,0,0,1-.4,1.2,13.866,13.866,0,0,1-1.623,1.672,13.033,13.033,0,0,0-2.2,2.449,4.718,4.718,0,0,0-.669,1.955h6.863v-1.819h-3.888a3.4,3.4,0,0,1,.4-.543q.248-.279,1.174-1.129a12.557,12.557,0,0,0,1.282-1.3,5.318,5.318,0,0,0,.783-1.306,3.53,3.53,0,0,0,.248-1.313,2.673,2.673,0,0,0-.864-2.028,3.325,3.325,0,0,0-2.376-.815A3.674,3.674,0,0,0,522.694,325.881Zm13.864,5.775v1.721H535.29v2.056H533.4v-2.056h-4.18v-1.714l4.431-6.486h1.644v6.479Zm-3.163-3.49-2.348,3.49H533.4Zm-24.606-4.116a17.529,17.529,0,0,1,13.336-1.211l-.553.54,3.859-.012-2.7-2.755.005.847a18.97,18.97,0,0,0-24.616,20.6.75.75,0,0,0,.743.651.835.835,0,0,0,.1-.006.751.751,0,0,0,.645-.843A17.586,17.586,0,0,1,508.789,324.05ZM534.962,336.4a.749.749,0,0,0-.645.842,17.469,17.469,0,0,1-22.52,19.024l.553-.54-3.859.013,2.7,2.755-.005-.841A18.977,18.977,0,0,0,535.8,337.048.75.75,0,0,0,534.962,336.4Z" transform="translate(-497.954 -320.551)" fill="url(#linear-gradient)"/>
</svg>
