<svg xmlns="http://www.w3.org/2000/svg" xmlns:xlink="http://www.w3.org/1999/xlink" width="41.882" height="29.318" viewBox="0 0 41.882 29.318">
  <defs>
    <linearGradient id="linear-gradient" x1="0.08" y1="1.1" x2="0.92" y2="-0.1" gradientUnits="objectBoundingBox">
      <stop offset="0" stop-color="#d39d2c"/>
      <stop offset="0.032" stop-color="#d39d2c"/>
      <stop offset="0.063" stop-color="#e5af46"/>
      <stop offset="0.082" stop-color="#ecb751"/>
      <stop offset="0.175" stop-color="#d5a23d"/>
      <stop offset="0.254" stop-color="#c79530"/>
      <stop offset="0.305" stop-color="#cd9c36"/>
      <stop offset="0.383" stop-color="#ddb248"/>
      <stop offset="0.435" stop-color="#ecc557"/>
      <stop offset="0.582" stop-color="#fae56e"/>
      <stop offset="0.635" stop-color="#fae56e"/>
      <stop offset="0.706" stop-color="#eecb58"/>
      <stop offset="0.769" stop-color="#e6ba4a"/>
      <stop offset="0.812" stop-color="#d9ac40"/>
      <stop offset="0.853" stop-color="#d3a53b"/>
      <stop offset="1" stop-color="#9e6e1f"/>
    </linearGradient>
  </defs>
  <path id="Path_3246" data-name="Path 3246" d="M243.337,481.425v-.677a4.422,4.422,0,0,0-.138-1.412.581.581,0,0,0-.605-.335.607.607,0,0,0-.556.288,1.571,1.571,0,0,0-.187.866,1.9,1.9,0,0,0,.379,1.344,15.212,15.212,0,0,0,2.205,1.493,17.008,17.008,0,0,1,2.121,1.44,3.938,3.938,0,0,1,.955,1.418,5.9,5.9,0,0,1,.384,2.279,5.153,5.153,0,0,1-1.043,3.426,4.847,4.847,0,0,1-3.161,1.536v1.533h-1.885v-1.573a4.9,4.9,0,0,1-2.86-1.262c-.817-.729-1.22-2.006-1.22-3.827v-.8h4.08v1a9.433,9.433,0,0,0,.128,2.043.564.564,0,0,0,.606.4.731.731,0,0,0,.62-.276,1.384,1.384,0,0,0,.2-.826,7.059,7.059,0,0,0-.192-1.965,2.9,2.9,0,0,0-1.314-1.29,29.637,29.637,0,0,1-2.545-1.722,4.513,4.513,0,0,1-1.157-1.555,5.014,5.014,0,0,1-.492-2.26,3.888,3.888,0,0,1,1.038-2.872,5.074,5.074,0,0,1,3.106-1.282V475.25h1.885v1.307a4.5,4.5,0,0,1,2.836,1.265,4.077,4.077,0,0,1,.935,2.838c0,.165-.01.423-.039.765Zm9.214-12.986V496.36a.7.7,0,0,1-.7.7H211.367a.7.7,0,0,1-.7-.7V468.439a.7.7,0,0,1,.7-.7h40.486A.7.7,0,0,1,252.551,468.439Zm-40.486,3.2,2.5-2.5h-2.5Zm0,4.188,6.691-6.691h-2.214l-4.477,4.477Zm39.09-6.691H220.73l-8.665,8.665v17.86h39.09Zm-35.6,13.262h9.772V481h-9.772Zm0-3.49h4.886v-1.4h-4.886Zm21.639-5.584h2.792v-1.4h-2.792Zm4.188,0h2.792v-1.4h-2.792Zm4.188,0h2.793v-1.4H245.57Zm-30.713,20.941H228.12v-1.4H214.857Zm14.659,0h1.4v-1.4h-1.4Zm2.792,0h1.4v-1.4h-1.4Zm1.4-7.679v3.491a.7.7,0,0,1-.7.7H215.555a.7.7,0,0,1-.7-.7v-3.491a.7.7,0,0,1,.7-.7h17.451A.7.7,0,0,1,233.7,486.587Zm-1.4.7H216.253v2.1h16.055Z" transform="translate(-210.669 -467.74)" fill-rule="evenodd" fill="url(#linear-gradient)"/>
</svg>
