<svg xmlns="http://www.w3.org/2000/svg" xmlns:xlink="http://www.w3.org/1999/xlink" width="41.23" height="42.73" viewBox="0 0 41.23 42.73">
  <defs>
    <linearGradient id="linear-gradient" x1="-0.12" y1="1.091" x2="0.833" y2="0.172" gradientUnits="objectBoundingBox">
      <stop offset="0" stop-color="#d39d2c"/>
      <stop offset="0.032" stop-color="#d39d2c"/>
      <stop offset="0.063" stop-color="#e5af46"/>
      <stop offset="0.082" stop-color="#ecb751"/>
      <stop offset="0.175" stop-color="#d5a23d"/>
      <stop offset="0.254" stop-color="#c79530"/>
      <stop offset="0.305" stop-color="#cd9c36"/>
      <stop offset="0.383" stop-color="#ddb248"/>
      <stop offset="0.435" stop-color="#ecc557"/>
      <stop offset="0.582" stop-color="#fae56e"/>
      <stop offset="0.635" stop-color="#fae56e"/>
      <stop offset="0.706" stop-color="#eecb58"/>
      <stop offset="0.769" stop-color="#e6ba4a"/>
      <stop offset="0.812" stop-color="#d9ac40"/>
      <stop offset="0.853" stop-color="#d3a53b"/>
      <stop offset="1" stop-color="#9e6e1f"/>
    </linearGradient>
  </defs>
  <path id="Path_3373" data-name="Path 3373" d="M1091.99,1769.69h-6.35a1.255,1.255,0,0,0,0,2.51h6.35a1.255,1.255,0,0,0,0-2.51Zm0,11.63h-18.7a1.25,1.25,0,0,0,0,2.5h18.7a1.25,1.25,0,0,0,0-2.5Zm0-5.32h-18.7a1.25,1.25,0,0,0,0,2.5h18.7a1.25,1.25,0,0,0,0-2.5Zm-9.45-12.07-4.77-9.43-4.76,9.43a5.479,5.479,0,0,0,4.36,7.98c.14.01.27.02.4.02s.27-.01.4-.02A5.479,5.479,0,0,0,1082.54,1763.93Zm-9.03,2.86c-.01-.14-.02-.29-.02-.44a.5.5,0,0,1,.5-.5.5.5,0,0,1,.5.5c0,.12.01.23.02.35a.488.488,0,0,1-.45.54c-.02,0-.03.01-.05.01A.516.516,0,0,1,1073.51,1766.79Zm4.67,4.25a4.725,4.725,0,0,1-4.25-2.71.49.49,0,0,1,.24-.66.5.5,0,0,1,.67.24,3.7,3.7,0,0,0,3.34,2.13.5.5,0,0,1,.5.5A.5.5,0,0,1,1078.18,1771.04Zm13.81,10.28h-18.7a1.25,1.25,0,0,0,0,2.5h18.7a1.25,1.25,0,0,0,0-2.5Zm0-5.32h-18.7a1.25,1.25,0,0,0,0,2.5h18.7a1.25,1.25,0,0,0,0-2.5Zm0-6.31h-6.35a1.255,1.255,0,0,0,0,2.51h6.35a1.255,1.255,0,0,0,0-2.51Zm-6.35,2.51h6.35a1.255,1.255,0,0,0,0-2.51h-6.35a1.255,1.255,0,0,0,0,2.51Zm6.35,3.8h-18.7a1.25,1.25,0,0,0,0,2.5h18.7a1.25,1.25,0,0,0,0-2.5Zm0,5.32h-18.7a1.25,1.25,0,0,0,0,2.5h18.7a1.25,1.25,0,0,0,0-2.5Zm-14.62-9.41c.14.01.27.02.4.02s.27-.01.4-.02a5.479,5.479,0,0,0,4.37-7.98l-4.77-9.43-4.76,9.43A5.479,5.479,0,0,0,1077.37,1771.91Zm-2.53-4a3.7,3.7,0,0,0,3.34,2.13.5.5,0,0,1,.5.5.5.5,0,0,1-.5.5,4.725,4.725,0,0,1-4.25-2.71.49.49,0,0,1,.24-.66A.5.5,0,0,1,1074.84,1767.91Zm-1.33-1.12c-.01-.14-.02-.29-.02-.44a.5.5,0,0,1,.5-.5.5.5,0,0,1,.5.5c0,.12.01.23.02.35a.488.488,0,0,1-.45.54c-.02,0-.03.01-.05.01A.516.516,0,0,1,1073.51,1766.79Zm32.01.4h-7.27v-14.83a5.29,5.29,0,0,0-5.29-5.28h-20.64a5.29,5.29,0,0,0-5.29,5.28v28.77a8.7,8.7,0,0,0,8.68,8.68H1102a6.269,6.269,0,0,0,6.26-6.26v-13.62A2.744,2.744,0,0,0,1105.52,1767.19Zm-29.81,20.11a6.188,6.188,0,0,1-6.18-6.17v-28.77a2.789,2.789,0,0,1,2.79-2.78h20.64a2.787,2.787,0,0,1,2.78,2.78v31.19a6.18,6.18,0,0,0,1.26,3.75Zm30.05-3.75a3.755,3.755,0,0,1-7.51,0v-13.86h7.27a.243.243,0,0,1,.24.24Zm-13.77-13.86h-6.35a1.255,1.255,0,0,0,0,2.51h6.35a1.255,1.255,0,0,0,0-2.51Zm0,6.31h-18.7a1.25,1.25,0,0,0,0,2.5h18.7a1.25,1.25,0,0,0,0-2.5Zm0,5.32h-18.7a1.25,1.25,0,0,0,0,2.5h18.7a1.25,1.25,0,0,0,0-2.5Zm-14.62-9.41c.14.01.27.02.4.02s.27-.01.4-.02a5.479,5.479,0,0,0,4.37-7.98l-4.77-9.43-4.76,9.43A5.479,5.479,0,0,0,1077.37,1771.91Zm-2.53-4a3.7,3.7,0,0,0,3.34,2.13.5.5,0,0,1,.5.5.5.5,0,0,1-.5.5,4.725,4.725,0,0,1-4.25-2.71.49.49,0,0,1,.24-.66A.5.5,0,0,1,1074.84,1767.91Zm-1.33-1.12c-.01-.14-.02-.29-.02-.44a.5.5,0,0,1,.5-.5.5.5,0,0,1,.5.5c0,.12.01.23.02.35a.488.488,0,0,1-.45.54c-.02,0-.03.01-.05.01A.516.516,0,0,1,1073.51,1766.79Zm9.03-2.86-4.77-9.43-4.76,9.43a5.479,5.479,0,0,0,4.36,7.98c.14.01.27.02.4.02s.27-.01.4-.02A5.479,5.479,0,0,0,1082.54,1763.93Zm-9.03,2.86c-.01-.14-.02-.29-.02-.44a.5.5,0,0,1,.5-.5.5.5,0,0,1,.5.5c0,.12.01.23.02.35a.488.488,0,0,1-.45.54c-.02,0-.03.01-.05.01A.516.516,0,0,1,1073.51,1766.79Zm4.67,4.25a4.725,4.725,0,0,1-4.25-2.71.49.49,0,0,1,.24-.66.5.5,0,0,1,.67.24,3.7,3.7,0,0,0,3.34,2.13.5.5,0,0,1,.5.5A.5.5,0,0,1,1078.18,1771.04Zm13.81,10.28h-18.7a1.25,1.25,0,0,0,0,2.5h18.7a1.25,1.25,0,0,0,0-2.5Zm0-5.32h-18.7a1.25,1.25,0,0,0,0,2.5h18.7a1.25,1.25,0,0,0,0-2.5Zm0-6.31h-6.35a1.255,1.255,0,0,0,0,2.51h6.35a1.255,1.255,0,0,0,0-2.51Zm-9.45-5.76-4.77-9.43-4.76,9.43a5.479,5.479,0,0,0,4.36,7.98c.14.01.27.02.4.02s.27-.01.4-.02A5.479,5.479,0,0,0,1082.54,1763.93Zm-9.03,2.86c-.01-.14-.02-.29-.02-.44a.5.5,0,0,1,.5-.5.5.5,0,0,1,.5.5c0,.12.01.23.02.35a.488.488,0,0,1-.45.54c-.02,0-.03.01-.05.01A.516.516,0,0,1,1073.51,1766.79Zm4.67,4.25a4.725,4.725,0,0,1-4.25-2.71.49.49,0,0,1,.24-.66.5.5,0,0,1,.67.24,3.7,3.7,0,0,0,3.34,2.13.5.5,0,0,1,.5.5A.5.5,0,0,1,1078.18,1771.04Zm13.4-14.717-2.772-5.48-2.766,5.48a3.184,3.184,0,0,0,2.534,4.637c.081.006.157.012.232.012s.157-.006.233-.012A3.184,3.184,0,0,0,1091.584,1756.323Zm-5.247,1.662c-.006-.081-.012-.169-.012-.256a.292.292,0,0,1,.29-.29.288.288,0,0,1,.291.29c0,.07.006.134.012.2a.283.283,0,0,1-.262.313c-.011,0-.017.006-.029.006A.3.3,0,0,1,1086.337,1757.985Zm2.713,2.47a2.745,2.745,0,0,1-2.469-1.575.285.285,0,0,1,.139-.384.293.293,0,0,1,.389.14,2.151,2.151,0,0,0,1.941,1.238.287.287,0,0,1,.291.29A.292.292,0,0,1,1089.05,1760.455Z" transform="translate(-1067.03 -1747.08)" fill="url(#linear-gradient)"/>
</svg>
