<svg xmlns="http://www.w3.org/2000/svg" width="16.739" height="10.522" viewBox="0 0 16.739 10.522">
  <g id="Group_4749" data-name="Group 4749" transform="translate(-9.082 -1767.329)">
    <path id="Path_1492" data-name="Path 1492" d="M19.512,1771.384c.013-.152.017-.266.017-.339a1.808,1.808,0,0,0-.415-1.259,2,2,0,0,0-1.257-.561v-.58h-.836v.58a2.25,2.25,0,0,0-1.378.569,1.721,1.721,0,0,0-.461,1.273,2.23,2.23,0,0,0,.219,1,1.987,1.987,0,0,0,.513.689,13.154,13.154,0,0,0,1.129.764,1.288,1.288,0,0,1,.582.572,3.126,3.126,0,0,1,.085.872.614.614,0,0,1-.089.366.324.324,0,0,1-.275.123.25.25,0,0,1-.269-.177,4.2,4.2,0,0,1-.056-.906v-.443h-1.81v.353a2.2,2.2,0,0,0,.541,1.7,2.175,2.175,0,0,0,1.269.56v.7h.836v-.68a2.145,2.145,0,0,0,1.4-.681,2.285,2.285,0,0,0,.463-1.52,2.623,2.623,0,0,0-.17-1.01,1.742,1.742,0,0,0-.424-.629,7.574,7.574,0,0,0-.941-.639,6.865,6.865,0,0,1-.978-.662.847.847,0,0,1-.168-.6.693.693,0,0,1,.083-.384.269.269,0,0,1,.247-.128.26.26,0,0,1,.269.148,1.99,1.99,0,0,1,.061.627v.3Z" fill="#c27406" fill-rule="evenodd"/>
    <path id="Path_1493" data-name="Path 1493" d="M21.956,1777.851H12.947a3.865,3.865,0,1,1,0-7.729,3.822,3.822,0,0,1,.706.066,3.861,3.861,0,0,1,7.464.027,3.864,3.864,0,1,1,.839,7.636Zm-9.009-7.017a3.152,3.152,0,1,0,0,6.3h9.009a3.152,3.152,0,1,0-1-6.139l-.4.134-.064-.418a3.147,3.147,0,0,0-6.217-.038l-.065.4-.386-.112A3.146,3.146,0,0,0,12.947,1770.834Z" fill="#c27406"/>
  </g>
</svg>
