<svg xmlns="http://www.w3.org/2000/svg" xmlns:xlink="http://www.w3.org/1999/xlink" width="41.751" height="25.782" viewBox="0 0 41.751 25.782">
  <defs>
    <linearGradient id="linear-gradient" x1="0.126" y1="1.106" x2="0.874" y2="-0.106" gradientUnits="objectBoundingBox">
      <stop offset="0" stop-color="#d39d2c"/>
      <stop offset="0.032" stop-color="#d39d2c"/>
      <stop offset="0.063" stop-color="#e5af46"/>
      <stop offset="0.082" stop-color="#ecb751"/>
      <stop offset="0.175" stop-color="#d5a23d"/>
      <stop offset="0.254" stop-color="#c79530"/>
      <stop offset="0.305" stop-color="#cd9c36"/>
      <stop offset="0.383" stop-color="#ddb248"/>
      <stop offset="0.435" stop-color="#ecc557"/>
      <stop offset="0.582" stop-color="#fae56e"/>
      <stop offset="0.635" stop-color="#fae56e"/>
      <stop offset="0.706" stop-color="#eecb58"/>
      <stop offset="0.769" stop-color="#e6ba4a"/>
      <stop offset="0.812" stop-color="#d9ac40"/>
      <stop offset="0.853" stop-color="#d3a53b"/>
      <stop offset="1" stop-color="#9e6e1f"/>
    </linearGradient>
  </defs>
  <path id="Path_3374" data-name="Path 3374" d="M1085.265,1482.553l-1.226,2.345-2.251-2.251.359-.359Zm.976,4.547,2.217,2.217.361-.36-.238-3.08Zm13.048-3.093a.526.526,0,0,0-.518-.877l.35,1.045Zm-11.414-12.158a.525.525,0,0,0-.743,0l-.168.168,1.045.35A.527.527,0,0,0,1087.875,1471.849Zm4.672,3.092-9.154-3.065-.483.483,6.988,5.23Zm6.635-4.065-.054.01a4.423,4.423,0,0,0-2.342,1.229l-10.346,10.347-2.177,4.165-.006.012a.174.174,0,0,0,0,.174.179.179,0,0,0,.244.07l.011-.007,4.165-2.176,10.347-10.348a4.443,4.443,0,0,0,1.231-2.351l.008-.044a.942.942,0,0,0,0-.335A.928.928,0,0,0,1099.182,1470.876Zm9.716.3v17.215a4.287,4.287,0,0,1-4.283,4.283h-27.341v-4.091a.666.666,0,1,0-1.332,0v4.091h-4.511a4.288,4.288,0,0,1-4.284-4.283v-2.482a6.142,6.142,0,0,0,0-12.251v-2.482a4.288,4.288,0,0,1,4.284-4.284h4.511v16.455a.666.666,0,0,0,1.332,0V1466.9h27.341A4.288,4.288,0,0,1,1108.9,1471.179Zm-31.624,14.2a.666.666,0,0,0-1.332,0v1.215a.666.666,0,0,0,1.332,0Zm22.424-15.49a1.944,1.944,0,0,0-.7,0l-.053.01a5.418,5.418,0,0,0-2.868,1.506l-2.743,2.742-4.38-1.466a1.525,1.525,0,0,0-2.531-1.542l-.521.521-2.488-.833a.5.5,0,0,0-.512.12l-1.109,1.109a.5.5,0,0,0,0,.707.389.389,0,0,0,.054.047l7.335,5.49-3.3,3.3-3.886-.329a.5.5,0,0,0-.4.145l-.876.876a.5.5,0,0,0,0,.707l2.826,2.825-.174.332a1.18,1.18,0,0,0,1.6,1.6l.332-.174,2.792,2.792a.492.492,0,0,0,.34.145l1.243-1.021a.5.5,0,0,0,.145-.391l-.3-3.855,3.306-3.305,5.484,7.339a.5.5,0,0,0,.365.2h.036a.5.5,0,0,0,.353-.146l1.109-1.11a.5.5,0,0,0,.121-.512l-.833-2.488.52-.52a1.524,1.524,0,0,0-1.541-2.531l-1.466-4.381,2.742-2.743a5.439,5.439,0,0,0,1.508-2.878l.008-.044A1.928,1.928,0,0,0,1099.7,1469.893Zm-6.144,11.342,5.225,6.994.483-.483-3.064-9.155Z" transform="translate(-1067.147 -1466.895)" fill="url(#linear-gradient)"/>
</svg>
