<svg xmlns="http://www.w3.org/2000/svg" xmlns:xlink="http://www.w3.org/1999/xlink" width="25.748" height="39.137" viewBox="0 0 25.748 39.137">
  <defs>
    <linearGradient id="linear-gradient" x1="-0.03" y1="0.942" x2="1.03" y2="0.245" gradientUnits="objectBoundingBox">
      <stop offset="0" stop-color="#d39d2c"/>
      <stop offset="0.032" stop-color="#d39d2c"/>
      <stop offset="0.063" stop-color="#e5af46"/>
      <stop offset="0.082" stop-color="#ecb751"/>
      <stop offset="0.175" stop-color="#d5a23d"/>
      <stop offset="0.254" stop-color="#c79530"/>
      <stop offset="0.305" stop-color="#cd9c36"/>
      <stop offset="0.383" stop-color="#ddb248"/>
      <stop offset="0.435" stop-color="#ecc557"/>
      <stop offset="0.582" stop-color="#fae56e"/>
      <stop offset="0.635" stop-color="#fae56e"/>
      <stop offset="0.706" stop-color="#eecb58"/>
      <stop offset="0.769" stop-color="#e6ba4a"/>
      <stop offset="0.812" stop-color="#d9ac40"/>
      <stop offset="0.853" stop-color="#d3a53b"/>
      <stop offset="1" stop-color="#9e6e1f"/>
    </linearGradient>
  </defs>
  <path id="Path_3237" data-name="Path 3237" d="M814.787,51.565H797.794V43.84a6.694,6.694,0,0,1,13.389,0v3.09a1.544,1.544,0,1,0,3.089,0V43.84a9.784,9.784,0,1,0-19.568,0v7.725h-.515a2.575,2.575,0,0,0-2.575,2.575V70.618a2.575,2.575,0,0,0,2.575,2.575h20.6a2.575,2.575,0,0,0,2.575-2.575V54.14A2.575,2.575,0,0,0,814.787,51.565ZM801.4,60.319a3.09,3.09,0,1,1,4.634,2.675v4.534h-3.09V62.994A3.087,3.087,0,0,1,801.4,60.319Z" transform="translate(-791.614 -34.056)" fill="url(#linear-gradient)"/>
</svg>
