<svg xmlns="http://www.w3.org/2000/svg" xmlns:xlink="http://www.w3.org/1999/xlink" width="39.899" height="34.994" viewBox="0 0 39.899 34.994">
  <defs>
    <linearGradient id="linear-gradient" x1="0.01" y1="0.972" x2="0.842" y2="0.024" gradientUnits="objectBoundingBox">
      <stop offset="0" stop-color="#d39d2c"/>
      <stop offset="0.032" stop-color="#d39d2c"/>
      <stop offset="0.063" stop-color="#e5af46"/>
      <stop offset="0.082" stop-color="#ecb751"/>
      <stop offset="0.175" stop-color="#d5a23d"/>
      <stop offset="0.254" stop-color="#c79530"/>
      <stop offset="0.305" stop-color="#cd9c36"/>
      <stop offset="0.383" stop-color="#ddb248"/>
      <stop offset="0.435" stop-color="#ecc557"/>
      <stop offset="0.582" stop-color="#fae56e"/>
      <stop offset="0.635" stop-color="#fae56e"/>
      <stop offset="0.706" stop-color="#eecb58"/>
      <stop offset="0.769" stop-color="#e6ba4a"/>
      <stop offset="0.812" stop-color="#d9ac40"/>
      <stop offset="0.853" stop-color="#d3a53b"/>
      <stop offset="1" stop-color="#9e6e1f"/>
    </linearGradient>
  </defs>
  <path id="Path_3221" data-name="Path 3221" d="M927.11,180.99v10.744h10.743V180.99Zm7.162,7.162h-3.581v-3.581h3.581Zm-7.162,14.325V213.22h10.743V202.477Zm7.162,7.162h-3.581v-3.581h3.581Zm12.534-14.324V198.9h-1.79v3.579h-3.581v-3.581h-5.372V197.1h-1.791V198.9h-3.581V197.1H927.11v-3.581h3.581v1.791h3.581v-1.793h3.581v1.791h3.582v-7.161h1.79v-3.581h-1.79V180.99h5.371v1.791h-1.79v1.79h1.79v3.581h-1.79v7.163Zm11.97-4.553v-1.223a8.066,8.066,0,0,0-.248-2.551,1.054,1.054,0,0,0-1.094-.6,1.1,1.1,0,0,0-1.005.519,2.844,2.844,0,0,0-.338,1.565,3.437,3.437,0,0,0,.685,2.427,27.556,27.556,0,0,0,3.983,2.7,30.724,30.724,0,0,1,3.832,2.6,7.111,7.111,0,0,1,1.725,2.56,10.677,10.677,0,0,1,.693,4.117,9.306,9.306,0,0,1-1.885,6.188,8.755,8.755,0,0,1-5.708,2.774V214.6h-3.405v-2.84a8.846,8.846,0,0,1-5.165-2.281c-1.476-1.316-2.205-3.623-2.205-6.912v-1.441h7.37v1.8a16.886,16.886,0,0,0,.232,3.69,1.016,1.016,0,0,0,1.093.72,1.324,1.324,0,0,0,1.121-.5,2.511,2.511,0,0,0,.364-1.493,12.739,12.739,0,0,0-.347-3.548,5.23,5.23,0,0,0-2.373-2.33,53.909,53.909,0,0,1-4.6-3.112,8.151,8.151,0,0,1-2.089-2.808,9.055,9.055,0,0,1-.89-4.081,7.018,7.018,0,0,1,1.876-5.188,9.161,9.161,0,0,1,5.61-2.316v-2.361h3.405v2.361a8.124,8.124,0,0,1,5.121,2.285,7.358,7.358,0,0,1,1.69,5.126c0,.3-.018.763-.071,1.382Z" transform="translate(-927.11 -179.608)" fill="url(#linear-gradient)"/>
</svg>
