<svg xmlns="http://www.w3.org/2000/svg" xmlns:xlink="http://www.w3.org/1999/xlink" width="37.873" height="41.939" viewBox="0 0 37.873 41.939">
  <defs>
    <linearGradient id="linear-gradient" x1="0.05" y1="0.905" x2="1.014" y2="0.034" gradientUnits="objectBoundingBox">
      <stop offset="0" stop-color="#d39d2c"/>
      <stop offset="0.032" stop-color="#d39d2c"/>
      <stop offset="0.063" stop-color="#e5af46"/>
      <stop offset="0.082" stop-color="#ecb751"/>
      <stop offset="0.175" stop-color="#d5a23d"/>
      <stop offset="0.254" stop-color="#c79530"/>
      <stop offset="0.305" stop-color="#cd9c36"/>
      <stop offset="0.383" stop-color="#ddb248"/>
      <stop offset="0.435" stop-color="#ecc557"/>
      <stop offset="0.582" stop-color="#fae56e"/>
      <stop offset="0.635" stop-color="#fae56e"/>
      <stop offset="0.706" stop-color="#eecb58"/>
      <stop offset="0.769" stop-color="#e6ba4a"/>
      <stop offset="0.812" stop-color="#d9ac40"/>
      <stop offset="0.853" stop-color="#d3a53b"/>
      <stop offset="1" stop-color="#9e6e1f"/>
    </linearGradient>
  </defs>
  <path id="Path_3359" data-name="Path 3359" d="M1074.389,1405.217a2.783,2.783,0,0,0,2.793,2.792h26.6a1.658,1.658,0,0,0,1.627-1.335l.827-4.143h-29.1A2.74,2.74,0,0,0,1074.389,1405.217Zm18.127-18.275H1089.9a1.42,1.42,0,0,0-1.418,1.419v2.064a7.357,7.357,0,0,0,5.458,0v-2.064a1.42,1.42,0,0,0-1.419-1.419Zm-1.31-2.522a1.419,1.419,0,1,0-1.419-1.419A1.42,1.42,0,0,0,1091.206,1384.42Zm0-8.2a7.36,7.36,0,0,0-5.251,12.52v-.382a3.933,3.933,0,0,0,1.31-5.36,7.456,7.456,0,0,1,9.192,5.36v.382a7.36,7.36,0,0,0-5.251-12.52Zm-14.138-10.153a2.68,2.68,0,0,0-2.679,2.68v.277h3.626a.841.841,0,0,1,.84.841v.84a.84.84,0,0,1-.84.841h-3.626v4.127h3.626a.841.841,0,0,1,.84.841v.84a.84.84,0,0,1-.84.841h-3.626v4.127h3.626a.841.841,0,0,1,.84.841v.84a.84.84,0,0,1-.84.841h-3.626v4.127h3.626a.841.841,0,0,1,.84.841v.84a.84.84,0,0,1-.84.841h-3.626v4.127h3.626a.841.841,0,0,1,.84.841v.84a.84.84,0,0,1-.84.841h-3.626v3.728a5.234,5.234,0,0,1,2.739-.771h29a1.9,1.9,0,0,0,1.9-1.9v-31.591a1.542,1.542,0,0,0-1.542-1.542Zm14.138,27.4a9.884,9.884,0,1,1,9.884-9.885A9.9,9.9,0,0,1,1091.206,1393.471Zm-20.216-24.444h3.4v2.522h-3.4a.84.84,0,0,1-.84-.841v-.84A.841.841,0,0,1,1070.99,1369.027Zm0,6.649h3.4v2.522h-3.4a.84.84,0,0,1-.84-.841v-.84A.841.841,0,0,1,1070.99,1375.676Zm0,6.649h3.4v2.522h-3.4a.84.84,0,0,1-.84-.841v-.84A.841.841,0,0,1,1070.99,1382.325Zm0,6.65h3.4v2.521h-3.4a.84.84,0,0,1-.84-.84v-.841A.84.84,0,0,1,1070.99,1388.975Zm0,6.649h3.4v2.521h-3.4a.84.84,0,0,1-.84-.84v-.841A.84.84,0,0,1,1070.99,1395.624Z" transform="translate(-1070.15 -1366.07)" fill="url(#linear-gradient)"/>
</svg>
