<svg xmlns="http://www.w3.org/2000/svg" xmlns:xlink="http://www.w3.org/1999/xlink" width="35.964" height="40.531" viewBox="0 0 35.964 40.531">
  <defs>
    <linearGradient id="linear-gradient" y1="0.968" x2="0.863" y2="0.203" gradientUnits="objectBoundingBox">
      <stop offset="0" stop-color="#d39d2c"/>
      <stop offset="0.032" stop-color="#d39d2c"/>
      <stop offset="0.063" stop-color="#e5af46"/>
      <stop offset="0.082" stop-color="#ecb751"/>
      <stop offset="0.175" stop-color="#d5a23d"/>
      <stop offset="0.254" stop-color="#c79530"/>
      <stop offset="0.305" stop-color="#cd9c36"/>
      <stop offset="0.383" stop-color="#ddb248"/>
      <stop offset="0.435" stop-color="#ecc557"/>
      <stop offset="0.582" stop-color="#fae56e"/>
      <stop offset="0.635" stop-color="#fae56e"/>
      <stop offset="0.706" stop-color="#eecb58"/>
      <stop offset="0.769" stop-color="#e6ba4a"/>
      <stop offset="0.812" stop-color="#d9ac40"/>
      <stop offset="0.853" stop-color="#d3a53b"/>
      <stop offset="1" stop-color="#9e6e1f"/>
    </linearGradient>
  </defs>
  <path id="Path_3225" data-name="Path 3225" d="M675.123,203.124v-.666a4.373,4.373,0,0,0-.135-1.389.573.573,0,0,0-.6-.329.6.6,0,0,0-.547.283,1.545,1.545,0,0,0-.184.852,1.871,1.871,0,0,0,.373,1.322,15.047,15.047,0,0,0,2.169,1.469,16.635,16.635,0,0,1,2.087,1.417,3.876,3.876,0,0,1,.94,1.394,5.828,5.828,0,0,1,.377,2.242,5.071,5.071,0,0,1-1.026,3.37,4.77,4.77,0,0,1-3.109,1.511v1.509h-1.855v-1.547a4.817,4.817,0,0,1-2.813-1.243c-.8-.717-1.2-1.973-1.2-3.764v-.816h4.014v1.014a9.269,9.269,0,0,0,.126,2.01.555.555,0,0,0,.6.392.719.719,0,0,0,.61-.271,1.363,1.363,0,0,0,.2-.814,6.927,6.927,0,0,0-.189-1.932,2.85,2.85,0,0,0-1.293-1.269,29.469,29.469,0,0,1-2.5-1.694,4.428,4.428,0,0,1-1.138-1.53,4.927,4.927,0,0,1-.485-2.223,3.819,3.819,0,0,1,1.022-2.825,4.992,4.992,0,0,1,3.055-1.262V197.05h1.855v1.285a4.429,4.429,0,0,1,2.789,1.245,4.009,4.009,0,0,1,.92,2.791c0,.163-.01.416-.039.753Zm-6.343,7.12a8.085,8.085,0,0,0,.635,2.555.3.3,0,0,1,.025.126l-.005,2.288a2.214,2.214,0,0,1-2.206,2.208H645.851a2.208,2.208,0,0,1-2.208-2.208V185.149a2.206,2.206,0,0,1,2.206-2.205H649.7V179.1a2.211,2.211,0,0,1,2.205-2.205h14.575l9.011,9.013V196.39h-2.618v-9.479h-4.022a3.382,3.382,0,0,1-3.381-3.382v-4.017H653.171a.85.85,0,0,0-.853.854V207.89a.85.85,0,0,0,.853.857l15.612.007S668.762,209.864,668.78,210.244Zm-1.968,1.123H651.9a2.21,2.21,0,0,1-2.205-2.206v-23.6h-2.58a.86.86,0,0,0-.854.856v27.525a.861.861,0,0,0,.854.855h18.843a.861.861,0,0,0,.6-.253.844.844,0,0,0,.252-.6Zm-11.876-17.128h15.409a.764.764,0,1,0,0-1.522H654.936a.764.764,0,1,0,0,1.522Zm0,3.97h15.409a.764.764,0,1,0,0-1.522H654.936a.764.764,0,1,0,0,1.522Zm0-7.85h15.409a.766.766,0,1,0,0-1.525H654.936a.765.765,0,1,0,0,1.525Z" transform="translate(-643.643 -176.89)" fill-rule="evenodd" fill="url(#linear-gradient)"/>
</svg>
