<svg xmlns="http://www.w3.org/2000/svg" xmlns:xlink="http://www.w3.org/1999/xlink" width="39.845" height="39.5" viewBox="0 0 39.845 39.5">
  <defs>
    <linearGradient id="linear-gradient" x1="0.268" y1="0.894" x2="1.05" y2="0.106" gradientUnits="objectBoundingBox">
      <stop offset="0" stop-color="#d39d2c"/>
      <stop offset="0.032" stop-color="#d39d2c"/>
      <stop offset="0.063" stop-color="#e5af46"/>
      <stop offset="0.082" stop-color="#ecb751"/>
      <stop offset="0.175" stop-color="#d5a23d"/>
      <stop offset="0.254" stop-color="#c79530"/>
      <stop offset="0.305" stop-color="#cd9c36"/>
      <stop offset="0.383" stop-color="#ddb248"/>
      <stop offset="0.435" stop-color="#ecc557"/>
      <stop offset="0.582" stop-color="#fae56e"/>
      <stop offset="0.635" stop-color="#fae56e"/>
      <stop offset="0.706" stop-color="#eecb58"/>
      <stop offset="0.769" stop-color="#e6ba4a"/>
      <stop offset="0.812" stop-color="#d9ac40"/>
      <stop offset="0.853" stop-color="#d3a53b"/>
      <stop offset="1" stop-color="#9e6e1f"/>
    </linearGradient>
  </defs>
  <path id="Path_3263" data-name="Path 3263" d="M381.574,758.53V759.7a4,4,0,0,1,2.526,1.127,3.628,3.628,0,0,1,.834,2.528c0,.147-.009.377-.036.682h-3.64v-.6a3.967,3.967,0,0,0-.123-1.258.519.519,0,0,0-.539-.3.543.543,0,0,0-.5.257,1.4,1.4,0,0,0-.167.772,1.7,1.7,0,0,0,.338,1.2,13.655,13.655,0,0,0,1.965,1.331,15.053,15.053,0,0,1,1.89,1.283,3.5,3.5,0,0,1,.852,1.263,5.286,5.286,0,0,1,.341,2.031,4.593,4.593,0,0,1-.929,3.053,4.322,4.322,0,0,1-2.816,1.368v1.366h-1.68v-1.4a4.355,4.355,0,0,1-2.548-1.125,4.415,4.415,0,0,1-1.088-3.41v-.711h3.636v.891a8.341,8.341,0,0,0,.114,1.82.5.5,0,0,0,.539.355.649.649,0,0,0,.553-.246,1.231,1.231,0,0,0,.18-.736,6.282,6.282,0,0,0-.171-1.75,2.586,2.586,0,0,0-1.171-1.15,26.694,26.694,0,0,1-2.268-1.535,4.033,4.033,0,0,1-1.03-1.385,4.472,4.472,0,0,1-.439-2.014,3.462,3.462,0,0,1,.925-2.559,4.519,4.519,0,0,1,2.768-1.142V758.53ZM393.4,751.7V783.8a3.708,3.708,0,0,1-3.7,3.7h-19.75a3.708,3.708,0,0,1-3.7-3.7v-7.63h2.469v2.692h22.219V756.641H368.715v3.192h-2.469V751.7a3.708,3.708,0,0,1,3.7-3.7H389.7A3.708,3.708,0,0,1,393.4,751.7Zm-2.469,29.625H368.715V783.8a1.235,1.235,0,0,0,1.234,1.234H389.7a1.235,1.235,0,0,0,1.235-1.234Zm0-29.625a1.235,1.235,0,0,0-1.235-1.234h-19.75a1.235,1.235,0,0,0-1.234,1.234v2.469h22.219ZM369.433,771v-4.825h-5.525v-5.525h-4.825v5.525h-5.525V771h5.525v5.525h4.825V771Z" transform="translate(-353.558 -748)" fill="url(#linear-gradient)"/>
</svg>
