<svg xmlns="http://www.w3.org/2000/svg" xmlns:xlink="http://www.w3.org/1999/xlink" width="41.605" height="42.309" viewBox="0 0 41.605 42.309">
  <defs>
    <linearGradient id="linear-gradient" x1="0.198" y1="0.911" x2="1.035" y2="0.089" gradientUnits="objectBoundingBox">
      <stop offset="0" stop-color="#d39d2c"/>
      <stop offset="0.032" stop-color="#d39d2c"/>
      <stop offset="0.063" stop-color="#e5af46"/>
      <stop offset="0.082" stop-color="#ecb751"/>
      <stop offset="0.175" stop-color="#d5a23d"/>
      <stop offset="0.254" stop-color="#c79530"/>
      <stop offset="0.305" stop-color="#cd9c36"/>
      <stop offset="0.383" stop-color="#ddb248"/>
      <stop offset="0.435" stop-color="#ecc557"/>
      <stop offset="0.582" stop-color="#fae56e"/>
      <stop offset="0.635" stop-color="#fae56e"/>
      <stop offset="0.706" stop-color="#eecb58"/>
      <stop offset="0.769" stop-color="#e6ba4a"/>
      <stop offset="0.812" stop-color="#d9ac40"/>
      <stop offset="0.853" stop-color="#d3a53b"/>
      <stop offset="1" stop-color="#9e6e1f"/>
    </linearGradient>
  </defs>
  <path id="Path_3219" data-name="Path 3219" d="M376.907,1630.547h-.4v-12.456h.4ZM367.413,1624a8.656,8.656,0,0,0-1.1-.744,7.965,7.965,0,0,1-1.14-.772.991.991,0,0,1-.2-.7.817.817,0,0,1,.1-.448.314.314,0,0,1,.288-.148.3.3,0,0,1,.313.173,2.308,2.308,0,0,1,.071.73v.349h2.111c.015-.177.021-.31.021-.4a2.106,2.106,0,0,0-.484-1.467,2.323,2.323,0,0,0-1.465-.653v-.676h-.974v.676a2.625,2.625,0,0,0-1.606.662,2.011,2.011,0,0,0-.536,1.485,2.593,2.593,0,0,0,.254,1.167,2.348,2.348,0,0,0,.6.8,15.678,15.678,0,0,0,1.315.89,1.49,1.49,0,0,1,.679.667,3.641,3.641,0,0,1,.1,1.015.716.716,0,0,1-.1.427.377.377,0,0,1-.32.143.291.291,0,0,1-.313-.206,4.885,4.885,0,0,1-.066-1.056v-.516h-2.109v.412a2.559,2.559,0,0,0,.631,1.978,2.529,2.529,0,0,0,1.478.652v.813h.974v-.793a2.508,2.508,0,0,0,1.633-.793,2.666,2.666,0,0,0,.539-1.771,3.061,3.061,0,0,0-.2-1.178A2.042,2.042,0,0,0,367.413,1624Zm-11.974,7.049h21.072v-.506H355.945v-12.456h20.566v-.506H355.439Zm25.348-8.435v2.025a3.535,3.535,0,0,1,3.531,3.531h2.025A5.562,5.562,0,0,0,380.787,1622.618Zm.493,6.153A1.276,1.276,0,1,0,380,1627.5,1.275,1.275,0,0,0,381.28,1628.771Zm6.7-.6h2.025a9.236,9.236,0,0,0-9.223-9.226v2.025A7.208,7.208,0,0,1,387.985,1628.173Zm6.563-21.1v34.377a3.971,3.971,0,0,1-3.967,3.966H369.426a3.971,3.971,0,0,1-3.966-3.966V1633.4H352.943v-18.27H365.46v-8.053a3.971,3.971,0,0,1,3.966-3.966h21.155A3.971,3.971,0,0,1,394.548,1607.076Zm-18.037,24.8v-15.233h-22.05v15.233ZM391.9,1639.8H368.1v1.65a1.323,1.323,0,0,0,1.322,1.322h21.155a1.324,1.324,0,0,0,1.323-1.322Zm0-28.35H368.1v3.676h8.407v-1.591h1.228v21.568h-1.228V1633.4H368.1v3.76h23.8Zm0-4.377a1.324,1.324,0,0,0-1.323-1.322H369.426a1.323,1.323,0,0,0-1.322,1.322v1.733h23.8Z" transform="translate(-352.943 -1603.11)" fill="url(#linear-gradient)"/>
</svg>
