<svg xmlns="http://www.w3.org/2000/svg" xmlns:xlink="http://www.w3.org/1999/xlink" width="17.874" height="29.79" viewBox="0 0 17.874 29.79">
  <defs>
    <linearGradient id="linear-gradient" x1="-0.132" y1="0.879" x2="1.132" y2="0.121" gradientUnits="objectBoundingBox">
      <stop offset="0" stop-color="#d3a61f"/>
      <stop offset="0.032" stop-color="#d3a61f"/>
      <stop offset="0.033" stop-color="#d3a61f"/>
      <stop offset="0.064" stop-color="#e3bb3a"/>
      <stop offset="0.082" stop-color="#e9c345"/>
      <stop offset="0.176" stop-color="#d4ab2f"/>
      <stop offset="0.254" stop-color="#c89d22"/>
      <stop offset="0.301" stop-color="#cca428"/>
      <stop offset="0.373" stop-color="#d9ba39"/>
      <stop offset="0.435" stop-color="#e8d34d"/>
      <stop offset="0.582" stop-color="#f0f566"/>
      <stop offset="0.635" stop-color="#f0f566"/>
      <stop offset="0.71" stop-color="#e8d84e"/>
      <stop offset="0.769" stop-color="#e3c73f"/>
      <stop offset="0.817" stop-color="#d6b532"/>
      <stop offset="0.853" stop-color="#d2ae2e"/>
      <stop offset="1" stop-color="#a16d0b"/>
    </linearGradient>
  </defs>
  <path id="Path_607" data-name="Path 607" d="M70.237,3327.237H56.6a2.121,2.121,0,0,1-2.118-2.118v-2.351a.5.5,0,0,1,.5-.5H71.859a.5.5,0,0,1,.5.5v2.351A2.12,2.12,0,0,1,70.237,3327.237Zm-14.221-3.972v1.854a1.127,1.127,0,0,0,1.125,1.125H69.725a1.127,1.127,0,0,0,1.125-1.125v-1.854Zm9.388,1.489a.5.5,0,0,0-.5-.5H61.929a.5.5,0,1,0,0,.993h2.979A.5.5,0,0,0,65.4,3324.754Zm6.455-22.342H54.978a.5.5,0,0,1-.5-.5v-2.35a2.121,2.121,0,0,1,2.118-2.118H70.238a2.12,2.12,0,0,1,2.117,2.118v2.35A.5.5,0,0,1,71.859,3302.412Zm-15.846-.993h14.9v-1.854a1.126,1.126,0,0,0-1.125-1.125H57.138a1.127,1.127,0,0,0-1.125,1.125Zm10.384-1.49a.5.5,0,0,0-.5-.5H60.936a.5.5,0,1,0,0,.993H65.9A.5.5,0,0,0,66.4,3299.929Zm5.462,23.336H54.978a.5.5,0,0,1-.5-.5v-20.853a.5.5,0,0,1,.5-.5H71.859a.5.5,0,0,1,.5.5v20.853A.5.5,0,0,1,71.859,3323.265ZM56.013,3321.6H70.824v-18.514H56.013Zm8.4-.32H62.425a.5.5,0,0,1-.5-.5v-1.489h-.993a.5.5,0,0,1-.381-.814l2.482-2.979a.512.512,0,0,1,.763,0l2.482,2.979a.5.5,0,0,1-.381.814h-.993v1.489A.5.5,0,0,1,64.411,3321.279Zm-1.489-.993h.993v-1.49a.5.5,0,0,1,.5-.5h.43l-1.423-1.707L62,3318.3h.429a.5.5,0,0,1,.5.5Zm.5-5.958a5.461,5.461,0,1,1,5.462-5.462A5.468,5.468,0,0,1,63.418,3314.328Zm0-9.631a4.169,4.169,0,1,0,4.17,4.169A4.173,4.173,0,0,0,63.418,3304.7Zm1.739,2.908c.011-.129.014-.225.014-.287a1.526,1.526,0,0,0-.35-1.062,1.685,1.685,0,0,0-1.061-.474v-.489h-.706v.489a1.905,1.905,0,0,0-1.162.48,1.453,1.453,0,0,0-.389,1.075,1.885,1.885,0,0,0,.184.846,1.683,1.683,0,0,0,.433.582,11.16,11.16,0,0,0,.953.645,1.086,1.086,0,0,1,.492.483,2.629,2.629,0,0,1,.072.735.518.518,0,0,1-.076.31.274.274,0,0,1-.232.1.211.211,0,0,1-.227-.15,3.525,3.525,0,0,1-.048-.764v-.374H61.527v.3a1.855,1.855,0,0,0,.457,1.433,1.83,1.83,0,0,0,1.07.472v.589h.706v-.574a1.814,1.814,0,0,0,1.183-.575,1.926,1.926,0,0,0,.39-1.282,2.206,2.206,0,0,0-.143-.853,1.489,1.489,0,0,0-.358-.531,6.388,6.388,0,0,0-.794-.539,5.684,5.684,0,0,1-.825-.559.712.712,0,0,1-.142-.5.588.588,0,0,1,.07-.324.227.227,0,0,1,.208-.108.219.219,0,0,1,.227.126,1.661,1.661,0,0,1,.051.528v.254Z" transform="translate(-54.481 -3297.447)" fill="url(#linear-gradient)"/>
</svg>
