<svg xmlns="http://www.w3.org/2000/svg" xmlns:xlink="http://www.w3.org/1999/xlink" width="39.03" height="39.03" viewBox="0 0 39.03 39.03">
  <defs>
    <linearGradient id="linear-gradient" x1="0.106" y1="0.896" x2="0.921" y2="0.08" gradientUnits="objectBoundingBox">
      <stop offset="0" stop-color="#d39d2c"/>
      <stop offset="0.032" stop-color="#d39d2c"/>
      <stop offset="0.063" stop-color="#e5af46"/>
      <stop offset="0.082" stop-color="#ecb751"/>
      <stop offset="0.175" stop-color="#d5a23d"/>
      <stop offset="0.254" stop-color="#c79530"/>
      <stop offset="0.305" stop-color="#cd9c36"/>
      <stop offset="0.383" stop-color="#ddb248"/>
      <stop offset="0.435" stop-color="#ecc557"/>
      <stop offset="0.582" stop-color="#fae56e"/>
      <stop offset="0.635" stop-color="#fae56e"/>
      <stop offset="0.706" stop-color="#eecb58"/>
      <stop offset="0.769" stop-color="#e6ba4a"/>
      <stop offset="0.812" stop-color="#d9ac40"/>
      <stop offset="0.853" stop-color="#d3a53b"/>
      <stop offset="1" stop-color="#9e6e1f"/>
    </linearGradient>
  </defs>
  <path id="Path_3361" data-name="Path 3361" d="M370.572,1786.652a6.108,6.108,0,0,0,5.975-4.878H364.6A6.108,6.108,0,0,0,370.572,1786.652Zm12.32-15.455c-.042,0-.081.006-.123.006a12.988,12.988,0,0,1-10.571-20.565v-1.389a1.626,1.626,0,1,0-3.252,0v1.756a11.392,11.392,0,0,0-9.758,11.254v4.534a10.9,10.9,0,0,1-3.883,8.347,2.845,2.845,0,0,0,1.85,5.007h26.834a2.845,2.845,0,0,0,1.834-5.02A10.914,10.914,0,0,1,382.892,1771.2Zm-.123-23.575a10.571,10.571,0,1,0,10.57,10.571A10.583,10.583,0,0,0,382.769,1747.622Z" transform="translate(-354.309 -1747.622)" fill="url(#linear-gradient)"/>
</svg>
