<svg xmlns="http://www.w3.org/2000/svg" xmlns:xlink="http://www.w3.org/1999/xlink" width="36.726" height="37.284" viewBox="0 0 36.726 37.284">
  <defs>
    <linearGradient id="linear-gradient" x1="0.147" y1="0.841" x2="0.854" y2="0.145" gradientUnits="objectBoundingBox">
      <stop offset="0" stop-color="#d39d2c"/>
      <stop offset="0.032" stop-color="#d39d2c"/>
      <stop offset="0.063" stop-color="#e5af46"/>
      <stop offset="0.082" stop-color="#ecb751"/>
      <stop offset="0.175" stop-color="#d5a23d"/>
      <stop offset="0.254" stop-color="#c79530"/>
      <stop offset="0.305" stop-color="#cd9c36"/>
      <stop offset="0.383" stop-color="#ddb248"/>
      <stop offset="0.435" stop-color="#ecc557"/>
      <stop offset="0.582" stop-color="#fae56e"/>
      <stop offset="0.635" stop-color="#fae56e"/>
      <stop offset="0.706" stop-color="#eecb58"/>
      <stop offset="0.769" stop-color="#e6ba4a"/>
      <stop offset="0.812" stop-color="#d9ac40"/>
      <stop offset="0.853" stop-color="#d3a53b"/>
      <stop offset="1" stop-color="#9e6e1f"/>
    </linearGradient>
  </defs>
  <path id="Path_3307" data-name="Path 3307" d="M373.655,1046.671a3.816,3.816,0,0,1,0-5.676,4.41,4.41,0,0,1,5.967,0,3.836,3.836,0,0,1,0,5.674,4.228,4.228,0,0,1-2.975,1.153A4.276,4.276,0,0,1,373.655,1046.671Zm12.857-7.952a18.359,18.359,0,1,0-24.424,27.377.9.9,0,0,0,.671.2.913.913,0,0,0,.617-.343l.336-.429a.885.885,0,0,0-.138-1.24,15.91,15.91,0,0,1-5.833-13.058,16.154,16.154,0,0,1,16.007-15.336h.048a16.047,16.047,0,0,1,15.969,16.018,15.673,15.673,0,0,1-10,14.734,6.831,6.831,0,0,1-.968.321,4.475,4.475,0,0,1-1.161.183,2.276,2.276,0,0,1-1.4-.289,1.5,1.5,0,0,1-.308-1.116,7.132,7.132,0,0,1,.145-1.208,14.333,14.333,0,0,1,.333-1.477l1.562-5.532a9.015,9.015,0,0,0,.334-1.773c.06-.632.087-1.072.087-1.324a4.134,4.134,0,0,0-1.4-3.221,5.585,5.585,0,0,0-3.829-1.223,9.368,9.368,0,0,0-2.823.473c-.947.3-1.953.666-2.992,1.089l-.237.1-.705,2.88.884-.33c.3-.111.653-.228,1.068-.351a3.913,3.913,0,0,1,1.107-.169c.939,0,1.248.2,1.335.279a1.65,1.65,0,0,1,.286,1.127,6.2,6.2,0,0,1-.133,1.2c-.094.468-.21.964-.346,1.477l-1.576,5.581c-.142.6-.248,1.142-.315,1.62a10.431,10.431,0,0,0-.1,1.431,4.107,4.107,0,0,0,1.437,3.205,5.711,5.711,0,0,0,3.88,1.236,8.508,8.508,0,0,0,2.774-.417c.761-.265,1.78-.648,3-1.132a18.359,18.359,0,0,0,6.8-30.561Z" transform="translate(-355.383 -1033.545)" fill="url(#linear-gradient)"/>
</svg>
