<svg xmlns="http://www.w3.org/2000/svg" xmlns:xlink="http://www.w3.org/1999/xlink" width="39.067" height="39.065" viewBox="0 0 39.067 39.065">
  <defs>
    <linearGradient id="linear-gradient" x1="0.153" y1="0.847" x2="0.847" y2="0.153" gradientUnits="objectBoundingBox">
      <stop offset="0" stop-color="#d39d2c"/>
      <stop offset="0.032" stop-color="#d39d2c"/>
      <stop offset="0.063" stop-color="#e5af46"/>
      <stop offset="0.082" stop-color="#ecb751"/>
      <stop offset="0.175" stop-color="#d5a23d"/>
      <stop offset="0.254" stop-color="#c79530"/>
      <stop offset="0.305" stop-color="#cd9c36"/>
      <stop offset="0.383" stop-color="#ddb248"/>
      <stop offset="0.435" stop-color="#ecc557"/>
      <stop offset="0.582" stop-color="#fae56e"/>
      <stop offset="0.635" stop-color="#fae56e"/>
      <stop offset="0.706" stop-color="#eecb58"/>
      <stop offset="0.769" stop-color="#e6ba4a"/>
      <stop offset="0.812" stop-color="#d9ac40"/>
      <stop offset="0.853" stop-color="#d3a53b"/>
      <stop offset="1" stop-color="#9e6e1f"/>
    </linearGradient>
  </defs>
  <path id="Path_3222" data-name="Path 3222" d="M678.787,770.039a8.275,8.275,0,0,0,0-4.675l-3.171-.354a16.125,16.125,0,0,0-.819-3.078l2.633-1.817a8.324,8.324,0,0,0-2.338-4.049l-2.926,1.28a15.646,15.646,0,0,0-1.1-1.213,15.2,15.2,0,0,0-1.143-1.043l1.368-2.894a8.364,8.364,0,0,0-4.048-2.338l-1.891,2.573a15.9,15.9,0,0,0-3.075-.833l-.258-3.189a8.33,8.33,0,0,0-4.675,0l-.354,3.175a16.106,16.106,0,0,0-3.078.81l-1.821-2.628a8.362,8.362,0,0,0-4.048,2.337l1.283,2.928a14.718,14.718,0,0,0-1.213,1.1,14.291,14.291,0,0,0-1.043,1.143l-2.894-1.372a8.344,8.344,0,0,0-2.337,4.048l2.573,1.895a15.863,15.863,0,0,0-.833,3.071l-3.189.262a8.326,8.326,0,0,0,0,4.674l3.174.354a16.08,16.08,0,0,0,.811,3.075l-2.629,1.821a8.3,8.3,0,0,0,2.338,4.048l2.93-1.283a13.622,13.622,0,0,0,1.1,1.216,15.232,15.232,0,0,0,1.143,1.04l-1.371,2.894a8.342,8.342,0,0,0,4.047,2.341l1.9-2.573a16.476,16.476,0,0,0,3.071.833l.262,3.185a8.326,8.326,0,0,0,4.674,0l.355-3.17a16.157,16.157,0,0,0,3.074-.819l1.822,2.633a8.33,8.33,0,0,0,4.047-2.338l-1.283-2.927a16.029,16.029,0,0,0,1.217-1.1q.547-.546,1.039-1.142L675,779.314a8.39,8.39,0,0,0,2.341-4.052l-2.573-1.891a15.818,15.818,0,0,0,.833-3.074Zm-11.613,5.154a10.725,10.725,0,1,1,3.141-7.584A10.7,10.7,0,0,1,667.174,775.193Zm-7.587-14.581a7,7,0,1,0,4.947,2.05A6.97,6.97,0,0,0,659.587,760.612Zm2.275,9.268a3.217,3.217,0,1,1,.94-2.271A3.214,3.214,0,0,1,661.862,769.88Z" transform="translate(-640.057 -748.075)" fill-rule="evenodd" fill="url(#linear-gradient)"/>
</svg>
