<svg xmlns="http://www.w3.org/2000/svg" viewBox="0 0 33.23 27.86">
    <defs></defs>
    <g id="Layer_2" data-name="Layer 2">
        <g id="Layer_2-2" data-name="Layer 2">
            <path class="cls-1" d="M25.23,8.13H23.51V5.44h1.72a1.54,1.54,0,0,1,1,.3,1.26,1.26,0,0,1,.37,1,1.31,1.31,0,0,1-.37,1A1.45,1.45,0,0,1,25.23,8.13Zm8-4v19.5a4.18,4.18,0,0,1-4.18,4.18H4.18A4.18,4.18,0,0,1,0,23.68V4.18A4.18,4.18,0,0,1,4.18,0H29.05A4.18,4.18,0,0,1,33.23,4.18ZM21.61,13h1.9V9.7h1.9A3.47,3.47,0,0,0,27.7,9a2.82,2.82,0,0,0,.8-2.28,2.78,2.78,0,0,0-.8-2.19,3.19,3.19,0,0,0-2.17-.71H21.61ZM13.06,5.47H15.8V13h1.92V5.47h2.73V3.85H13.06ZM3.61,8.41A5,5,0,0,0,5,12.18a4,4,0,0,0,3,1.06,4,4,0,0,0,3-1.06,5,5,0,0,0,1.38-3.77A4.86,4.86,0,0,0,11,4.64,4,4,0,0,0,8,3.58,4,4,0,0,0,5,4.64,4.86,4.86,0,0,0,3.61,8.41ZM29.7,15.93H3.53v8.91H29.7ZM8,11.62a2.18,2.18,0,0,0,1.8-.83,3.77,3.77,0,0,0,.66-2.38A3.77,3.77,0,0,0,9.79,6,2.19,2.19,0,0,0,8,5.19,2.2,2.2,0,0,0,6.18,6,3.71,3.71,0,0,0,5.5,8.41a3.71,3.71,0,0,0,.68,2.38A2.19,2.19,0,0,0,8,11.62ZM28.42,23.56H4.81V17.21H28.42ZM9.34,20.69l1.3-.4-.29-.92-1.28.42V18.31H8v1.48l-1.28-.42-.28.92,1.3.4L6.89,21.9l.79.56.87-1.15.85,1.15.79-.56Zm5.41,0,1.3-.4-.28-.92-1.28.42V18.31H13.43v1.48l-1.28-.42-.29.92,1.31.4-.86,1.21.78.56L14,21.31l.85,1.15.78-.56Zm5.42,0,1.3-.4-.29-.92-1.28.42V18.31H18.84v1.48l-1.28-.42-.28.92,1.3.4-.86,1.21.79.56.87-1.15.85,1.15L21,21.9Zm5.41,0,1.3-.4-.28-.92-1.28.42V18.31H24.26v1.48L23,19.37l-.29.92,1.31.4-.86,1.21.78.56.88-1.15.85,1.15.78-.56Z"/>
        </g>
    </g>
</svg>