<svg xmlns="http://www.w3.org/2000/svg" viewBox="0 0 16.54 16.79"><defs><style>.cls-1{fill:#f9b217;}</style></defs><title>Asset 5</title><g id="Layer_2" data-name="Layer 2"><g id="Layer_1-2" data-name="Layer 1"><path class="cls-1" d="M8.23,5.91a1.68,1.68,0,0,1-.57-1.28,1.71,1.71,0,0,1,.57-1.28,1.92,1.92,0,0,1,1.34-.52,1.89,1.89,0,0,1,1.34.53,1.71,1.71,0,0,1,0,2.55,2,2,0,0,1-2.68,0ZM14,2.33A8.27,8.27,0,1,0,3,14.66a.36.36,0,0,0,.3.08.39.39,0,0,0,.28-.15l.15-.19a.4.4,0,0,0-.06-.56A7.16,7.16,0,0,1,1.06,8a7.27,7.27,0,0,1,7.21-6.9h0a7.22,7.22,0,0,1,7.19,7.21A7.05,7.05,0,0,1,11,14.9a3.51,3.51,0,0,1-.44.15,2.2,2.2,0,0,1-.52.08A1,1,0,0,1,9.39,15a.68.68,0,0,1-.14-.5A2.85,2.85,0,0,1,9.32,14a4.64,4.64,0,0,1,.15-.66l.7-2.49a4.93,4.93,0,0,0,.15-.8c0-.29,0-.49,0-.6A1.85,1.85,0,0,0,9.73,8,2.54,2.54,0,0,0,8,7.4a4.22,4.22,0,0,0-1.27.21c-.43.14-.88.3-1.35.49l-.11.05L5,9.44l.4-.14a3.85,3.85,0,0,1,.48-.16,1.8,1.8,0,0,1,.5-.08c.42,0,.56.09.6.13a.7.7,0,0,1,.13.5,2.8,2.8,0,0,1-.06.55q-.06.31-.15.66l-.71,2.51a6.8,6.8,0,0,0-.15.73,4.73,4.73,0,0,0,0,.65,1.84,1.84,0,0,0,.65,1.44,2.56,2.56,0,0,0,1.74.56A4,4,0,0,0,9.6,16.6q.53-.18,1.35-.51A8.26,8.26,0,0,0,14,2.33Z"/></g></g></svg>