<svg xmlns="http://www.w3.org/2000/svg" xmlns:xlink="http://www.w3.org/1999/xlink" width="33.228" height="27.861" viewBox="0 0 33.228 27.861">
  <defs>
    <linearGradient id="linear-gradient" x1="0.077" y1="1.004" x2="0.923" y2="-0.004" gradientUnits="objectBoundingBox">
      <stop offset="0" stop-color="#d39d2c"/>
      <stop offset="0.032" stop-color="#d39d2c"/>
      <stop offset="0.063" stop-color="#e5af46"/>
      <stop offset="0.082" stop-color="#ecb751"/>
      <stop offset="0.175" stop-color="#d5a23d"/>
      <stop offset="0.254" stop-color="#c79530"/>
      <stop offset="0.305" stop-color="#cd9c36"/>
      <stop offset="0.383" stop-color="#ddb248"/>
      <stop offset="0.435" stop-color="#ecc557"/>
      <stop offset="0.582" stop-color="#fae56e"/>
      <stop offset="0.635" stop-color="#fae56e"/>
      <stop offset="0.706" stop-color="#eecb58"/>
      <stop offset="0.769" stop-color="#e6ba4a"/>
      <stop offset="0.812" stop-color="#d9ac40"/>
      <stop offset="0.853" stop-color="#d3a53b"/>
      <stop offset="1" stop-color="#9e6e1f"/>
    </linearGradient>
  </defs>
  <path id="Path_3388" data-name="Path 3388" d="M1097.565,1905.662h-1.72v-2.689h1.72a1.53,1.53,0,0,1,1.015.3,1.258,1.258,0,0,1,.362,1.016,1.339,1.339,0,0,1-.362,1.041A1.455,1.455,0,0,1,1097.565,1905.662Zm8-3.95v19.5a4.179,4.179,0,0,1-4.179,4.179h-24.869a4.179,4.179,0,0,1-4.18-4.179v-19.5a4.179,4.179,0,0,1,4.18-4.179h24.869A4.179,4.179,0,0,1,1105.565,1901.712Zm-11.616,8.808h1.9v-3.283h1.9a3.481,3.481,0,0,0,2.29-.67,2.832,2.832,0,0,0,.8-2.286,2.76,2.76,0,0,0-.807-2.187,3.162,3.162,0,0,0-2.161-.707h-3.922Zm-8.557-7.516h2.745v7.516h1.921V1903h2.731v-1.617h-7.4Zm-9.449,2.938a4.922,4.922,0,0,0,1.388,3.766,4.738,4.738,0,0,0,5.986,0,4.937,4.937,0,0,0,1.381-3.766,4.843,4.843,0,0,0-1.381-3.768,4.738,4.738,0,0,0-5.986,0A4.829,4.829,0,0,0,1075.943,1905.942Zm26.1,7.525h-26.175v8.9h26.175Zm-21.715-4.31a2.183,2.183,0,0,0,1.8-.836,4.579,4.579,0,0,0,0-4.756,2.362,2.362,0,0,0-3.609,0,4.524,4.524,0,0,0,0,4.758A2.2,2.2,0,0,0,1080.324,1909.157Zm20.436,11.934h-23.617v-6.345h23.617Zm-19.087-2.872,1.3-.4-.287-.912-1.279.413v-1.475h-1.059v1.475l-1.279-.413-.288.912,1.3.4-.857,1.217.784.557.877-1.15.848,1.15.784-.557Zm5.415,0,1.3-.4-.287-.912-1.279.413v-1.475h-1.059v1.475l-1.279-.413-.288.912,1.3.4-.857,1.217.783.557.878-1.15.848,1.15.783-.557Zm5.415,0,1.3-.4-.288-.912-1.278.413v-1.475h-1.059v1.475l-1.279-.413-.288.912,1.3.4-.857,1.217.783.557.877-1.15.849,1.15.783-.557Zm5.414,0,1.3-.4-.288-.912-1.279.413v-1.475h-1.059v1.475l-1.279-.413-.287.912,1.3.4-.856,1.217.783.557.877-1.15.849,1.15.783-.557Z" transform="translate(-1072.337 -1897.533)" fill="url(#linear-gradient)"/>
</svg>
