<svg xmlns="http://www.w3.org/2000/svg" xmlns:xlink="http://www.w3.org/1999/xlink" width="38.6" height="39.474" viewBox="0 0 38.6 39.474">
  <defs>
    <linearGradient id="linear-gradient" x1="0.049" y1="0.99" x2="0.898" y2="0.16" gradientUnits="objectBoundingBox">
      <stop offset="0" stop-color="#d39d2c"/>
      <stop offset="0.032" stop-color="#d39d2c"/>
      <stop offset="0.063" stop-color="#e5af46"/>
      <stop offset="0.082" stop-color="#ecb751"/>
      <stop offset="0.175" stop-color="#d5a23d"/>
      <stop offset="0.254" stop-color="#c79530"/>
      <stop offset="0.305" stop-color="#cd9c36"/>
      <stop offset="0.383" stop-color="#ddb248"/>
      <stop offset="0.435" stop-color="#ecc557"/>
      <stop offset="0.582" stop-color="#fae56e"/>
      <stop offset="0.635" stop-color="#fae56e"/>
      <stop offset="0.706" stop-color="#eecb58"/>
      <stop offset="0.769" stop-color="#e6ba4a"/>
      <stop offset="0.812" stop-color="#d9ac40"/>
      <stop offset="0.853" stop-color="#d3a53b"/>
      <stop offset="1" stop-color="#9e6e1f"/>
    </linearGradient>
  </defs>
  <path id="Path_3350" data-name="Path 3350" d="M250.446,1632.685a2.527,2.527,0,0,0-1.706.02l-2.541.8-2.44.764-2.946.922a2.735,2.735,0,0,0-.37-2.182,2.733,2.733,0,0,0-2.263-1.215h-5.128l-4.981-3.321a3.182,3.182,0,0,0-1.782-.537h-5.012v-.648a.644.644,0,0,0-.643-.643H214.2a.644.644,0,0,0-.643.643v14.155a.641.641,0,0,0,.643.643h6.434a.641.641,0,0,0,.643-.643v-1.018l8.788,3.124a8.987,8.987,0,0,0,2.861.47h.167a9.017,9.017,0,0,0,3.508-.713l14.028-5.939a2.5,2.5,0,0,0-.183-4.677Zm-30.713,7.467H215.1v-11.578h4.632Zm30.394-3.974-14.027,5.938a7.676,7.676,0,0,1-3.007.608h-.167a7.705,7.705,0,0,1-2.441-.4l-9.208-3.276v-9.836h5.012a1.9,1.9,0,0,1,1.068.324l5.143,3.427a.652.652,0,0,0,.36.107h5.33a1.441,1.441,0,0,1,1.271,2.08l-.172.345a1.324,1.324,0,0,1-.218.318c-.02.026-.045.036-.061.056a1.258,1.258,0,0,1-.207.172c-.041.026-.081.046-.122.071-.065.03-.131.061-.2.086a1.165,1.165,0,0,1-.122.041,1.33,1.33,0,0,1-.349.05h-9.654v1.286h9.654a3.006,3.006,0,0,0,.476-.045.607.607,0,0,1,.1-.021,2.746,2.746,0,0,0,.41-.126c.015,0,.026,0,.041-.01a2.724,2.724,0,0,0,.83-.537c.005-.01.02-.015.025-.025l5.473-1.711,1.058-.329,2.738-.856a1.253,1.253,0,0,1,.846-.025,1.225,1.225,0,0,1,.866,1.164A1.209,1.209,0,0,1,250.127,1636.178Zm-21.7-14.591-3.511-1.846a.705.705,0,0,0-.656,0l-3.511,1.846a.706.706,0,0,1-1.024-.744l.67-3.909a.7.7,0,0,0-.2-.625l-2.841-2.769a.706.706,0,0,1,.391-1.2l3.926-.57a.709.709,0,0,0,.531-.386l1.755-3.557a.706.706,0,0,1,1.266,0l1.755,3.557a.709.709,0,0,0,.531.386l3.926.57a.706.706,0,0,1,.391,1.2l-2.841,2.769a.7.7,0,0,0-.2.624l.67,3.91A.706.706,0,0,1,228.428,1621.587Zm-9.739-8.159,2.593,2.527a.708.708,0,0,1,.2.625l-.613,3.569a.126.126,0,0,0,.183.133l3.206-1.685a.7.7,0,0,1,.656,0l3.206,1.685a.126.126,0,0,0,.183-.133l-.613-3.569a.706.706,0,0,1,.2-.624l2.593-2.528a.126.126,0,0,0-.07-.215l-3.583-.521a.7.7,0,0,1-.531-.386l-1.6-3.247a.126.126,0,0,0-.226,0l-1.6,3.247a.7.7,0,0,1-.531.386l-3.584.521A.126.126,0,0,0,218.689,1613.428Zm21.433,17.205a.594.594,0,0,0-.553,0l-2.2,1.156-1.189.625a.593.593,0,0,1-.861-.625h0l.651-3.768a.593.593,0,0,0-.171-.525l-3.27-3.188a.226.226,0,0,1,.126-.386l4.517-.659a.594.594,0,0,0,.447-.324l2.023-4.093a.226.226,0,0,1,.406,0l2.023,4.093a.591.591,0,0,0,.446.324l4.518.659a.226.226,0,0,1,.125.386l-3.27,3.188a.6.6,0,0,0-.171.525l.771,4.5a.226.226,0,0,1-.329.238Zm5.8,4.3a.594.594,0,0,0,.408-.669l-.133-.762-.848-4.947a.594.594,0,0,1,.17-.526l4.373-4.263a.593.593,0,0,0-.329-1.012l-6.039-.876a.593.593,0,0,1-.447-.325l-2.7-5.471a.593.593,0,0,0-1.064,0l-2.7,5.471a.59.59,0,0,1-.447.325l-6.039.876a.593.593,0,0,0-.329,1.012l4.368,4.263a.594.594,0,0,1,.171.525l-.555,3.237-.1.593a.593.593,0,0,0,.585.693h3.924l1.529-.8.127-.066,3.913,2.06,1.387.727a.6.6,0,0,0,.452.041Zm-2.714-20.69-2.591-1.362a.361.361,0,0,0-.338,0l-2.591,1.362a.363.363,0,0,1-.527-.382l.5-2.886a.364.364,0,0,0-.105-.322l-2.1-2.043a.363.363,0,0,1,.2-.62l2.9-.421a.362.362,0,0,0,.274-.2l1.295-2.626a.364.364,0,0,1,.652,0l1.295,2.626a.362.362,0,0,0,.274.2l2.9.421a.363.363,0,0,1,.2.62l-2.1,2.043a.364.364,0,0,0-.1.322l.495,2.886A.363.363,0,0,1,243.21,1614.241Zm-5.962-5.3,1.393,1.358a.367.367,0,0,1,.1.322l-.328,1.916a.1.1,0,0,0,.142.1l1.722-.905a.361.361,0,0,1,.338,0l1.722.905a.1.1,0,0,0,.142-.1l-.329-1.916a.364.364,0,0,1,.1-.322l1.393-1.358a.1.1,0,0,0-.055-.168l-1.925-.279a.364.364,0,0,1-.273-.2l-.861-1.744a.1.1,0,0,0-.176,0l-.861,1.744a.364.364,0,0,1-.273.2l-1.925.279A.1.1,0,0,0,237.248,1608.94Z" transform="translate(-213.557 -1604.541)" fill="url(#linear-gradient)"/>
</svg>
