<svg xmlns="http://www.w3.org/2000/svg" xmlns:xlink="http://www.w3.org/1999/xlink" width="37.334" height="42.065" viewBox="0 0 37.334 42.065">
  <defs>
    <linearGradient id="linear-gradient" x1="0.031" y1="0.917" x2="0.969" y2="0.083" gradientUnits="objectBoundingBox">
      <stop offset="0" stop-color="#d39d2c"/>
      <stop offset="0.032" stop-color="#d39d2c"/>
      <stop offset="0.063" stop-color="#e5af46"/>
      <stop offset="0.082" stop-color="#ecb751"/>
      <stop offset="0.175" stop-color="#d5a23d"/>
      <stop offset="0.254" stop-color="#c79530"/>
      <stop offset="0.305" stop-color="#cd9c36"/>
      <stop offset="0.383" stop-color="#ddb248"/>
      <stop offset="0.435" stop-color="#ecc557"/>
      <stop offset="0.582" stop-color="#fae56e"/>
      <stop offset="0.635" stop-color="#fae56e"/>
      <stop offset="0.706" stop-color="#eecb58"/>
      <stop offset="0.769" stop-color="#e6ba4a"/>
      <stop offset="0.812" stop-color="#d9ac40"/>
      <stop offset="0.853" stop-color="#d3a53b"/>
      <stop offset="1" stop-color="#9e6e1f"/>
    </linearGradient>
  </defs>
  <path id="Path_3266" data-name="Path 3266" d="M957.365,746.575h-21.5a7.927,7.927,0,0,0-7.918,7.917v26.231a7.927,7.927,0,0,0,7.918,7.917h21.5a7.927,7.927,0,0,0,7.918-7.917V754.492A7.927,7.927,0,0,0,957.365,746.575Zm-21.5,3h21.5a4.923,4.923,0,0,1,4.918,4.917v14.073L954.745,758l-9.339,12.333-7.994-5-6.463,7.524V754.492A4.923,4.923,0,0,1,935.867,749.575Z" transform="translate(-927.949 -746.575)" fill-rule="evenodd" fill="url(#linear-gradient)"/>
</svg>
