<svg xmlns="http://www.w3.org/2000/svg" xmlns:xlink="http://www.w3.org/1999/xlink" width="35.596" height="39.705" viewBox="0 0 35.596 39.705">
  <defs>
    <linearGradient id="linear-gradient" x1="-0.106" y1="0.863" x2="1.121" y2="0.128" gradientUnits="objectBoundingBox">
      <stop offset="0" stop-color="#d39d2c"/>
      <stop offset="0.032" stop-color="#d39d2c"/>
      <stop offset="0.063" stop-color="#e5af46"/>
      <stop offset="0.082" stop-color="#ecb751"/>
      <stop offset="0.175" stop-color="#d5a23d"/>
      <stop offset="0.254" stop-color="#c79530"/>
      <stop offset="0.305" stop-color="#cd9c36"/>
      <stop offset="0.383" stop-color="#ddb248"/>
      <stop offset="0.435" stop-color="#ecc557"/>
      <stop offset="0.582" stop-color="#fae56e"/>
      <stop offset="0.635" stop-color="#fae56e"/>
      <stop offset="0.706" stop-color="#eecb58"/>
      <stop offset="0.769" stop-color="#e6ba4a"/>
      <stop offset="0.812" stop-color="#d9ac40"/>
      <stop offset="0.853" stop-color="#d3a53b"/>
      <stop offset="1" stop-color="#9e6e1f"/>
    </linearGradient>
    <linearGradient id="linear-gradient-2" x1="0.082" y1="1.083" x2="0.918" y2="0.164" xlink:href="#linear-gradient"/>
  </defs>
  <g id="Group_5401" data-name="Group 5401" transform="translate(-1068.969 -1985.241)">
    <path id="Path_3390" data-name="Path 3390" d="M1092.13,2018.34a.662.662,0,0,0-.662.662v.65h-21.176v-29.117h21.176v.609a.662.662,0,1,0,1.324,0v-2.594a3.312,3.312,0,0,0-3.309-3.309h-17.205a3.312,3.312,0,0,0-3.309,3.309v33.087a3.312,3.312,0,0,0,3.309,3.309h17.205a3.312,3.312,0,0,0,3.309-3.309V2019A.662.662,0,0,0,1092.13,2018.34Zm-19.852-31.776h17.205a1.985,1.985,0,0,1,1.985,1.986v.661h-21.176v-.661A1.986,1.986,0,0,1,1072.278,1986.564Zm17.205,37.059h-17.205a1.986,1.986,0,0,1-1.986-1.986v-.661h21.176v.661A1.985,1.985,0,0,1,1089.483,2023.623Zm-7.941-35.073h1.324a.662.662,0,0,0,0-1.324h-1.324a.662.662,0,0,0,0,1.324Zm.662,33.087h-2.647a.662.662,0,0,0,0,1.324h2.647a.662.662,0,0,0,0-1.324Zm-3.309-33.087h.662a.662.662,0,0,0,0-1.324h-.662a.662.662,0,0,0,0,1.324Zm-5.956,6.617v-1.985h1.986v-1.324h-3.309v3.309Zm-1.323,19.853v3.309h3.309v-1.324h-1.986v-1.985Z" fill="url(#linear-gradient)"/>
    <path id="Path_3397" data-name="Path 3397" d="M1097.552,2001.686v-.876a.3.3,0,0,1,.3-.3h6.416a.3.3,0,0,1,.3.3v.876a.3.3,0,0,1-.3.3h-6.416a.3.3,0,0,1-.3-.3Zm5.873,11.667v-10.54a.3.3,0,0,0-.3-.3h-4.138a.3.3,0,0,0-.3.3v10.54a.3.3,0,0,0,.3.3h4.138a.3.3,0,0,0,.3-.3Zm-24.349-11.667v-.876a.3.3,0,0,1,.3-.3h6.418a.3.3,0,0,1,.3.3v.876a.3.3,0,0,1-.3.3h-6.418a.3.3,0,0,1-.3-.3Zm.507-3.428,11.881-5.392a.839.839,0,0,1,.713,0l11.881,5.392a.849.849,0,0,1,.507.786v.527a.3.3,0,0,1-.3.3h-24.892a.3.3,0,0,1-.3-.3v-.527a.849.849,0,0,1,.507-.786Zm3.569.125h17.337a.122.122,0,0,0,.122-.093.115.115,0,0,0-.071-.132l-8.669-3.647a.144.144,0,0,0-.1,0l-8.669,3.647a.114.114,0,0,0-.071.132.121.121,0,0,0,.121.093Zm-4.076,17.267v-1.17a.3.3,0,0,1,.3-.3h24.892a.3.3,0,0,1,.3.3v1.17a.3.3,0,0,1-.3.3h-24.892a.3.3,0,0,1-.3-.3Zm5.875-2.3v-10.54a.3.3,0,0,0-.3-.3h-4.139a.3.3,0,0,0-.3.3v10.54a.3.3,0,0,0,.3.3h4.139a.3.3,0,0,0,.3-.3Zm3.363-11.667v-.876a.3.3,0,0,1,.3-.3h6.418a.3.3,0,0,1,.3.3v.876a.3.3,0,0,1-.3.3h-6.418a.3.3,0,0,1-.3-.3Zm5.875,11.667v-10.54a.3.3,0,0,0-.3-.3h-4.138a.3.3,0,0,0-.3.3v10.54a.3.3,0,0,0,.3.3h4.138A.3.3,0,0,0,1094.189,2013.353Z" fill-rule="evenodd" fill="url(#linear-gradient-2)"/>
  </g>
</svg>
