<svg xmlns="http://www.w3.org/2000/svg" xmlns:xlink="http://www.w3.org/1999/xlink" width="37.334" height="42.065" viewBox="0 0 37.334 42.065">
  <defs>
    <linearGradient id="linear-gradient" x1="0.031" y1="0.917" x2="0.969" y2="0.083" gradientUnits="objectBoundingBox">
      <stop offset="0" stop-color="#d39d2c"/>
      <stop offset="0.032" stop-color="#d39d2c"/>
      <stop offset="0.063" stop-color="#e5af46"/>
      <stop offset="0.082" stop-color="#ecb751"/>
      <stop offset="0.175" stop-color="#d5a23d"/>
      <stop offset="0.254" stop-color="#c79530"/>
      <stop offset="0.305" stop-color="#cd9c36"/>
      <stop offset="0.383" stop-color="#ddb248"/>
      <stop offset="0.435" stop-color="#ecc557"/>
      <stop offset="0.582" stop-color="#fae56e"/>
      <stop offset="0.635" stop-color="#fae56e"/>
      <stop offset="0.706" stop-color="#eecb58"/>
      <stop offset="0.769" stop-color="#e6ba4a"/>
      <stop offset="0.812" stop-color="#d9ac40"/>
      <stop offset="0.853" stop-color="#d3a53b"/>
      <stop offset="1" stop-color="#9e6e1f"/>
    </linearGradient>
  </defs>
  <path id="Path_3265" data-name="Path 3265" d="M811.1,769.473c2.752,2.4,3.26,7.125,3.319,9.89-2.691,2.623-19.823,2.476-23.382,0-.341-3.149,1.049-7.978,3.214-10.027.837,0,1.617,0,2.351.006a3.055,3.055,0,0,0,1.584-.21,4.522,4.522,0,0,0,.938-2.286,6.452,6.452,0,0,1-1.322-2.376,1.8,1.8,0,0,1-.789-.951,4.7,4.7,0,0,1-.265-1.814l0-.234.193-.132a2.146,2.146,0,0,1,.225-.136c-.387-2.852.136-4.752,1.6-5.823a7.56,7.56,0,0,1,8.306.178c1.367,1.119,1.729,2.57,1.3,5.709.037.023.075.046.112.072l.194.131.006.235a4.728,4.728,0,0,1-.279,1.843,1.76,1.76,0,0,1-.818.943A6.424,6.424,0,0,1,806.128,767a5.071,5.071,0,0,0,.7,1.878,1.888,1.888,0,0,0,1.735.588C809.349,769.471,810.191,769.473,811.1,769.473Zm10.269-14.981v26.231a7.927,7.927,0,0,1-7.918,7.917h-21.5a7.927,7.927,0,0,1-7.918-7.917V754.492a7.927,7.927,0,0,1,7.918-7.917h21.5A7.927,7.927,0,0,1,821.367,754.492Zm-3,0a4.923,4.923,0,0,0-4.918-4.917h-21.5a4.923,4.923,0,0,0-4.918,4.917v26.231a4.923,4.923,0,0,0,4.918,4.917h21.5a4.923,4.923,0,0,0,4.918-4.917Z" transform="translate(-784.033 -746.575)" fill="url(#linear-gradient)"/>
</svg>
