<svg xmlns="http://www.w3.org/2000/svg" xmlns:xlink="http://www.w3.org/1999/xlink" width="42" height="24.842" viewBox="0 0 42 24.842">
  <defs>
    <linearGradient id="linear-gradient" x1="-0.052" y1="0.853" x2="0.827" y2="-0.064" gradientUnits="objectBoundingBox">
      <stop offset="0" stop-color="#d39d2c"/>
      <stop offset="0.032" stop-color="#d39d2c"/>
      <stop offset="0.063" stop-color="#e5af46"/>
      <stop offset="0.082" stop-color="#ecb751"/>
      <stop offset="0.175" stop-color="#d5a23d"/>
      <stop offset="0.254" stop-color="#c79530"/>
      <stop offset="0.305" stop-color="#cd9c36"/>
      <stop offset="0.383" stop-color="#ddb248"/>
      <stop offset="0.435" stop-color="#ecc557"/>
      <stop offset="0.582" stop-color="#fae56e"/>
      <stop offset="0.635" stop-color="#fae56e"/>
      <stop offset="0.706" stop-color="#eecb58"/>
      <stop offset="0.769" stop-color="#e6ba4a"/>
      <stop offset="0.812" stop-color="#d9ac40"/>
      <stop offset="0.853" stop-color="#d3a53b"/>
      <stop offset="1" stop-color="#9e6e1f"/>
    </linearGradient>
    <linearGradient id="linear-gradient-2" x1="0.157" y1="0.826" x2="0.853" y2="-0.13" xlink:href="#linear-gradient"/>
    <linearGradient id="linear-gradient-3" x1="0.142" y1="1.116" x2="0.833" y2="0.196" xlink:href="#linear-gradient"/>
    <linearGradient id="linear-gradient-4" x1="0.169" y1="1.051" x2="1.055" y2="0.18" xlink:href="#linear-gradient"/>
    <linearGradient id="linear-gradient-5" x1="0.157" y1="0.174" x2="0.853" y2="1.13" xlink:href="#linear-gradient"/>
    <linearGradient id="linear-gradient-6" x1="0.142" y1="-0.116" x2="0.833" y2="0.804" xlink:href="#linear-gradient"/>
    <linearGradient id="linear-gradient-7" x1="-0.052" y1="0.147" x2="0.827" y2="1.064" xlink:href="#linear-gradient"/>
    <linearGradient id="linear-gradient-8" x1="0.169" y1="-0.051" x2="1.055" y2="0.82" xlink:href="#linear-gradient"/>
  </defs>
  <g id="Group_4756" data-name="Group 4756" transform="translate(-1068.265 -41.273)">
    <path id="Path_3066" data-name="Path 3066" d="M1089.986,45.544a8.148,8.148,0,0,1,4.164,1.139.712.712,0,1,0,.726-1.226,9.605,9.605,0,0,0-13.514,12.493.722.722,0,0,0,.952.327.717.717,0,0,0,.326-.952,8.182,8.182,0,0,1,7.346-11.781Z" fill="url(#linear-gradient)"/>
    <path id="Path_3068" data-name="Path 3068" d="M1076.291,61.631a.708.708,0,0,0,.444.153.7.7,0,0,0,.556-.267.713.713,0,0,0-.111-1,19.006,19.006,0,0,1-1.642-1.465l-5.262-5.262,5.428-5.425a19.2,19.2,0,0,1,19.8-4.647.713.713,0,0,0,.454-1.351,20.624,20.624,0,0,0-21.262,4.991l-6.432,6.432,6.269,6.27A21.586,21.586,0,0,0,1076.291,61.631Z" fill="url(#linear-gradient-2)"/>
    <path id="Path_3069" data-name="Path 3069" d="M1104,47.357a21.034,21.034,0,0,0-3.126-2.57.712.712,0,1,0-.8,1.181,19.413,19.413,0,0,1,2.914,2.4l5.262,5.262-5.429,5.425a19.383,19.383,0,0,1-20.165,4.522.712.712,0,0,0-.48,1.341,20.825,20.825,0,0,0,21.652-4.855l6.432-6.433Z" fill="url(#linear-gradient-3)"/>
    <path id="Path_3070" data-name="Path 3070" d="M1089.986,61.9a8.167,8.167,0,0,1-4.318-1.23.711.711,0,0,0-.75,1.209,9.6,9.6,0,0,0,13.052-13.493.709.709,0,1,0-1.18.788,8.181,8.181,0,0,1-6.8,12.726Z" fill="url(#linear-gradient-4)"/>
    <path id="Path_3380" data-name="Path 3380" d="M1076.291,41.426a.708.708,0,0,1,.444-.153.7.7,0,0,1,.556.267.713.713,0,0,1-.111,1,19.006,19.006,0,0,0-1.642,1.465l-5.262,5.262,5.428,5.425a19.2,19.2,0,0,0,19.8,4.647.713.713,0,0,1,.454,1.351A20.624,20.624,0,0,1,1074.7,55.7l-6.432-6.432,6.269-6.27A21.585,21.585,0,0,1,1076.291,41.426Z" transform="translate(0 4.331)" fill="url(#linear-gradient-5)"/>
    <path id="Path_3381" data-name="Path 3381" d="M1104,63.424a21.034,21.034,0,0,1-3.126,2.57.712.712,0,1,1-.8-1.181,19.413,19.413,0,0,0,2.914-2.4l5.262-5.262-5.429-5.425a19.383,19.383,0,0,0-20.165-4.522.712.712,0,0,1-.48-1.341,20.825,20.825,0,0,1,21.652,4.855l6.432,6.433Z" transform="translate(0 -3.393)" fill="url(#linear-gradient-6)"/>
    <path id="Path_3382" data-name="Path 3382" d="M1089.986,56.922a8.148,8.148,0,0,0,4.164-1.139.712.712,0,1,1,.726,1.226,9.6,9.6,0,0,1-13.514-12.493.722.722,0,0,1,.952-.327.717.717,0,0,1,.326.952,8.182,8.182,0,0,0,7.346,11.781Z" transform="translate(0 4.981)" fill="url(#linear-gradient-7)"/>
    <path id="Path_3383" data-name="Path 3383" d="M1089.986,49.495a8.168,8.168,0,0,0-4.318,1.23.711.711,0,0,1-.75-1.209,9.6,9.6,0,0,1,13.052,13.493.709.709,0,1,1-1.18-.788,8.181,8.181,0,0,0-6.8-12.726Z" transform="translate(0 -3.951)" fill="url(#linear-gradient-8)"/>
  </g>
</svg>
