<svg xmlns="http://www.w3.org/2000/svg" width="11.605" height="16.879" viewBox="0 0 11.605 16.879">
  <g id="Group_4750" data-name="Group 4750" transform="translate(-11.566 -1834.749)">
    <path id="Path_1497" data-name="Path 1497" d="M19.137,1841.6c.011-.13.015-.228.015-.291a1.555,1.555,0,0,0-.356-1.081,1.713,1.713,0,0,0-1.08-.481v-.5H17v.5a1.928,1.928,0,0,0-1.183.488,1.48,1.48,0,0,0-.4,1.093,1.9,1.9,0,0,0,.188.861,1.731,1.731,0,0,0,.44.592,11.474,11.474,0,0,0,.969.656,1.1,1.1,0,0,1,.5.491,2.715,2.715,0,0,1,.073.748.535.535,0,0,1-.077.315.278.278,0,0,1-.236.1.215.215,0,0,1-.231-.152,3.586,3.586,0,0,1-.048-.778v-.38H15.445v.3a1.885,1.885,0,0,0,.465,1.457,1.859,1.859,0,0,0,1.089.481v.6h.717v-.584a1.844,1.844,0,0,0,1.2-.585,1.961,1.961,0,0,0,.4-1.3,2.257,2.257,0,0,0-.146-.868,1.5,1.5,0,0,0-.364-.54A6.462,6.462,0,0,0,18,1842.2a5.78,5.78,0,0,1-.839-.569.721.721,0,0,1-.145-.511.6.6,0,0,1,.072-.33.232.232,0,0,1,.212-.11.221.221,0,0,1,.23.128,1.679,1.679,0,0,1,.052.537v.258Z" fill="#c27406" fill-rule="evenodd"/>
    <path id="Path_1498" data-name="Path 1498" d="M21.589,1834.749h-8.44a1.585,1.585,0,0,0-1.583,1.583v11.2h1.055v-9.094h9.495v9.494H12.621v-1.151H11.566v3.261a1.584,1.584,0,0,0,1.583,1.582h8.44a1.584,1.584,0,0,0,1.582-1.582v-13.714A1.584,1.584,0,0,0,21.589,1834.749Zm.527,15.3a.529.529,0,0,1-.527.528h-8.44a.529.529,0,0,1-.528-.528v-1.055h9.495Zm0-12.659H12.621v-1.055a.528.528,0,0,1,.528-.528h8.44a.528.528,0,0,1,.527.528Z" fill="#c27406"/>
  </g>
</svg>
