<svg xmlns="http://www.w3.org/2000/svg" width="78.914" height="79.97" viewBox="0 0 78.914 79.97">
  <g id="Group_20" data-name="Group 20" transform="translate(-73.988 -142.486)">
    <path id="Path_10" data-name="Path 10" d="M135.815,222.36a24.66,24.66,0,0,1-13.643-10.707c-3.681-6.268-2.691-23.2-2.647-23.918l.05-.821,16.562-4.149,16.561,4.149.05.821c.044.718,1.035,17.649-2.646,23.919a24.663,24.663,0,0,1-13.644,10.706l-.321.1Zm-14.094-33.669-.015.36c-.071,1.658-.605,16.345,2.4,21.465a22.653,22.653,0,0,0,11.874,9.541l.155.052.155-.052a22.654,22.654,0,0,0,11.874-9.54c3.006-5.121,2.473-19.808,2.4-21.466l-.015-.36-14.416-3.611Z" fill="#c07500"/>
    <path id="Path_11" data-name="Path 11" d="M148.278,196.125,135.2,207.972a1.848,1.848,0,0,1-2.608-.129l-6.9-7.62a1.846,1.846,0,0,1,.129-2.608h0a1.846,1.846,0,0,1,2.608.129l4.422,4.883a1.847,1.847,0,0,0,2.608.129l10.343-9.368a1.846,1.846,0,0,1,2.608.129h0A1.846,1.846,0,0,1,148.278,196.125Z" fill="#c07500"/>
    <g id="Group_12" data-name="Group 12">
      <path id="Path_24" data-name="Path 24" d="M84.919,156.15V145.219a2.734,2.734,0,0,1,5.467,0V156.15a2.734,2.734,0,0,1-5.467,0Zm46.461,2.733a2.732,2.732,0,0,0,2.733-2.733V145.219a2.733,2.733,0,0,0-5.466,0V156.15a2.731,2.731,0,0,0,2.733,2.733Zm-35.529,16.4H84.919v10.932H95.851Zm-10.932,27.33H95.851V191.678H84.919Zm16.4-16.4h10.932V175.281H101.317Zm0,16.4h10.932V191.678H101.317Zm-21.863,4.921V169.815h60.124v10.932h5.466V159.428a5.964,5.964,0,0,0-5.92-6.011h-2.279v2.733a5.466,5.466,0,1,1-10.932,0v-2.733H93.119v2.733a5.467,5.467,0,1,1-10.933,0v-2.733H79.91a5.966,5.966,0,0,0-5.922,6.011v48.1a5.972,5.972,0,0,0,5.922,6.01h32.339v-5.466H79.91a.517.517,0,0,1-.456-.544Z" fill="#bb741b"/>
    </g>
  </g>
</svg>
