<svg xmlns="http://www.w3.org/2000/svg" viewBox="0 0 37.78 32.31"><defs><style>.cls-1{fill:#c88a12}</style></defs><g id="Layer_2" data-name="Layer 2"><g id="Layer_2-2" data-name="Layer 2"><path class="cls-1" d="M24.17 28.47a.66.66 0 0 0 .67-.66v-1.93h.75a1.12 1.12 0 0 0 1.12-1.12v-4.57a1.12 1.12 0 0 0-1.12-1.12h-.75v-2.15a.66.66 0 0 0-.67-.66.65.65 0 0 0-.66.66v2.15h-.76a1.12 1.12 0 0 0-1.12 1.12v4.57a1.13 1.13 0 0 0 1.12 1.12h.76v1.93a.65.65 0 0 0 .66.66ZM22.75 25a.23.23 0 0 1-.23-.23v-4.58a.23.23 0 0 1 .23-.24h2.84a.23.23 0 0 1 .23.24v4.57a.23.23 0 0 1-.23.23ZM30.6 30.33a.67.67 0 0 0 .67-.67v-1.93H32a1.12 1.12 0 0 0 1.12-1.12V14.34A1.12 1.12 0 0 0 32 13.22h-.75v-2.14a.67.67 0 0 0-.67-.67.66.66 0 0 0-.66.67v2.14h-.76a1.12 1.12 0 0 0-1.12 1.12v12.27a1.12 1.12 0 0 0 1.12 1.12h.76v1.93a.66.66 0 0 0 .68.67Zm-1.42-3.49a.23.23 0 0 1-.23-.23V14.34a.23.23 0 0 1 .23-.23H32a.23.23 0 0 1 .23.23v12.27a.23.23 0 0 1-.23.23ZM11.31 25.06a.67.67 0 0 0 .67-.67v-2.16h.75a1.12 1.12 0 0 0 1.12-1.12v-3.92a1.12 1.12 0 0 0-1.12-1.12H12v-1.8a.67.67 0 1 0-1.33 0v1.8h-.78a1.13 1.13 0 0 0-1.12 1.12v3.92a1.12 1.12 0 0 0 1.12 1.12h.76v2.16a.67.67 0 0 0 .66.67Zm-1.42-3.71a.24.24 0 0 1-.23-.24v-3.92a.23.23 0 0 1 .23-.19h2.84a.23.23 0 0 1 .23.23v3.92a.23.23 0 0 1-.23.24ZM17.74 25.56a.67.67 0 0 0 .67-.67V23h.75a1.12 1.12 0 0 0 1.12-1.12v-8.95a1.12 1.12 0 0 0-1.12-1.12h-.75V9.66a.67.67 0 0 0-1.33 0v2.15h-.76a1.12 1.12 0 0 0-1.12 1.12v8.91A1.12 1.12 0 0 0 16.32 23h.76v1.93a.67.67 0 0 0 .66.63Zm-1.42-3.49a.23.23 0 0 1-.23-.23v-8.91a.23.23 0 0 1 .23-.23h2.84a.23.23 0 0 1 .23.23v8.91a.23.23 0 0 1-.23.23Z"/><path class="cls-1" d="M37.14 31H5.52a.5.5 0 0 0 0-.13v-3.04h.78a1.12 1.12 0 0 0 1.12-1.12v-3.92a1.12 1.12 0 0 0-1.12-1.12h-.75v-1.8a.67.67 0 1 0-1.33 0v1.8h-.75a1.12 1.12 0 0 0-1.12 1.12v3.92a1.12 1.12 0 0 0 1.12 1.12h.75v3.06a.5.5 0 0 0 0 .13H.64a.65.65 0 0 0 0 1.29h36.5a.65.65 0 0 0 0-1.29ZM3.47 26.94a.23.23 0 0 1-.24-.23v-3.92a.23.23 0 0 1 .24-.23H6.3a.23.23 0 0 1 .24.23v3.92a.23.23 0 0 1-.24.23ZM.75 14.63a.75.75 0 0 0 .33-.07l16-7.94a.87.87 0 0 1 .83 0l5.19 2.79a1.24 1.24 0 0 0 1.21 0L35.15 3l-.64 1.53a.75.75 0 0 0 .41 1 .87.87 0 0 0 .32.06.78.78 0 0 0 .66-.46l1.5-3.61a.77.77 0 0 0 0-.66.74.74 0 0 0-.6-.38l-4-.47a.76.76 0 0 0-.8.65.75.75 0 0 0 .66.83l1.77.21-10.31 6.06a.88.88 0 0 1-.89 0L18.11 5A1.24 1.24 0 0 0 17 5L.42 13.21a.75.75 0 0 0-.34 1 .74.74 0 0 0 .67.42Z"/></g></g></svg>