<svg xmlns="http://www.w3.org/2000/svg" viewBox="0 0 29.79 39.73"><defs><style>.cls-1,.cls-2{fill:#c88a12;}.cls-1{fill-rule:evenodd;}</style></defs><title>Asset 9</title><g id="Layer_2" data-name="Layer 2"><g id="Layer_2-2" data-name="Layer 2"><path class="cls-1" d="M29.79,36.65V5.79a1.65,1.65,0,0,0-1.65-1.65h-5A5,5,0,0,0,18.21,0H11.59A5,5,0,0,0,6.7,4.14h-5A1.65,1.65,0,0,0,0,5.79V38.07a1.66,1.66,0,0,0,1.66,1.66H28.14a1.65,1.65,0,0,0,1.65-1.66V36.65H26.48v-.23H3.31v-29H6.62V9.1a1.66,1.66,0,0,0,1.66,1.66H21.52A1.65,1.65,0,0,0,23.17,9.1V7.45h3.31v29.2ZM21.52,9.2H8.28V4.83a2.21,2.21,0,0,1,2.2-2.21h8.83a2.21,2.21,0,0,1,2.21,2.21Z"/><path class="cls-2" d="M14.79,28.44a4.74,4.74,0,1,0-4.74-4.73A4.74,4.74,0,0,0,14.79,28.44Zm0-8.83a4.1,4.1,0,1,1-4.09,4.1A4.11,4.11,0,0,1,14.79,19.61Zm-1.1,5.83a1.58,1.58,0,0,0,.76.28v.19a.32.32,0,0,0,.64,0v-.22a1.29,1.29,0,0,0,.94-1,1.15,1.15,0,0,0-.78-1.29l-.16-.06v-1a.86.86,0,0,1,.34.13.34.34,0,0,0,.45-.11.31.31,0,0,0-.11-.44,1.76,1.76,0,0,0-.68-.23V21.5a.32.32,0,0,0-.64,0v.19l-.06,0a1.07,1.07,0,0,0-.73.83.94.94,0,0,0,.32.94,2,2,0,0,0,.47.28v1.31A1.05,1.05,0,0,1,14,24.9a.32.32,0,0,0-.45.09A.33.33,0,0,0,13.69,25.44ZM15.09,24a.48.48,0,0,1,.3.55.66.66,0,0,1-.3.44Zm-.72-1a.3.3,0,0,1-.07-.31.39.39,0,0,1,.15-.26V23Zm8.36-5.33a.35.35,0,0,1,0,.41L22,19a.33.33,0,1,1-.51-.41l.33-.4h-2a.33.33,0,0,1,0-.65h2l-.33-.4a.33.33,0,0,1,.05-.45.32.32,0,0,1,.46,0ZM7.07,29.77a.3.3,0,0,1,0-.4l.74-.93a.32.32,0,1,1,.5.4l-.32.4h2a.32.32,0,0,1,.32.33.32.32,0,0,1-.32.32H8l.32.4a.32.32,0,1,1-.5.41ZM5.92,31.2v-.11L4.67,32.34,5.92,33.6v-.11A.54.54,0,0,1,6.45,33h6.71a.32.32,0,0,1,.33.32.33.33,0,0,1-.33.33H6.56v.79a.31.31,0,0,1-.2.29A.32.32,0,0,1,6,34.61l-2-2a.31.31,0,0,1,0-.45l2-2A.31.31,0,0,1,6.36,30a.33.33,0,0,1,.2.3v.79h6.6a.33.33,0,1,1,0,.65H6.45A.54.54,0,0,1,5.92,31.2Zm15.19-7.49a6.32,6.32,0,0,1-10.67,4.58.33.33,0,0,1,.45-.47,5.62,5.62,0,0,0,3.9,1.56,5.68,5.68,0,1,0-4.69-2.49.32.32,0,0,1-.54.36,6.32,6.32,0,1,1,11.55-3.54Zm4.7-8.41-2,2a.34.34,0,0,1-.36.07.33.33,0,0,1-.2-.3v-.79h-6.6a.32.32,0,1,1,0-.64h6.71a.54.54,0,0,1,.54.53v.12l1.24-1.26-1.24-1.26v.12a.54.54,0,0,1-.54.53H21.75a.32.32,0,0,1,0-.64h1.48V13a.33.33,0,0,1,.2-.3.34.34,0,0,1,.36.07l2,2A.34.34,0,0,1,25.81,15.3Zm-9.5-1.16a.32.32,0,0,1,.32-.32h3.83a.32.32,0,0,1,0,.64H16.63A.32.32,0,0,1,16.31,14.14Z"/></g></g></svg>