<svg xmlns="http://www.w3.org/2000/svg" xmlns:xlink="http://www.w3.org/1999/xlink" viewBox="0 0 34.66 34.66">
    <defs>
        <linearGradient id="a" x1="16.24" y1="15.75" x2="43.45" y2="-11.46" gradientUnits="userSpaceOnUse">
            <stop offset="0" stop-color="#d7ae41"/>
            <stop offset=".03" stop-color="#d7ae41"/>
            <stop offset=".03" stop-color="#d8af42"/>
            <stop offset=".06" stop-color="#e6bf5e"/>
            <stop offset=".08" stop-color="#ebc568"/>
            <stop offset=".17" stop-color="#dab454"/>
            <stop offset=".25" stop-color="#cda745"/>
            <stop offset=".31" stop-color="#d2af4d"/>
            <stop offset=".4" stop-color="#e1c463"/>
            <stop offset=".44" stop-color="#ead06f"/>
            <stop offset=".58" stop-color="#f4eb85"/>
            <stop offset=".63" stop-color="#f4eb85"/>
            <stop offset=".7" stop-color="#edd973"/>
            <stop offset=".77" stop-color="#e6c861"/>
            <stop offset=".81" stop-color="#dcbc57"/>
            <stop offset=".85" stop-color="#d6b550"/>
            <stop offset="1" stop-color="#ab832e"/>
        </linearGradient>
        <linearGradient id="b" x1="-5.09" y1="15.75" x2="22.12" y2="-11.46" xlink:href="#a"/>
        <linearGradient id="c" x1="-60.86" y1="98.19" x2="120.17" y2="-82.85" xlink:href="#a"/>
        <linearGradient id="d" x1="-27.63" y1="63.73" x2="77.22" y2="-41.12" xlink:href="#a"/>
    </defs>
    <g data-name="Layer 2">
        <path d="M28 8a1.34 1.34 0 0 0 1.34-1.34V1.33a1.34 1.34 0 0 0-2.67 0v5.33A1.34 1.34 0 0 0 28 8Z" style="fill:url(#a)"/>
        <path d="M6.66 8A1.34 1.34 0 0 0 8 6.66V1.33a1.34 1.34 0 0 0-2.67 0v5.33A1.34 1.34 0 0 0 6.66 8Z" style="fill:url(#b)"/>
        <path d="M34.6 7.67a2.9 2.9 0 0 0-2.83-2.34h-1.11v1.33a2.67 2.67 0 1 1-5.33 0V5.33h-16v1.33a2.67 2.67 0 1 1-5.33 0V5.33H2.89A2.93 2.93 0 0 0 0 8.26v23.47a2.91 2.91 0 0 0 2.89 2.93h28.88a2.92 2.92 0 0 0 2.89-2.93V8.26a2.88 2.88 0 0 0-.06-.59ZM9.52 32H7.78v-6.94h1.74Zm4.34 0h-1.74v-8.67h1.74Zm4.34 0h-1.74V21.59h1.74Zm4.34 0H20.8v-9.1h1.74Zm4.34 0h-1.74V19.42h1.74ZM32 14.84v16.89a.25.25 0 0 1-.22.26h-4V19a.44.44 0 0 0-.44-.44h-2.6a.44.44 0 0 0-.44.44v13h-.86v-9.54A.44.44 0 0 0 23 22h-2.6a.44.44 0 0 0-.44.44V32h-.86V21.16a.44.44 0 0 0-.44-.44H16a.44.44 0 0 0-.44.44V32h-.87v-9.1a.43.43 0 0 0-.43-.43h-2.6a.44.44 0 0 0-.44.43V32h-.87v-7.37a.44.44 0 0 0-.43-.44H7.35a.44.44 0 0 0-.44.44V32h-4a.25.25 0 0 1-.22-.26v-20H32Z" style="fill:url(#c)"/>
        <path d="M5.61 23.76a.33.33 0 0 0 .17 0l1.91-.81a1.31 1.31 0 0 0 1.84.05 1.28 1.28 0 0 0 .47-1l2-.85a1.3 1.3 0 0 0 2.28-.86v-.06l2.06-.82a1.31 1.31 0 0 0 1.84.12 1.29 1.29 0 0 0 .19-.21l2 .6a1.3 1.3 0 1 0 2.6-.13 1.24 1.24 0 0 0-.11-.46L25.3 17a1.3 1.3 0 0 0 1.84-1.74l1.47-1.39v.3a.44.44 0 0 0 .44.43.43.43 0 0 0 .43-.43v-1.3a.44.44 0 0 0-.43-.44h-1.3a.44.44 0 0 0-.44.44.44.44 0 0 0 .44.43H28l-1.47 1.39a1.31 1.31 0 0 0-1.69.75 1.33 1.33 0 0 0 0 .86l-2.5 2.36a1.3 1.3 0 0 0-1.65.39l-2-.6a1.3 1.3 0 0 0-2.6.06v.05l-2.09.87a1.3 1.3 0 0 0-2.28.86v.05l-2.06.83A1.3 1.3 0 0 0 7.79 21a1.32 1.32 0 0 0-.44 1v.09l-1.91.82a.43.43 0 0 0 .17.83ZM26 15.51a.44.44 0 0 1 .43.44.43.43 0 1 1-.86 0 .44.44 0 0 1 .43-.44Zm-4.34 3.91a.43.43 0 0 1 .43.43.43.43 0 1 1-.86 0 .43.43 0 0 1 .44-.43Zm-4.34-1.3a.43.43 0 0 1 .43.43.44.44 0 0 1-.43.44.44.44 0 1 1 0-.87ZM13 19.85a.44.44 0 0 1 .43.44.43.43 0 0 1-.43.43.44.44 0 0 1-.44-.43.44.44 0 0 1 .44-.44Zm-4.35 1.74a.43.43 0 0 1 .43.43.44.44 0 0 1-.43.44.44.44 0 0 1-.44-.46.44.44 0 0 1 .44-.41Z" style="fill:url(#d)"/>
    </g>
</svg>
