<svg xmlns="http://www.w3.org/2000/svg" viewBox="0 0 42.41 37.15">
    <defs>
        <linearGradient id="a" x1="-6.08" y1="-8.21" x2="39.41" y2="37.28" gradientUnits="userSpaceOnUse">
            <stop offset="0" stop-color="#d7ae41"/>
            <stop offset=".03" stop-color="#d7ae41"/>
            <stop offset=".03" stop-color="#d8af42"/>
            <stop offset=".06" stop-color="#e6bf5e"/>
            <stop offset=".08" stop-color="#ebc568"/>
            <stop offset=".17" stop-color="#dab454"/>
            <stop offset=".25" stop-color="#cda745"/>
            <stop offset=".31" stop-color="#d2af4d"/>
            <stop offset=".4" stop-color="#e1c463"/>
            <stop offset=".44" stop-color="#ead06f"/>
            <stop offset=".58" stop-color="#f4eb85"/>
            <stop offset=".63" stop-color="#f4eb85"/>
            <stop offset=".7" stop-color="#edd973"/>
            <stop offset=".77" stop-color="#e6c861"/>
            <stop offset=".81" stop-color="#dcbc57"/>
            <stop offset=".85" stop-color="#d6b550"/>
            <stop offset="1" stop-color="#ab832e"/>
        </linearGradient>
    </defs>
    <path d="M36.74 15V3.5a3.5 3.5 0 0 0-3.5-3.5H3.5A3.5 3.5 0 0 0 0 3.5V29a3.5 3.5 0 0 0 3.5 3.5H21A12 12 0 1 0 36.74 15ZM1.84 29V11.33l4.76 2.54v.07A1.68 1.68 0 0 0 10 14l3.52-1.85a1.68 1.68 0 0 0 2.37.16 1.32 1.32 0 0 0 .21-.31l1.54.47 1 .31a1.68 1.68 0 1 0 3.36-.13 1.81 1.81 0 0 0-.1-.65l3.15-3a1.69 1.69 0 0 0 2.33-.48 1.67 1.67 0 0 0 .05-1.76L29.34 5v.39a.56.56 0 0 0 1.12 0V3.74a.56.56 0 0 0-.56-.56h-1.68a.56.56 0 1 0 0 1.12h.27l-1.91 1.8a1.69 1.69 0 0 0-2.18 1 1.63 1.63 0 0 0 0 1.11l-3.24 3.05a1.68 1.68 0 0 0-2.13.5l-1.36-.41-1.24-.35a1.69 1.69 0 0 0-3.37.08v.07l-3.43 1.79a1.55 1.55 0 0 0-.24-.27 1.68 1.68 0 0 0-2.39.16l-5.16-2.71V3.5A1.67 1.67 0 0 1 3.5 1.84h29.74A1.67 1.67 0 0 1 34.9 3.5v10.56a11.87 11.87 0 0 0-4.47-.88A12 12 0 0 0 18.59 23.4h-.74v-2.22a.69.69 0 1 0-1.37 0v2.22h-.79a1.16 1.16 0 0 0-1.16 1.16v4.07a1.16 1.16 0 0 0 1.16 1.16h.79v.85H6.24v-2.28H7a1.16 1.16 0 0 0 1.18-1.16v-4.06A1.16 1.16 0 0 0 7 22h-.76v-1.9a.69.69 0 1 0-1.38 0V22h-.78a1.16 1.16 0 0 0-1.16 1.16v4.04a1.16 1.16 0 0 0 1.16 1.16h.78v2.28H3.5A1.66 1.66 0 0 1 1.84 29Zm5.88-15a.56.56 0 1 1 .56.56.56.56 0 0 1-.56-.62Zm6.46-3a.57.57 0 0 1 .57-.56.56.56 0 0 1 0 1.12.57.57 0 0 1-.57-.56Zm5.62 1.68a.56.56 0 1 1 .56.56.56.56 0 0 1-.56-.52Zm5.61-5.05a.56.56 0 1 1 .56.56.56.56 0 0 1-.56-.52Zm-6.53 20.68v.32a.24.24 0 0 1-.24.24h-3a.24.24 0 0 1-.24-.24v-4.07a.24.24 0 0 1 .24-.24h2.8v.85a11.61 11.61 0 0 0 .44 3.14Zm-14.8-.87a.24.24 0 0 1-.24-.24v-4.06a.24.24 0 0 1 .24-.25H7a.25.25 0 0 1 .24.25v4.06a.24.24 0 0 1-.24.24Zm13.77 3.2v-.85h.79a1.16 1.16 0 0 0 .65-.23c.15.37.31.73.49 1.08Zm19.56 1.93c-.13-1.65-.56-3.83-1.94-5H34a1.16 1.16 0 0 1-1.05-.36 3 3 0 0 1-.41-1.12 4 4 0 0 0 .87-1.51 1 1 0 0 0 .49-.56 2.94 2.94 0 0 0 .1-1.14v-.14l-.11-.08h-.07c.26-1.88 0-2.76-.78-3.43a4.53 4.53 0 0 0-5-.1c-.88.64-1.19 1.78-1 3.49l-.13.08-.12.08v.14A2.67 2.67 0 0 0 27 24a1.08 1.08 0 0 0 .47.57 4 4 0 0 0 .81 1.43 2.68 2.68 0 0 1-.56 1.37 1.75 1.75 0 0 1-.95.13h-1.41a8.24 8.24 0 0 0-1.94 5.08 10.18 10.18 0 1 1 14 0ZM9.89 25.86h.78v2a.69.69 0 1 0 1.38 0v-2h.78A1.16 1.16 0 0 0 14 24.7v-4.06a1.16 1.16 0 0 0-1.16-1.16h-.78v-2.23a.69.69 0 0 0-1.38 0v2.23h-.79a1.17 1.17 0 0 0-1.17 1.16v4.06a1.17 1.17 0 0 0 1.17 1.16Zm-.25-5.22a.25.25 0 0 1 .25-.24h2.94a.24.24 0 0 1 .24.24v4.06a.25.25 0 0 1-.24.25H9.89a.25.25 0 0 1-.25-.25Z" style="fill:url(#a)" data-name="Layer 2"/>
</svg>
