<svg xmlns="http://www.w3.org/2000/svg" width="105.18" height="21.853" viewBox="0 0 105.18 21.853">
  <g id="Layer_2" data-name="Layer 2" transform="translate(0 0.003)">
    <g id="Layer_2-2" data-name="Layer 2">
      <path id="Path_9" data-name="Path 9" d="M8.05,4.08A20.86,20.86,0,0,0,2,5.22L0,16.74H3.63l1.59-9.1A6.9,6.9,0,0,1,7.4,7.29c1.14,0,1.8.56,1.8,1.52a3.48,3.48,0,0,1-.06.69L7.88,16.74h3.63L12.79,9.4a11.19,11.19,0,0,0,.14-1.61c0-2.57-1.51-3.71-4.88-3.71" fill="#fff"/>
      <path id="Path_10" data-name="Path 10" d="M32,4.08a13.35,13.35,0,0,0-5,1.1L24,21.85h3.64l.95-5.32a9.92,9.92,0,0,0,2.28.39c4.55.09,6.83-2.65,7-7.08.11-3.62-1.93-5.76-5.86-5.76M30.71,14a4.59,4.59,0,0,1-1.62-.37l1-5.9a4.28,4.28,0,0,1,1.72-.39c1.69,0,2.56.92,2.37,2.7-.26,2.38-1.12,4.05-3.51,4" fill="#fff"/>
      <path id="Path_11" data-name="Path 11" d="M59.86,12.76c0-1.91-1.08-3-3.86-3.78-.73-.2-1.33-.42-1.33-1.09,0-.36.19-1,1.5-1a5.18,5.18,0,0,1,3.5,1.4l.57-3.06a6.54,6.54,0,0,0-4.07-1.19c-2.48,0-5.12,1.1-5.12,4.2,0,2.25,1.45,3.1,3.63,3.67,1.06.29,1.54.52,1.54,1.15s-.57,1.08-1.56,1.08a6.51,6.51,0,0,1-4.09-1.68L50,15.58A7.27,7.27,0,0,0,54.69,17c3.24,0,5.17-1.6,5.17-4.27" fill="#fff"/>
      <path id="Path_12" data-name="Path 12" d="M24,5.47c-.81-.92-2.48-1.39-4.63-1.39a15.76,15.76,0,0,0-4.25.76l-.46,2.87a15.83,15.83,0,0,1,3.61-.61c1,0,2.07,0,2.55.54a1.08,1.08,0,0,1,.22.9L21,9.1H19.46c-2.76,0-6.05.8-6.05,4.06S16.73,17,18.74,17a19.13,19.13,0,0,0,4.54-.59l1.29-7.37c.12-.73.43-2.49-.55-3.6m-4,8.9a4.11,4.11,0,0,1-1.3.15A1.6,1.6,0,0,1,17,12.91c0-.74.42-1.73,2.43-1.73h1.19Z" fill="#fff"/>
      <path id="Path_13" data-name="Path 13" d="M49.05,5.47c-.81-.92-2.48-1.39-4.62-1.39a15.76,15.76,0,0,0-4.26.76l-.46,2.87a15.83,15.83,0,0,1,3.61-.61c1,0,2.07,0,2.55.54a1.08,1.08,0,0,1,.22.9c0,.14-.07.56-.07.56H44.49c-2.76,0-6.05.8-6.05,4.06S41.76,17,43.77,17a19.13,19.13,0,0,0,4.54-.59L49.6,9.07c.12-.73.43-2.49-.55-3.6m-4,8.9a4.11,4.11,0,0,1-1.3.15A1.6,1.6,0,0,1,42,12.91c0-.74.42-1.73,2.43-1.73h1.2Z" fill="#fff"/>
      <path id="Path_14" data-name="Path 14" d="M64.43,16.79l.7-3.27,1.55-.9c.55-.33,1-.64,1.49-.94A23.2,23.2,0,0,0,71,9.51q.51-.45,1-.9c.36-.36.67-.71,1-1A5.87,5.87,0,0,0,74.19,5.3C74.41,4.23,74,3.7,73,3.7a2,2,0,0,0-1.66.84,4.74,4.74,0,0,0-.79,1.76h-4a10.361,10.361,0,0,1,.64-2,7.71,7.71,0,0,1,1.14-1.82A7.1,7.1,0,0,1,70.9.61a7.57,7.57,0,0,1,3-.61,5.6,5.6,0,0,1,2.9.7,3.46,3.46,0,0,1,1.68,2.19,4.35,4.35,0,0,1,0,1.9,7.9,7.9,0,0,1-1.06,2.52,12.74,12.74,0,0,1-1.77,2.24,26.6,26.6,0,0,1-2.19,2l-1.14.89c-.3.23-.67.51-1.13.84h5.59l-.75,3.54Z" fill="#fff"/>
      <path id="Path_15" data-name="Path 15" d="M86.58,6.44l-.89,4.16h-3.3l3.92-4.65L84.94,3.36l-6.82,7.46-.65,3.08h7.26l-.62,2.89h4.03l.62-2.89h1.76Z" fill="#fff"/>
      <path id="Path_16" data-name="Path 16" d="M86.75,5.44h.04l-.22,1,3.95,7.46h.06l.7-3.29H89.45L91.65.3H87.73L84.94,3.36l1.37,2.59Z" fill="#a3ca3a"/>
      <path id="Path_17" data-name="Path 17" d="M95.89,16.79,104.5,3.54,105.18.3H94.45l-.76,3.55h6.4L91.26,16.79Z" fill="#a3ca3a"/>
    </g>
  </g>
</svg>
