<svg xmlns="http://www.w3.org/2000/svg" width="141.016" height="118.221" viewBox="0 0 141.016 118.221">
  <g id="Group_4732" data-name="Group 4732" transform="translate(-12.782 -86.411)" opacity="0.7">
    <g id="Group_4731" data-name="Group 4731">
      <g id="Group_4714" data-name="Group 4714">
        <path id="Path_3290" data-name="Path 3290" d="M48.9,170.186a1.139,1.139,0,0,1-.962-.342.787.787,0,0,1-.07-.728,7.1,7.1,0,0,1,.962-1.762c.237-.356.6-.891.547-1.018a.182.182,0,0,0-.16-.1c-.3,0-.915.529-1.415.99-1.075.989-1.757,1.59-2.18,1.59a.383.383,0,0,1-.276-.111.572.572,0,0,1-.128-.439v-.022a28.042,28.042,0,0,1,1.91-8.517,7.648,7.648,0,0,1,.32-.788,5.778,5.778,0,0,1,.615-.933,31.306,31.306,0,0,1,4.537-3.955A72.331,72.331,0,0,1,42.552,149.6a.623.623,0,0,1-.314-.393.637.637,0,0,1,.1-.5,39.729,39.729,0,0,1,5.1-5.038c.534-.478,1.051-.94,1.519-1.369a52.4,52.4,0,0,1,7.424-5.3l1.117-.708A55.708,55.708,0,0,1,73.6,129.7c.334-.071,1.282-.248,1.523-.275.406-.045.9-.062.918-.062.248,0,.433,0,.624,0l.294,0a4.923,4.923,0,0,1,.981.082,4.618,4.618,0,0,1,2,.776,52.371,52.371,0,0,0,11.044,6.668c1.454.754,2.106,1.5,1.949,2.208a1.422,1.422,0,0,1-.588.8,12.876,12.876,0,0,1-3.259,1.544c-.935.342-2,.729-2.005,1.062a.665.665,0,0,0,.03.245c.069.192.29.45,1.417.45a18.24,18.24,0,0,0,2.01-.149,33.387,33.387,0,0,1,3.448-.29,2.1,2.1,0,0,1,1.424.312c.163.163.278.457-.1.947-.012.015-.02.027-.028.039A50.843,50.843,0,0,1,83.4,154.517a12.368,12.368,0,0,1-1.305.811,10.26,10.26,0,0,1-1.853.7A57.008,57.008,0,0,1,69.76,157h0c-1.337,0-2.692-.048-4.028-.141-.249.685-.524,1.368-.788,2.03l-.255.641a30.682,30.682,0,0,1-5.045,8.151c-.126.14-.5.529-.593.619-.17.154-.386.323-.394.33-.111.078-.2.145-.287.207a3.3,3.3,0,0,1-.6.381,2.687,2.687,0,0,1-1.136.312H56.59c-.341-.011-.683-.015-1.02-.015a26.533,26.533,0,0,0-6.025.617A4.352,4.352,0,0,1,48.9,170.186Zm.317-4.35a.582.582,0,0,1,.492.275c.221.324-.1.8-.547,1.467a6.845,6.845,0,0,0-.91,1.656.425.425,0,0,0,.008.372c.128.172.578.224,1.205.132a26.869,26.869,0,0,1,6.1-.625c.341,0,.686,0,1.03.014h.035a2.318,2.318,0,0,0,.969-.276,2.864,2.864,0,0,0,.525-.337c.09-.065.184-.136.29-.209h0s.206-.162.361-.3c.081-.076.438-.451.564-.59a30.3,30.3,0,0,0,4.975-8.037l.253-.638c.283-.705.574-1.434.833-2.16l.053-.143.151.011c1.377.1,2.772.152,4.151.152h0a56.582,56.582,0,0,0,10.406-.967,10.081,10.081,0,0,0,1.734-.657,12.085,12.085,0,0,0,1.275-.792,50.484,50.484,0,0,0,11.789-10.362c.007-.01.02-.029.037-.051.108-.139.219-.327.133-.414s-.323-.2-1.142-.2a33.816,33.816,0,0,0-3.4.285,18.062,18.062,0,0,1-2.055.152c-.718,0-1.57-.081-1.794-.717a1.05,1.05,0,0,1-.054-.391c.015-.6.96-.948,2.267-1.426a12.6,12.6,0,0,0,3.159-1.488,1.045,1.045,0,0,0,.436-.565c.11-.5-.5-1.123-1.728-1.76A52.687,52.687,0,0,1,79.7,130.538a4.217,4.217,0,0,0-1.839-.7,4.483,4.483,0,0,0-.9-.074h-.291c-.194,0-.4.006-.625,0,0,0-.485.017-.876.061-.207.022-1.129.193-1.479.266A55.251,55.251,0,0,0,57.7,136.629l-1.117.706a52.157,52.157,0,0,0-7.367,5.255c-.469.43-.987.893-1.522,1.372a39.661,39.661,0,0,0-5.025,4.958.239.239,0,0,0-.044.187.227.227,0,0,0,.118.137A72.065,72.065,0,0,0,53.1,153.8l.371.13-.322.224a30.944,30.944,0,0,0-4.792,4.128,5.407,5.407,0,0,0-.545.827,7.283,7.283,0,0,0-.306.756,27.739,27.739,0,0,0-1.887,8.385v.022a.446.446,0,0,0,.013.141,7.706,7.706,0,0,0,1.9-1.482C48.4,166.133,48.861,165.836,49.221,165.836Z" fill="#fff"/>
      </g>
      <g id="Group_4715" data-name="Group 4715">
        <path id="Path_3291" data-name="Path 3291" d="M94.049,135.466h0a1.315,1.315,0,0,1-.433-.088l-.048-.017a50.941,50.941,0,0,1-13.619-8.074,12.754,12.754,0,0,1-1.176-.991,9.96,9.96,0,0,1-1.236-1.548,56.9,56.9,0,0,1-6.035-17.07l-.155-.927c-.994-6.057-.386-14.325.657-19.831a.6.6,0,0,1,.6-.509.743.743,0,0,1,.19.026,39.667,39.667,0,0,1,6.37,3.29c.618.359,1.216.707,1.767,1.019a52.652,52.652,0,0,1,7.349,5.435l1,.831a55.69,55.69,0,0,1,11.245,13.29c.162.284.63,1.139.731,1.363.168.372.337.834.344.853.067.225.133.417.193.6a5.766,5.766,0,0,1,.317,1.234,4.611,4.611,0,0,1-.118,2.145A52.578,52.578,0,0,0,99.071,129c-.278,1.731-.817,2.6-1.6,2.6a1.5,1.5,0,0,1-.848-.316,12.924,12.924,0,0,1-2.476-2.623c-.61-.779-1.242-1.587-1.584-1.587a.163.163,0,0,0-.045.007.505.505,0,0,0-.352.271c-.245.533.289,1.846.9,3.186,1.157,2.525,1.833,4.1,1.454,4.692A.523.523,0,0,1,94.049,135.466ZM72.6,86.813a.2.2,0,0,0-.2.182c-1,5.294-1.635,13.714-.655,19.691l.153.923a56.488,56.488,0,0,0,5.993,16.948A9.738,9.738,0,0,0,79.049,126a12.444,12.444,0,0,0,1.148.968A50.569,50.569,0,0,0,93.7,134.984l.051.018a.938.938,0,0,0,.294.063h0c.1,0,.122-.034.132-.051.288-.449-.735-2.681-1.481-4.31-.915-2-1.161-2.954-.9-3.518a.9.9,0,0,1,.605-.489.516.516,0,0,1,.158-.023c.538,0,1.109.73,1.9,1.739a12.6,12.6,0,0,0,2.392,2.544,1.119,1.119,0,0,0,.617.242c.734,0,1.071-1.408,1.206-2.248a52.926,52.926,0,0,1,2.936-12.59,4.222,4.222,0,0,0,.1-1.966,5.444,5.444,0,0,0-.3-1.152c-.063-.184-.128-.381-.194-.6h0s-.167-.458-.329-.814c-.087-.195-.542-1.03-.711-1.325A55.221,55.221,0,0,0,89.019,97.32l-1-.831a52.414,52.414,0,0,0-7.29-5.395c-.551-.312-1.15-.661-1.769-1.02a39.6,39.6,0,0,0-6.273-3.249A.3.3,0,0,0,72.6,86.813Z" fill="#fff"/>
      </g>
      <g id="Group_4716" data-name="Group 4716">
        <path id="Path_3292" data-name="Path 3292" d="M107.853,134.415a1.927,1.927,0,0,1-1.62-.554,1.277,1.277,0,0,1-.1-1.179,12.96,12.96,0,0,1,1.728-3.163c.556-.828,1.19-1.766,1-2.041a.486.486,0,0,0-.427-.254c-.6,0-1.693.933-2.687,1.846-1.874,1.722-3.152,2.851-3.862,2.851h0a.516.516,0,0,1-.382-.152.9.9,0,0,1-.189-.679v-.049a50.913,50.913,0,0,1,3.469-15.45,13.265,13.265,0,0,1,.579-1.423,9.937,9.937,0,0,1,1.09-1.654A56.834,56.834,0,0,1,120.82,101.5l.832-.433c5.455-2.818,13.506-4.8,19.064-5.5a.6.6,0,0,1,.7.594,39.545,39.545,0,0,1-1.161,7.079c-.15.7-.295,1.372-.423,1.992a52.56,52.56,0,0,1-2.906,8.688l-.472,1.19a55.664,55.664,0,0,1-9.163,14.8c-.229.253-.9.957-1.069,1.116-.305.275-.691.578-.708.592-.192.133-.354.252-.507.368a5.776,5.776,0,0,1-1.076.682,4.7,4.7,0,0,1-2,.552h-.078c-.62-.018-1.243-.026-1.855-.026a48.621,48.621,0,0,0-11.019,1.128A7.71,7.71,0,0,1,107.853,134.415Zm.577-7.592a.891.891,0,0,1,.759.429c.344.5-.219,1.334-1,2.49a12.759,12.759,0,0,0-1.678,3.058.912.912,0,0,0,.043.822c.278.378,1.125.486,2.351.305A48.9,48.9,0,0,1,120,132.79c.615,0,1.242.009,1.865.027h.068a4.3,4.3,0,0,0,1.831-.516,5.337,5.337,0,0,0,1-.64c.157-.116.322-.239.51-.369h0s.383-.3.673-.564c.153-.141.8-.821,1.039-1.085a55.323,55.323,0,0,0,9.094-14.687l.471-1.19a52.232,52.232,0,0,0,2.884-8.619c.128-.62.273-1.3.423-2a39.558,39.558,0,0,0,1.154-6.971.209.209,0,0,0-.251-.22c-5.343.682-13.548,2.682-18.93,5.463l-.829.431a56.453,56.453,0,0,0-14.269,10.937,9.82,9.82,0,0,0-1.017,1.55,12.155,12.155,0,0,0-.566,1.391,50.472,50.472,0,0,0-3.444,15.321l0,.048c-.006.273.051.363.076.389a.119.119,0,0,0,.1.031c.605,0,2.259-1.521,3.59-2.745C107.02,127.352,107.821,126.823,108.43,126.823Z" fill="#fff"/>
      </g>
      <g id="Group_4717" data-name="Group 4717">
        <path id="Path_3293" data-name="Path 3293" d="M140.76,165.9h0c-1.891,0-3.8-.128-5.639-.252l-1.294-.084a55.676,55.676,0,0,1-16.909-4.139c-.311-.138-1.18-.553-1.393-.674-.354-.2-.763-.476-.78-.488-.183-.14-.347-.255-.5-.365a5.626,5.626,0,0,1-.987-.817,4.552,4.552,0,0,1-1.166-1.8,52.256,52.256,0,0,0-5.029-11.9c-.628-1.262-.776-2.165-.451-2.7a1.242,1.242,0,0,1,1.13-.523h.078a13.276,13.276,0,0,1,3.467.667,8.6,8.6,0,0,0,1.9.419c.125,0,.285-.017.347-.1a.5.5,0,0,0,.127-.427c-.117-.573-1.319-1.321-2.6-2.045-2.5-1.407-4.013-2.314-3.932-3.029.029-.257.244-.445.64-.562l.039-.012a45.909,45.909,0,0,1,12.675-1.55c1.024,0,2.067.024,3.1.072a12.748,12.748,0,0,1,1.531.111,10.1,10.1,0,0,1,1.911.525,56.859,56.859,0,0,1,14.917,10.263l.669.66c4.366,4.315,8.733,11.359,11.127,16.427a.63.63,0,0,1,.023.5.638.638,0,0,1-.374.35,39.694,39.694,0,0,1-7.11,1.086c-.7.071-1.383.14-2.007.21A32.057,32.057,0,0,1,140.76,165.9Zm-25.781-5.963s.406.274.745.466c.18.1,1.028.508,1.353.655a55.278,55.278,0,0,0,16.779,4.107l1.292.083c1.836.123,3.735.251,5.612.251h0a32,32,0,0,0,3.461-.173c.624-.07,1.306-.139,2.009-.211a40,40,0,0,0,7.009-1.061.242.242,0,0,0,.145-.127.233.233,0,0,0-.013-.18c-2.3-4.872-6.739-12.056-11.046-16.314l-.668-.657a56.438,56.438,0,0,0-14.809-10.188,10.006,10.006,0,0,0-1.791-.491,13.054,13.054,0,0,0-1.5-.107c-1.029-.047-2.065-.071-3.083-.071a46.168,46.168,0,0,0-12.569,1.535l-.035.011c-.209.063-.342.146-.351.223-.057.5,2.221,1.785,3.728,2.634,1.919,1.081,2.677,1.708,2.8,2.314a.905.905,0,0,1-.2.752.783.783,0,0,1-.666.254,8.633,8.633,0,0,1-2.01-.434,13.01,13.01,0,0,0-3.355-.652h-.073a.868.868,0,0,0-.793.33c-.241.4-.078,1.211.46,2.3a52.587,52.587,0,0,1,5.062,11.981,4.237,4.237,0,0,0,1.077,1.647,5.479,5.479,0,0,0,.923.76c.158.112.325.23.5.366Z" fill="#fff"/>
      </g>
      <g id="Group_4718" data-name="Group 4718">
        <path id="Path_3294" data-name="Path 3294" d="M92.638,197.159a.629.629,0,0,1-.487-.247,39.564,39.564,0,0,1-3.218-6.4c-.29-.655-.571-1.292-.834-1.871a52.568,52.568,0,0,1-2.754-8.726l-.32-1.251a55.634,55.634,0,0,1-1.287-17.36c.035-.338.16-1.3.207-1.531.084-.4.219-.875.226-.9.075-.219.134-.411.192-.592a5.7,5.7,0,0,1,.47-1.188,4.589,4.589,0,0,1,1.356-1.667,52.251,52.251,0,0,0,9.767-8.462,3.619,3.619,0,0,1,2.18-1.291c.351,0,.824.164,1.09.941a12.825,12.825,0,0,1,.46,3.579c.037.995.078,2.123.391,2.235a.668.668,0,0,0,.227.044c.6,0,.976-1.264,1.358-3.164.642-3.185,1.025-4.685,1.762-4.685.225,0,.432.145.636.444.01.013.016.024.025.037a50.788,50.788,0,0,1,6.28,14.542,12.969,12.969,0,0,1,.369,1.492,10.127,10.127,0,0,1,.089,1.98,56.863,56.863,0,0,1-5.15,17.358l-.419.84c-2.756,5.486-8.106,11.817-12.187,15.66A.621.621,0,0,1,92.638,197.159ZM84.551,159s-.133.47-.214.852c-.04.208-.163,1.137-.2,1.489a55.277,55.277,0,0,0,1.281,17.227l.316,1.248a52.581,52.581,0,0,0,2.731,8.66c.265.58.546,1.217.836,1.873a39.632,39.632,0,0,0,3.162,6.31.241.241,0,0,0,.177.1.227.227,0,0,0,.155-.071c3.923-3.693,9.383-10.133,12.1-15.546l.418-.837a56.456,56.456,0,0,0,5.114-17.234,10.047,10.047,0,0,0-.087-1.854,12.875,12.875,0,0,0-.362-1.458,50.433,50.433,0,0,0-6.227-14.431l.15-.134-.168.111c-.175-.257-.28-.277-.309-.277-.49,0-1.041,2.732-1.369,4.364-.455,2.261-.869,3.487-1.751,3.487a1.065,1.065,0,0,1-.362-.069c-.569-.2-.606-1.207-.655-2.6a12.683,12.683,0,0,0-.441-3.463c-.228-.67-.59-.67-.71-.67a3.338,3.338,0,0,0-1.888,1.165,52.7,52.7,0,0,1-9.832,8.518,4.238,4.238,0,0,0-1.235,1.534,5.4,5.4,0,0,0-.436,1.109c-.057.185-.119.382-.194.595Z" fill="#fff"/>
      </g>
      <g id="Group_4719" data-name="Group 4719">
        <path id="Path_3295" data-name="Path 3295" d="M101.184,146.077c-.211,0-.283-.1-.327-1.343a34.491,34.491,0,0,0-.667-5.539,26.184,26.184,0,0,1-5.377,2.337,6.17,6.17,0,0,1-1.126.275.222.222,0,0,1-.242-.179c-.029-.162-.046-.251,1.182-.7a34.612,34.612,0,0,0,5.005-2.313,26.132,26.132,0,0,1-3.9-4.408c-.7-.989-.656-1.074-.6-1.181l.056-.108.131-.006c.1,0,.2,0,.93.932a34.416,34.416,0,0,0,3.832,4.127,26.011,26.011,0,0,1,3.014-5.135c.7-.94.8-.94.9-.94h.122l.065.112c.058.11.1.189-.586,1.208a34.574,34.574,0,0,0-2.706,4.85,26.093,26.093,0,0,1,5.752,1.274c1.221.413,1.206.5,1.179.667a.225.225,0,0,1-.249.183h0a6.472,6.472,0,0,1-1.136-.255,34.144,34.144,0,0,0-5.525-1.084,26.191,26.191,0,0,1,.574,5.892C101.472,145.967,101.4,146.077,101.184,146.077Zm-.937-7.46.052.044.137-.083-.037-.149-.073-.006Z" fill="#fff"/>
      </g>
      <g id="Group_4720" data-name="Group 4720">
        <path id="Path_3296" data-name="Path 3296" d="M50.867,122.47h0a13.234,13.234,0,0,1-1.767-.12l-.214-.031a14.868,14.868,0,0,1-4.321-1.562.306.306,0,0,1-.149-.187.3.3,0,0,1,.041-.236,8.721,8.721,0,0,1,1.2-1.187c.121-.109.238-.213.345-.311a12.131,12.131,0,0,1,1.709-1.223l.266-.168a12.9,12.9,0,0,1,3.736-1.528c.08-.017.3-.059.366-.066.1-.012.224-.015.224-.015h.212a1.288,1.288,0,0,1,.258.021,1.221,1.221,0,0,1,.521.206,11.745,11.745,0,0,0,2.494,1.506c.164.085.617.323.536.683a.467.467,0,0,1-.192.273,3.115,3.115,0,0,1-.785.374c-.082.03-.182.067-.259.1a3.185,3.185,0,0,0,.52-.031,7.968,7.968,0,0,1,.807-.066.589.589,0,0,1,.433.114.3.3,0,0,1,0,.413l-.011.019a11.875,11.875,0,0,1-2.76,2.428,2.982,2.982,0,0,1-.312.193,2.5,2.5,0,0,1-.468.176A13.22,13.22,0,0,1,50.867,122.47Zm-6.006-2.01a14.544,14.544,0,0,0,4.084,1.462l.212.031a12.819,12.819,0,0,0,4.062-.1,2.331,2.331,0,0,0,.35-.133,2.844,2.844,0,0,0,.28-.174,11.688,11.688,0,0,0,2.584-2.24c-.18,0-.465.028-.783.064a4.16,4.16,0,0,1-.487.035h0c-.126,0-.461,0-.556-.267a.384.384,0,0,1-.02-.149c.007-.238.276-.338.62-.463a2.713,2.713,0,0,0,.682-.319c.029-.021.041-.036.042-.041h0s-.045-.09-.315-.232a12.09,12.09,0,0,1-2.567-1.549,1.029,1.029,0,0,0-.536-.146l-.15,0H52.3c.005,0-.1,0-.181.013-.038,0-.239.041-.323.057a12.548,12.548,0,0,0-3.612,1.478l-.264.167a11.762,11.762,0,0,0-1.653,1.181l-.347.311A12.887,12.887,0,0,0,44.861,120.46Z" fill="#fff"/>
      </g>
      <g id="Group_4721" data-name="Group 4721">
        <path id="Path_3297" data-name="Path 3297" d="M56.425,117.541h0a.442.442,0,0,1-.152-.029,11.758,11.758,0,0,1-3.172-1.877,3.088,3.088,0,0,1-.28-.236,2.289,2.289,0,0,1-.311-.392,13.187,13.187,0,0,1-1.4-3.952l-.035-.214a14.865,14.865,0,0,1,.152-4.593.3.3,0,0,1,.37-.232,8.7,8.7,0,0,1,1.493.768c.141.082.279.162.406.233a12.052,12.052,0,0,1,1.708,1.263l.226.188a12.9,12.9,0,0,1,2.606,3.079c.04.069.151.27.177.33.042.089.084.205.084.205.017.059.032.1.045.144a1.315,1.315,0,0,1,.078.31,1.184,1.184,0,0,1-.034.561,11.779,11.779,0,0,0-.658,2.823c-.08.494-.255.736-.523.736a.5.5,0,0,1-.283-.1,3.157,3.157,0,0,1-.6-.632c-.054-.07-.12-.154-.176-.218a3.406,3.406,0,0,0,.192.487c.327.716.448,1.026.322,1.223A.279.279,0,0,1,56.425,117.541Zm-4.825-11.1a14.7,14.7,0,0,0-.13,4.336l.037.21a12.8,12.8,0,0,0,1.355,3.832,2.2,2.2,0,0,0,.234.289,2.543,2.543,0,0,0,.254.215,11.579,11.579,0,0,0,2.93,1.766c-.064-.2-.214-.527-.305-.726-.206-.449-.3-.731-.207-.933a.357.357,0,0,1,.235-.2.271.271,0,0,1,.08-.011c.2,0,.348.192.557.457a2.779,2.779,0,0,0,.514.551.2.2,0,0,0,.049.027s.077-.071.128-.384a12.1,12.1,0,0,1,.679-2.908.817.817,0,0,0,.013-.382,1.156,1.156,0,0,0-.059-.227c-.015-.046-.032-.093-.047-.146h0s-.033-.093-.067-.166c-.017-.036-.116-.219-.157-.291a12.488,12.488,0,0,0-2.522-2.977l-.222-.187a11.986,11.986,0,0,0-1.651-1.222c-.126-.071-.265-.152-.408-.235A12.671,12.671,0,0,0,51.6,106.439Z" fill="#fff"/>
      </g>
      <g id="Group_4722" data-name="Group 4722">
        <path id="Path_3298" data-name="Path 3298" d="M59.583,117.3a.579.579,0,0,1-.495-.19.433.433,0,0,1-.045-.408,3.124,3.124,0,0,1,.414-.765c.049-.072.108-.16.152-.233a3.368,3.368,0,0,0-.405.331c-.524.483-.776.694-.987.694h0a.272.272,0,0,1-.2-.081.354.354,0,0,1-.087-.267,11.913,11.913,0,0,1,.8-3.6,3.4,3.4,0,0,1,.14-.34,2.413,2.413,0,0,1,.276-.417,13.159,13.159,0,0,1,3.328-2.55l.193-.1a14.837,14.837,0,0,1,4.414-1.274l.04,0a.292.292,0,0,1,.295.283,8.985,8.985,0,0,1-.271,1.671c-.034.155-.066.307-.094.445a12.3,12.3,0,0,1-.672,2.011l-.108.276a12.96,12.96,0,0,1-2.125,3.432c-.047.05-.209.224-.259.268-.073.068-.17.143-.17.143-.051.036-.088.063-.122.089a1.439,1.439,0,0,1-.271.17,1.211,1.211,0,0,1-.519.141h-.025q-.192-.006-.414-.006a11.033,11.033,0,0,0-2.492.253A1.847,1.847,0,0,1,59.583,117.3Zm-.166-.422a.475.475,0,0,0,.166.021,1.543,1.543,0,0,0,.219-.018,11.264,11.264,0,0,1,2.568-.262c.151,0,.294,0,.426.006h0a.828.828,0,0,0,.365-.1.972.972,0,0,0,.2-.127c.037-.028.078-.058.123-.089h0s.078-.062.137-.116c.03-.026.17-.176.229-.24a12.447,12.447,0,0,0,2.053-3.316l.108-.274a11.859,11.859,0,0,0,.652-1.943c.029-.14.061-.291.1-.449a12.627,12.627,0,0,0,.262-1.454,14.576,14.576,0,0,0-4.164,1.22l-.189.1a12.7,12.7,0,0,0-3.224,2.471,2.135,2.135,0,0,0-.207.314,3.13,3.13,0,0,0-.125.306,11.7,11.7,0,0,0-.773,3.336c.166-.122.434-.368.6-.518.393-.359.6-.486.783-.486a.36.36,0,0,1,.3.166c.136.2-.024.437-.227.742a2.769,2.769,0,0,0-.366.659.192.192,0,0,0-.01.058Z" fill="#fff"/>
      </g>
      <g id="Group_4723" data-name="Group 4723">
        <path id="Path_3299" data-name="Path 3299" d="M67.115,124.507h0c-.434,0-.871-.029-1.292-.057l-.305-.019a12.969,12.969,0,0,1-3.92-.96c-.067-.031-.28-.131-.335-.162-.086-.05-.189-.119-.189-.119-.045-.034-.082-.06-.114-.083a1.41,1.41,0,0,1-.253-.211,1.175,1.175,0,0,1-.3-.473,11.772,11.772,0,0,0-1.133-2.688c-.179-.355-.209-.605-.1-.778a.43.43,0,0,1,.388-.193h.022a3.164,3.164,0,0,1,.834.158c.094.027.192.055.269.072a3.18,3.18,0,0,0-.44-.281c-.68-.384-1.007-.579-.977-.846a.31.31,0,0,1,.245-.255l.02-.006a10.621,10.621,0,0,1,2.943-.362c.237,0,.48.006.719.017a3.108,3.108,0,0,1,.364.027,2.445,2.445,0,0,1,.482.132,13.2,13.2,0,0,1,3.455,2.378l.155.153a14.861,14.861,0,0,1,2.578,3.8.3.3,0,0,1,.008.24.287.287,0,0,1-.174.165,8.807,8.807,0,0,1-1.671.259l-.453.048A7.7,7.7,0,0,1,67.115,124.507Zm-5.807-1.642s.083.055.154.1c.032.019.217.107.3.143a12.465,12.465,0,0,0,3.787.928l.3.019c.415.027.844.056,1.265.056h0a7.142,7.142,0,0,0,.775-.038l.457-.049a12.456,12.456,0,0,0,1.464-.2,14.623,14.623,0,0,0-2.446-3.582l-.154-.15a12.8,12.8,0,0,0-3.345-2.3,2.439,2.439,0,0,0-.364-.1,2.8,2.8,0,0,0-.329-.023c-.236-.01-.47-.017-.7-.017a10.7,10.7,0,0,0-2.706.31,7.6,7.6,0,0,0,.672.409c.43.243.673.416.716.633a.351.351,0,0,1-.075.3.323.323,0,0,1-.273.119,2.08,2.08,0,0,1-.5-.105,2.813,2.813,0,0,0-.724-.143.186.186,0,0,0-.075.009.86.86,0,0,0,.12.367,12.306,12.306,0,0,1,1.169,2.768.79.79,0,0,0,.211.316,1.116,1.116,0,0,0,.189.154c.037.027.075.054.117.086Z" fill="#fff"/>
      </g>
      <g id="Group_4724" data-name="Group 4724">
        <path id="Path_3300" data-name="Path 3300" d="M56.1,131.661h0a.3.3,0,0,1-.231-.114,8.838,8.838,0,0,1-.756-1.495c-.067-.152-.131-.3-.192-.432a12.037,12.037,0,0,1-.64-2.024l-.073-.285a12.893,12.893,0,0,1-.3-4.024c.011-.083.039-.306.051-.367.02-.1.056-.219.056-.219.018-.055.03-.1.043-.137a1.478,1.478,0,0,1,.12-.3,1.216,1.216,0,0,1,.359-.432,11.832,11.832,0,0,0,2.205-1.911.961.961,0,0,1,.617-.348.413.413,0,0,1,.4.319,3.132,3.132,0,0,1,.115.864c0,.087.007.192.014.276a3.338,3.338,0,0,0,.131-.5c.163-.807.254-1.195.556-1.195a.323.323,0,0,1,.264.159l.017.025a11.756,11.756,0,0,1,1.456,3.368,3.24,3.24,0,0,1,.087.354,2.43,2.43,0,0,1,.022.5,13.258,13.258,0,0,1-1.192,4.019l-.1.194a14.934,14.934,0,0,1-2.82,3.628A.306.306,0,0,1,56.1,131.661ZM54.4,122.823s-.027.1-.044.176c-.006.038-.035.248-.043.326a12.566,12.566,0,0,0,.289,3.891l.071.282a12.07,12.07,0,0,0,.617,1.957c.062.134.128.282.195.434a12.47,12.47,0,0,0,.635,1.314,14.587,14.587,0,0,0,2.652-3.432l.1-.192a12.771,12.771,0,0,0,1.156-3.894,2.3,2.3,0,0,0-.019-.374c-.018-.1-.034-.157-.079-.322a11.594,11.594,0,0,0-1.334-3.151,7.772,7.772,0,0,0-.179.766c-.108.522-.215.922-.552.922a.407.407,0,0,1-.135-.025c-.229-.081-.239-.369-.253-.734a2.681,2.681,0,0,0-.093-.748.143.143,0,0,0-.027-.053.83.83,0,0,0-.313.227,12.119,12.119,0,0,1-2.271,1.965.836.836,0,0,0-.236.3,1.077,1.077,0,0,0-.087.226c-.014.043-.027.088-.046.138Z" fill="#fff"/>
      </g>
      <g id="Group_4725" data-name="Group 4725">
        <path id="Path_3301" data-name="Path 3301" d="M58.057,119.97c-.214,0-.221-.211-.229-.456a7.6,7.6,0,0,0-.111-1.034,6.348,6.348,0,0,1-1.072.443,1.063,1.063,0,0,1-.3.07h-.168l-.041-.169c-.032-.186.138-.247.371-.332a7.8,7.8,0,0,0,.936-.417,6.328,6.328,0,0,1-.758-.887c-.148-.21-.21-.308-.148-.431l.057-.108h.123c.107,0,.167.059.336.273a7.5,7.5,0,0,0,.7.78,6.384,6.384,0,0,1,.616-1.009c.16-.214.224-.276.331-.276h.121l.059.107c.064.121,0,.221-.143.436a7.554,7.554,0,0,0-.516.895,6.253,6.253,0,0,1,1.134.274c.234.078.4.136.374.324l-.029.168-.182,0a1.1,1.1,0,0,1-.3-.065,7.9,7.9,0,0,0-1.03-.217,6.166,6.166,0,0,1,.093,1.171C58.278,119.748,58.274,119.97,58.057,119.97Z" fill="#fff"/>
      </g>
      <g id="Group_4726" data-name="Group 4726">
        <path id="Path_3302" data-name="Path 3302" d="M27.993,182.585h0a31.528,31.528,0,0,1-4.2-.283l-.511-.076a35.381,35.381,0,0,1-10.273-3.717.421.421,0,0,1-.151-.62,21.625,21.625,0,0,1,2.82-2.791c.288-.259.569-.51.825-.744a28.6,28.6,0,0,1,4.047-2.894l.653-.413a30.684,30.684,0,0,1,8.875-3.628c.182-.038.711-.138.848-.152.225-.026.5-.034.51-.034h.34l.165,0a2.732,2.732,0,0,1,.556.047,2.62,2.62,0,0,1,1.138.441,28.569,28.569,0,0,0,6.046,3.65c.845.44,1.218.881,1.122,1.317a.873.873,0,0,1-.358.491,7.211,7.211,0,0,1-1.811.86c-.4.146-1.012.369-1.042.5a.258.258,0,0,0,.011.1q.069.186.693.186a9.433,9.433,0,0,0,1.092-.081,18.684,18.684,0,0,1,1.9-.158,1.223,1.223,0,0,1,.844.2c.094.1.216.3-.046.641l-.022.027a27.992,27.992,0,0,1-6.543,5.757,7.264,7.264,0,0,1-.724.449,5.683,5.683,0,0,1-1.045.393A31.369,31.369,0,0,1,27.993,182.585Zm3.447-14.952s-.261.009-.469.032c-.111.012-.613.107-.805.145a30.321,30.321,0,0,0-8.75,3.578l-.65.411a28.366,28.366,0,0,0-3.991,2.852c-.256.233-.537.486-.829.745a21.863,21.863,0,0,0-2.749,2.711.058.058,0,0,0-.014.032s.005.009.022.019a35.47,35.47,0,0,0,10.14,3.672l.505.076a31.35,31.35,0,0,0,4.143.278h0a31.056,31.056,0,0,0,5.694-.529,5.529,5.529,0,0,0,.925-.351,6.422,6.422,0,0,0,.692-.431,27.554,27.554,0,0,0,6.452-5.67l.022-.027a.425.425,0,0,0,.068-.117,1.244,1.244,0,0,0-.551-.072c-.465,0-1.117.071-1.86.155a10,10,0,0,1-1.137.085c-.423,0-.927-.051-1.07-.454a.648.648,0,0,1-.035-.249c.01-.391.552-.59,1.305-.863a6.931,6.931,0,0,0,1.71-.8.5.5,0,0,0,.206-.257c.049-.223-.288-.547-.9-.868a28.922,28.922,0,0,1-6.117-3.693,2.245,2.245,0,0,0-.974-.367,2.334,2.334,0,0,0-.477-.039h-.16C31.677,167.634,31.564,167.636,31.44,167.633Z" fill="#fff"/>
      </g>
      <g id="Group_4727" data-name="Group 4727">
        <path id="Path_3303" data-name="Path 3303" d="M41.327,170.762h0a.764.764,0,0,1-.268-.054.271.271,0,0,1-.039-.014,28.016,28.016,0,0,1-7.493-4.442,6.993,6.993,0,0,1-.65-.549,5.789,5.789,0,0,1-.7-.87,31.3,31.3,0,0,1-3.322-9.4l-.086-.509A35.36,35.36,0,0,1,29.135,144a.427.427,0,0,1,.543-.336,21.343,21.343,0,0,1,3.515,1.813c.341.2.669.389.972.561a28.869,28.869,0,0,1,4.04,2.985l.56.465a30.66,30.66,0,0,1,6.192,7.318c.1.17.351.636.406.758.093.208.189.463.192.473.039.131.074.238.108.336a3.16,3.16,0,0,1,.175.692,2.563,2.563,0,0,1-.069,1.218,28.739,28.739,0,0,0-1.6,6.842c-.162,1.008-.489,1.511-.972,1.511a.913.913,0,0,1-.517-.189,7.124,7.124,0,0,1-1.377-1.459c-.278-.353-.655-.836-.8-.836-.093.028-.121.066-.136.1-.12.262.2,1.03.5,1.672.707,1.546,1.016,2.312.79,2.662A.376.376,0,0,1,41.327,170.762ZM29.551,144.051c-.01,0-.017,0-.023.028a35.561,35.561,0,0,0-.359,10.778l.086.505a30.844,30.844,0,0,0,3.278,9.278,5.674,5.674,0,0,0,.618.771,7.152,7.152,0,0,0,.625.528,27.7,27.7,0,0,0,7.391,4.383l-.042.2.067-.189a.412.412,0,0,0,.135.031h0a7.941,7.941,0,0,0-.824-2.265c-.524-1.141-.654-1.665-.5-2.006a.582.582,0,0,1,.387-.319.386.386,0,0,1,.113-.016c.34,0,.666.416,1.115.991a6.918,6.918,0,0,0,1.292,1.378.546.546,0,0,0,.287.116c.242,0,.456-.434.574-1.16a29.041,29.041,0,0,1,1.616-6.927,2.253,2.253,0,0,0,.049-1.04,2.792,2.792,0,0,0-.159-.607c-.033-.1-.072-.215-.107-.339h0s-.091-.245-.177-.434c-.046-.1-.283-.54-.386-.722a30.289,30.289,0,0,0-6.107-7.214l-.556-.462a28.46,28.46,0,0,0-3.982-2.945c-.3-.174-.634-.366-.976-.564a21.74,21.74,0,0,0-3.418-1.772A.093.093,0,0,0,29.551,144.051Z" fill="#fff"/>
      </g>
      <g id="Group_4728" data-name="Group 4728">
        <path id="Path_3304" data-name="Path 3304" d="M66.967,187.472c-1.053,0-2.111-.074-3.137-.142l-.67-.042a30.736,30.736,0,0,1-9.315-2.28c-.175-.078-.657-.309-.773-.375-.2-.113-.426-.266-.434-.273-.1-.079-.194-.142-.278-.2a3.256,3.256,0,0,1-.556-.46,2.583,2.583,0,0,1-.659-1.025,28.515,28.515,0,0,0-2.753-6.514c-.367-.739-.445-1.251-.246-1.575a.764.764,0,0,1,.7-.329h.044a7.325,7.325,0,0,1,1.927.369,4.752,4.752,0,0,0,1.019.226.226.226,0,0,0,.12-.019.181.181,0,0,0,.05-.16c-.057-.282-.769-.716-1.384-1.063-1.57-.883-2.254-1.316-2.2-1.751.02-.181.16-.311.416-.386a25.3,25.3,0,0,1,7-.86c.564,0,1.14.013,1.71.039a7.475,7.475,0,0,1,.849.061,5.68,5.68,0,0,1,1.076.3,31.293,31.293,0,0,1,8.213,5.651l.369.363a35.313,35.313,0,0,1,6.127,9.046.433.433,0,0,1,.017.345.452.452,0,0,1-.258.245,21.781,21.781,0,0,1-3.92.6c-.387.039-.765.078-1.109.116A17.654,17.654,0,0,1,66.967,187.472Zm-14.1-3.437s.217.147.4.249c.1.056.558.277.736.356a30.237,30.237,0,0,0,9.182,2.247l.67.042c1.019.069,2.071.142,3.11.142a17.368,17.368,0,0,0,1.894-.1c.345-.037.722-.077,1.112-.116a22.064,22.064,0,0,0,3.815-.575c.02-.008.029-.018.029-.02s0-.01-.007-.025a35.463,35.463,0,0,0-6.044-8.932l-.366-.359a30.857,30.857,0,0,0-8.108-5.578,5.284,5.284,0,0,0-.955-.26,6.772,6.772,0,0,0-.812-.058c-.568-.026-1.136-.039-1.695-.039a25.208,25.208,0,0,0-6.87.839.532.532,0,0,0-.145.06,7.911,7.911,0,0,0,2,1.348c1.093.617,1.506.965,1.58,1.332a.579.579,0,0,1-.126.485.52.52,0,0,1-.437.176,4.784,4.784,0,0,1-1.13-.243,7.089,7.089,0,0,0-1.816-.353h-.039a.4.4,0,0,0-.359.137c-.054.088-.138.38.256,1.172a28.928,28.928,0,0,1,2.785,6.593,2.246,2.246,0,0,0,.571.87,2.918,2.918,0,0,0,.49.4c.088.062.181.127.28.2Z" fill="#fff"/>
      </g>
      <g id="Group_4729" data-name="Group 4729">
        <path id="Path_3305" data-name="Path 3305" d="M40.552,204.632h0a.435.435,0,0,1-.339-.171,21.158,21.158,0,0,1-1.777-3.531c-.16-.359-.315-.71-.46-1.029a28.924,28.924,0,0,1-1.521-4.822l-.172-.669a30.708,30.708,0,0,1-.709-9.561c.022-.2.089-.721.118-.854.045-.221.119-.484.123-.495.042-.124.074-.226.106-.324a3.077,3.077,0,0,1,.268-.673,2.568,2.568,0,0,1,.771-.945,28.769,28.769,0,0,0,5.346-4.63,2.058,2.058,0,0,1,1.265-.741c.221,0,.52.1.682.579a7.088,7.088,0,0,1,.258,1.988c.017.429.039,1.078.155,1.147a.275.275,0,0,0,.094.019c.285,0,.5-.89.657-1.665.371-1.839.583-2.644,1.056-2.644a.555.555,0,0,1,.423.284l.012.016a27.964,27.964,0,0,1,3.462,8.014,7.013,7.013,0,0,1,.2.828,5.774,5.774,0,0,1,.052,1.113,31.294,31.294,0,0,1-2.837,9.557l-.231.464a35.354,35.354,0,0,1-6.71,8.621A.437.437,0,0,1,40.552,204.632ZM36.2,183.622s-.071.251-.113.455c-.023.108-.091.613-.111.81a30.273,30.273,0,0,0,.7,9.426l.172.667a28.828,28.828,0,0,0,1.5,4.758c.145.318.3.669.46,1.031a21.939,21.939,0,0,0,1.723,3.44c.022.027.02.034.051.006a35.534,35.534,0,0,0,6.624-8.509l.229-.459a30.978,30.978,0,0,0,2.8-9.432,5.59,5.59,0,0,0-.049-.99,6.666,6.666,0,0,0-.2-.792,27.606,27.606,0,0,0-3.406-7.9l-.019-.026a.313.313,0,0,0-.084-.094,7.894,7.894,0,0,0-.665,2.317c-.26,1.289-.5,1.986-1.05,1.986a.667.667,0,0,1-.229-.042c-.371-.131-.392-.709-.419-1.51a6.914,6.914,0,0,0-.238-1.873c-.1-.306-.249-.306-.3-.306-.132,0-.43.079-.974.612a28.979,28.979,0,0,1-5.411,4.687,2.227,2.227,0,0,0-.649.812,2.846,2.846,0,0,0-.234.6c-.032.1-.065.208-.106.326Z" fill="#fff"/>
      </g>
      <g id="Group_4730" data-name="Group 4730">
        <path id="Path_3306" data-name="Path 3306" d="M45.244,176.588c-.229,0-.25-.212-.272-.824a18.572,18.572,0,0,0-.338-2.9,14.748,14.748,0,0,1-2.862,1.228,2.43,2.43,0,0,1-.644.155.214.214,0,0,1-.222-.174c-.034-.191.113-.267.706-.483a18.981,18.981,0,0,0,2.624-1.2,14.512,14.512,0,0,1-2.06-2.35c-.4-.564-.393-.636-.337-.743l.057-.108.127,0c.092,0,.153,0,.581.548a18.64,18.64,0,0,0,2,2.167,14.855,14.855,0,0,1,1.614-2.721c.413-.552.473-.552.568-.552h.121l.061.109c.059.108.065.175-.325.755a18.929,18.929,0,0,0-1.427,2.536,14.582,14.582,0,0,1,3.052.69c.593.2.74.274.708.468a.216.216,0,0,1-.226.175h0a2.628,2.628,0,0,1-.649-.143,18.89,18.89,0,0,0-2.894-.578,14.661,14.661,0,0,1,.292,3.134C45.493,176.351,45.479,176.588,45.244,176.588Z" fill="#fff"/>
      </g>
    </g>
  </g>
</svg>
