<svg xmlns="http://www.w3.org/2000/svg" xmlns:xlink="http://www.w3.org/1999/xlink" viewBox="0 0 37.78 32.31"><defs><style>.cls-1{fill:url(#New_Gradient_Swatch_4);}.cls-2{fill:url(#New_Gradient_Swatch_4-2);}.cls-3{fill:url(#New_Gradient_Swatch_4-3);}.cls-4{fill:url(#New_Gradient_Swatch_4-4);}.cls-5{fill:url(#New_Gradient_Swatch_4-5);}.cls-6{fill:url(#New_Gradient_Swatch_4-6);}</style><linearGradient id="New_Gradient_Swatch_4" x1="-2.98" y1="-4.78" x2="37.38" y2="35.57" gradientUnits="userSpaceOnUse"><stop offset="0" stop-color="#d7ae41"/><stop offset="0.03" stop-color="#d7ae41"/><stop offset="0.03" stop-color="#d8af42"/><stop offset="0.06" stop-color="#e6bf5e"/><stop offset="0.08" stop-color="#ebc568"/><stop offset="0.17" stop-color="#dab454"/><stop offset="0.25" stop-color="#cda745"/><stop offset="0.31" stop-color="#d2af4d"/><stop offset="0.4" stop-color="#e1c463"/><stop offset="0.44" stop-color="#ead06f"/><stop offset="0.58" stop-color="#f4eb85"/><stop offset="0.63" stop-color="#f4eb85"/><stop offset="0.7" stop-color="#edd973"/><stop offset="0.77" stop-color="#e6c861"/><stop offset="0.81" stop-color="#dcbc57"/><stop offset="0.85" stop-color="#d6b550"/><stop offset="1" stop-color="#ab832e"/></linearGradient><linearGradient id="New_Gradient_Swatch_4-2" x1="1.24" y1="-9" x2="41.59" y2="31.36" xlink:href="#New_Gradient_Swatch_4"/><linearGradient id="New_Gradient_Swatch_4-3" x1="-7.89" y1="0.13" x2="32.47" y2="40.48" xlink:href="#New_Gradient_Swatch_4"/><linearGradient id="New_Gradient_Swatch_4-4" x1="-3.65" y1="-4.11" x2="36.71" y2="36.24" xlink:href="#New_Gradient_Swatch_4"/><linearGradient id="New_Gradient_Swatch_4-5" x1="-10.27" y1="2.51" x2="30.09" y2="42.86" xlink:href="#New_Gradient_Swatch_4"/><linearGradient id="New_Gradient_Swatch_4-6" x1="1.71" y1="-9.47" x2="42.06" y2="30.88" xlink:href="#New_Gradient_Swatch_4"/></defs><title>Asset 3</title><g id="Layer_2" data-name="Layer 2"><g id="Layer_2-2" data-name="Layer 2"><path class="cls-1" d="M24.17,28.47a.66.66,0,0,0,.67-.66V25.88h.75a1.12,1.12,0,0,0,1.12-1.12V20.19a1.12,1.12,0,0,0-1.12-1.12h-.75V16.92a.66.66,0,0,0-.67-.66.65.65,0,0,0-.66.66v2.15h-.76a1.12,1.12,0,0,0-1.12,1.12v4.57a1.13,1.13,0,0,0,1.12,1.12h.76v1.93A.65.65,0,0,0,24.17,28.47ZM22.75,25a.23.23,0,0,1-.23-.23V20.19a.23.23,0,0,1,.23-.24h2.84a.23.23,0,0,1,.23.24v4.57a.23.23,0,0,1-.23.23Z"/><path class="cls-2" d="M30.6,30.33a.67.67,0,0,0,.67-.67V27.73H32a1.12,1.12,0,0,0,1.12-1.12V14.34A1.12,1.12,0,0,0,32,13.22h-.75V11.08a.67.67,0,0,0-.67-.67.66.66,0,0,0-.66.67v2.14h-.76a1.12,1.12,0,0,0-1.12,1.12V26.61a1.12,1.12,0,0,0,1.12,1.12h.76v1.93A.66.66,0,0,0,30.6,30.33Zm-1.42-3.49a.23.23,0,0,1-.23-.23V14.34a.23.23,0,0,1,.23-.23H32a.23.23,0,0,1,.23.23V26.61a.23.23,0,0,1-.23.23Z"/><path class="cls-3" d="M11.31,25.06a.67.67,0,0,0,.67-.67V22.23h.75a1.12,1.12,0,0,0,1.12-1.12V17.19a1.12,1.12,0,0,0-1.12-1.12H12v-1.8a.67.67,0,1,0-1.33,0v1.8H9.89a1.13,1.13,0,0,0-1.12,1.12v3.92a1.12,1.12,0,0,0,1.12,1.12h.76v2.16A.67.67,0,0,0,11.31,25.06ZM9.89,21.35a.24.24,0,0,1-.23-.24V17.19A.23.23,0,0,1,9.89,17h2.84a.23.23,0,0,1,.23.23v3.92a.23.23,0,0,1-.23.24Z"/><path class="cls-4" d="M17.74,25.56a.67.67,0,0,0,.67-.67V23h.75a1.12,1.12,0,0,0,1.12-1.12V12.93a1.12,1.12,0,0,0-1.12-1.12h-.75V9.66a.67.67,0,0,0-1.33,0v2.15h-.76a1.12,1.12,0,0,0-1.12,1.12v8.91A1.12,1.12,0,0,0,16.32,23h.76v1.93A.67.67,0,0,0,17.74,25.56Zm-1.42-3.49a.23.23,0,0,1-.23-.23V12.93a.23.23,0,0,1,.23-.23h2.84a.23.23,0,0,1,.23.23v8.91a.23.23,0,0,1-.23.23Z"/><path class="cls-5" d="M37.14,31H5.52a.5.5,0,0,0,0-.13V27.83H6.3a1.12,1.12,0,0,0,1.12-1.12V22.79A1.12,1.12,0,0,0,6.3,21.67H5.55v-1.8a.67.67,0,1,0-1.33,0v1.8H3.47a1.12,1.12,0,0,0-1.12,1.12v3.92a1.12,1.12,0,0,0,1.12,1.12h.75v3.06a.5.5,0,0,0,0,.13H.64a.65.65,0,0,0,0,1.29h36.5a.65.65,0,0,0,0-1.29ZM3.47,26.94a.23.23,0,0,1-.24-.23V22.79a.23.23,0,0,1,.24-.23H6.3a.23.23,0,0,1,.24.23v3.92a.23.23,0,0,1-.24.23Z"/><path class="cls-6" d="M.75,14.63a.75.75,0,0,0,.33-.07l16-7.94a.87.87,0,0,1,.83,0L23.1,9.41a1.24,1.24,0,0,0,1.21,0L35.15,3l-.64,1.53a.75.75,0,0,0,.41,1,.87.87,0,0,0,.32.06.78.78,0,0,0,.66-.46l1.5-3.61h0a.77.77,0,0,0,0-.66A.74.74,0,0,0,36.8.48h0l-4-.47A.76.76,0,0,0,32,.66a.75.75,0,0,0,.66.83l1.77.21L24.12,7.76a.88.88,0,0,1-.89,0L18.11,5A1.24,1.24,0,0,0,17,5L.42,13.21a.75.75,0,0,0-.34,1A.74.74,0,0,0,.75,14.63Z"/></g></g></svg>