<svg xmlns="http://www.w3.org/2000/svg" viewBox="0 0 34.66 34.66"><defs><style>.cls-1{fill:#c88a12;}</style></defs><title>Asset 10</title><g id="Layer_2" data-name="Layer 2"><g id="Layer_2-2" data-name="Layer 2"><path class="cls-1" d="M28,8a1.34,1.34,0,0,0,1.34-1.34V1.33a1.34,1.34,0,0,0-2.67,0V6.66A1.34,1.34,0,0,0,28,8Z"/><path class="cls-1" d="M6.66,8A1.34,1.34,0,0,0,8,6.66V1.33a1.34,1.34,0,0,0-2.67,0V6.66A1.34,1.34,0,0,0,6.66,8Z"/><path class="cls-1" d="M34.6,7.67a2.9,2.9,0,0,0-2.83-2.34H30.66V6.66a2.67,2.67,0,1,1-5.33,0V5.33h-16V6.66A2.67,2.67,0,1,1,4,6.66V5.33H2.89A2.93,2.93,0,0,0,0,8.26V31.73a2.91,2.91,0,0,0,2.89,2.93H31.77a2.92,2.92,0,0,0,2.89-2.93V8.26A2.88,2.88,0,0,0,34.6,7.67ZM9.52,32H7.78V25.06H9.52Zm4.34,0H12.12V23.33h1.74Zm4.34,0H16.46V21.59H18.2Zm4.34,0H20.8v-9.1h1.74Zm4.34,0H25.14V19.42h1.74ZM32,14.84V31.73a.25.25,0,0,1-.22.26h-4V19a.44.44,0,0,0-.44-.44h-2.6a.44.44,0,0,0-.44.44V32h-.86V22.46A.44.44,0,0,0,23,22h-2.6a.44.44,0,0,0-.44.44V32h-.86V21.16a.44.44,0,0,0-.44-.44H16a.44.44,0,0,0-.44.44V32h-.87v-9.1a.43.43,0,0,0-.43-.43h-2.6a.44.44,0,0,0-.44.43V32h-.87V24.63a.44.44,0,0,0-.43-.44H7.35a.44.44,0,0,0-.44.44V32h-4a.25.25,0,0,1-.22-.26v-20H32Z"/><path class="cls-1" d="M5.61,23.76a.33.33,0,0,0,.17,0l1.91-.81A1.31,1.31,0,0,0,9.53,23,1.28,1.28,0,0,0,10,22V22L12,21.15a1.3,1.3,0,0,0,2.28-.86v-.06l2.06-.82a1.31,1.31,0,0,0,1.84.12,1.29,1.29,0,0,0,.19-.21l2,.6a1.3,1.3,0,1,0,2.6-.13,1.24,1.24,0,0,0-.11-.46L25.3,17a1.3,1.3,0,0,0,1.84-1.74l1.47-1.39v.3a.44.44,0,0,0,.44.43.43.43,0,0,0,.43-.43v-1.3a.44.44,0,0,0-.43-.44h-1.3a.44.44,0,0,0-.44.44.44.44,0,0,0,.44.43H28l-1.47,1.39a1.31,1.31,0,0,0-1.69.75,1.33,1.33,0,0,0,0,.86l-2.5,2.36a1.3,1.3,0,0,0-1.65.39l-2-.6a1.3,1.3,0,0,0-2.6.06v.05L14,19.43a1.3,1.3,0,0,0-2.28.86v.05l-2.06.83A1.3,1.3,0,0,0,7.79,21a1.32,1.32,0,0,0-.44,1v.09l-1.91.82a.43.43,0,0,0,.17.83ZM26,15.51a.44.44,0,0,1,.43.44.43.43,0,1,1-.86,0A.44.44,0,0,1,26,15.51Zm-4.34,3.91a.43.43,0,0,1,.43.43.43.43,0,1,1-.86,0A.43.43,0,0,1,21.67,19.42Zm-4.34-1.3a.43.43,0,0,1,.43.43.44.44,0,0,1-.43.44.44.44,0,1,1,0-.87ZM13,19.85a.44.44,0,0,1,.43.44.43.43,0,0,1-.43.43.44.44,0,0,1-.44-.43A.44.44,0,0,1,13,19.85ZM8.65,21.59a.43.43,0,0,1,.43.43.44.44,0,0,1-.43.44A.44.44,0,0,1,8.21,22,.44.44,0,0,1,8.65,21.59Z"/></g></g></svg>