<svg xmlns="http://www.w3.org/2000/svg" xmlns:xlink="http://www.w3.org/1999/xlink" width="41.968" height="42.03" viewBox="0 0 41.968 42.03">
  <defs>
    <linearGradient id="linear-gradient" x1="0.199" y1="0.815" x2="0.815" y2="0.2" gradientUnits="objectBoundingBox">
      <stop offset="0" stop-color="#d39d2c"/>
      <stop offset="0.032" stop-color="#d39d2c"/>
      <stop offset="0.063" stop-color="#e5af46"/>
      <stop offset="0.082" stop-color="#ecb751"/>
      <stop offset="0.175" stop-color="#d5a23d"/>
      <stop offset="0.254" stop-color="#c79530"/>
      <stop offset="0.305" stop-color="#cd9c36"/>
      <stop offset="0.383" stop-color="#ddb248"/>
      <stop offset="0.435" stop-color="#ecc557"/>
      <stop offset="0.582" stop-color="#fae56e"/>
      <stop offset="0.635" stop-color="#fae56e"/>
      <stop offset="0.706" stop-color="#eecb58"/>
      <stop offset="0.769" stop-color="#e6ba4a"/>
      <stop offset="0.812" stop-color="#d9ac40"/>
      <stop offset="0.853" stop-color="#d3a53b"/>
      <stop offset="1" stop-color="#9e6e1f"/>
    </linearGradient>
  </defs>
  <path id="Path_3375" data-name="Path 3375" d="M239.125,1927.768c-4.223,0-8.6-.581-10.056-1.6l-.187-.13-.024-.227a12.136,12.136,0,0,1,2.183-7.751,1.752,1.752,0,0,1,1.406-.676l1.281,0a2.21,2.21,0,0,0,.939-.079,3.015,3.015,0,0,0,.5-1.244,5.586,5.586,0,0,1-.92-1.678,1.972,1.972,0,0,1-.663-.885,4.174,4.174,0,0,1-.245-1.62l.007-.444.289-.2c-.246-2.259.243-3.806,1.492-4.723a6.411,6.411,0,0,1,7.137.157c1.179.965,1.526,2.235,1.236,4.626l.2.134.011.44a4.185,4.185,0,0,1-.257,1.653,1.937,1.937,0,0,1-.687.883,5.542,5.542,0,0,1-1.016,1.779,3.1,3.1,0,0,0,.415,1.045c.1.114.323.312.906.251l1.534,0a1.689,1.689,0,0,1,1.235.512c1.871,2,2.325,5.314,2.376,7.745l.005.218-.156.151C246.9,1927.259,243.078,1927.768,239.125,1927.768Zm-9.294-2.3c2.936,1.659,15.089,1.7,17.38.063-.062-1.888-.43-5.062-2.1-6.845a.688.688,0,0,0-.506-.195l-1.489-.005a1.911,1.911,0,0,1-1.743-.64,4.373,4.373,0,0,1-.655-1.7l-.051-.254.178-.188a4.516,4.516,0,0,0,1.027-1.773l.063-.205.19-.095a.883.883,0,0,0,.4-.485,3.171,3.171,0,0,0,.182-1.171l-.2-.133-.046-.365c.347-2.524-.027-3.363-.84-4.028h0a5.474,5.474,0,0,0-5.911-.123c-.985.723-1.33,2.065-1.053,4.1l.047.35-.315.162c-.02.01-.04.022-.06.034a3.115,3.115,0,0,0,.172,1.151.923.923,0,0,0,.4.5l.179.1.06.2a4.571,4.571,0,0,0,.935,1.681l.161.182-.044.24a3.9,3.9,0,0,1-.868,2.05l-.137.1a2.791,2.791,0,0,1-1.506.216l-1.242,0h0a.8.8,0,0,0-.621.3A11.241,11.241,0,0,0,229.831,1925.471Zm-3.13-31.706h-4.565V1889.2H215.7v4.566h-4.566v6.434H215.7v4.565h6.434V1900.2H226.7Zm20.749,37.464H229.582a5.66,5.66,0,0,1-5.654-5.654v-17.868a5.66,5.66,0,0,1,5.654-5.653H247.45a5.66,5.66,0,0,1,5.654,5.653v17.868A5.661,5.661,0,0,1,247.45,1931.229Zm-17.868-27.175a3.657,3.657,0,0,0-3.654,3.653v17.868a3.658,3.658,0,0,0,3.654,3.654H247.45a3.658,3.658,0,0,0,3.654-3.654v-17.868a3.657,3.657,0,0,0-3.654-3.653Z" transform="translate(-211.136 -1889.199)" fill="url(#linear-gradient)"/>
</svg>
