<svg xmlns="http://www.w3.org/2000/svg" xmlns:xlink="http://www.w3.org/1999/xlink" viewBox="0 0 29.79 39.73">
    <defs>
        <linearGradient id="a" x1="-.96" y1="37.79" x2="30.76" y2="6.07" gradientUnits="userSpaceOnUse">
            <stop offset="0" stop-color="#d7ae41"/>
            <stop offset=".03" stop-color="#d7ae41"/>
            <stop offset=".03" stop-color="#d8af42"/>
            <stop offset=".06" stop-color="#e6bf5e"/>
            <stop offset=".08" stop-color="#ebc568"/>
            <stop offset=".17" stop-color="#dab454"/>
            <stop offset=".25" stop-color="#cda745"/>
            <stop offset=".31" stop-color="#d2af4d"/>
            <stop offset=".4" stop-color="#e1c463"/>
            <stop offset=".44" stop-color="#ead06f"/>
            <stop offset=".58" stop-color="#f4eb85"/>
            <stop offset=".63" stop-color="#f4eb85"/>
            <stop offset=".7" stop-color="#edd973"/>
            <stop offset=".77" stop-color="#e6c861"/>
            <stop offset=".81" stop-color="#dcbc57"/>
            <stop offset=".85" stop-color="#d6b550"/>
            <stop offset="1" stop-color="#ab832e"/>
        </linearGradient>
        <linearGradient id="b" x1="4.95" y1="33.55" x2="24.74" y2="13.76" xlink:href="#a"/>
    </defs>
    <g data-name="Layer 2">
        <path d="M29.79 36.65V5.79a1.65 1.65 0 0 0-1.65-1.65h-5A5 5 0 0 0 18.21 0h-6.62A5 5 0 0 0 6.7 4.14h-5A1.65 1.65 0 0 0 0 5.79v32.28a1.66 1.66 0 0 0 1.66 1.66h26.48a1.65 1.65 0 0 0 1.65-1.66v-1.42h-3.31v-.23H3.31v-29h3.31V9.1a1.66 1.66 0 0 0 1.66 1.66h13.24a1.65 1.65 0 0 0 1.65-1.66V7.45h3.31v29.2ZM21.52 9.2H8.28V4.83a2.21 2.21 0 0 1 2.2-2.21h8.83a2.21 2.21 0 0 1 2.21 2.21Z" style="fill-rule:evenodd;fill:url(#a)"/>
        <path d="M14.79 28.44a4.74 4.74 0 1 0-4.74-4.73 4.74 4.74 0 0 0 4.74 4.73Zm0-8.83a4.1 4.1 0 1 1-4.09 4.1 4.11 4.11 0 0 1 4.09-4.1Zm-1.1 5.83a1.58 1.58 0 0 0 .76.28v.19a.32.32 0 0 0 .64 0v-.22a1.29 1.29 0 0 0 .94-1 1.15 1.15 0 0 0-.78-1.29l-.16-.06v-1a.86.86 0 0 1 .34.13.34.34 0 0 0 .45-.11.31.31 0 0 0-.11-.44 1.76 1.76 0 0 0-.68-.23v-.19a.32.32 0 0 0-.64 0v.19h-.06a1.07 1.07 0 0 0-.73.83.94.94 0 0 0 .32.94 2 2 0 0 0 .47.28v1.31a1.05 1.05 0 0 1-.45-.15.32.32 0 0 0-.45.09.33.33 0 0 0 .14.45Zm1.4-1.44a.48.48 0 0 1 .3.55.66.66 0 0 1-.3.44Zm-.72-1a.3.3 0 0 1-.07-.31.39.39 0 0 1 .15-.26V23Zm8.36-5.33a.35.35 0 0 1 0 .41L22 19a.33.33 0 1 1-.51-.41l.33-.4h-2a.33.33 0 0 1 0-.65h2l-.33-.4a.33.33 0 0 1 .05-.45.32.32 0 0 1 .46 0ZM7.07 29.77a.3.3 0 0 1 0-.4l.74-.93a.32.32 0 1 1 .5.4l-.32.4h2a.32.32 0 0 1 .32.33.32.32 0 0 1-.32.32H8l.32.4a.32.32 0 1 1-.5.41ZM5.92 31.2v-.11l-1.25 1.25 1.25 1.26v-.11a.54.54 0 0 1 .53-.49h6.71a.32.32 0 0 1 .33.32.33.33 0 0 1-.33.33h-6.6v.79a.31.31 0 0 1-.2.29.32.32 0 0 1-.36-.12l-2-2a.31.31 0 0 1 0-.45l2-2a.31.31 0 0 1 .36-.16.33.33 0 0 1 .2.3v.79h6.6a.33.33 0 1 1 0 .65H6.45a.54.54 0 0 1-.53-.54Zm15.19-7.49a6.32 6.32 0 0 1-10.67 4.58.33.33 0 0 1 .45-.47 5.62 5.62 0 0 0 3.9 1.56 5.68 5.68 0 1 0-4.69-2.49.32.32 0 0 1-.54.36 6.32 6.32 0 1 1 11.55-3.54Zm4.7-8.41-2 2a.34.34 0 0 1-.36.07.33.33 0 0 1-.2-.3v-.79h-6.6a.32.32 0 1 1 0-.64h6.71a.54.54 0 0 1 .54.53v.12l1.24-1.26-1.24-1.26v.12a.54.54 0 0 1-.54.53h-1.61a.32.32 0 0 1 0-.64h1.48V13a.33.33 0 0 1 .2-.3.34.34 0 0 1 .36.07l2 2a.34.34 0 0 1 .02.53Zm-9.5-1.16a.32.32 0 0 1 .32-.32h3.83a.32.32 0 0 1 0 .64h-3.83a.32.32 0 0 1-.32-.32Z" style="fill:url(#b)"/>
    </g>
</svg>
