<svg xmlns="http://www.w3.org/2000/svg" viewBox="0 0 51.24 31.52"><defs><style>.cls-1{fill:#c88a12;}</style></defs><title>Asset 11</title><g id="Layer_2" data-name="Layer 2"><g id="Layer_2-2" data-name="Layer 2"><path class="cls-1" d="M18.48,2.82V4.57a6.72,6.72,0,0,0-4.15,1.71,5.17,5.17,0,0,0-1.39,3.84,6.66,6.66,0,0,0,.66,3,6,6,0,0,0,1.54,2.08,40.37,40.37,0,0,0,3.4,2.3,3.87,3.87,0,0,1,1.76,1.73,9.38,9.38,0,0,1,.26,2.62,1.86,1.86,0,0,1-.27,1.1,1,1,0,0,1-.83.37.75.75,0,0,1-.81-.53,12.72,12.72,0,0,1-.17-2.73V18.74H13V19.8c0,2.43.54,4.14,1.63,5.11a6.51,6.51,0,0,0,3.82,1.69v2.1H21V26.65a6.45,6.45,0,0,0,4.22-2A6.9,6.9,0,0,0,26.61,20a8,8,0,0,0-.51-3,5.18,5.18,0,0,0-1.28-1.89A21.9,21.9,0,0,0,22,13.16a21.05,21.05,0,0,1-2.95-2,2.58,2.58,0,0,1-.5-1.8,2.07,2.07,0,0,1,.25-1.15.93.93,0,0,1,1.55.06,6.09,6.09,0,0,1,.18,1.88v.91H26c0-.46.05-.8.05-1a5.43,5.43,0,0,0-1.25-3.79A5.91,5.91,0,0,0,21,4.57V2.82Z"/><polygon class="cls-1" points="8.07 21.95 8.07 17.64 12.38 17.64 12.38 13.88 8.07 13.88 8.07 9.57 4.31 9.57 4.31 13.88 0 13.88 0 17.64 4.31 17.64 4.31 21.95 8.07 21.95"/><path class="cls-1" d="M47.43,0H9a3.81,3.81,0,0,0-3.8,3.81V8.26h2V3.81A1.81,1.81,0,0,1,9,2H47.43a1.81,1.81,0,0,1,1.81,1.81v23.9a1.81,1.81,0,0,1-1.81,1.81H9a1.81,1.81,0,0,1-1.8-1.81V23.26h-2v4.45A3.81,3.81,0,0,0,9,31.52H47.43a3.82,3.82,0,0,0,3.81-3.81V3.81A3.82,3.82,0,0,0,47.43,0Z"/><path class="cls-1" d="M42.31,28.54h4.83V12.65H42.31Zm1-14.89h2.83V27.54H43.31Z"/><path class="cls-1" d="M35,12.39l-2.68-.81a1.76,1.76,0,0,0-3.51.09,1.84,1.84,0,0,0,.44,1.16,1.79,1.79,0,0,0,2.47.16,1.37,1.37,0,0,0,.26-.28l2.69.8a1.76,1.76,0,1,0,3.51-.17,1.71,1.71,0,0,0-.15-.62l3.28-3.1a1.75,1.75,0,0,0,2.49-2.34l2-1.87v.4a.59.59,0,1,0,1.17,0V4.06a.58.58,0,0,0-.58-.59H44.65a.59.59,0,1,0,0,1.17h.28l-2,1.88a1.76,1.76,0,0,0-2.31,2.17l-3.37,3.17A1.77,1.77,0,0,0,35,12.39Zm-4.43-.14a.58.58,0,0,1-.59-.58.59.59,0,1,1,1.17,0A.58.58,0,0,1,30.6,12.25ZM36.45,14a.59.59,0,1,1,.59-.58A.58.58,0,0,1,36.45,14Zm5.86-6.44a.59.59,0,1,1-.59.59A.58.58,0,0,1,42.31,7.57Z"/><path class="cls-1" d="M30.45,28.54h4.83V19H30.45Zm1-8.58h2.83v7.58H31.45Z"/><path class="cls-1" d="M36.38,28.54h4.83V15.84H36.38Zm1-11.7h2.83v10.7H37.38Z"/></g></g></svg>