<svg xmlns="http://www.w3.org/2000/svg" xmlns:xlink="http://www.w3.org/1999/xlink" viewBox="0 0 51.24 31.52">
    <defs>
        <linearGradient id="a" x1="49.61" y1="-14.39" x2="2.31" y2="32.91" gradientUnits="userSpaceOnUse">
            <stop offset="0" stop-color="#d7ae41"/>
            <stop offset=".03" stop-color="#d7ae41"/>
            <stop offset=".03" stop-color="#d8af42"/>
            <stop offset=".06" stop-color="#e6bf5e"/>
            <stop offset=".08" stop-color="#ebc568"/>
            <stop offset=".17" stop-color="#dab454"/>
            <stop offset=".25" stop-color="#cda745"/>
            <stop offset=".31" stop-color="#d2af4d"/>
            <stop offset=".4" stop-color="#e1c463"/>
            <stop offset=".44" stop-color="#ead06f"/>
            <stop offset=".58" stop-color="#f4eb85"/>
            <stop offset=".63" stop-color="#f4eb85"/>
            <stop offset=".7" stop-color="#edd973"/>
            <stop offset=".77" stop-color="#e6c861"/>
            <stop offset=".81" stop-color="#dcbc57"/>
            <stop offset=".85" stop-color="#d6b550"/>
            <stop offset="1" stop-color="#ab832e"/>
        </linearGradient>
        <linearGradient id="b" x1="42.97" y1="-21.02" x2="-4.32" y2="26.27" xlink:href="#a"/>
        <linearGradient id="c" x1="53.98" y1="-10.02" x2="6.68" y2="37.28" xlink:href="#a"/>
        <linearGradient id="d" x1="64.66" y1=".66" x2="17.36" y2="47.96" xlink:href="#a"/>
        <linearGradient id="e" x1="55.21" y1="-8.79" x2="7.91" y2="38.51" xlink:href="#a"/>
        <linearGradient id="f" x1="60.3" y1="-3.69" x2="13.01" y2="43.6" xlink:href="#a"/>
        <linearGradient id="g" x1="62.49" y1="-1.51" x2="15.19" y2="45.79" xlink:href="#a"/>
    </defs>
    <g data-name="Layer 2">
        <path d="M18.48 2.82v1.75a6.72 6.72 0 0 0-4.15 1.71 5.17 5.17 0 0 0-1.39 3.84 6.66 6.66 0 0 0 .66 3 6 6 0 0 0 1.54 2.08 40.37 40.37 0 0 0 3.4 2.3 3.87 3.87 0 0 1 1.76 1.73 9.38 9.38 0 0 1 .26 2.62 1.86 1.86 0 0 1-.27 1.1 1 1 0 0 1-.83.37.75.75 0 0 1-.81-.53 12.72 12.72 0 0 1-.17-2.73v-1.32H13v1.06c0 2.43.54 4.14 1.63 5.11a6.51 6.51 0 0 0 3.82 1.69v2.1H21v-2.05a6.45 6.45 0 0 0 4.22-2A6.9 6.9 0 0 0 26.61 20a8 8 0 0 0-.51-3 5.18 5.18 0 0 0-1.28-1.89A21.9 21.9 0 0 0 22 13.16a21.05 21.05 0 0 1-2.95-2 2.58 2.58 0 0 1-.5-1.8 2.07 2.07 0 0 1 .25-1.15.93.93 0 0 1 1.55.06 6.09 6.09 0 0 1 .18 1.88v.91H26c0-.46.05-.8.05-1a5.43 5.43 0 0 0-1.25-3.79 5.91 5.91 0 0 0-3.8-1.7V2.82Z" style="fill:url(#a)"/>
        <path style="fill:url(#b)" d="M8.07 21.95v-4.31h4.31v-3.76H8.07V9.57H4.31v4.31H0v3.76h4.31v4.31h3.76z"/>
        <path d="M47.43 0H9a3.81 3.81 0 0 0-3.8 3.81v4.45h2V3.81A1.81 1.81 0 0 1 9 2h38.43a1.81 1.81 0 0 1 1.81 1.81v23.9a1.81 1.81 0 0 1-1.81 1.81H9a1.81 1.81 0 0 1-1.8-1.81v-4.45h-2v4.45A3.81 3.81 0 0 0 9 31.52h38.43a3.82 3.82 0 0 0 3.81-3.81V3.81A3.82 3.82 0 0 0 47.43 0Z" style="fill:url(#c)"/>
        <path d="M42.31 28.54h4.83V12.65h-4.83Zm1-14.89h2.83v13.89h-2.83Z" style="fill:url(#d)"/>
        <path d="m35 12.39-2.68-.81a1.76 1.76 0 0 0-3.51.09 1.84 1.84 0 0 0 .44 1.16 1.79 1.79 0 0 0 2.47.16 1.37 1.37 0 0 0 .26-.28l2.69.8a1.76 1.76 0 1 0 3.51-.17 1.71 1.71 0 0 0-.15-.62l3.28-3.1a1.75 1.75 0 0 0 2.49-2.34l2-1.87v.4a.59.59 0 1 0 1.17 0V4.06a.58.58 0 0 0-.58-.59h-1.74a.59.59 0 1 0 0 1.17h.28l-2 1.88a1.76 1.76 0 0 0-2.31 2.17l-3.37 3.17a1.77 1.77 0 0 0-2.25.53Zm-4.43-.14a.58.58 0 0 1-.59-.58.59.59 0 1 1 1.17 0 .58.58 0 0 1-.55.58ZM36.45 14a.59.59 0 1 1 .59-.58.58.58 0 0 1-.59.58Zm5.86-6.44a.59.59 0 1 1-.59.59.58.58 0 0 1 .59-.58Z" style="fill:url(#e)"/>
        <path d="M30.45 28.54h4.83V19h-4.83Zm1-8.58h2.83v7.58h-2.83Z" style="fill:url(#f)"/>
        <path d="M36.38 28.54h4.83v-12.7h-4.83Zm1-11.7h2.83v10.7h-2.83Z" style="fill:url(#g)"/>
    </g>
</svg>
