<svg xmlns="http://www.w3.org/2000/svg" width="80.834" height="22.957" viewBox="0 0 80.834 22.957">
  <g id="Layer_2" data-name="Layer 2" transform="translate(0.004 0.004)">
    <g id="Layer_2-2" data-name="Layer 2">
      <path id="Path_1" data-name="Path 1" d="M14.74,22.34l-.1.06A4.13,4.13,0,0,1,9,20.89L.55,6.25A4.13,4.13,0,0,1,2.06.61L2.17.55A4.12,4.12,0,0,1,7.8,2.06L16.25,16.7a4.12,4.12,0,0,1-1.51,5.64" fill="#fff"/>
      <path id="Path_2" data-name="Path 2" d="M10.45,22.34l.11.06a4.12,4.12,0,0,0,5.63-1.51L24.65,6.25A4.14,4.14,0,0,0,23.14.61L23,.55a4.13,4.13,0,0,0-5.64,1.51L8.94,16.7a4.13,4.13,0,0,0,1.51,5.64" fill="#fff"/>
      <path id="Path_3" data-name="Path 3" d="M12.6,10.36a.55.55,0,0,1-.15.24,3.74,3.74,0,0,1-1.14,1,4.18,4.18,0,0,1-1.09.45A3.85,3.85,0,0,1,9,12.17a3.34,3.34,0,0,1-1.84-.68,4.74,4.74,0,0,1-.73-.69A11.26,11.26,0,0,1,5.27,9.08c-.12-.2-2.79-4.83-2.87-5a2.58,2.58,0,0,1-.16-.78V2.91A2.79,2.79,0,0,1,3.15,1L3.34.82s.06,0,.07-.08a2.72,2.72,0,0,1,1-.38,1.83,1.83,0,0,1,.4,0,2.43,2.43,0,0,0,.27,0h.11A3.09,3.09,0,0,1,7.7,1.89l4.83,8.36.07.11" fill="#bbb"/>
      <path id="Path_4" data-name="Path 4" d="M25.57,10.2A1.39,1.39,0,0,1,27,8.67a1.42,1.42,0,0,1,1.5,1.53V21.3a1.47,1.47,0,1,1-2.93,0Z" fill="#fff"/>
      <path id="Path_5" data-name="Path 5" d="M30.41,9.88A1.09,1.09,0,0,1,31.5,8.79h7.83a1.29,1.29,0,0,1,1.37,1.33,1.3,1.3,0,0,1-1.37,1.37h-6v2.85h5.74a1.32,1.32,0,0,1,1.41,1.33A1.35,1.35,0,0,1,39.09,17H33.35v3h6.13a1.31,1.31,0,0,1,1.41,1.33,1.35,1.35,0,0,1-1.41,1.37H31.9a1.41,1.41,0,0,1-1.49-1.49Z" fill="#fff"/>
      <path id="Path_6" data-name="Path 6" d="M44.64,11.49H42.49a1.26,1.26,0,0,1-1.33-1.37,1.31,1.31,0,0,1,1.33-1.33h7.2A1.3,1.3,0,0,1,51,10.12a1.26,1.26,0,0,1-1.32,1.37H47.57V21.3a1.47,1.47,0,1,1-2.93,0Z" fill="#fff"/>
      <path id="Path_7" data-name="Path 7" d="M76.27,15.92a2.154,2.154,0,0,0,1.17-2.04,2.14,2.14,0,0,0-.74-1.76,3.28,3.28,0,0,0-2.15-.61H72v11H68.83V8.94h5.89a7.58,7.58,0,0,1,3.14.6,4.53,4.53,0,0,1,2.77,4.34,4.43,4.43,0,0,1-2.8,4.3h0l3,4.37H77.5L72.28,15h3.36Z" fill="#fff" fill-rule="evenodd"/>
      <path id="Path_8" data-name="Path 8" d="M60,22.79a7.93,7.93,0,0,1-3.82-.91,6.82,6.82,0,0,1-3.63-6.13,6.82,6.82,0,0,1,3.63-6.13A7.93,7.93,0,0,1,60,8.71a7.83,7.83,0,0,1,3.81.91,6.89,6.89,0,0,1,2.67,2.52,7.016,7.016,0,0,1,0,7.22,6.92,6.92,0,0,1-1.09,1.37l1,1.83H63.47l-.25-.42-1.4-2.43-2.1-3.63h2.93l1.06,1.83a4.65,4.65,0,0,0,.5-2.16,4.56,4.56,0,0,0-.55-2.26A4,4,0,0,0,62.13,12a4.52,4.52,0,0,0-4.36,0,4,4,0,0,0-1.52,1.54,4.84,4.84,0,0,0,0,4.52,4,4,0,0,0,1.52,1.54,4.34,4.34,0,0,0,2.18.56h.27l1.46,2.52a8.83,8.83,0,0,1-1.73.17" fill="#fff" fill-rule="evenodd"/>
    </g>
  </g>
</svg>
