<?xml version="1.0" encoding="utf-8"?>
<!-- Generator: Adobe Illustrator 21.1.0, SVG Export Plug-In . SVG Version: 6.00 Build 0)  -->
<svg version="1.1" id="Layer_1" xmlns="http://www.w3.org/2000/svg" xmlns:xlink="http://www.w3.org/1999/xlink" x="0px" y="0px"
	 viewBox="0 0 298.4 401.9" style="enable-background:new 0 0 298.4 401.9;" xml:space="preserve">
<style type="text/css">
	.st0{opacity:0.3;enable-background:new    ;}
	.st1{clip-path:url(#SVGID_2_);}
	.st2{fill:#FFFFFF;}
</style>
<g id="XMLID_2404_" class="st0">
	<g>
		<g>
			<g>
				<defs>
					<rect id="SVGID_1_" x="83.6" y="226" width="216.4" height="176.7"/>
				</defs>
				<clipPath id="SVGID_2_">
					<use xlink:href="#SVGID_1_"  style="overflow:visible;"/>
				</clipPath>
				<g id="XMLID_2406_" class="st1">
					<g>
						<g id="XMLID_510_">
							<path id="XMLID_511_" class="st2" d="M174,382.5c-0.8,0-1.3-0.2-1.6-0.6c-0.2-0.3-0.3-0.7-0.1-1.2c0.3-1,1-2,1.6-2.8
								c0.4-0.6,1-1.4,0.9-1.6c-0.1-0.1-0.2-0.2-0.3-0.2c-0.5,0-1.5,0.9-2.3,1.6c-1.7,1.6-2.8,2.6-3.5,2.6c-0.2,0-0.4-0.1-0.4-0.2
								c-0.1-0.1-0.2-0.4-0.2-0.7v0c0.2-5,1.8-10.2,3.1-13.7c0.2-0.6,0.3-0.9,0.5-1.3c0.2-0.4,0.8-1.3,1-1.5
								c2.2-2.3,4.7-4.5,7.3-6.4c-5.6-2-11.5-4.6-16.2-7.2c-0.3-0.1-0.4-0.4-0.5-0.6c-0.1-0.3,0-0.6,0.2-0.8
								c1.2-1.8,4.9-5.2,8.2-8.1c0.9-0.8,1.7-1.5,2.4-2.2c3.7-3.3,7.9-6,11.9-8.5l1.8-1.1c8-4.8,16.7-8.4,25.9-10.6
								c0.5-0.1,2.1-0.4,2.4-0.4c0.7-0.1,1.4-0.1,1.5-0.1c0.4,0,0.7,0,1,0c0.2,0,0.3,0,0.5,0c0.5,0,1,0,1.6,0.1
								c1.2,0.2,2.3,0.5,3.2,1.2c4.3,3.3,10.8,7.8,17.8,10.7c2.3,1.2,3.4,2.4,3.1,3.6c-0.1,0.5-0.4,0.9-1,1.3
								c-1.5,1.1-3.5,1.8-5.2,2.5c-1.5,0.5-3.2,1.2-3.2,1.7c0,0.1,0,0.3,0,0.4c0.1,0.3,0.5,0.7,2.3,0.7c0.8,0,1.8-0.1,3.2-0.2
								c2.2-0.2,4.1-0.5,5.6-0.5c1.2,0,1.9,0.2,2.3,0.5c0.3,0.3,0.5,0.7-0.2,1.5c0,0,0,0,0,0.1c-5.6,7.2-13.5,13.1-19.1,16.8
								c-1,0.7-1.4,0.9-2.1,1.3c-0.7,0.4-2.5,1-3,1.1c-5.5,1-11.2,1.6-16.9,1.6l0,0c-2.2,0-4.3-0.1-6.5-0.2
								c-0.4,1.1-0.9,2.2-1.3,3.3l-0.4,1c-2,4.7-4.7,9.1-8.1,13.1c-0.2,0.2-0.8,0.9-1,1c-0.3,0.2-0.6,0.5-0.6,0.5
								c-0.2,0.1-0.3,0.2-0.5,0.3c-0.3,0.2-0.6,0.4-1,0.6c-0.6,0.3-1.2,0.5-1.8,0.5h-0.1c-0.5,0-1.1,0-1.6,0c-3.6,0-6.9,0.3-9.7,1
								C174.6,382.5,174.3,382.5,174,382.5z M174.5,375.5c0.2,0,0.5,0.1,0.8,0.4c0.4,0.5-0.2,1.3-0.9,2.4c-0.6,0.8-1.2,1.8-1.5,2.7
								c-0.1,0.3-0.1,0.5,0,0.6c0.2,0.3,0.9,0.4,1.9,0.2c2.8-0.7,6.1-1,9.8-1c0.5,0,1.1,0,1.7,0h0.1c0.5,0,1-0.2,1.6-0.4
								c0.3-0.1,0.6-0.3,0.9-0.5c0.1-0.1,0.3-0.2,0.5-0.3l0,0c0,0,0.3-0.3,0.6-0.5c0.1-0.1,0.7-0.7,0.9-1c3.4-3.9,6.1-8.3,8-12.9
								l0.4-1c0.5-1.1,0.9-2.3,1.3-3.5l0.1-0.2l0.2,0c2.2,0.2,4.5,0.2,6.7,0.2l0,0c5.6,0,11.3-0.5,16.8-1.6c0.4-0.1,2.1-0.7,2.8-1.1
								c0.7-0.4,1.1-0.6,2.1-1.3c5.6-3.7,13.5-9.6,19-16.7c0,0,0,0,0.1-0.1c0.2-0.2,0.4-0.5,0.2-0.7c-0.1-0.1-0.5-0.3-1.8-0.3
								c-1.4,0-3.3,0.2-5.5,0.5c-1.4,0.2-2.5,0.2-3.3,0.2c-1.2,0-2.5-0.1-2.9-1.2c-0.1-0.2-0.1-0.4-0.1-0.6c0-1,1.5-1.5,3.7-2.3
								c1.7-0.6,3.7-1.3,5.1-2.4c0.4-0.3,0.6-0.6,0.7-0.9c0.2-0.8-0.8-1.8-2.8-2.8c-7-2.9-13.6-7.5-17.9-10.8
								c-0.9-0.7-1.8-0.9-3-1.1c-0.5-0.1-1-0.1-1.5-0.1c-0.2,0-0.3,0-0.5,0c-0.3,0-0.6,0-1,0c0,0-0.8,0-1.4,0.1
								c-0.3,0-1.8,0.3-2.4,0.4c-9.2,2.2-17.9,5.7-25.7,10.5l-1.8,1.1c-4,2.6-8.2,5.2-11.9,8.5c-0.7,0.7-1.6,1.4-2.4,2.2
								c-3.3,2.9-7,6.2-8.1,8c-0.1,0.1-0.1,0.2-0.1,0.3c0,0.1,0.1,0.2,0.2,0.2c4.8,2.6,10.9,5.3,16.7,7.3l0.6,0.2l-0.5,0.4
								c-2.8,1.9-5.4,4.2-7.7,6.6c-0.1,0.1-0.7,1-0.9,1.3c-0.2,0.4-0.3,0.6-0.5,1.2c-1.3,3.5-2.9,8.6-3,13.5v0c0,0.1,0,0.2,0,0.2
								c0.5,0,2-1.5,3.1-2.4C173.2,376,173.9,375.5,174.5,375.5z"/>
						</g>
						<g id="XMLID_506_">
							<path id="XMLID_507_" class="st2" d="M246.7,326.6L246.7,326.6c-0.2,0-0.4,0-0.7-0.1l-0.1,0c-8.5-3.1-16.6-8.8-21.9-13
								c-0.9-0.7-1.3-1-1.9-1.6c-0.6-0.5-1.7-2.1-2-2.5c-4.7-8.6-7.9-17.8-9.7-27.5l-0.2-1.5c-1.6-9.7-0.6-23.1,1.1-31.9
								c0.1-0.5,0.5-0.8,1-0.8c0.1,0,0.2,0,0.3,0c2.1,0.6,6.4,3.1,10.3,5.3c1,0.6,2,1.1,2.8,1.6c4.3,2.5,8.1,5.7,11.8,8.8l1.6,1.3
								c7.1,6.1,13.1,13.3,18.1,21.4c0.3,0.5,1,1.8,1.2,2.2c0.3,0.6,0.5,1.3,0.6,1.4c0.1,0.4,0.2,0.7,0.3,1c0.2,0.7,0.4,1.3,0.5,2
								c0.1,1.2,0.2,2.3-0.2,3.5c-1.8,5-4,12.6-4.7,20.1c-0.5,2.8-1.3,4.2-2.6,4.2c-0.4,0-0.9-0.2-1.4-0.5c-1.5-1.1-2.8-2.7-4-4.2
								c-1-1.3-2-2.6-2.6-2.6c0,0,0,0-0.1,0c-0.3,0.1-0.5,0.2-0.6,0.4c-0.4,0.9,0.5,3,1.5,5.1c1.9,4.1,2.9,6.6,2.3,7.5
								C247.3,326.4,247.1,326.6,246.7,326.6z M212.1,248.3c-0.2,0-0.3,0.2-0.3,0.3c-1.6,8.5-2.6,22.1-1.1,31.7l0.2,1.5
								c1.8,9.6,5,18.8,9.6,27.3c0.2,0.4,1.3,1.8,1.9,2.3c0.5,0.5,0.9,0.8,1.8,1.6c5.3,4.2,13.3,9.9,21.8,12.9l0.1,0
								c0.2,0.1,0.4,0.1,0.5,0.1l0,0c0.2,0,0.2-0.1,0.2-0.1c0.5-0.7-1.2-4.3-2.4-6.9c-1.5-3.2-1.9-4.8-1.5-5.7
								c0.2-0.4,0.5-0.6,1-0.8c0.1,0,0.2,0,0.2,0c0.9,0,1.8,1.2,3.1,2.8c1.1,1.5,2.4,3.1,3.9,4.1c0.4,0.3,0.7,0.4,1,0.4
								c1.2,0,1.7-2.3,1.9-3.6c0.6-7.6,2.9-15.2,4.7-20.3c0.4-1,0.3-2,0.2-3.2c-0.1-0.7-0.3-1.2-0.5-1.8c-0.1-0.3-0.2-0.6-0.3-1l0,0
								c0,0-0.3-0.7-0.5-1.3c-0.1-0.3-0.9-1.7-1.1-2.1c-4.9-8.1-11-15.2-18-21.2l-1.6-1.3c-3.7-3.1-7.5-6.2-11.7-8.7
								c-0.9-0.5-1.8-1.1-2.8-1.6c-3.8-2.2-8.1-4.7-10.1-5.2C212.2,248.3,212.2,248.3,212.1,248.3z"/>
						</g>
						<g id="XMLID_502_">
							<path id="XMLID_503_" class="st2" d="M268.9,324.9c-1.3,0-2.2-0.3-2.6-0.9c-0.4-0.5-0.4-1.1-0.2-1.9c0.5-1.8,1.7-3.5,2.8-5.1
								c0.9-1.3,1.9-2.8,1.6-3.3c-0.2-0.3-0.4-0.4-0.7-0.4c-1,0-2.7,1.5-4.3,3c-3,2.8-5.1,4.6-6.2,4.6l0,0c-0.2,0-0.5-0.1-0.6-0.2
								c-0.2-0.2-0.3-0.6-0.3-1.1v-0.1c0.3-9.1,3.2-18.5,5.6-24.9c0.4-1.1,0.6-1.6,0.9-2.3c0.3-0.7,1.4-2.3,1.8-2.7
								c6.7-7.1,14.5-13.1,23.1-17.7l1.3-0.7c8.8-4.5,21.7-7.7,30.7-8.9c0.6-0.1,1.1,0.3,1.1,1c0.1,2.2-0.9,7.1-1.9,11.4
								c-0.2,1.1-0.5,2.2-0.7,3.2c-1,4.9-2.9,9.5-4.7,14l-0.8,1.9c-3.6,8.6-8.5,16.6-14.7,23.8c-0.4,0.4-1.4,1.5-1.7,1.8
								c-0.5,0.4-1.1,0.9-1.1,1c-0.3,0.2-0.6,0.4-0.8,0.6c-0.6,0.4-1.1,0.8-1.7,1.1c-1.1,0.5-2.1,0.9-3.2,0.9h-0.1c-1,0-2,0-3,0
								c-6.7,0-12.6,0.6-17.7,1.8C270,324.9,269.4,324.9,268.9,324.9z M269.8,312.7c0.5,0,0.9,0.2,1.2,0.7c0.6,0.8-0.4,2.2-1.6,4
								c-1,1.5-2.2,3.2-2.7,4.9c-0.2,0.6-0.2,1,0.1,1.3c0.5,0.6,1.8,0.8,3.8,0.5c5.1-1.2,11.2-1.8,17.9-1.8c1,0,2,0,3,0h0.1
								c1,0,1.9-0.4,2.9-0.8c0.6-0.3,1.1-0.6,1.6-1c0.2-0.2,0.5-0.4,0.8-0.6l0,0c0,0,0.6-0.5,1.1-0.9c0.2-0.2,1.3-1.3,1.7-1.7
								c6.2-7.2,11.1-15.1,14.6-23.6l0.8-1.9c1.8-4.5,3.6-9.1,4.6-13.9c0.2-1,0.4-2.1,0.7-3.2c0.9-4.3,2-9.2,1.9-11.2
								c0-0.2-0.2-0.4-0.4-0.4c-8.6,1.1-21.8,4.3-30.5,8.8l-1.3,0.7c-8.6,4.6-16.3,10.6-23,17.6c-0.3,0.3-1.3,1.8-1.6,2.5
								c-0.3,0.7-0.5,1.1-0.9,2.2c-2.4,6.3-5.3,15.7-5.5,24.7v0.1c0,0.4,0.1,0.6,0.1,0.6c0,0,0,0,0.2,0c1,0,3.6-2.4,5.8-4.4
								C267.5,313.6,268.8,312.7,269.8,312.7z"/>
						</g>
						<g id="XMLID_498_">
							<path id="XMLID_499_" class="st2" d="M321.9,375.6L321.9,375.6c-3,0-6.1-0.2-9.1-0.4l-2.1-0.1c-9.3-0.8-18.4-3-27.2-6.7
								c-0.5-0.2-1.9-0.9-2.2-1.1c-0.6-0.3-1.2-0.8-1.3-0.8c-0.3-0.2-0.6-0.4-0.8-0.6c-0.6-0.4-1.1-0.8-1.6-1.3
								c-0.8-0.9-1.5-1.7-1.9-2.9c-1.5-5.2-4.2-12.7-8.1-19.2c-1-2-1.2-3.5-0.7-4.3c0.3-0.5,0.9-0.8,1.8-0.8h0.1
								c1.8,0,3.8,0.6,5.6,1.1c1.3,0.4,2.4,0.7,3.1,0.7c0.2,0,0.5,0,0.6-0.2c0.2-0.2,0.2-0.5,0.2-0.7c-0.2-0.9-2.1-2.1-4.2-3.3
								c-4-2.3-6.5-3.7-6.3-4.9c0-0.4,0.4-0.7,1-0.9c0,0,0,0,0.1,0c5.7-1.7,12.5-2.5,20.4-2.5c1.6,0,3.3,0,5,0.1
								c1.2,0,1.7,0.1,2.5,0.2c0.8,0.1,2.6,0.6,3.1,0.9c8.8,4.2,16.9,9.7,24,16.5l1.1,1.1c7,6.9,14.1,18.3,17.9,26.4
								c0.1,0.3,0.1,0.6,0,0.8c-0.1,0.2-0.3,0.5-0.6,0.6c-2,0.8-7,1.3-11.4,1.7c-1.1,0.1-2.2,0.2-3.2,0.3
								C325.8,375.6,323.9,375.6,321.9,375.6z M280.4,366c0,0,0.7,0.4,1.2,0.7c0.3,0.2,1.7,0.8,2.2,1.1c8.7,3.6,17.8,5.9,27,6.6
								l2.1,0.1c3,0.2,6,0.4,9,0.4l0,0c2,0,3.8-0.1,5.6-0.3c1-0.1,2.1-0.2,3.2-0.3c4.4-0.5,9.4-1,11.3-1.7c0.1,0,0.2-0.1,0.2-0.2
								c0-0.1,0-0.2,0-0.3c-3.7-7.8-10.8-19.4-17.8-26.3l-1.1-1.1c-7.1-6.7-15.1-12.2-23.9-16.4c-0.4-0.2-2.1-0.7-2.9-0.8
								c-0.7-0.1-1.2-0.1-2.4-0.2c-1.7-0.1-3.3-0.1-5-0.1c-7.7,0-14.7,0.9-20.2,2.5l-0.1,0c-0.3,0.1-0.6,0.2-0.6,0.4
								c-0.1,0.8,3.6,2.9,6,4.2c3.1,1.7,4.3,2.8,4.5,3.7c0.1,0.4,0,0.8-0.3,1.2c-0.2,0.3-0.6,0.4-1.1,0.4c-0.8,0-1.9-0.3-3.2-0.7
								c-1.7-0.5-3.7-1.1-5.4-1.1h-0.1c-0.6,0-1.1,0.2-1.3,0.5c-0.4,0.6-0.1,1.9,0.7,3.7c4,6.5,6.6,14.1,8.2,19.3
								c0.3,1,1,1.8,1.7,2.7c0.5,0.5,0.9,0.8,1.5,1.2C279.8,365.6,280.1,365.8,280.4,366L280.4,366z"/>
						</g>
						<g id="XMLID_494_">
							<path id="XMLID_495_" class="st2" d="M244.4,426c-0.3,0-0.6-0.1-0.8-0.4c-1.4-1.7-3.4-6.3-5.2-10.3c-0.5-1.1-0.9-2.1-1.3-3
								c-2-4.5-3.3-9.4-4.4-14l-0.5-2c-2.1-9.1-2.8-18.5-2.1-28c0.1-0.5,0.3-2.1,0.3-2.5c0.1-0.6,0.4-1.4,0.4-1.4
								c0.1-0.4,0.2-0.7,0.3-1c0.2-0.7,0.4-1.3,0.8-1.9c0.6-1.1,1.2-2,2.2-2.7c4.4-3,10.8-7.9,15.7-13.6c1.4-1.4,2.6-2.1,3.5-2.1
								c0.6,0,1.3,0.3,1.8,1.5c0.6,1.8,0.7,3.9,0.7,5.8c0.1,1.6,0.1,3.4,0.6,3.6c0.1,0,0.2,0.1,0.4,0.1c1,0,1.6-2,2.2-5.1
								c1-5.1,1.6-7.5,2.8-7.5c0.4,0,0.7,0.2,1,0.7c0,0,0,0,0,0.1c5.1,7.5,8.3,16.9,10.1,23.4c0.3,1.2,0.5,1.6,0.6,2.4
								c0.2,0.8,0.2,2.7,0.1,3.2c-1.2,9.7-4,19.1-8.3,28l-0.7,1.3c-4.4,8.8-13,19-19.6,25.2C244.9,425.9,244.6,426,244.4,426z
								 M231.4,364.5c0,0-0.2,0.8-0.3,1.4c-0.1,0.3-0.3,1.8-0.3,2.4c-0.8,9.4-0.1,18.8,2.1,27.7l0.5,2c1.2,4.6,2.4,9.5,4.4,13.9
								c0.4,0.9,0.9,2,1.3,3c1.8,4,3.8,8.6,5.1,10.2c0.1,0.1,0.2,0.2,0.3,0.2c0.1,0,0.2,0,0.2-0.1c6.3-6,15.1-16.3,19.5-25l0.7-1.3
								c4.2-8.8,7-18.1,8.2-27.8c0-0.4,0-2.2-0.1-3c-0.1-0.7-0.2-1.2-0.6-2.3c-1.8-6.5-5-15.8-10-23.2l0.2-0.2l-0.3,0.2
								c-0.3-0.4-0.5-0.4-0.5-0.4c-0.8,0-1.7,4.4-2.2,7c-0.7,3.6-1.4,5.6-2.8,5.6c-0.2,0-0.4,0-0.6-0.1c-0.9-0.3-1-1.9-1.1-4.2
								c-0.1-1.8-0.1-3.9-0.7-5.6c-0.4-1.1-1-1.1-1.1-1.1c-0.7,0-1.8,0.6-3,1.9c-5,5.8-11.4,10.7-15.8,13.7c-0.9,0.6-1.4,1.5-2,2.5
								c-0.3,0.6-0.5,1.1-0.7,1.8C231.6,363.9,231.5,364.2,231.4,364.5L231.4,364.5z"/>
						</g>
						<g id="XMLID_490_">
							<path id="XMLID_491_" class="st2" d="M258.1,343.7c-0.3,0-0.5-0.2-0.5-2.2c-0.1-3.9-0.7-7.3-1.1-8.9
								c-1.4,0.8-4.5,2.5-8.7,3.8c-0.6,0.2-1.5,0.4-1.8,0.4c-0.3,0-0.4-0.2-0.4-0.3c0-0.3-0.1-0.4,1.9-1.1c3.6-1.3,6.6-2.9,8.1-3.7
								c-1.2-1.1-3.7-3.5-6.3-7.1c-1.1-1.6-1.1-1.7-1-1.9l0.1-0.2l0.2,0c0.2,0,0.3,0,1.5,1.5c2.4,3.1,4.9,5.5,6.2,6.6
								c0.7-1.5,2.2-4.7,4.9-8.3c1.1-1.5,1.3-1.5,1.5-1.5h0.2l0.1,0.2c0.1,0.2,0.2,0.3-0.9,1.9c-2.2,3.2-3.7,6.3-4.4,7.8
								c1.6,0.2,5.1,0.6,9.3,2.1c2,0.7,1.9,0.8,1.9,1.1c0,0-0.1,0.3-0.4,0.3l0,0c-0.3,0-1.2-0.2-1.8-0.4c-3.8-1.1-7.2-1.6-8.9-1.7
								c0.3,1.5,1,5,0.9,9.5C258.6,343.5,258.5,343.7,258.1,343.7z M256.6,331.7L256.6,331.7l0.3-0.1l-0.1-0.2l-0.1,0L256.6,331.7z"
								/>
						</g>
						<g id="XMLID_486_">
							<path id="XMLID_487_" class="st2" d="M177.1,305.7L177.1,305.7c-1,0-1.9-0.1-2.8-0.2l-0.4,0c-2.3-0.4-5.1-1.5-7-2.5
								c-0.1-0.1-0.2-0.2-0.2-0.3c0-0.1,0-0.3,0.1-0.4c0.3-0.4,1.1-1.2,1.9-1.9c0.2-0.2,0.4-0.3,0.6-0.5c0.9-0.8,1.8-1.4,2.8-2
								l0.4-0.3c1.8-1.1,3.9-1.9,6-2.5c0.1,0,0.5-0.1,0.6-0.1c0.2,0,0.4,0,0.4,0h0.1h0.2c0.1,0,0.3,0,0.4,0c0.3,0.1,0.6,0.1,0.8,0.3
								c1,0.7,2.4,1.8,4,2.4c0.3,0.1,1,0.5,0.9,1.1c0,0.2-0.1,0.3-0.3,0.4c-0.4,0.3-0.9,0.5-1.3,0.6c-0.1,0-0.3,0.1-0.4,0.2
								c0.2,0,0.4,0,0.8,0c0.5-0.1,1-0.1,1.3-0.1c0.4,0,0.6,0.1,0.7,0.2c0,0,0.3,0.3,0,0.7l0,0c-1.3,1.7-3.1,3-4.4,3.9
								c-0.2,0.2-0.3,0.2-0.5,0.3c-0.2,0.1-0.6,0.2-0.7,0.3C179.7,305.6,178.4,305.7,177.1,305.7z M167.5,302.5
								c1.7,0.9,4.5,2,6.6,2.4l0.3,0c2.2,0.3,4.4,0.2,6.5-0.2c0.1,0,0.4-0.1,0.6-0.2c0.1-0.1,0.2-0.1,0.5-0.3
								c1.2-0.8,2.9-2.1,4.2-3.6c-0.3,0-0.7,0-1.3,0.1c-0.3,0-0.6,0.1-0.8,0.1l0,0c-0.2,0-0.7,0-0.9-0.4c0-0.1,0-0.2,0-0.2
								c0-0.4,0.4-0.5,1-0.7c0.4-0.1,0.8-0.3,1.1-0.5c0,0,0.1-0.1,0.1-0.1l0,0c0,0-0.1-0.1-0.5-0.4c-1.6-0.7-3.1-1.7-4.1-2.5
								c-0.2-0.1-0.3-0.2-0.6-0.2c-0.1,0-0.2,0-0.3,0h-0.2h-0.1c0,0-0.2,0-0.3,0c-0.1,0-0.4,0.1-0.5,0.1c-2.1,0.5-4,1.3-5.8,2.4
								l-0.4,0.3c-0.9,0.6-1.8,1.2-2.7,1.9c-0.2,0.2-0.4,0.3-0.6,0.5C168.5,301.4,167.8,302.1,167.5,302.5z"/>
						</g>
						<g id="XMLID_482_">
							<path id="XMLID_483_" class="st2" d="M186.1,297.8L186.1,297.8c-0.1,0-0.2,0-0.2,0c-2-0.7-3.9-2-5.1-3
								c-0.2-0.2-0.3-0.2-0.5-0.4c-0.2-0.1-0.4-0.5-0.5-0.6c-1.1-2-1.8-4.1-2.3-6.4l-0.1-0.4c-0.4-2.3-0.1-5.4,0.2-7.4
								c0.1-0.3,0.3-0.4,0.6-0.4c0.5,0.1,1.5,0.7,2.4,1.2c0.2,0.1,0.5,0.3,0.7,0.4c1,0.6,1.9,1.3,2.8,2l0.4,0.3c1.6,1.4,3,3.1,4.2,5
								c0.1,0.1,0.2,0.4,0.3,0.5c0.1,0.1,0.1,0.3,0.1,0.3c0,0.1,0.1,0.2,0.1,0.2c0.1,0.2,0.1,0.3,0.1,0.5c0,0.3,0.1,0.6-0.1,0.9
								c-0.4,1.1-0.9,2.8-1.1,4.5c-0.1,0.8-0.4,1.2-0.8,1.2c-0.1,0-0.3-0.1-0.5-0.2c-0.4-0.3-0.7-0.7-1-1c-0.1-0.1-0.2-0.2-0.3-0.4
								c0,0.1,0.1,0.4,0.3,0.8c0.5,1.2,0.7,1.7,0.5,2C186.4,297.7,186.2,297.8,186.1,297.8z M178.3,279.9c-0.3,1.9-0.6,4.9-0.2,7
								l0.1,0.3c0.4,2.2,1.1,4.3,2.2,6.2c0,0.1,0.3,0.4,0.4,0.5c0.1,0.1,0.2,0.2,0.4,0.4c1.1,0.9,2.9,2.1,4.7,2.8
								c-0.1-0.3-0.3-0.9-0.5-1.2c-0.3-0.7-0.5-1.2-0.3-1.5c0-0.1,0.2-0.2,0.4-0.3c0,0,0.1,0,0.1,0c0.3,0,0.6,0.3,0.9,0.7
								c0.2,0.3,0.5,0.7,0.8,0.9c0.1,0,0.1,0,0.1,0s0.1-0.1,0.2-0.6c0.1-1.7,0.7-3.5,1.1-4.7c0.1-0.2,0.1-0.4,0-0.6
								c0-0.1-0.1-0.2-0.1-0.4c0-0.1-0.1-0.1-0.1-0.2l0,0c0,0-0.1-0.1-0.1-0.3c0-0.1-0.2-0.4-0.2-0.5c-1.1-1.8-2.5-3.4-4.1-4.8
								l-0.4-0.3c-0.8-0.7-1.7-1.4-2.7-2c-0.2-0.1-0.4-0.2-0.7-0.4C179.7,280.6,178.8,280.1,178.3,279.9z"/>
						</g>
						<g id="XMLID_478_">
							<path id="XMLID_479_" class="st2" d="M191.2,297.4c-0.4,0-0.6-0.1-0.8-0.3c-0.1-0.1-0.2-0.3-0.1-0.7c0.1-0.4,0.4-0.9,0.7-1.2
								c0.1-0.1,0.2-0.3,0.2-0.4c-0.1,0.1-0.3,0.2-0.6,0.5c-0.9,0.8-1.2,1.1-1.6,1.1l0,0c-0.1,0-0.2,0-0.3-0.1
								c-0.1-0.1-0.1-0.2-0.1-0.4c0.1-2.1,0.7-4.3,1.3-5.8c0.1-0.3,0.1-0.4,0.2-0.5c0.1-0.2,0.4-0.6,0.4-0.7c1.6-1.6,3.4-3,5.4-4.1
								l0.3-0.2c2-1.1,5-1.8,7.1-2.1h0.1c0.3,0,0.5,0.2,0.5,0.5c0,0.5-0.2,1.6-0.4,2.7c-0.1,0.2-0.1,0.5-0.1,0.7
								c-0.2,1.1-0.7,2.2-1.1,3.2l-0.2,0.4c-0.8,2-2,3.9-3.4,5.5c-0.1,0.1-0.3,0.4-0.4,0.4c-0.1,0.1-0.3,0.2-0.3,0.2
								c-0.1,0.1-0.1,0.1-0.2,0.1c-0.1,0.1-0.3,0.2-0.4,0.3c-0.3,0.1-0.5,0.2-0.8,0.2h0c-0.2,0-0.4,0-0.7,0c-1.5,0-2.9,0.1-4,0.4
								C191.4,297.4,191.3,297.4,191.2,297.4z M190.9,296.7c0,0,0.1,0,0.3,0c0.1,0,0.2,0,0.4,0c1.2-0.3,2.6-0.4,4.1-0.4
								c0.2,0,0.5,0,0.7,0l0,0c0.2,0,0.4-0.1,0.6-0.2c0.1,0,0.2-0.1,0.3-0.2c0.1,0,0.1-0.1,0.2-0.1l0,0c0,0,0.1-0.1,0.2-0.2
								c0,0,0.3-0.3,0.4-0.4c1.4-1.6,2.5-3.4,3.3-5.3l0.2-0.4c0.4-1,0.8-2.1,1.1-3.1c0-0.2,0.1-0.5,0.1-0.7c0.2-0.8,0.4-1.8,0.4-2.3
								c-1.9,0.3-4.8,1-6.7,2l-0.3,0.2c-1.9,1-3.7,2.4-5.2,4c-0.1,0.1-0.3,0.4-0.3,0.5c-0.1,0.1-0.1,0.2-0.2,0.5
								c-0.5,1.4-1.1,3.4-1.2,5.4c0.3-0.2,0.7-0.6,1-0.8c0.6-0.6,1-0.8,1.3-0.8c0.2,0,0.4,0.1,0.5,0.3c0.2,0.3,0,0.7-0.4,1.2
								C191.3,295.9,191,296.3,190.9,296.7C190.9,296.7,190.9,296.7,190.9,296.7L190.9,296.7z"/>
						</g>
						<g id="XMLID_474_">
							<path id="XMLID_475_" class="st2" d="M203.3,309L203.3,309c-0.7,0-1.4,0-2.1-0.1l-0.5,0c-2.2-0.2-4.3-0.7-6.3-1.5
								c-0.1,0-0.5-0.2-0.5-0.3c-0.1-0.1-0.3-0.2-0.3-0.2c-0.1-0.1-0.1-0.1-0.2-0.1c-0.1-0.1-0.3-0.2-0.4-0.3
								c-0.2-0.2-0.4-0.4-0.5-0.8c-0.3-1.2-0.9-2.9-1.8-4.3c-0.3-0.6-0.3-1-0.2-1.2c0.1-0.1,0.3-0.3,0.6-0.3h0
								c0.5,0,0.9,0.1,1.3,0.2c0.1,0,0.3,0.1,0.4,0.1c-0.1-0.1-0.3-0.2-0.7-0.5c-1.1-0.6-1.6-0.9-1.6-1.4c0-0.1,0.1-0.3,0.4-0.4l0,0
								c1.3-0.4,2.9-0.6,4.7-0.6c0.4,0,0.8,0,1.2,0c0.3,0,0.4,0,0.6,0c0.2,0,0.6,0.2,0.8,0.2c2.1,1,3.9,2.3,5.6,3.8l0.2,0.2
								c1.6,1.6,3.3,4.2,4.1,6.1c0.1,0.1,0.1,0.3,0,0.4s-0.1,0.2-0.3,0.3c-0.5,0.2-1.6,0.3-2.7,0.4c-0.2,0-0.5,0.1-0.7,0.1
								C204.2,309,203.8,309,203.3,309z M193.9,306.3c0,0,0.1,0.1,0.2,0.1c0.1,0,0.4,0.2,0.5,0.2c2,0.8,4,1.3,6.1,1.5l0.5,0
								c0.7,0,1.4,0.1,2,0.1l0,0c0.5,0,0.9,0,1.2-0.1c0.2,0,0.5-0.1,0.7-0.1c0.8-0.1,1.8-0.2,2.4-0.3c-0.9-1.8-2.4-4.3-3.9-5.8
								l-0.2-0.2c-1.6-1.5-3.4-2.8-5.4-3.7c-0.1,0-0.4-0.1-0.6-0.2c-0.2,0-0.3,0-0.5,0c-0.4,0-0.8,0-1.1,0c-1.6,0-3.1,0.2-4.4,0.5
								c0.3,0.2,0.8,0.5,1.1,0.7c0.7,0.4,1.1,0.7,1.2,1c0,0.1,0,0.3-0.1,0.5c-0.1,0.1-0.2,0.2-0.4,0.2c-0.2,0-0.5-0.1-0.8-0.2
								c-0.4-0.1-0.8-0.2-1.2-0.2c-0.1,0-0.1,0-0.1,0c0,0,0,0.2,0.2,0.6c0.9,1.5,1.5,3.3,1.9,4.5c0.1,0.2,0.1,0.3,0.3,0.5
								c0.1,0.1,0.2,0.2,0.3,0.2C193.8,306.3,193.9,306.3,193.9,306.3L193.9,306.3z"/>
						</g>
						<g id="XMLID_470_">
							<path id="XMLID_471_" class="st2" d="M185.6,320.5L185.6,320.5c-0.1,0-0.3-0.1-0.4-0.2c-0.3-0.4-0.8-1.4-1.2-2.4
								c-0.1-0.2-0.2-0.5-0.3-0.7c-0.5-1.1-0.8-2.2-1-3.3l-0.1-0.5c-0.5-2.1-0.7-4.3-0.5-6.5c0-0.1,0.1-0.5,0.1-0.6
								c0-0.2,0.1-0.4,0.1-0.4c0-0.1,0-0.2,0.1-0.2c0.1-0.2,0.1-0.3,0.2-0.5c0.1-0.3,0.3-0.5,0.6-0.7c1-0.7,2.4-1.8,3.5-3.1
								c0.4-0.4,0.7-0.6,1-0.6c0.1,0,0.5,0,0.6,0.5c0.1,0.4,0.2,1,0.2,1.4c0,0.1,0,0.3,0,0.4c0.1-0.1,0.1-0.4,0.2-0.8
								c0.3-1.3,0.4-1.9,0.9-1.9c0.2,0,0.3,0.1,0.4,0.2l0,0c1.2,1.7,1.9,3.9,2.3,5.4c0.1,0.3,0.1,0.4,0.1,0.6c0,0.2,0.1,0.7,0,0.8
								c-0.3,2.2-0.9,4.4-1.9,6.5l-0.2,0.3c-1,2.1-3,4.4-4.5,5.8C185.8,320.5,185.7,320.5,185.6,320.5z M182.8,306.3
								c0,0,0,0.2-0.1,0.3c0,0.1-0.1,0.4-0.1,0.5c-0.2,2.1,0,4.2,0.5,6.3l0.1,0.5c0.3,1.1,0.5,2.1,1,3.2c0.1,0.2,0.2,0.5,0.3,0.7
								c0.3,0.8,0.7,1.7,1,2.1c1.4-1.4,3.3-3.6,4.3-5.5l0.2-0.3c1-2,1.6-4.1,1.9-6.3c0-0.1,0-0.5,0-0.6c0-0.2-0.1-0.2-0.1-0.5
								c-0.4-1.4-1.1-3.4-2.2-5.1c-0.1,0.3-0.2,0.9-0.3,1.2c-0.2,0.8-0.4,1.5-0.9,1.5c-0.1,0-0.1,0-0.2,0c-0.4-0.1-0.4-0.6-0.4-1.2
								c0-0.4,0-0.9-0.1-1.2c0-0.1,0-0.1,0-0.1s-0.1,0-0.5,0.4c-1.1,1.3-2.6,2.4-3.7,3.2c-0.2,0.1-0.3,0.3-0.4,0.5
								c-0.1,0.1-0.1,0.2-0.1,0.4C182.9,306.1,182.8,306.2,182.8,306.3L182.8,306.3z"/>
						</g>
						<g id="XMLID_468_">
							<path id="XMLID_469_" class="st2" d="M188.7,301.7c-0.4,0-0.4-0.3-0.4-0.7c0-0.7-0.1-1.3-0.2-1.7c-0.4,0.2-1,0.5-1.7,0.7
								c-0.4,0.1-0.5,0.1-0.5,0.1l0,0h-0.3l-0.1-0.3c-0.1-0.3,0.2-0.4,0.6-0.5c0.6-0.2,1.1-0.5,1.5-0.7c-0.3-0.3-0.8-0.8-1.2-1.4
								c-0.2-0.3-0.3-0.5-0.2-0.7l0.1-0.2h0.2c0.2,0,0.3,0.1,0.5,0.4c0.4,0.5,0.8,1,1.1,1.3c0.2-0.4,0.5-1,1-1.6
								c0.3-0.4,0.4-0.4,0.5-0.4h0.2l0.1,0.2c0.1,0.2,0,0.4-0.2,0.7c-0.4,0.6-0.6,1.1-0.8,1.4c0.4,0.1,1.1,0.2,1.8,0.4
								c0.4,0.1,0.6,0.2,0.6,0.5l0,0.3h-0.3c0,0-0.1,0-0.5-0.1c-0.6-0.2-1.2-0.3-1.7-0.4c0.1,0.4,0.2,1.1,0.1,1.9
								C189.1,301.3,189.1,301.7,188.7,301.7z"/>
						</g>
						<g id="XMLID_464_">
							<path id="XMLID_465_" class="st2" d="M140.3,402.5L140.3,402.5c-2.3,0-4.5-0.1-6.8-0.5l-0.8-0.1c-5.4-0.8-12.2-3.6-16.5-6
								c-0.2-0.1-0.3-0.2-0.4-0.4c0-0.2,0-0.4,0.1-0.6c0.6-1,2.7-2.9,4.5-4.5c0.5-0.4,0.9-0.8,1.3-1.2c2-1.8,4.3-3.3,6.5-4.7
								l1.1-0.7c4.4-2.7,9.2-4.6,14.3-5.8c0.3-0.1,1.1-0.2,1.4-0.2c0.4,0,0.8-0.1,0.8-0.1c0.2,0,0.4,0,0.5,0h0.3
								c0.3,0,0.6,0,0.9,0.1c0.7,0.1,1.3,0.3,1.8,0.7c2.3,1.8,5.9,4.3,9.7,5.9c1.4,0.7,2,1.4,1.8,2.1c-0.1,0.3-0.3,0.6-0.6,0.8
								c-0.8,0.6-1.9,1-2.9,1.4c-0.6,0.2-1.6,0.6-1.7,0.8c0,0.1,0,0.1,0,0.2c0.1,0.2,0.4,0.3,1.1,0.3c0.4,0,1,0,1.8-0.1
								c1.2-0.1,2.3-0.2,3.1-0.2c0.7,0,1.1,0.1,1.4,0.3c0.1,0.1,0.4,0.5-0.1,1l0,0c-3.1,3.9-7.4,7.2-10.5,9.3
								c-0.5,0.4-0.8,0.5-1.2,0.7c-0.4,0.2-1.4,0.6-1.7,0.6C146.5,402.2,143.4,402.5,140.3,402.5z M145.9,378.4c0,0-0.4,0-0.7,0.1
								c-0.2,0-1,0.2-1.3,0.2c-5,1.2-9.8,3.1-14.1,5.8l-1,0.7c-2.2,1.4-4.5,2.8-6.4,4.6c-0.4,0.4-0.9,0.8-1.3,1.2
								c-1.8,1.6-3.8,3.4-4.4,4.4c0,0,0,0,0,0s0,0,0,0c4.2,2.3,11.1,5.1,16.3,5.9l0.8,0.1c2.2,0.3,4.4,0.5,6.7,0.5l0,0
								c3.1,0,6.2-0.3,9.2-0.9c0.2,0,1.1-0.4,1.5-0.6c0.4-0.2,0.6-0.3,1.1-0.7c3.1-2,7.4-5.2,10.4-9.1l0,0c0.1-0.1,0.1-0.2,0.1-0.2
								c-0.1,0-0.3-0.1-0.9-0.1c-0.7,0-1.8,0.1-3,0.2c-0.8,0.1-1.4,0.1-1.8,0.1c-0.7,0-1.5-0.1-1.7-0.7c0-0.1-0.1-0.2-0.1-0.4
								c0-0.6,0.9-1,2.1-1.4c0.9-0.3,2-0.7,2.8-1.3c0.2-0.1,0.3-0.3,0.3-0.4c0.1-0.4-0.5-0.9-1.5-1.4c-3.9-1.6-7.5-4.1-9.9-6
								c-0.5-0.3-1-0.5-1.6-0.6c-0.3,0-0.5-0.1-0.8-0.1h-0.3C146.2,378.4,146,378.4,145.9,378.4z"/>
						</g>
						<g id="XMLID_460_">
							<path id="XMLID_461_" class="st2" d="M161.8,383.5L161.8,383.5c-0.1,0-0.3,0-0.4-0.1c0,0,0,0-0.1,0
								c-4.7-1.7-9.1-4.8-12.1-7.2c-0.5-0.4-0.7-0.6-1-0.9c-0.3-0.3-1-1.1-1.1-1.4c-2.6-4.7-4.4-9.8-5.4-15.1l-0.1-0.8
								c-0.9-5.4-0.3-12.7,0.6-17.6c0.1-0.4,0.5-0.6,0.9-0.5c1.2,0.3,3.4,1.6,5.7,2.9c0.5,0.3,1.1,0.6,1.6,0.9
								c2.4,1.4,4.5,3.1,6.5,4.8l0.9,0.7c3.9,3.3,7.2,7.3,10,11.8c0.2,0.3,0.6,1,0.7,1.2c0.1,0.3,0.3,0.7,0.3,0.8
								c0.1,0.2,0.1,0.4,0.2,0.5c0.1,0.4,0.2,0.7,0.3,1.1c0.1,0.7,0.1,1.3-0.1,2c-1,2.8-2.2,6.9-2.6,11c-0.3,1.6-0.8,2.4-1.6,2.4
								c-0.3,0-0.5-0.1-0.8-0.3c-0.9-0.6-1.6-1.5-2.2-2.3c-0.5-0.6-1.1-1.3-1.3-1.3c-0.1,0-0.2,0.1-0.2,0.2
								c-0.2,0.4,0.3,1.7,0.8,2.7c1.1,2.5,1.6,3.7,1.3,4.3C162.2,383.4,162,383.5,161.8,383.5z M142.8,340.5
								C142.8,340.5,142.8,340.5,142.8,340.5c-0.9,4.7-1.5,12.1-0.6,17.4l0.1,0.8c1,5.2,2.7,10.3,5.3,14.9c0.1,0.2,0.7,1,1,1.2
								c0.3,0.3,0.5,0.4,1,0.9c2.9,2.3,7.3,5.4,11.9,7.1l-0.1,0.3l0.1-0.3c0.1,0,0.2,0,0.2,0l0,0l0,0c0.1-0.4-0.8-2.5-1.3-3.7
								c-0.9-1.8-1.1-2.7-0.8-3.2c0.1-0.2,0.3-0.4,0.6-0.5c0.1,0,0.1,0,0.2,0c0.5,0,1.1,0.7,1.8,1.6c0.6,0.8,1.3,1.7,2.1,2.2
								c0.2,0.1,0.3,0.2,0.5,0.2c0.4,0,0.7-0.7,0.9-1.9c0.4-4.2,1.6-8.4,2.6-11.2c0.2-0.5,0.1-1.1,0.1-1.7c0-0.3-0.1-0.6-0.2-1
								c-0.1-0.2-0.1-0.4-0.2-0.5l0,0c0,0-0.1-0.4-0.3-0.7c-0.1-0.2-0.5-0.9-0.6-1.2c-2.7-4.4-6-8.3-9.8-11.6l-0.9-0.7
								c-2-1.7-4.1-3.4-6.4-4.7c-0.5-0.3-1-0.6-1.6-0.9C146.2,342.1,143.9,340.8,142.8,340.5C142.8,340.5,142.8,340.5,142.8,340.5z"
								/>
						</g>
						<g id="XMLID_456_">
							<path id="XMLID_457_" class="st2" d="M203.1,410.4c-1.7,0-3.4-0.1-5.1-0.2l-1.1-0.1c-5.1-0.4-10.2-1.7-15-3.7
								c-0.3-0.1-1.1-0.5-1.2-0.6c-0.3-0.2-0.7-0.4-0.7-0.4c-0.2-0.1-0.3-0.2-0.5-0.3c-0.3-0.2-0.6-0.4-0.9-0.7
								c-0.5-0.5-0.9-1-1.1-1.7c-0.8-2.8-2.3-6.9-4.4-10.5c-0.6-1.2-0.7-2-0.4-2.5c0.2-0.4,0.6-0.5,1.1-0.5h0.1c1,0,2.1,0.3,3.1,0.6
								c0.7,0.2,1.3,0.4,1.6,0.4c0.1,0,0.2,0,0.2,0c0.1-0.1,0.1-0.2,0.1-0.3c-0.1-0.5-1.2-1.2-2.2-1.7c-2.5-1.4-3.6-2.1-3.5-2.8
								c0-0.3,0.3-0.5,0.7-0.6c3.2-0.9,6.9-1.4,11.3-1.4c0.9,0,1.8,0,2.8,0.1c0.7,0,0.9,0,1.4,0.1c0.4,0.1,1.5,0.4,1.7,0.5
								c4.9,2.3,9.3,5.4,13.2,9.1l0.6,0.6c3.9,3.8,7.7,10.1,9.9,14.6c0.1,0.2,0.1,0.4,0,0.6c-0.1,0.2-0.2,0.3-0.4,0.4
								c-1.1,0.4-3.9,0.7-6.3,1c-0.6,0.1-1.2,0.1-1.8,0.2C205.2,410.3,204.2,410.4,203.1,410.4z M180.3,404.8c0,0,0.4,0.2,0.6,0.4
								c0.2,0.1,0.9,0.4,1.2,0.6c4.8,2,9.7,3.2,14.8,3.6l1.1,0.1c1.6,0.1,3.3,0.2,5,0.2c1.1,0,2.1-0.1,3-0.2
								c0.6-0.1,1.2-0.1,1.8-0.2c2.4-0.2,5.1-0.5,6.1-0.9c0,0,0,0,0,0s0,0,0,0c-2-4.3-5.9-10.6-9.7-14.4l-0.6-0.6
								c-3.9-3.7-8.3-6.7-13.1-9c-0.2-0.1-1.1-0.4-1.5-0.4c-0.4-0.1-0.7-0.1-1.3-0.1c-0.9,0-1.8-0.1-2.7-0.1c-4.2,0-8,0.5-11.1,1.3
								c-0.1,0-0.2,0.1-0.2,0.1c0.1,0.4,2.1,1.6,3.2,2.2c1.8,1,2.4,1.6,2.6,2.1c0.1,0.3,0,0.5-0.2,0.8c-0.1,0.2-0.4,0.3-0.7,0.3
								c-0.5,0-1.1-0.2-1.8-0.4c-0.9-0.3-2-0.6-2.9-0.6h-0.1c-0.3,0-0.5,0.1-0.6,0.2c-0.1,0.1-0.2,0.6,0.4,1.9
								c2.2,3.6,3.6,7.8,4.5,10.6c0.2,0.5,0.5,0.9,0.9,1.4c0.2,0.2,0.5,0.4,0.8,0.6C180,404.6,180.2,404.7,180.3,404.8L180.3,404.8z
								"/>
						</g>
						<g id="XMLID_452_">
							<path id="XMLID_453_" class="st2" d="M160.5,438L160.5,438c-0.2,0-0.4-0.1-0.5-0.3c-0.8-0.9-1.8-3.3-2.9-5.7
								c-0.3-0.6-0.5-1.1-0.7-1.7c-1.1-2.5-1.8-5.2-2.4-7.8l-0.3-1.1c-1.2-5-1.6-10.2-1.1-15.4c0-0.3,0.1-1.2,0.2-1.4
								c0.1-0.4,0.2-0.8,0.2-0.8c0.1-0.2,0.1-0.4,0.2-0.5c0.1-0.4,0.2-0.7,0.4-1.1c0.3-0.6,0.7-1.1,1.2-1.5c2.4-1.7,5.9-4.3,8.6-7.5
								c0.8-0.8,1.5-1.2,2-1.2c0.4,0,0.8,0.2,1.1,0.9c0.3,1,0.4,2.2,0.4,3.2c0,0.7,0.1,1.7,0.2,1.8c0.1,0,0.1,0,0.1,0
								c0.5,0,0.8-1.4,1.1-2.7c0.6-3,0.9-4.3,1.7-4.3c0.4,0,0.6,0.3,0.7,0.5l0,0c2.8,4.1,4.6,9.3,5.6,12.9c0.2,0.6,0.2,0.9,0.3,1.3
								c0.1,0.4,0.1,1.5,0.1,1.8c-0.7,5.3-2.2,10.5-4.6,15.4l-0.4,0.7c-2.4,4.9-7.2,10.5-10.8,13.9C160.9,437.9,160.7,438,160.5,438
								z M153.5,404.2c0,0-0.1,0.4-0.2,0.7c0,0.2-0.1,1-0.2,1.3c-0.4,5.1,0,10.3,1.1,15.2l0.3,1.1c0.6,2.6,1.3,5.2,2.4,7.7
								c0.2,0.5,0.5,1.1,0.7,1.7c1,2.2,2.1,4.7,2.8,5.5c0,0,0,0.1,0.1,0c3.5-3.3,8.3-8.9,10.7-13.7l0.4-0.7
								c2.3-4.8,3.8-9.9,4.5-15.2c0-0.2,0-1.2-0.1-1.6s-0.1-0.6-0.3-1.3c-1-3.6-2.7-8.7-5.5-12.7l0,0c-0.1-0.1-0.1-0.1-0.1-0.1
								c-0.4,0.2-0.8,2.5-1.1,3.7c-0.4,2.1-0.8,3.2-1.7,3.2c-0.1,0-0.2,0-0.4-0.1c-0.6-0.2-0.6-1.1-0.7-2.4c0-1-0.1-2.1-0.4-3
								c-0.2-0.5-0.4-0.5-0.5-0.5c-0.2,0-0.7,0.1-1.6,1c-2.7,3.2-6.2,5.8-8.7,7.5c-0.5,0.3-0.7,0.8-1,1.3c-0.2,0.3-0.3,0.6-0.4,1
								C153.6,403.8,153.6,404,153.5,404.2L153.5,404.2z"/>
						</g>
						<g id="XMLID_450_">
							<path id="XMLID_451_" class="st2" d="M168.1,392.9c-0.4,0-0.4-0.3-0.4-1.3c-0.1-2-0.4-3.7-0.5-4.7c-0.9,0.5-2.5,1.3-4.6,2
								c-0.8,0.2-1,0.2-1,0.2c-0.2,0-0.3-0.1-0.4-0.3c-0.1-0.3,0.2-0.4,1.1-0.8c1.8-0.7,3.4-1.5,4.2-1.9c-0.7-0.7-2-1.9-3.3-3.8
								c-0.6-0.9-0.6-1-0.5-1.2l0.1-0.2h0.2c0.1,0,0.2,0,0.9,0.9c1.2,1.6,2.5,2.8,3.2,3.5c0.4-0.9,1.2-2.5,2.6-4.4
								c0.7-0.9,0.8-0.9,0.9-0.9h0.2l0.1,0.2c0.1,0.2,0.1,0.3-0.5,1.2c-1.1,1.6-1.9,3.2-2.3,4.1c1,0.1,2.8,0.4,4.9,1.1
								c1,0.3,1.2,0.4,1.1,0.7c0,0.1-0.1,0.3-0.4,0.3l0,0c-0.1,0-0.2,0-1-0.2c-1.9-0.6-3.7-0.8-4.7-0.9c0.2,0.9,0.5,2.7,0.5,5
								C168.5,392.5,168.5,392.9,168.1,392.9z"/>
						</g>
					</g>
				</g>
			</g>
		</g>
	</g>
</g>
</svg>
