<?xml version="1.0" encoding="utf-8"?>
<!-- Generator: Adobe Illustrator 21.1.0, SVG Export Plug-In . SVG Version: 6.00 Build 0)  -->
<svg version="1.1" id="Layer_1" xmlns="http://www.w3.org/2000/svg" xmlns:xlink="http://www.w3.org/1999/xlink" x="0px" y="0px"
	 viewBox="0 0 760.7 409.5" style="enable-background:new 0 0 760.7 409.5;" xml:space="preserve">
<style type="text/css">
	.st0{opacity:0.53;}
	.st1{opacity:0.7;clip-path:url(#XMLID_2_);}
	.st2{fill:#FDC664;}
</style>
<g id="XMLID_1071_" class="st0">
	<defs>
		<rect id="XMLID_1072_" class="st0" width="760.7" height="409.5"/>
	</defs>
	<clipPath id="XMLID_2_">
		<use xlink:href="#XMLID_1072_"  style="overflow:visible;"/>
	</clipPath>
	<g id="XMLID_1073_" class="st1">
		<g>
			<g id="XMLID_510_">
				<path id="XMLID_511_" class="st2" d="M330.8,317.5c-2.4,0-4-0.6-4.9-1.7c-0.7-0.9-0.8-2.2-0.4-3.7c1-3.1,3-6.2,4.9-8.9
					c1.2-1.8,3-4.5,2.8-5.1c-0.3-0.4-0.6-0.5-0.8-0.5c-1.5,0-4.6,2.7-7.1,5c-5.4,5-8.9,8-11,8c-0.7,0-1.1-0.3-1.4-0.6
					c-0.5-0.5-0.7-1.2-0.6-2.2v-0.1c0.5-15.7,5.5-32,9.6-43c0.7-1.9,1-2.7,1.6-4c0.6-1.3,2.5-4.1,3.1-4.7c6.9-7.3,14.6-14,22.9-20
					c-17.6-6.3-36-14.4-50.7-22.5c-0.8-0.5-1.4-1.2-1.6-2c-0.2-0.8,0-1.7,0.5-2.5c3.7-5.7,15.4-16.2,25.7-25.4
					c2.7-2.4,5.3-4.7,7.7-6.9c11.5-10.4,24.7-18.7,37.5-26.7l5.6-3.6c24.9-15.2,52.3-26.3,81.3-33.2c1.7-0.4,6.5-1.2,7.7-1.4
					c2-0.2,4.5-0.3,4.6-0.3c1.2,0,2.2,0,3.1,0c0.5,0,1,0,1.5,0c1.5,0,3.1,0.1,4.9,0.4c3.7,0.8,7.1,1.6,10.1,3.9
					c13.3,10.3,33.8,24.4,55.7,33.6c7.3,3.8,10.6,7.6,9.8,11.1c-0.3,1.5-1.3,2.8-3,4c-4.6,3.5-10.9,5.8-16.4,7.8
					c-4.7,1.7-10.1,3.7-10.1,5.4c0,0.5,0,0.9,0.2,1.2c0.3,1,1.5,2.3,7.1,2.3c2.5,0,5.7-0.2,10.1-0.8c6.9-0.8,13-1.5,17.4-1.5
					c3.9,0,6.1,0.5,7.2,1.6c0.8,0.8,1.4,2.3-0.5,4.8c-0.1,0.1-0.1,0.1-0.1,0.2c-17.4,22.5-42.2,41.1-60,52.8
					c-3.1,2.1-4.4,2.9-6.6,4.1c-2.2,1.2-7.8,3.2-9.3,3.5c-17.4,3.3-35.1,4.9-52.9,4.9l0,0c-6.7,0-13.6-0.2-20.3-0.7
					c-1.3,3.5-2.6,6.9-4,10.2l-1.3,3.2c-6.2,14.8-14.8,28.7-25.5,41.1c-0.6,0.7-2.5,2.7-3,3.1c-0.9,0.8-1.9,1.6-2,1.7
					c-0.6,0.4-1,0.7-1.4,1c-1,0.7-1.9,1.4-3,1.9c-1.9,0.9-3.6,1.6-5.7,1.6h-0.2c-1.7-0.1-3.4-0.1-5.1-0.1c-11.4,0-21.6,1-30.4,3.1
					C332.8,317.5,331.8,317.5,330.8,317.5z M332.4,295.6c0.7,0,1.7,0.2,2.5,1.4c1.1,1.6-0.5,4-2.8,7.4c-1.7,2.6-3.7,5.5-4.6,8.4
					c-0.3,0.8-0.2,1.5,0,1.9c0.6,0.9,2.9,1.1,6.1,0.7c8.8-2.1,19.2-3.2,30.8-3.2c1.7,0,3.5,0,5.2,0.1l0.2,0c1.7,0,3.2-0.6,4.9-1.4
					c1-0.4,1.8-1,2.7-1.7c0.5-0.3,0.9-0.7,1.5-1.1l0,0c0,0,1-0.8,1.8-1.5c0.4-0.4,2.2-2.3,2.8-3c10.5-12.3,19-25.9,25.1-40.5
					l1.3-3.2c1.4-3.6,2.9-7.2,4.2-10.9l0.3-0.7l0.8,0.1c6.9,0.5,14,0.8,20.9,0.8l0,0c17.6,0,35.3-1.6,52.5-4.9
					c1.2-0.2,6.7-2.2,8.7-3.3c2.1-1.1,3.4-1.9,6.4-4c17.6-11.6,42.2-30.1,59.5-52.3c0-0.1,0.1-0.1,0.2-0.3c0.5-0.7,1.1-1.7,0.7-2.1
					c-0.4-0.4-1.6-1-5.8-1c-4.3,0-10.3,0.7-17.2,1.4c-4.5,0.5-7.8,0.8-10.4,0.8c-3.6,0-7.9-0.4-9.1-3.6c-0.2-0.6-0.3-1.2-0.3-2
					c0.1-3,4.8-4.8,11.4-7.2c5.4-2,11.5-4.2,15.9-7.5c1.2-0.9,2-1.9,2.2-2.9c0.6-2.5-2.5-5.7-8.7-8.9c-22-9.3-42.7-23.5-56.1-33.9
					c-2.7-2.1-5.7-2.8-9.3-3.5c-1.6-0.3-3.2-0.4-4.5-0.4c-0.5,0-1,0-1.5,0c-1,0-2,0-3.2,0c0,0-2.4,0.1-4.4,0.3c-1,0.1-5.7,1-7.5,1.3
					c-28.8,6.8-55.9,17.9-80.6,33l-5.6,3.6c-12.7,8-25.8,16.2-37.2,26.5c-2.4,2.2-5,4.5-7.7,6.9c-10.2,9.2-21.8,19.6-25.3,25
					c-0.2,0.3-0.3,0.7-0.2,0.9c0.1,0.3,0.4,0.6,0.6,0.7c15.1,8.3,34.2,16.7,52.2,23l1.9,0.7l-1.6,1.1c-8.8,6.1-16.9,13.1-24.2,20.8
					c-0.5,0.5-2.2,3-2.7,4.2c-0.5,1.1-0.8,1.8-1.5,3.8c-4.1,10.8-9,26.9-9.5,42.3v0.1c0,0.4,0,0.6,0.1,0.7c1.6-0.1,6.4-4.5,9.6-7.5
					C328.3,297.1,330.6,295.6,332.4,295.6z"/>
			</g>
			<g id="XMLID_506_">
				<path id="XMLID_507_" class="st2" d="M558.6,142.4L558.6,142.4c-0.6,0-1.4-0.1-2.2-0.4l-0.2-0.1c-26.7-9.6-52.1-27.4-68.7-40.7
					c-2.9-2.3-4.1-3.3-5.9-5c-1.8-1.7-5.5-6.4-6.2-7.8c-14.7-26.9-24.9-55.8-30.4-86.1l-0.8-4.7c-5-30.6-1.9-72.3,3.3-100
					c0.3-1.6,1.5-2.6,3-2.6c0.3,0,0.6,0,1,0.1c6.5,1.7,20.1,9.6,32.1,16.6c3.1,1.8,6.1,3.6,8.9,5.1c13.5,7.7,25.5,17.7,37.1,27.4
					l5.1,4.2c22.1,19,41.2,41.6,56.7,67c0.8,1.4,3.2,5.7,3.7,6.9c0.8,1.9,1.7,4.2,1.7,4.3c0.3,1.1,0.7,2.1,1,3
					c0.7,2.1,1.3,4,1.6,6.2c0.4,3.8,0.7,7.2-0.6,10.8c-5.6,15.7-12.7,39.4-14.7,63.1c-1.4,8.7-4.1,13.1-8.1,13.1
					c-1.3,0-2.8-0.5-4.3-1.6c-4.8-3.3-8.9-8.6-12.5-13.2c-3.1-3.9-6.3-8-8-8c-0.1,0-0.2,0-0.2,0c-0.9,0.3-1.5,0.7-1.8,1.4
					c-1.2,2.7,1.5,9.3,4.5,16.1c5.8,12.7,9.2,20.7,7.3,23.7C560.6,141.7,559.9,142.4,558.6,142.4z M450.4-103c-0.7,0-0.9,0.6-1,0.9
					c-5.1,26.7-8.3,69.2-3.3,99.3l0.8,4.7c5.5,30,15.7,58.8,30.2,85.5c0.6,1.1,4.1,5.7,5.9,7.3c1.7,1.6,2.7,2.5,5.8,4.9
					c16.5,13.2,41.7,30.9,68.1,40.4l0.3,0.1c0.6,0.2,1.1,0.3,1.5,0.3l0,0c0.5,0,0.6-0.2,0.7-0.3c1.5-2.3-3.7-13.5-7.5-21.7
					c-4.6-10.1-5.9-14.9-4.6-17.7c0.6-1.2,1.6-2,3.1-2.5c0.3-0.1,0.5-0.1,0.8-0.1c2.7,0,5.6,3.7,9.6,8.8c3.5,4.5,7.6,9.7,12.1,12.8
					c1.1,0.8,2.2,1.2,3.1,1.2c3.7,0,5.4-7.1,6.1-11.3c2-23.8,9.2-47.7,14.8-63.5c1.1-3.2,0.9-6.3,0.5-9.9c-0.2-2.1-0.8-3.8-1.5-5.8
					c-0.3-0.9-0.6-1.9-1-3l0,0c0,0-0.8-2.3-1.7-4.1c-0.4-1-2.7-5.2-3.6-6.7C574.1-8.8,555.1-31.2,533.2-50l-5.1-4.2
					c-11.5-9.6-23.4-19.6-36.8-27.2c-2.8-1.6-5.8-3.3-8.9-5.1c-11.9-6.9-25.4-14.7-31.6-16.4C450.6-103,450.5-103,450.4-103z"/>
			</g>
			<g id="XMLID_502_">
				<path id="XMLID_503_" class="st2" d="M628.2,137.1c-4.1,0-6.8-0.9-8.2-2.8c-1.1-1.5-1.3-3.5-0.5-5.9c1.7-5.5,5.4-11.1,8.7-16
					c2.8-4.2,6-8.9,5-10.3c-0.6-0.9-1.3-1.3-2.2-1.3c-3,0-8.5,4.7-13.6,9.3c-9.5,8.7-15.9,14.4-19.5,14.4l0,0
					c-0.8,0-1.4-0.3-1.9-0.8c-0.7-0.7-1-1.8-1-3.4v-0.2c0.9-28.4,10-58.1,17.5-77.9c1.3-3.4,1.8-5,2.9-7.2c1-2.3,4.4-7.2,5.5-8.3
					c21-22.3,45.4-41,72.5-55.6l4.2-2.2c27.5-14.2,68.1-24.2,96.2-27.8c2-0.2,3.4,1.1,3.5,3c0.4,6.7-2.9,22.1-5.9,35.7
					c-0.8,3.5-1.5,6.9-2.1,10c-3.2,15.3-9,29.8-14.7,43.8l-2.4,6c-11.3,26.9-26.8,52-46.2,74.7c-1.2,1.3-4.5,4.8-5.4,5.6
					c-1.5,1.4-3.5,2.9-3.6,3c-1,0.7-1.8,1.3-2.6,1.9c-1.8,1.3-3.4,2.5-5.4,3.4c-3.3,1.5-6.4,2.8-10.1,2.8h-0.4
					c-3.1-0.1-6.3-0.1-9.4-0.1c-20.8,0-39.5,1.9-55.6,5.7C631.7,136.9,629.9,137.1,628.2,137.1z M631.1,98.8c1.6,0,2.8,0.7,3.8,2.2
					c1.7,2.5-1.1,6.7-5,12.6c-3.2,4.8-6.8,10.2-8.5,15.4c-0.6,1.8-0.5,3.2,0.2,4.1c1.4,1.9,5.7,2.5,11.9,1.5c16.1-3.8,35-5.7,56-5.7
					c3.1,0,6.3,0,9.4,0.1h0.3c3.3,0,6-1.1,9.2-2.6c1.9-0.9,3.4-2,5.1-3.2c0.8-0.6,1.6-1.2,2.6-1.9l0,0c0,0,1.9-1.5,3.4-2.8
					c0.8-0.7,4-4.1,5.2-5.5c19.3-22.5,34.7-47.4,45.9-74.1l2.4-6c5.6-14,11.4-28.4,14.5-43.5c0.6-3.1,1.4-6.5,2.1-10.1
					c2.9-13.5,6.2-28.7,5.8-35.2c-0.1-0.8-0.5-1.2-1.3-1.1c-27,3.4-68.3,13.5-95.5,27.6l-4.2,2.2c-26.9,14.5-51.1,33.1-72,55.2
					c-0.9,0.9-4.1,5.6-5.1,7.8c-1,2.1-1.5,3.4-2.9,7c-7.4,19.7-16.5,49.2-17.4,77.3l0,0.2c0,1.4,0.3,1.8,0.4,2c0,0,0.2,0.2,0.5,0.2
					c3.1,0,11.4-7.7,18.1-13.8C624,101.5,628,98.8,631.1,98.8z"/>
			</g>
			<g id="XMLID_498_">
				<path id="XMLID_499_" class="st2" d="M794.2,295.9L794.2,295.9c-9.5,0-19.1-0.6-28.4-1.3l-6.5-0.4c-29.1-2.4-57.8-9.4-85.3-20.9
					c-1.6-0.7-6-2.8-7-3.4c-1.8-1-3.8-2.4-3.9-2.5c-0.9-0.7-1.8-1.3-2.5-1.8c-1.8-1.3-3.4-2.4-5-4.1c-2.6-2.8-4.8-5.4-5.9-9.1
					c-4.8-16.2-13-39.7-25.4-60c-3.2-6.4-3.9-10.9-2.3-13.6c1-1.7,3-2.6,5.7-2.6h0.4c5.7,0,12,1.8,17.5,3.4c4,1.1,7.4,2.1,9.6,2.1
					c0.6,0,1.4-0.1,1.8-0.5c0.6-0.8,0.8-1.4,0.6-2.2c-0.6-2.9-6.7-6.7-13.1-10.3c-12.6-7.1-20.2-11.7-19.8-15.3
					c0.1-1.3,1.2-2.2,3.2-2.8c0.1,0,0.1,0,0.2-0.1c17.8-5.2,39.3-7.8,63.9-7.8c5.2,0,10.4,0.1,15.6,0.4c3.7,0.1,5.3,0.2,7.7,0.6
					c2.5,0.3,8.2,2,9.6,2.7c27.7,13.1,53,30.5,75.3,51.8l3.4,3.3c22,21.8,44.1,57.3,56.1,82.9c0.4,0.8,0.4,1.7,0.1,2.5
					c-0.3,0.8-1,1.4-1.9,1.8c-6.3,2.4-22,4.1-35.9,5.5c-3.5,0.4-7,0.7-10.1,1.1C806.4,295.6,800.6,295.9,794.2,295.9z M664.2,265.9
					c0,0,2,1.4,3.8,2.3c0.9,0.5,5.2,2.6,6.8,3.3c27.3,11.4,55.8,18.4,84.6,20.7l6.5,0.4c9.3,0.6,18.8,1.3,28.3,1.3l0,0
					c6.3,0,12.1-0.3,17.5-0.9c3.1-0.4,6.6-0.7,10.1-1.1c13.7-1.4,29.3-3,35.4-5.3c0.4-0.1,0.6-0.4,0.7-0.6c0.1-0.3,0-0.7-0.1-0.9
					c-11.6-24.6-34-60.8-55.7-82.3l-3.4-3.3c-22.1-21.1-47.2-38.4-74.7-51.4c-1.1-0.5-6.6-2.2-9-2.5c-2.4-0.3-3.9-0.4-7.5-0.5
					c-5.2-0.2-10.4-0.4-15.6-0.4c-24.1,0-46,2.7-63.4,7.7l-0.2,0.1c-1.1,0.3-1.7,0.7-1.8,1.1c-0.3,2.5,11.2,9,18.8,13.3
					c9.7,5.5,13.5,8.6,14.1,11.7c0.3,1.3-0.1,2.6-1,3.8c-0.7,0.9-1.8,1.3-3.4,1.3c-2.5,0-6-1-10.1-2.2c-5.4-1.5-11.5-3.3-16.9-3.3
					l-0.4,0c-2,0-3.3,0.6-4,1.7c-1.2,2-0.4,6.1,2.3,11.6c12.4,20.4,20.7,44.1,25.5,60.4c1,3.3,3,5.7,5.4,8.3
					c1.4,1.5,2.9,2.6,4.7,3.8C662.4,264.6,663.3,265.2,664.2,265.9L664.2,265.9z"/>
			</g>
			<g id="XMLID_494_">
				<path id="XMLID_495_" class="st2" d="M551.5,453.6c-0.9,0-1.8-0.4-2.5-1.2c-4.3-5.2-10.6-19.6-16.2-32.3
					c-1.5-3.3-2.9-6.5-4.2-9.4c-6.4-14.2-10.2-29.4-13.9-44l-1.6-6.3c-6.7-28.4-8.9-57.8-6.5-87.6c0.2-1.7,0.8-6.5,1-7.7
					c0.4-2,1.1-4.4,1.1-4.5c0.4-1.1,0.7-2.1,1-3c0.7-2.2,1.2-4,2.4-6c1.9-3.3,3.7-6.2,6.8-8.4c13.9-9.5,33.8-24.7,49.3-42.7
					c4.4-4.3,8.1-6.5,11-6.5c1.8,0,4.2,0.8,5.5,4.7c1.9,5.5,2.1,12.2,2.3,18.1c0.2,5,0.4,10.7,2,11.3c0.4,0.2,0.8,0.2,1.1,0.2
					c3,0,4.9-6.4,6.8-16c3.2-16.1,5.2-23.6,8.9-23.6c1.1,0,2.2,0.7,3.2,2.2c0.1,0.1,0.1,0.1,0.1,0.2c16,23.4,26,52.8,31.7,73.4
					c1,3.7,1.4,5.2,1.9,7.5c0.5,2.5,0.7,8.4,0.5,10c-3.9,30.4-12.7,59.8-26,87.6l-2.1,4.2c-13.9,27.7-40.9,59.6-61.5,79
					C553,453.3,552.2,453.6,551.5,453.6z M510.7,261.1c0,0-0.7,2.4-1.1,4.3c-0.2,1-0.8,5.7-1,7.5c-2.4,29.5-0.2,58.7,6.5,86.9
					l1.6,6.3c3.7,14.6,7.5,29.6,13.8,43.7c1.3,2.9,2.8,6.1,4.2,9.5c5.6,12.6,11.9,26.8,16,31.8c0.2,0.2,0.5,0.5,0.9,0.5
					c0.3,0,0.5-0.1,0.8-0.4c19.8-18.6,47.3-51.1,61.1-78.4l2.1-4.2c13.2-27.5,21.9-56.8,25.8-86.9c0.2-1.2,0-7-0.4-9.4
					c-0.4-2.3-0.8-3.7-1.8-7.4c-5.6-20.4-15.6-49.5-31.4-72.8l0.8-0.7l-0.8,0.6c-0.9-1.3-1.4-1.4-1.6-1.4c-2.5,0-5.3,13.8-6.9,22
					c-2.3,11.4-4.4,17.6-8.8,17.6c-0.6,0-1.2-0.1-1.8-0.3c-2.9-1-3.1-6.1-3.3-13.1c-0.2-5.7-0.4-12.3-2.2-17.5
					c-1.1-3.4-3-3.4-3.6-3.4c-2.3,0-5.6,2-9.5,5.9c-15.6,18.1-35.6,33.4-49.6,43c-2.8,1.9-4.4,4.5-6.2,7.7c-1,1.8-1.6,3.6-2.2,5.6
					C511.3,259,511,260,510.7,261.1L510.7,261.1z"/>
			</g>
			<g id="XMLID_490_">
				<path id="XMLID_491_" class="st2" d="M594.6,195.9c-1.1,0-1.4-0.5-1.6-6.8c-0.4-12.3-2.3-22.9-3.4-27.9
					c-4.4,2.6-14,7.7-27.1,11.8c-2,0.6-4.7,1.4-5.7,1.4c-1,0-1.2-0.8-1.2-0.9c-0.1-0.8-0.2-1.3,6-3.5c11.4-4.1,20.8-9.1,25.2-11.7
					c-3.9-3.4-11.7-11-19.7-22.2c-3.5-5-3.3-5.4-3-6l0.3-0.5l0.7,0c0.5,0,1,0,4.7,4.7c7.7,9.8,15.5,17.3,19.3,20.8
					c2.1-4.8,6.8-14.7,15.2-25.9c3.5-4.7,4.1-4.7,4.6-4.7h0.6l0.3,0.6c0.3,0.6,0.5,1-3,6.1c-6.8,10.1-11.5,19.7-13.6,24.5
					c5.1,0.5,15.9,2,29,6.4c6.2,2.1,6.1,2.5,5.9,3.4c0,0.2-0.2,0.9-1.3,0.9l0,0c-1,0-3.7-0.7-5.7-1.3c-12-3.4-22.7-4.9-27.9-5.5
					c1,4.6,3.1,15.6,2.9,29.7C596,195.4,595.6,195.9,594.6,195.9z M589.8,158.3l0.3,0.2l0.7-0.4l-0.2-0.7l-0.4,0L589.8,158.3z"/>
			</g>
			<g id="XMLID_486_">
				<path id="XMLID_487_" class="st2" d="M340.7,76.8L340.7,76.8c-3,0-6-0.2-8.9-0.6l-1.1-0.2c-7.1-1.1-16.1-4.7-21.8-7.9
					c-0.4-0.2-0.6-0.5-0.7-0.9c-0.1-0.4,0-0.8,0.2-1.2c0.9-1.4,3.5-3.7,6-6c0.6-0.5,1.2-1.1,1.7-1.6c2.7-2.4,5.7-4.3,8.6-6.2
					l1.3-0.8c5.8-3.5,12.1-6.1,18.8-7.7c0.4-0.1,1.5-0.3,1.8-0.3c0.5-0.1,1.1-0.1,1.1-0.1l0.3,0l0.8,0c0.4,0,0.8,0,1.3,0.1
					c0.9,0.2,1.8,0.4,2.6,1c3,2.3,7.6,5.5,12.6,7.6c0.8,0.4,3.1,1.6,2.7,3.4c-0.1,0.5-0.4,1-1,1.4c-1.2,0.9-2.7,1.4-4,1.9
					c-0.4,0.1-0.9,0.3-1.3,0.5c0.5,0,1.4,0,2.6-0.2c1.6-0.2,3-0.3,4.1-0.3c1.1,0,1.8,0.2,2.2,0.6c0.2,0.2,0.8,0.9,0,2.1l-0.1,0.1
					c-4.1,5.2-9.8,9.5-13.9,12.2c-0.7,0.5-1,0.7-1.6,1c-0.5,0.3-1.9,0.8-2.4,0.9C348.9,76.5,344.8,76.8,340.7,76.8z M310.4,66.7
					c5.4,2.9,14,6.4,20.6,7.4l1.1,0.2c6.8,0.9,13.8,0.7,20.5-0.5c0.2-0.1,1.4-0.5,1.8-0.7c0.4-0.2,0.7-0.4,1.4-0.9
					c3.9-2.5,9.2-6.5,13-11.3c-0.9,0-2.3,0.1-4,0.3c-1.1,0.1-1.8,0.2-2.5,0.2h0c-0.6,0-2.3,0-2.8-1.3c-0.1-0.3-0.1-0.5-0.1-0.8
					c0-1.2,1.4-1.7,3.1-2.3c1.2-0.4,2.5-0.9,3.4-1.6c0.1-0.1,0.2-0.2,0.2-0.2l0,0c0,0-0.2-0.5-1.6-1.2c-5.1-2.1-9.8-5.4-13-7.8
					c-0.5-0.4-1.1-0.5-1.8-0.7c-0.3-0.1-0.6-0.1-0.9-0.1l-0.8,0l-0.3,0c0,0-0.5,0-0.9,0.1c-0.2,0-1.2,0.2-1.6,0.3
					c-6.5,1.5-12.6,4.1-18.2,7.5l-1.3,0.8c-2.8,1.8-5.8,3.7-8.3,6c-0.5,0.5-1.1,1-1.8,1.6C313.8,63.3,311.5,65.4,310.4,66.7z"/>
			</g>
			<g id="XMLID_482_">
				<path id="XMLID_483_" class="st2" d="M368.8,52L368.8,52c-0.2,0-0.5,0-0.8-0.1c-6.3-2.3-12.2-6.4-16-9.5c-0.7-0.5-1-0.8-1.4-1.2
					c-0.5-0.4-1.4-1.6-1.6-2c-3.4-6.2-5.8-12.9-7.1-19.9l-0.2-1.1c-1.2-7.1-0.5-16.7,0.8-23.2c0.2-0.9,1-1.4,1.9-1.2
					C346-5.7,349-4,352-2.3c0.7,0.4,1.4,0.8,2,1.2c3.2,1.8,5.9,4.1,8.6,6.4l1.1,0.9c5.1,4.4,9.5,9.6,13.1,15.5
					c0.2,0.3,0.8,1.4,0.9,1.7c0.2,0.5,0.4,1,0.4,1c0.1,0.3,0.2,0.5,0.2,0.7c0.2,0.5,0.3,1,0.4,1.6c0.1,0.9,0.2,1.8-0.2,2.8
					c-1.3,3.6-2.9,8.9-3.3,14.2c-0.4,2.5-1.3,3.7-2.6,3.7c-0.5,0-0.9-0.2-1.4-0.5c-1.2-0.8-2.2-2.1-3-3.2c-0.3-0.4-0.6-0.8-0.9-1.1
					c0.1,0.5,0.4,1.2,1,2.5c1.6,3.6,2.3,5.2,1.6,6.2C369.7,51.7,369.3,52,368.8,52z M344.4-4c-1.1,6.1-1.7,15.3-0.7,21.9l0.2,1.1
					c1.2,6.8,3.5,13.3,6.8,19.3c0.1,0.2,0.9,1.2,1.2,1.5c0.4,0.4,0.6,0.6,1.3,1.1c3.6,2.9,9,6.7,14.8,8.9c-0.3-1-1.1-2.7-1.5-3.7
					c-1-2.3-1.5-3.7-1-4.7c0.2-0.3,0.5-0.8,1.2-1c0.1,0,0.3-0.1,0.4-0.1c1,0,1.8,1,2.8,2.3c0.8,1,1.7,2.1,2.6,2.8
					c0.2,0.1,0.2,0.1,0.2,0.1c0,0,0.4-0.4,0.6-1.9c0.5-5.5,2.1-11,3.4-14.7c0.2-0.6,0.2-1.2,0.1-1.9c0-0.4-0.2-0.7-0.3-1.1
					c-0.1-0.2-0.2-0.5-0.2-0.7l0,0c0,0-0.2-0.5-0.3-0.8c-0.1-0.2-0.6-1.1-0.8-1.5c-3.5-5.7-7.8-10.8-12.7-15l-1.1-0.9
					c-2.6-2.2-5.3-4.4-8.3-6.2c-0.6-0.4-1.3-0.8-2.1-1.2C348.7-1.8,346-3.4,344.4-4z"/>
			</g>
			<g id="XMLID_478_">
				<path id="XMLID_479_" class="st2" d="M384.7,50.8c-1.2,0-2-0.3-2.5-1c-0.3-0.4-0.5-1-0.2-2.1c0.4-1.4,1.4-2.8,2.1-3.9
					c0.2-0.4,0.5-0.8,0.8-1.2c-0.4,0.3-1,0.7-2,1.7c-2.6,2.4-3.9,3.5-5,3.5l0,0c-0.4,0-0.7-0.1-1-0.4c-0.3-0.3-0.5-0.8-0.4-1.3
					c0.2-6.6,2.3-13.5,4.1-18.1c0.3-0.8,0.4-1.2,0.7-1.7c0.3-0.6,1.1-1.8,1.4-2.1c4.9-5.1,10.5-9.5,16.8-12.9l1-0.5
					c6.4-3.3,15.8-5.6,22.3-6.4l0.2,0c0.8,0,1.4,0.6,1.5,1.4c0.1,1.7-0.7,5.1-1.4,8.4c-0.2,0.8-0.3,1.5-0.5,2.2
					c-0.7,3.6-2.1,6.9-3.4,10.1l-0.5,1.4c-2.6,6.3-6.2,12.1-10.7,17.3c-0.2,0.3-1.1,1.1-1.3,1.4c-0.4,0.3-0.9,0.7-0.9,0.7
					c-0.3,0.2-0.4,0.3-0.6,0.4c-0.4,0.3-0.8,0.6-1.4,0.9c-0.8,0.4-1.6,0.7-2.6,0.7h-0.1c-0.6,0-1.3,0-2.1,0c-4.7,0-9,0.4-12.6,1.3
					C385.6,50.7,385.1,50.8,384.7,50.8z M383.9,48.6c0,0,0.3,0.1,0.8,0.1c0.3,0,0.7,0,1.1-0.1c3.7-0.9,8.1-1.3,13-1.3
					c0.8,0,1.5,0,2.1,0l0,0c0.7,0,1.2-0.2,1.8-0.5c0.3-0.2,0.6-0.4,1-0.6c0.2-0.1,0.4-0.3,0.6-0.5l0,0c0,0,0.4-0.3,0.7-0.6
					c0.2-0.1,0.9-0.9,1.2-1.2c4.3-5,7.8-10.7,10.4-16.7l0.5-1.4c1.3-3.2,2.6-6.4,3.3-9.8c0.1-0.7,0.3-1.5,0.5-2.3
					c0.6-2.6,1.2-5.7,1.3-7.3c-6.1,0.8-15.1,3.1-21,6.2l-1,0.5c-6.1,3.3-11.5,7.5-16.3,12.5c-0.2,0.2-0.8,1.2-1,1.6
					c-0.2,0.5-0.3,0.8-0.6,1.5c-1.6,4.3-3.6,10.7-3.9,16.8c0.8-0.6,2.2-1.9,3-2.6c2-1.8,3-2.5,4-2.5c0.6,0,1.1,0.3,1.5,0.8
					c0.7,1-0.1,2.2-1.1,3.7c-0.7,1-1.5,2.2-1.8,3.3C383.9,48.5,383.9,48.6,383.9,48.6L383.9,48.6z"/>
			</g>
			<g id="XMLID_474_">
				<path id="XMLID_475_" class="st2" d="M422.7,87.1L422.7,87.1c-2.2,0-4.4-0.1-6.5-0.3l-1.5-0.1c-6.7-0.6-13.4-2.2-19.8-4.8
					c-0.3-0.2-1.4-0.7-1.7-0.8c-0.4-0.3-1-0.6-1-0.6c-0.2-0.2-0.4-0.3-0.6-0.4c-0.5-0.3-0.9-0.6-1.3-1.1c-0.6-0.7-1.2-1.4-1.5-2.4
					c-1.1-3.7-2.9-9-5.7-13.6c-0.9-1.8-1.1-3.1-0.5-3.9c0.3-0.4,0.8-1,2-1h0.1c1.4,0,2.9,0.4,4.2,0.8c0.5,0.1,1,0.3,1.4,0.4
					c-0.4-0.3-1-0.7-2.2-1.4c-3.4-1.9-5.1-2.9-4.9-4.3c0-0.3,0.3-1,1.2-1.3l0.1,0c4.1-1.2,9.1-1.8,14.8-1.8c1.2,0,2.4,0,3.6,0.1
					c0.9,0,1.2,0.1,1.8,0.1c0.7,0.1,2,0.5,2.4,0.7c6.4,3,12.3,7.1,17.4,12l0.8,0.8c5.1,5,10.2,13.3,13,19.2c0.2,0.4,0.2,0.8,0,1.2
					c-0.2,0.4-0.5,0.7-0.9,0.8c-1.5,0.6-5,1-8.4,1.3c-0.8,0.1-1.6,0.2-2.3,0.2C425.6,87,424.2,87.1,422.7,87.1z M393.4,78.8
					c0,0,0.4,0.3,0.8,0.5c0.2,0.1,1.1,0.5,1.5,0.7c6.1,2.6,12.6,4.1,19.1,4.7l1.5,0.1c2.1,0.1,4.3,0.3,6.4,0.3l0,0
					c1.4,0,2.7-0.1,3.9-0.2c0.7-0.1,1.5-0.2,2.3-0.2c2.6-0.3,5.8-0.6,7.4-1c-2.7-5.5-7.6-13.4-12.3-18.1l-0.8-0.8
					c-5-4.8-10.7-8.7-16.9-11.6c-0.2-0.1-1.4-0.4-1.8-0.5c-0.5-0.1-0.8-0.1-1.7-0.1c-1.2-0.1-2.4-0.1-3.5-0.1
					c-5.1,0-9.8,0.5-13.6,1.6c0.8,0.6,2.4,1.5,3.4,2.1c2.2,1.2,3.4,2.1,3.6,3.2c0.1,0.4,0.1,0.9-0.4,1.5c-0.2,0.3-0.6,0.6-1.4,0.6
					c-0.7,0-1.5-0.2-2.5-0.5c-1.2-0.3-2.5-0.7-3.7-0.7c-0.3,0-0.3,0-0.4,0c0,0-0.1,0.5,0.6,1.9c2.8,4.7,4.8,10.2,5.9,14
					c0.2,0.5,0.5,1,1.1,1.6c0.3,0.3,0.6,0.5,1,0.8C393,78.5,393.2,78.7,393.4,78.8L393.4,78.8z"/>
			</g>
			<g id="XMLID_470_">
				<path id="XMLID_471_" class="st2" d="M367.1,123.2L367.1,123.2c-0.5,0-0.9-0.2-1.2-0.6c-1-1.3-2.4-4.5-3.8-7.5
					c-0.3-0.8-0.7-1.5-1-2.2c-1.5-3.3-2.4-6.8-3.2-10.2l-0.4-1.4c-1.6-6.6-2.1-13.4-1.5-20.3c0.1-0.4,0.2-1.5,0.3-1.8
					c0.1-0.5,0.3-1.1,0.3-1.1c0.1-0.3,0.2-0.5,0.2-0.7c0.2-0.5,0.3-1,0.6-1.5c0.5-0.8,0.9-1.6,1.8-2.2c3.2-2.2,7.6-5.6,11.1-9.6
					c1.2-1.2,2.2-1.8,3.1-1.8c0.4,0,1.5,0.2,2,1.6c0.5,1.4,0.5,3,0.6,4.4c0,0.4,0,1,0.1,1.4c0.2-0.4,0.4-1.2,0.7-2.5
					c0.8-4.1,1.3-6,2.8-6c0.5,0,1,0.3,1.3,0.8l0.1,0.1c3.7,5.4,6,12.2,7.3,17c0.2,0.8,0.3,1.2,0.4,1.8c0.1,0.6,0.2,2.1,0.1,2.5
					c-0.9,7-2.9,13.9-6,20.3l-0.5,1c-3.2,6.4-9.5,13.8-14.2,18.3C367.9,123.1,367.5,123.2,367.1,123.2z M358.5,78.6
					c0,0-0.1,0.5-0.2,0.9c0,0.2-0.2,1.2-0.2,1.6c-0.5,6.6,0,13.2,1.5,19.6l0.4,1.4c0.8,3.3,1.7,6.7,3.1,9.9c0.3,0.7,0.6,1.4,1,2.2
					c1,2.4,2.3,5.3,3.2,6.6c4.4-4.3,10.4-11.3,13.4-17.3l0.5-1c3-6.2,4.9-12.8,5.8-19.6c0-0.3,0-1.5-0.1-1.9
					c-0.1-0.5-0.2-0.8-0.4-1.6c-1.2-4.5-3.4-10.8-6.7-15.9c-0.3,1-0.7,2.8-0.9,3.9c-0.5,2.6-1.1,4.7-2.8,4.7c-0.2,0-0.5,0-0.7-0.1
					c-1.2-0.4-1.2-1.9-1.3-3.7c0-1.3-0.1-2.7-0.5-3.8c-0.1-0.2-0.1-0.3-0.1-0.3c0,0-0.5,0-1.6,1.1c-3.6,4.2-8.2,7.7-11.5,9.9
					c-0.5,0.4-0.8,0.9-1.2,1.5c-0.2,0.3-0.3,0.7-0.4,1.1C358.7,78.1,358.6,78.4,358.5,78.6L358.5,78.6z"/>
			</g>
			<g id="XMLID_468_">
				<path id="XMLID_469_" class="st2" d="M377,64.2c-1.1,0-1.1-1.1-1.2-2.3c-0.1-2.1-0.3-3.9-0.6-5.2c-1.2,0.6-3.1,1.5-5.4,2.2
					c-1.1,0.3-1.4,0.4-1.5,0.4h0h-0.8l-0.2-0.8c-0.2-0.9,0.7-1.2,1.9-1.7c1.9-0.7,3.6-1.5,4.7-2.1c-1-1-2.4-2.5-3.8-4.5
					c-0.7-1.1-1.1-1.6-0.7-2.2l0.3-0.5l0.6,0c0.5,0,0.8,0.3,1.7,1.4c1.3,1.7,2.6,3,3.6,3.9c0.6-1.3,1.6-3.1,3.1-5.1
					c0.8-1.1,1.1-1.4,1.7-1.4h0.6l0.3,0.5c0.3,0.6,0,1.1-0.7,2.2c-1.2,1.7-2,3.4-2.6,4.5c1.4,0.2,3.4,0.6,5.7,1.4
					c1.2,0.4,2,0.7,1.9,1.6l-0.1,0.8l-0.9,0c-0.1,0-0.4,0-1.5-0.3c-2-0.6-3.9-0.9-5.2-1.1c0.2,1.3,0.5,3.4,0.5,5.9
					C378.1,63.1,378.1,64.2,377,64.2z"/>
			</g>
			<g id="XMLID_464_">
				<path id="XMLID_465_" class="st2" d="M225.4,380.1L225.4,380.1c-7.1,0-14.2-0.5-21.2-1.4l-2.6-0.4
					c-16.9-2.6-38.2-11.3-51.8-18.8c-0.6-0.3-1-0.8-1.1-1.4c-0.1-0.6,0-1.2,0.3-1.8c2-3.2,8.5-9,14.2-14.1c1.5-1.3,2.9-2.6,4.2-3.8
					c6.3-5.7,13.5-10.2,20.4-14.6l3.3-2.1c13.7-8.4,28.8-14.5,44.8-18.3c0.9-0.2,3.6-0.7,4.3-0.8c1.1-0.1,2.5-0.2,2.6-0.2
					c0.7,0,1.2,0,1.7,0l0.8,0c0.8,0,1.8,0,2.8,0.2c2.1,0.4,4,0.9,5.7,2.2c7.3,5.6,18.5,13.4,30.5,18.4c4.3,2.2,6.1,4.4,5.7,6.6
					c-0.2,0.9-0.8,1.7-1.8,2.5c-2.6,2-6.1,3.2-9.1,4.3c-2,0.7-5.1,1.9-5.3,2.5c0,0.2,0,0.4,0.1,0.5c0.2,0.6,1.4,0.9,3.5,0.9
					c1.4,0,3.1-0.1,5.5-0.4c3.8-0.4,7.2-0.8,9.6-0.8c2.2,0,3.6,0.3,4.3,1c0.5,0.5,1.1,1.5-0.2,3.2l-0.1,0.1
					c-9.6,12.4-23.3,22.6-33,29c-1.7,1.1-2.4,1.6-3.7,2.3c-1.2,0.7-4.4,1.8-5.3,2C244.9,379.2,235.1,380.1,225.4,380.1z
					 M242.7,304.7c0,0-1.3,0-2.4,0.2c-0.6,0.1-3.1,0.5-4.1,0.7c-15.7,3.7-30.6,9.8-44.1,18l-3.3,2.1c-6.9,4.3-14,8.8-20.1,14.4
					c-1.3,1.2-2.7,2.5-4.2,3.8c-5.6,5-12,10.7-13.9,13.7c-0.1,0.1-0.1,0.2-0.1,0.2c0,0,0,0,0.1,0.1c13,7.2,34.6,16,51.1,18.5
					l2.5,0.4c6.9,0.9,13.9,1.4,20.9,1.4l0,0c9.6,0,19.3-0.9,28.7-2.7c0.6-0.1,3.6-1.2,4.7-1.8c1.1-0.6,1.7-1,3.5-2.2
					c9.7-6.3,23.1-16.4,32.5-28.6l0.1-0.1c0.2-0.3,0.3-0.5,0.3-0.6c-0.2-0.1-0.8-0.4-2.8-0.4c-2.3,0-5.6,0.4-9.4,0.8
					c-2.5,0.3-4.3,0.4-5.7,0.4c-2.1,0-4.7-0.3-5.4-2.3c-0.1-0.4-0.2-0.8-0.2-1.3c0.1-2,2.8-3,6.6-4.4c2.9-1.1,6.3-2.3,8.6-4.1
					c0.6-0.4,0.9-0.9,1-1.3c0.2-1.1-1.5-2.8-4.6-4.4c-12.1-5.1-23.5-12.9-30.9-18.6c-1.4-1.1-3-1.5-4.9-1.9
					c-0.8-0.2-1.5-0.2-2.4-0.2l-0.8,0C243.9,304.7,243.4,304.7,242.7,304.7z"/>
			</g>
			<g id="XMLID_460_">
				<path id="XMLID_461_" class="st2" d="M292.6,320.4L292.6,320.4c-0.4,0-0.8-0.1-1.4-0.3c-0.1,0-0.1,0-0.2-0.1
					c-14.6-5.3-28.6-15.1-37.8-22.4c-1.6-1.2-2.3-1.8-3.3-2.8c-1-0.9-3.1-3.6-3.5-4.4c-8.1-14.8-13.7-30.8-16.8-47.4l-0.4-2.6
					c-2.8-16.8-1.1-39.8,1.8-55.1c0.2-1.3,1.5-2,2.7-1.7c3.6,1,10.8,5.1,17.7,9.1c1.7,1,3.4,2,4.9,2.8c7.4,4.3,14,9.8,20.4,15.1
					l2.8,2.3c12.2,10.5,22.7,22.9,31.2,36.9c0.5,0.9,1.8,3.2,2,3.8c0.5,1,1,2.3,1,2.4c0.2,0.7,0.4,1.2,0.5,1.7
					c0.4,1.1,0.7,2.2,0.9,3.5c0.2,2.1,0.4,4.1-0.3,6.1c-3.1,8.6-6.9,21.6-8,34.5c-0.8,5.1-2.5,7.6-4.9,7.6c-0.8,0-1.7-0.3-2.6-1
					c-2.7-1.9-4.9-4.8-6.9-7.4c-1.4-1.8-3.3-4.2-4-4.2c-0.5,0.1-0.6,0.3-0.7,0.5c-0.6,1.3,1,5.2,2.5,8.4c3.6,7.8,5.1,11.7,4,13.4
					C293.9,320.1,293.3,320.4,292.6,320.4z M233.2,185.7c-0.1,0-0.1,0-0.1,0.1c-2.8,14.6-4.5,37.9-1.8,54.4l0.4,2.5
					c3,16.4,8.6,32.2,16.5,46.8c0.3,0.6,2.2,3.1,3.1,3.9c0.9,0.9,1.5,1.4,3.2,2.7c9,7.2,22.9,16.9,37.3,22.1l-0.2,1l0.3-1
					c0.4,0.1,0.6,0.2,0.7,0.2l0,0h0c0.5-1.3-2.5-7.9-4.2-11.4c-2.6-5.8-3.3-8.4-2.5-10.1c0.4-0.8,1-1.3,2-1.6
					c0.2-0.1,0.4-0.1,0.6-0.1c1.7,0,3.4,2.1,5.6,5c1.9,2.5,4.1,5.2,6.5,7c0.6,0.4,1,0.6,1.4,0.6c1.2,0,2.3-2.2,2.9-5.9
					c1.1-13.1,5-26.2,8.2-34.9c0.6-1.7,0.5-3.3,0.2-5.2c-0.1-1.1-0.4-2-0.8-3.1c-0.2-0.5-0.4-1.1-0.5-1.7v0c0,0-0.5-1.2-0.9-2.2
					c-0.2-0.5-1.4-2.7-1.9-3.6c-8.4-13.8-18.8-26.1-30.8-36.4l-2.8-2.3c-6.3-5.3-12.8-10.7-20.1-14.9c-1.5-0.9-3.2-1.8-4.9-2.8
					c-6.5-3.8-13.9-8-17.2-8.9C233.3,185.7,233.2,185.7,233.2,185.7z"/>
			</g>
			<g id="XMLID_456_">
				<path id="XMLID_457_" class="st2" d="M422,404.7c-5.3,0-10.6-0.4-15.8-0.7l-3.4-0.2c-16-1.3-31.8-5.2-47-11.5
					c-0.9-0.4-3.3-1.6-3.9-1.9c-1-0.6-2.2-1.3-2.2-1.4c-0.5-0.4-1-0.7-1.4-1c-1-0.7-1.9-1.4-2.8-2.3c-1.4-1.6-2.7-3-3.3-5.2
					c-2.6-8.9-7.1-21.8-13.9-32.9c-1.9-3.7-2.2-6.3-1.2-7.9c0.7-1.1,1.8-1.6,3.5-1.7h0.2c3.2,0,6.7,1,9.7,1.9c2.1,0.6,4,1.1,5.1,1.1
					c0.5,0,0.6-0.1,0.6-0.1c0.3-0.4,0.3-0.6,0.3-0.8c-0.3-1.4-3.9-3.6-7-5.4c-7.9-4.5-11.4-6.6-11.1-8.8c0.1-0.9,0.8-1.6,2.1-1.9
					c9.9-2.9,21.8-4.3,35.3-4.3c2.8,0,5.8,0.1,8.6,0.2c2.1,0.1,3,0.1,4.3,0.3c1.4,0.2,4.6,1.1,5.4,1.5c15.2,7.2,29.2,16.8,41.4,28.5
					l1.9,1.8c12.1,12,24.3,31.6,30.9,45.6c0.3,0.6,0.3,1.2,0.1,1.7c-0.2,0.6-0.7,1-1.3,1.2c-3.5,1.4-12.2,2.2-19.8,3
					c-2,0.2-3.9,0.4-5.6,0.6C428.7,404.6,425.5,404.7,422,404.7z M350.8,387.4c0,0,1.1,0.7,2,1.3c0.5,0.3,2.8,1.4,3.7,1.8
					c14.9,6.2,30.5,10,46.3,11.3l3.4,0.2c5.1,0.3,10.4,0.7,15.7,0.7c3.5,0,6.6-0.2,9.6-0.5c1.7-0.2,3.6-0.4,5.6-0.6
					c7.5-0.8,16-1.6,19.2-2.9c0.1,0,0.1-0.1,0.1-0.1c0,0,0-0.1,0-0.1c-6.3-13.5-18.6-33.3-30.5-45.1l-1.8-1.8
					c-12.1-11.5-25.9-21-40.9-28.1c-0.6-0.3-3.6-1.2-4.8-1.3c-1.3-0.2-2-0.2-4.1-0.3c-2.9-0.1-5.7-0.2-8.5-0.2
					c-13.2,0-25.2,1.5-34.7,4.2c-0.5,0.1-0.6,0.2-0.7,0.3c0.4,1.3,6.7,4.9,10.1,6.8c5.5,3.1,7.6,4.9,8,6.7c0.2,0.8,0,1.7-0.6,2.4
					c-0.5,0.6-1.2,0.9-2.2,0.9c-1.4,0-3.4-0.6-5.7-1.2c-2.9-0.8-6.2-1.8-9.2-1.8h-0.2c-0.9,0-1.5,0.2-1.8,0.7
					c-0.3,0.4-0.7,1.9,1.3,5.9c6.8,11.2,11.4,24.3,14,33.3c0.5,1.7,1.6,3,2.9,4.4c0.7,0.8,1.5,1.3,2.5,2
					C349.9,386.7,350.3,387,350.8,387.4L350.8,387.4z"/>
			</g>
			<g id="XMLID_452_">
				<path id="XMLID_453_" class="st2" d="M288.7,491.3L288.7,491.3c-0.7,0-1.3-0.3-1.7-0.9c-2.4-2.9-5.7-10.5-9-17.8
					c-0.8-1.8-1.6-3.6-2.3-5.2c-3.5-7.9-5.6-16.2-7.7-24.3l-0.9-3.4c-3.7-15.6-4.9-31.9-3.6-48.2c0.1-1,0.5-3.6,0.6-4.3
					c0.2-1.1,0.6-2.4,0.6-2.5c0.2-0.6,0.4-1.1,0.5-1.6c0.4-1.2,0.7-2.3,1.4-3.4c1.1-1.9,2.1-3.5,3.9-4.8c7.6-5.2,18.5-13.5,27-23.4
					c2.5-2.5,4.7-3.7,6.4-3.7c1.1,0,2.6,0.5,3.4,2.9c1.1,3.1,1.2,6.8,1.3,10c0.1,2.2,0.2,5.4,0.8,5.8c0.2,0.1,0.3,0.1,0.5,0.1
					c1.4,0,2.5-4.5,3.3-8.4c1.9-9.3,2.9-13.3,5.3-13.3c1.2,0,1.9,1.1,2.1,1.4l0.1,0.1c8.8,12.9,14.4,29.1,17.5,40.4
					c0.6,2,0.8,2.8,1,4.2c0.3,1.4,0.4,4.7,0.3,5.6c-2.2,16.7-7,32.9-14.3,48.2l-1.2,2.3c-7.6,15.2-22.5,32.8-33.8,43.5
					C289.8,491.1,289.2,491.3,288.7,491.3z M266.7,385.3c0,0-0.4,1.3-0.6,2.3c-0.1,0.5-0.5,3.1-0.6,4.1c-1.3,16.1-0.1,32.1,3.5,47.6
					l0.9,3.4c2,8,4.1,16.3,7.6,24c0.7,1.6,1.5,3.4,2.3,5.2c3,6.9,6.5,14.6,8.7,17.4c0.1,0.1,0.1,0.2,0.3,0
					c10.8-10.2,25.9-28,33.4-42.9l1.2-2.3c7.2-15.1,12-31.1,14.1-47.6c0.1-0.7,0-3.8-0.2-5c-0.2-1.2-0.4-1.9-1-4
					c-3.1-11.2-8.5-27.1-17.2-39.8l-0.1-0.1c-0.2-0.3-0.3-0.4-0.4-0.5c-1.2,0.8-2.6,7.9-3.4,11.7c-1.3,6.5-2.5,10-5.3,10
					c-0.4,0-0.8-0.1-1.2-0.2c-1.9-0.7-2-3.6-2.1-7.6c-0.1-3.1-0.2-6.7-1.2-9.5c-0.5-1.5-1.3-1.5-1.5-1.5c-0.7,0-2.2,0.4-4.9,3.1
					c-8.5,9.9-19.6,18.3-27.3,23.6c-1.5,1-2.3,2.4-3.3,4.1c-0.5,0.9-0.8,1.9-1.2,3C267.1,384.2,266.9,384.7,266.7,385.3L266.7,385.3
					z"/>
			</g>
			<g id="XMLID_450_">
				<path id="XMLID_451_" class="st2" d="M312.4,349.8c-1.2,0-1.3-1.1-1.4-4.2c-0.2-6.3-1.1-11.7-1.7-14.6
					c-2.7,1.5-7.7,4.1-14.4,6.2c-2.5,0.8-3.1,0.8-3.2,0.8c-0.7,0-1-0.4-1.1-0.9c-0.2-1,0.6-1.4,3.6-2.4c5.8-2.1,10.6-4.6,13.2-6.1
					c-2.3-2-6.3-6.1-10.4-11.9c-2-2.8-2-3.2-1.7-3.7l0.3-0.5l0.6,0c0.5,0,0.8,0,2.9,2.8c3.9,5,7.9,8.9,10.1,10.9
					c1.2-2.6,3.8-7.9,8.1-13.7c2.1-2.8,2.4-2.8,2.9-2.8h0.6l0.3,0.5c0.3,0.5,0.3,0.9-1.6,3.8c-3.5,5.2-5.9,10.1-7.2,12.8
					c3,0.3,8.7,1.2,15.4,3.5c3,1,3.7,1.4,3.6,2.4c-0.1,0.4-0.5,0.9-1.1,0.9l0,0c-0.2,0-0.7,0-3.3-0.7c-6.1-1.7-11.6-2.6-14.6-2.9
					c0.6,2.8,1.6,8.6,1.5,15.8C313.6,348.6,313.6,349.8,312.4,349.8z"/>
			</g>
		</g>
	</g>
</g>
</svg>
